<svg width="1920" height="1456" viewBox="0 0 1920 1456" fill="none" xmlns="http://www.w3.org/2000/svg">
<path fill-rule="evenodd" clip-rule="evenodd" d="M1124.02 496.661C1127.59 496.661 1130.88 498.032 1133.35 500.5C1135.82 502.968 1137.19 506.259 1137.19 509.824C1137.19 513.39 1135.82 516.681 1133.35 519.149C1130.88 521.617 1127.59 522.988 1124.02 522.988C1120.46 522.988 1117.17 521.617 1114.7 519.149C1112.23 516.681 1110.86 513.39 1110.86 509.824C1110.86 506.259 1112.23 502.968 1114.7 500.5C1117.17 498.032 1120.46 496.661 1124.02 496.661ZM1131.43 502.42C1129.51 500.5 1126.77 499.403 1124.02 499.403C1121.01 499.403 1118.54 500.5 1116.62 502.42C1114.7 504.339 1113.6 507.082 1113.6 509.824C1113.6 512.841 1114.7 515.309 1116.62 517.229C1118.54 519.149 1121.28 520.246 1124.02 520.246C1127.04 520.246 1129.51 519.149 1131.43 517.229C1133.35 515.309 1134.45 512.841 1134.45 509.824C1134.72 506.808 1133.35 504.339 1131.43 502.42ZM533.76 539.443C537.326 539.443 540.617 540.814 543.086 543.282C545.554 545.751 546.926 549.042 546.926 552.607C546.926 556.172 545.554 559.463 543.086 561.931C540.617 564.399 537.326 565.771 533.76 565.771C530.194 565.771 526.903 564.399 524.434 561.931C521.966 559.463 520.594 556.172 520.594 552.607C520.594 549.042 521.966 545.751 524.434 543.282C526.903 540.814 530.194 539.443 533.76 539.443ZM541.166 545.202C539.246 543.282 536.503 542.185 533.76 542.185C530.743 542.185 528.274 543.282 526.354 545.202C524.434 547.122 523.337 549.864 523.337 552.607C523.337 555.624 524.434 558.092 526.354 560.011C528.274 561.931 531.017 563.028 533.76 563.028C536.777 563.028 539.246 561.931 541.166 560.011C543.086 558.092 544.183 555.624 544.183 552.607C544.183 549.59 543.086 547.122 541.166 545.202ZM1866.24 331.564C1869.81 331.564 1873.1 332.935 1875.57 335.404C1878.03 337.872 1879.41 341.163 1879.41 344.728C1879.41 348.293 1878.03 351.584 1875.57 354.052C1873.1 356.521 1869.81 357.892 1866.24 357.892C1862.67 357.892 1859.38 356.521 1856.91 354.052C1854.45 351.584 1853.07 348.293 1853.07 344.728C1853.07 341.163 1854.45 337.872 1856.91 335.404C1859.38 333.21 1862.67 331.564 1866.24 331.564ZM1873.65 337.323C1871.73 335.404 1868.98 334.307 1866.24 334.307C1863.22 334.307 1860.75 335.404 1858.83 337.323C1856.91 339.243 1855.82 341.985 1855.82 344.728C1855.82 347.745 1856.91 350.213 1858.83 352.133C1860.75 354.052 1863.5 355.149 1866.24 355.149C1869.26 355.149 1871.73 354.052 1873.65 352.133C1875.57 350.213 1876.66 347.745 1876.66 344.728C1876.94 341.985 1875.57 339.243 1873.65 337.323ZM960.549 924.211C964.114 924.211 967.406 925.582 969.874 928.05C972.343 930.518 973.714 933.81 973.714 937.375C973.714 940.94 972.343 944.231 969.874 946.699C967.406 949.167 964.114 950.539 960.549 950.539C956.983 950.539 953.691 949.167 951.223 946.699C948.754 944.231 947.383 940.94 947.383 937.375C947.383 933.81 948.754 930.518 951.223 928.05C953.417 925.582 956.709 924.211 960.549 924.211ZM967.954 929.97C966.034 928.05 963.292 926.953 960.549 926.953C957.531 926.953 955.063 928.05 953.143 929.97C951.223 931.89 950.126 934.632 950.126 937.375C950.126 940.391 951.223 942.86 953.143 944.779C955.063 946.699 957.806 947.796 960.549 947.796C963.566 947.796 966.034 946.699 967.954 944.779C969.874 942.86 970.971 940.391 970.971 937.375C970.971 934.632 969.874 931.89 967.954 929.97ZM393.874 345.551C397.44 345.551 400.731 346.922 403.2 349.39C405.669 351.858 407.04 355.149 407.04 358.715C407.04 362.28 405.669 365.571 403.2 368.039C400.731 370.507 397.44 371.878 393.874 371.878C390.309 371.878 387.017 370.507 384.549 368.039C382.08 365.571 380.709 362.28 380.709 358.715C380.709 355.149 382.08 351.858 384.549 349.39C387.017 347.196 390.309 345.551 393.874 345.551ZM401.28 351.31C399.36 349.39 396.617 348.293 393.874 348.293C390.857 348.293 388.389 349.39 386.469 351.31C384.549 353.23 383.451 355.972 383.451 358.715C383.451 361.731 384.549 364.199 386.469 366.119C388.389 368.039 390.857 369.136 393.874 369.136C396.891 369.136 399.36 368.039 401.28 366.119C403.2 364.199 404.297 361.731 404.297 358.715C404.571 355.972 403.2 353.23 401.28 351.31ZM1331.38 836.726C1334.95 836.726 1338.24 838.097 1340.71 840.566C1343.18 843.034 1344.55 846.325 1344.55 849.89C1344.55 853.455 1343.18 856.746 1340.71 859.214C1338.24 861.683 1334.95 863.054 1331.38 863.054C1327.82 863.054 1324.53 861.683 1322.06 859.214C1319.59 856.746 1318.22 853.455 1318.22 849.89C1318.22 846.325 1319.59 843.034 1322.06 840.566C1324.53 838.372 1327.82 836.726 1331.38 836.726ZM1338.79 842.485C1336.87 840.566 1334.13 839.469 1331.38 839.469C1328.37 839.469 1325.9 840.566 1323.98 842.485C1322.06 844.405 1320.96 847.148 1320.96 849.89C1320.96 852.907 1322.06 855.375 1323.98 857.295C1325.9 859.214 1328.64 860.311 1331.38 860.311C1334.4 860.311 1336.87 859.214 1338.79 857.295C1340.71 855.375 1341.81 852.907 1341.81 849.89C1342.08 847.148 1340.71 844.405 1338.79 842.485ZM1069.99 1206.41C1073.55 1206.41 1076.85 1207.78 1079.31 1210.25C1081.78 1212.72 1083.15 1216.01 1083.15 1219.57C1083.15 1223.14 1081.78 1226.43 1079.31 1228.9C1076.85 1231.37 1073.55 1232.74 1069.99 1232.74C1066.42 1232.74 1063.13 1231.37 1060.66 1228.9C1058.19 1226.43 1056.82 1223.14 1056.82 1219.57C1056.82 1216.01 1058.19 1212.72 1060.66 1210.25C1063.13 1207.78 1066.42 1206.41 1069.99 1206.41ZM1077.39 1212.17C1075.47 1210.25 1072.73 1209.15 1069.99 1209.15C1066.97 1209.15 1064.5 1210.25 1062.58 1212.17C1060.66 1214.09 1059.57 1216.83 1059.57 1219.57C1059.57 1222.59 1060.66 1225.06 1062.58 1226.98C1064.5 1228.9 1067.25 1230 1069.99 1230C1073.01 1230 1075.47 1228.9 1077.39 1226.98C1079.31 1225.06 1080.41 1222.59 1080.41 1219.57C1080.41 1216.56 1079.31 1214.09 1077.39 1212.17ZM1633.37 1059.96C1636.94 1059.96 1640.23 1061.33 1642.7 1063.8C1645.17 1066.27 1646.54 1069.56 1646.54 1073.13C1646.54 1076.69 1645.17 1079.98 1642.7 1082.45C1640.23 1084.92 1636.94 1086.29 1633.37 1086.29C1629.81 1086.29 1626.51 1084.92 1624.05 1082.45C1621.58 1079.98 1620.21 1076.69 1620.21 1073.13C1620.21 1069.56 1621.58 1066.27 1624.05 1063.8C1626.51 1061.33 1629.81 1059.96 1633.37 1059.96ZM1640.78 1065.72C1638.86 1063.8 1636.11 1062.71 1633.37 1062.71C1630.35 1062.71 1627.89 1063.8 1625.97 1065.72C1624.05 1067.64 1622.95 1070.38 1622.95 1073.13C1622.95 1076.14 1624.05 1078.61 1625.97 1080.53C1627.89 1082.45 1630.63 1083.55 1633.37 1083.55C1636.39 1083.55 1638.86 1082.45 1640.78 1080.53C1642.7 1078.61 1643.79 1076.14 1643.79 1073.13C1643.79 1070.11 1642.7 1067.64 1640.78 1065.72ZM1345.1 397.383C1348.66 397.383 1351.95 398.754 1354.42 401.223C1356.89 403.691 1358.26 406.982 1358.26 410.547C1358.26 414.112 1356.89 417.403 1354.42 419.871C1351.95 422.34 1348.66 423.711 1345.1 423.711C1341.53 423.711 1338.24 422.34 1335.77 419.871C1333.3 417.403 1331.93 414.112 1331.93 410.547C1331.93 406.982 1333.3 403.691 1335.77 401.223C1337.97 399.029 1341.26 397.383 1345.1 397.383ZM1352.5 403.142C1350.58 401.223 1347.84 400.126 1345.1 400.126C1342.08 400.126 1339.61 401.223 1337.69 403.142C1335.77 405.062 1334.67 407.805 1334.67 410.547C1334.67 413.564 1335.77 416.032 1337.69 417.952C1339.61 419.871 1342.35 420.968 1345.1 420.968C1348.11 420.968 1350.58 419.871 1352.5 417.952C1354.42 416.032 1355.52 413.564 1355.52 410.547C1355.52 407.805 1354.42 405.062 1352.5 403.142ZM698.331 1098.36C701.897 1098.36 705.189 1099.73 707.657 1102.2C710.126 1104.67 711.497 1107.96 711.497 1111.52C711.497 1115.09 710.126 1118.38 707.657 1120.85C705.189 1123.31 701.897 1124.69 698.331 1124.69C694.766 1124.69 691.474 1123.31 689.006 1120.85C686.537 1118.38 685.166 1115.09 685.166 1111.52C685.166 1107.96 686.537 1104.67 689.006 1102.2C691.2 1099.73 694.491 1098.36 698.331 1098.36ZM705.737 1103.84C703.817 1101.92 701.074 1100.83 698.331 1100.83C695.314 1100.83 692.846 1101.92 690.926 1103.84C689.006 1105.76 687.909 1108.23 687.909 1111.25C687.909 1114.26 689.006 1116.73 690.926 1118.65C692.846 1120.57 695.589 1121.67 698.331 1121.67C701.349 1121.67 703.817 1120.57 705.737 1118.65C707.657 1116.73 708.754 1114.26 708.754 1111.25C708.754 1108.5 707.657 1105.76 705.737 1103.84ZM73.7829 670.807C77.3486 670.807 80.64 672.178 83.1086 674.646C85.5771 677.115 86.9486 680.406 86.9486 683.971C86.9486 687.536 85.5771 690.827 83.1086 693.295C80.64 695.763 77.3486 697.135 73.7829 697.135C70.2171 697.135 66.9257 695.763 64.4571 693.295C61.9886 690.827 60.6171 687.536 60.6171 683.971C60.6171 680.406 61.9886 677.115 64.4571 674.646C66.9257 672.178 70.2171 670.807 73.7829 670.807ZM81.1886 676.292C79.2686 674.372 76.5257 673.275 73.7829 673.275C70.7657 673.275 68.2971 674.372 66.3771 676.292C64.4571 678.212 63.36 680.954 63.36 683.697C63.36 686.713 64.4571 689.182 66.3771 691.101C68.2971 693.021 71.04 694.118 73.7829 694.118C76.8 694.118 79.2686 693.021 81.1886 691.101C83.1086 689.182 84.2057 686.713 84.2057 683.697C84.2057 680.954 83.1086 678.212 81.1886 676.292ZM1827.57 652.432C1831.95 652.432 1835.52 655.998 1835.52 660.386C1835.52 664.774 1831.95 668.339 1827.57 668.339C1823.18 668.339 1819.61 664.774 1819.61 660.386C1819.61 655.724 1823.18 652.432 1827.57 652.432ZM277.303 661.208C281.691 661.208 285.257 664.774 285.257 669.162C285.257 673.549 281.691 677.115 277.303 677.115C272.914 677.115 269.349 673.549 269.349 669.162C269.349 664.774 272.914 661.208 277.303 661.208ZM610.56 710.847C614.949 710.847 618.514 714.412 618.514 718.8C618.514 723.188 614.949 726.753 610.56 726.753C606.172 726.753 602.606 723.188 602.606 718.8C602.88 714.412 606.446 710.847 610.56 710.847ZM709.851 913.79C714.24 913.79 717.806 917.355 717.806 921.743C717.806 926.131 714.24 929.696 709.851 929.696C705.463 929.696 701.897 926.131 701.897 921.743C701.897 917.081 705.463 913.79 709.851 913.79ZM236.709 1080.53C241.097 1080.53 244.663 1084.1 244.663 1088.48C244.663 1092.87 241.097 1096.44 236.709 1096.44C232.32 1096.44 228.754 1092.87 228.754 1088.48C228.754 1083.82 232.32 1080.53 236.709 1080.53ZM128.366 273.698C132.754 273.698 136.32 277.263 136.32 281.651C136.32 286.039 132.754 289.604 128.366 289.604C123.977 289.604 120.411 286.039 120.411 281.651C120.411 277.263 123.977 273.698 128.366 273.698ZM1642.7 201.571C1647.09 201.571 1650.65 205.136 1650.65 209.524C1650.65 213.912 1647.09 217.478 1642.7 217.478C1638.31 217.478 1634.74 213.912 1634.74 209.524C1635.02 205.136 1638.31 201.571 1642.7 201.571ZM1755.43 363.925C1759.82 363.925 1763.38 367.49 1763.38 371.878C1763.38 376.266 1759.82 379.831 1755.43 379.831C1751.04 379.831 1747.47 376.266 1747.47 371.878C1747.47 367.49 1751.04 363.925 1755.43 363.925ZM1534.63 1307.33C1539.02 1307.33 1542.58 1310.9 1542.58 1315.29C1542.58 1319.67 1539.02 1323.24 1534.63 1323.24C1530.24 1323.24 1526.67 1319.67 1526.67 1315.29C1526.67 1310.9 1530.24 1307.33 1534.63 1307.33ZM1854.72 1278.81C1859.11 1278.81 1862.67 1282.38 1862.67 1286.76C1862.67 1291.15 1859.11 1294.72 1854.72 1294.72C1850.33 1294.72 1846.77 1291.15 1846.77 1286.76C1846.77 1282.1 1850.33 1278.81 1854.72 1278.81ZM1638.31 1166.1C1642.7 1166.1 1646.26 1169.66 1646.26 1174.05C1646.26 1178.44 1642.7 1182 1638.31 1182C1633.92 1182 1630.35 1178.44 1630.35 1174.05C1630.35 1169.66 1633.92 1166.1 1638.31 1166.1ZM1557.12 859.489C1561.51 859.489 1565.07 863.054 1565.07 867.442C1565.07 871.83 1561.51 875.395 1557.12 875.395C1552.73 875.395 1549.17 871.83 1549.17 867.442C1549.17 863.054 1552.73 859.489 1557.12 859.489ZM1124.57 602.794C1128.96 602.794 1132.53 606.359 1132.53 610.747C1132.53 615.135 1128.96 618.7 1124.57 618.7C1120.18 618.7 1116.62 615.135 1116.62 610.747C1116.62 606.359 1120.18 602.794 1124.57 602.794ZM556.526 323.337C560.914 323.337 564.48 326.902 564.48 331.29C564.48 335.678 560.914 339.243 556.526 339.243C552.137 339.243 548.571 335.678 548.571 331.29C548.571 326.902 552.137 323.337 556.526 323.337ZM190.354 755.823C194.743 755.823 198.309 759.389 198.309 763.777C198.309 768.165 194.743 771.73 190.354 771.73C185.966 771.73 182.4 768.165 182.4 763.777C182.4 759.389 185.966 755.823 190.354 755.823ZM404.571 713.041C408.96 713.041 412.526 716.606 412.526 720.994C412.526 725.382 408.96 728.947 404.571 728.947C400.183 728.947 396.617 725.382 396.617 720.994C396.617 716.606 400.183 713.041 404.571 713.041ZM814.629 958.766C819.017 958.766 822.583 962.331 822.583 966.719C822.583 971.107 819.017 974.672 814.629 974.672C810.24 974.672 806.674 971.107 806.674 966.719C806.674 962.331 810.24 958.766 814.629 958.766ZM1071.63 1001.55C1076.02 1001.55 1079.59 1005.11 1079.59 1009.5C1079.59 1013.89 1076.02 1017.45 1071.63 1017.45C1067.25 1017.45 1063.68 1013.89 1063.68 1009.5C1063.68 1005.11 1067.25 1001.55 1071.63 1001.55ZM1177.51 1375.62C1181.9 1375.62 1185.46 1379.19 1185.46 1383.57C1185.46 1387.96 1181.9 1391.53 1177.51 1391.53C1173.12 1391.53 1169.55 1387.96 1169.55 1383.57C1169.55 1379.19 1173.12 1375.62 1177.51 1375.62ZM1417.51 1421.15C1421.9 1421.15 1425.46 1424.71 1425.46 1429.1C1425.46 1433.49 1421.9 1437.05 1417.51 1437.05C1413.12 1437.05 1409.55 1433.49 1409.55 1429.1C1409.55 1424.71 1413.12 1421.15 1417.51 1421.15ZM453.943 1217.93C458.331 1217.93 461.897 1221.49 461.897 1225.88C461.897 1230.27 458.331 1233.84 453.943 1233.84C449.554 1233.84 445.989 1230.27 445.989 1225.88C446.263 1221.49 449.829 1217.93 453.943 1217.93ZM560.091 1298.83C564.48 1298.83 568.046 1302.4 568.046 1306.78C568.046 1311.17 564.48 1314.74 560.091 1314.74C555.703 1314.74 552.137 1311.17 552.137 1306.78C552.137 1302.4 555.703 1298.83 560.091 1298.83ZM68.8457 1434.04C73.2343 1434.04 76.8 1437.6 76.8 1441.99C76.8 1446.38 73.2343 1449.94 68.8457 1449.94C64.4571 1449.94 60.8914 1446.38 60.8914 1441.99C60.8914 1437.6 64.4571 1434.04 68.8457 1434.04ZM1123.47 805.462C1132.25 805.462 1139.38 812.593 1139.38 821.368C1139.38 830.144 1132.25 837.275 1123.47 837.275C1114.7 837.275 1107.57 830.144 1107.57 821.368C1107.57 812.593 1114.7 805.462 1123.47 805.462ZM1483.89 1012.79C1492.66 1012.79 1499.79 1019.92 1499.79 1028.7C1499.79 1037.47 1492.66 1044.61 1483.89 1044.61C1475.11 1044.61 1467.98 1037.47 1467.98 1028.7C1468.25 1019.92 1475.11 1012.79 1483.89 1012.79ZM1830.86 499.129C1839.63 499.129 1846.77 506.259 1846.77 515.035C1846.77 523.811 1839.63 530.941 1830.86 530.941C1822.08 530.941 1814.95 523.811 1814.95 515.035C1815.22 506.259 1822.35 499.129 1830.86 499.129ZM929.554 1053.38C938.331 1053.38 945.463 1060.51 945.463 1069.29C945.463 1078.06 938.331 1085.19 929.554 1085.19C920.777 1085.19 913.646 1078.06 913.646 1069.29C913.646 1060.51 920.777 1053.38 929.554 1053.38ZM122.88 1175.15C131.657 1175.15 138.789 1182.28 138.789 1191.05C138.789 1199.83 131.657 1206.96 122.88 1206.96C114.103 1206.96 106.971 1199.83 106.971 1191.05C106.971 1182 114.103 1175.15 122.88 1175.15ZM420.206 503.517C428.983 503.517 436.114 510.647 436.114 519.423C436.114 528.199 428.983 535.329 420.206 535.329C411.429 535.329 404.297 528.199 404.297 519.423C404.571 510.647 411.429 503.517 420.206 503.517ZM1338.79 1049.27C1351.13 1025.13 1359.63 983.997 1362.1 970.284C1350.31 977.689 1314.93 1000.73 1297.37 1021.02C1275.98 1045.7 1258.42 1107.13 1258.42 1107.13C1258.42 1107.13 1255.68 1040.49 1243.89 1010.05C1232.09 979.609 1220.02 954.104 1220.02 954.104C1220.02 954.104 1205.76 1021.29 1209.6 1051.46C1213.44 1081.63 1228.8 1110.42 1228.8 1110.42C1228.8 1110.42 1181.62 1066 1137.19 1050.91C1137.19 1050.91 1150.08 1087.94 1172.3 1105.49C1194.51 1122.77 1215.09 1131.54 1215.09 1131.54C1215.09 1131.54 1174.22 1128.52 1146.51 1151.01C1146.51 1151.01 1186.01 1174.6 1238.4 1150.74L1182.72 1230L1184.91 1231.37L1185.19 1231.64L1187.38 1233.01L1240.32 1151.84C1237.58 1209.15 1274.06 1237.13 1274.06 1237.13C1284.75 1203.12 1266.93 1166.1 1266.93 1166.1C1266.93 1166.1 1282.83 1182 1307.25 1196.26C1331.66 1210.52 1370.88 1208.6 1370.88 1208.6C1340.43 1172.68 1281.74 1145.53 1281.74 1145.53C1281.74 1145.53 1314.1 1149.09 1343.45 1141.41C1372.8 1133.74 1430.13 1095.61 1430.13 1095.61C1430.13 1095.61 1402.15 1093.7 1369.51 1093.97C1336.87 1094.24 1273.78 1116.46 1273.78 1116.46C1273.78 1116.46 1323.7 1078.61 1338.79 1049.27ZM0 1145.25L31.8171 1214.09L35.3829 1212.44L36.2057 1212.17L39.7714 1210.52L0 1131.27V1145.25ZM0 1089.03C63.6343 1116.18 114.377 1095.07 114.377 1095.07C76.5257 1053.38 11.52 1048.44 11.52 1048.44C11.52 1048.44 46.08 1039.39 85.0286 1017.45C123.977 995.515 152.777 940.391 152.777 940.391C89.6914 951.635 18.9257 996.612 0.274286 1008.95V1089.03H0ZM0 1005.39V842.211C23.5886 801.623 44.9829 769.81 44.9829 769.81C44.9829 769.81 51.84 878.412 38.9486 924.759C29.0743 959.589 9.05143 991.676 0 1005.39ZM0 228.722C11.7943 236.675 20.2971 239.691 20.2971 239.691C20.5714 212.541 10.4229 187.585 0 168.662V228.722ZM0 146.448V99.8257C27.7029 104.762 103.131 120.12 153.6 152.755C153.6 152.755 94.9029 173.598 51.5657 163.177C30.9943 158.24 13.1657 151.658 0 146.448ZM0 95.7121C17.0057 91.5984 51.5657 81.7255 81.1886 63.6252C101.486 51.0099 128.914 24.1337 151.131 0L0 33.1838V95.7121ZM0 1.09699V0H0.548571L0 1.09699ZM1378.83 493.37C1336.59 485.965 1270.49 493.095 1248.55 495.838C1265.55 510.099 1316.85 552.333 1356.07 569.336C1403.79 589.904 1504.73 587.162 1504.73 587.162C1504.73 587.162 1405.44 622.814 1365.12 655.175C1324.8 687.536 1292.16 717.977 1292.16 717.977C1292.16 717.977 1400.5 707.556 1444.11 687.536C1487.73 667.516 1523.93 630.493 1523.93 630.493C1523.93 630.493 1479.22 722.64 1477.85 797.235C1477.85 797.235 1527.77 760.211 1543.41 718.252C1559.04 676.292 1562.61 640.914 1562.61 640.914C1562.61 640.914 1577.69 704.265 1624.87 734.981C1624.87 734.981 1641.6 664.225 1580.98 596.486L1727.18 642.834L1728.27 638.994L1728.55 638.172L1729.65 634.332L1582.08 592.921C1670.13 569.61 1694.81 501.323 1694.81 501.323C1638.58 501.323 1591.13 546.025 1591.13 546.025C1591.13 546.025 1607.59 514.487 1617.46 470.881C1627.34 427.276 1605.94 368.862 1605.94 368.862C1566.17 431.938 1553.01 533.684 1553.01 533.684C1553.01 533.684 1543.13 482.948 1517.62 442.36C1492.11 401.771 1407.36 333.484 1407.36 333.484C1407.36 333.484 1418.06 376.815 1433.97 425.905C1449.87 474.995 1513.51 559.463 1513.51 559.463C1513.51 559.463 1430.13 502.42 1378.83 493.37ZM220.251 1291.69C193.371 1295.53 154.971 1312.53 142.354 1318.56C155.246 1324.05 194.469 1339.41 221.349 1341.88C253.989 1345.17 314.057 1323.78 314.057 1323.78C314.057 1323.78 261.12 1364.64 243.291 1391.79C225.463 1418.94 211.474 1443.62 211.474 1443.62C211.474 1443.62 274.56 1416.2 297.051 1395.9C319.269 1375.33 334.08 1346.26 334.08 1346.26C334.08 1346.26 325.029 1410.44 338.743 1455.41C338.743 1455.41 361.509 1423.33 362.88 1395.35C364.251 1367.11 359.314 1345.17 359.314 1345.17C359.314 1345.17 380.709 1380.27 414.994 1389.87C414.994 1389.87 411.429 1344.07 361.783 1315.27L458.606 1314.73V1312.26V1311.71V1309.24L361.783 1313.08C410.057 1282.09 411.703 1236.29 411.703 1236.29C377.966 1247.26 357.943 1283.19 357.943 1283.19C357.943 1283.19 361.783 1260.97 359.314 1233C356.846 1205.03 332.709 1174.04 332.709 1174.04C321.189 1219.56 332.709 1283.46 332.709 1283.46C332.709 1283.46 316.8 1254.94 293.76 1235.47C270.446 1216 206.263 1191.31 206.263 1191.31C206.263 1191.31 221.074 1215.17 240.274 1241.78C259.474 1268.1 314.057 1306.77 314.057 1306.77C314.057 1306.77 252.891 1287.03 220.251 1291.69ZM538.149 984.545C506.331 993.047 443.52 982.077 443.52 982.077C443.52 982.077 502.491 1013.62 524.434 1037.47C546.651 1061.33 564.206 1083.27 564.206 1083.27C564.206 1083.27 497.554 1066.82 472.046 1050.09C446.537 1033.64 427.337 1007.03 427.337 1007.03C427.337 1007.03 446.811 1068.74 440.777 1115.63C440.777 1115.63 413.074 1087.94 407.04 1060.24C401.28 1032.54 402.103 1010.32 402.103 1010.32C402.103 1010.32 386.743 1048.44 354.651 1063.53C354.651 1063.53 350.537 1017.73 394.971 980.98L299.246 996.612L298.971 994.144V993.595L298.697 991.127L394.697 978.786C341.76 956.023 332.709 911.047 332.709 911.047C367.817 916.258 393.326 948.619 393.326 948.619C393.326 948.619 385.92 927.502 383.726 899.254C381.531 871.007 400.183 836.726 400.183 836.726C419.109 879.783 418.011 944.505 418.011 944.505C418.011 944.505 428.983 913.789 448.457 890.753C468.206 867.716 527.451 832.887 527.451 832.887C527.451 832.887 516.754 858.94 502.217 888.285C487.68 917.629 440.229 964.525 440.229 964.525C440.229 964.525 497.28 936.003 530.194 935.181C557.349 934.632 597.943 945.054 611.383 948.893C600.411 956.023 564.206 977.689 538.149 984.545ZM1828.39 856.198C1805.35 819.997 1755.43 776.118 1738.7 761.583C1739.52 783.797 1742.81 850.164 1756.8 890.753C1773.53 939.843 1843.75 1012.52 1843.75 1012.52C1843.75 1012.52 1750.22 963.154 1699.2 955.201C1648.18 947.248 1603.75 943.682 1603.75 943.682C1603.75 943.682 1684.39 1016.63 1728.55 1035.55C1772.71 1054.2 1824.27 1056.12 1824.27 1056.12C1824.27 1056.12 1726.08 1085.19 1669.85 1134.28C1669.85 1134.28 1731.02 1146.08 1772.43 1129.62C1813.85 1112.89 1842.38 1091.78 1842.38 1091.78C1842.38 1091.78 1805.9 1145.53 1814.67 1201.2C1814.67 1201.2 1878.31 1166.1 1887.36 1075.59L1919.73 1145.8V1131.82L1890.65 1073.95C1900.53 1080.26 1910.4 1085.47 1919.73 1089.31V1009.23C1916.71 1011.15 1915.06 1012.52 1915.06 1012.52C1915.06 1012.52 1916.98 1010.05 1919.73 1005.66V842.485C1917.81 845.502 1916.16 848.793 1914.24 851.81C1888.73 896.786 1868.98 1000.45 1868.98 1000.45C1868.98 1000.45 1856.37 900.077 1828.39 856.198ZM201.326 403.417C206.263 376.815 202.149 334.855 200.503 321.143C191.177 331.838 164.297 363.925 153.326 388.607C139.886 418.5 141.257 482.4 141.257 482.4C141.257 482.4 119.314 419.323 99.0171 393.818C78.72 368.039 59.7943 347.47 59.7943 347.47C59.7943 347.47 65.8286 416.032 78.1714 443.731C90.5143 471.43 113.554 494.467 113.554 494.467C113.554 494.467 55.68 465.671 8.50286 464.299C8.50286 464.299 31.5429 496.112 57.8743 506.259C84.2057 516.406 106.423 518.874 106.423 518.874C106.423 518.874 66.3771 527.925 46.6286 557.543C46.6286 557.543 91.0629 568.513 134.4 530.667L104.229 622.54L106.697 623.362L107.246 623.637L109.714 624.459L136.869 531.49C151.131 587.162 193.92 603.342 193.92 603.342C194.194 567.69 166.491 537.523 166.491 537.523C166.491 537.523 186.24 548.219 213.669 554.801C241.097 561.383 278.126 548.219 278.126 548.219C238.354 521.891 174.171 512.841 174.171 512.841C174.171 512.841 206.263 506.808 232.046 491.176C257.829 475.269 301.44 422.065 301.44 422.065C301.44 422.065 274.011 428.373 243.017 438.246C211.749 448.119 157.989 487.61 157.989 487.61C157.989 487.61 195.291 435.778 201.326 403.417Z" fill="#012500"/>
</svg>
