<svg width="53" height="58" viewBox="0 0 53 58" fill="none" xmlns="http://www.w3.org/2000/svg">
<path d="M50.9995 34.533H44.7164V56.3755H50.9995V34.533Z" fill="#7DAC51"/>
<path d="M36.6275 45.4543H30.3444V56.3756H36.6275V45.4543Z" fill="#7DAC51"/>
<path d="M14.9992 28.8017C22.4003 28.8017 28.4001 22.802 28.4001 15.4009C28.4001 7.99977 22.4003 2 14.9992 2C7.59816 2 1.59839 7.99977 1.59839 15.4009C1.59839 22.802 7.59816 28.8017 14.9992 28.8017Z" fill="#FE8E46"/>
<path d="M14.9995 24.4009C19.9701 24.4009 23.9995 20.3714 23.9995 15.4009C23.9995 10.4303 19.9701 6.40088 14.9995 6.40088C10.0289 6.40088 5.99951 10.4303 5.99951 15.4009C5.99951 20.3714 10.0289 24.4009 14.9995 24.4009Z" fill="#E56823"/>
<path d="M1.59834 48.1635C1.28334 48.1635 0.968521 48.0433 0.728228 47.8032C0.247817 47.3227 0.247817 46.5435 0.728228 46.0631L14.0595 32.7317C14.2903 32.5009 14.6033 32.3713 14.9296 32.3713C15.2558 32.3713 15.5689 32.5009 15.7997 32.7317L23.9296 40.8616L50.1289 14.6621C50.6095 14.1817 51.3886 14.1817 51.8691 14.6621C52.3496 15.1425 52.3496 15.9217 51.8691 16.4021L24.7999 43.4717C24.5691 43.7025 24.256 43.8321 23.9298 43.8321C23.6035 43.8321 23.2905 43.7025 23.0597 43.4717L14.9298 35.3419L2.46864 47.8032C2.22817 48.0433 1.91317 48.1635 1.59834 48.1635Z" fill="#7DAC51"/>
<path d="M50.9979 16.7625H39.9971C39.3176 16.7625 38.7667 16.2116 38.7667 15.532C38.7667 14.8524 39.3176 14.3015 39.9971 14.3015H50.9979C51.6774 14.3015 52.2283 14.8524 52.2283 15.532C52.2283 16.2116 51.6774 16.7625 50.9979 16.7625Z" fill="#7DAC51"/>
<path d="M50.9987 27.7634C50.3191 27.7634 49.7682 27.2125 49.7682 26.5329V15.532C49.7682 14.8524 50.3191 14.3015 50.9987 14.3015C51.6783 14.3015 52.2292 14.8524 52.2292 15.532V26.5329C52.2292 27.2125 51.6783 27.7634 50.9987 27.7634Z" fill="#7DAC51"/>
<path d="M14.9991 30.0322C6.93142 30.0322 0.36792 23.4687 0.36792 15.4009C0.36792 7.33303 6.93124 0.769531 14.9991 0.769531C23.0669 0.769531 29.6304 7.33303 29.6304 15.4009C29.6304 23.4687 23.0667 30.0322 14.9991 30.0322ZM14.9991 3.23047C8.28827 3.23047 2.82886 8.69006 2.82886 15.4009C2.82886 22.1117 8.28845 27.5712 14.9991 27.5712C21.7097 27.5712 27.1695 22.1117 27.1695 15.4009C27.1695 8.69006 21.7099 3.23047 14.9991 3.23047Z" fill="#463218"/>
<path d="M19.7874 18.4395C19.0829 18.067 18.2474 17.8702 17.3711 17.8702C17.23 17.8702 17.0899 17.8758 16.9512 17.886C17.3386 17.6195 17.7086 17.3115 18.054 16.9659C18.9212 16.0988 19.5529 15.0777 19.8813 14.0132C19.9024 13.9451 19.8839 13.871 19.8335 13.8205C19.783 13.7701 19.709 13.7518 19.6408 13.7727C18.5761 14.1011 17.5552 14.7328 16.688 15.6C16.4085 15.8794 16.1537 16.1749 15.9253 16.4827C16.077 15.7894 16.1549 15.0633 16.1549 14.3206C16.1549 12.7316 15.7986 11.2176 15.1243 9.94208C15.0911 9.87915 15.0255 9.8396 14.9543 9.8396C14.8831 9.8396 14.8175 9.87898 14.7843 9.94208C14.11 11.2176 13.7537 12.7317 13.7537 14.3206C13.7537 15.0053 13.82 15.6761 13.9494 16.3198C13.7539 16.0703 13.5408 15.8297 13.3109 15.5998C12.4438 14.7326 11.4227 14.1007 10.3582 13.7725C10.2901 13.7516 10.2159 13.7699 10.1655 13.8203C10.115 13.8708 10.0968 13.9448 10.1177 14.013C10.446 15.0777 11.0778 16.0986 11.9449 16.9658C12.2903 17.3112 12.6604 17.6193 13.0478 17.8858C12.9091 17.8756 12.7692 17.87 12.6278 17.87C11.7516 17.87 10.9161 18.0669 10.2115 18.4393C10.1486 18.4726 10.1091 18.5381 10.1091 18.6093C10.1091 18.6805 10.1484 18.7461 10.2115 18.7793C10.9161 19.1518 11.7516 19.3487 12.6278 19.3487C12.8699 19.3487 13.1088 19.333 13.3427 19.3035C12.9072 19.7094 12.5795 20.1924 12.3944 20.7038C12.3701 20.7707 12.3849 20.8458 12.4329 20.8985C12.4698 20.9391 12.5218 20.9616 12.5753 20.9616C12.5911 20.9616 12.6073 20.9597 12.6231 20.9557C13.1656 20.8166 13.6929 20.5246 14.148 20.1116C14.3855 19.8959 14.5917 19.6573 14.762 19.4039V20.7695C14.762 20.8757 14.8481 20.9618 14.9543 20.9618C15.0605 20.9618 15.1466 20.8757 15.1466 20.7695V19.2629C15.3322 19.5691 15.5697 19.8563 15.851 20.1116C16.3061 20.5248 16.8334 20.8168 17.3759 20.9557C17.3917 20.9597 17.4077 20.9616 17.4237 20.9616C17.4771 20.9616 17.5291 20.9393 17.5661 20.8985C17.614 20.8458 17.6288 20.7707 17.6046 20.7038C17.4195 20.1924 17.0918 19.7094 16.6562 19.3035C16.8902 19.333 17.1291 19.3487 17.3711 19.3487C18.2474 19.3487 19.0829 19.1518 19.7874 18.7793C19.8503 18.7461 19.8899 18.6805 19.8899 18.6093C19.8899 18.5381 19.8503 18.4729 19.7874 18.4395Z" fill="#FEFE71"/>
<path d="M51 57.6063H44.717C44.0375 57.6063 43.4866 57.0554 43.4866 56.3758V34.5332C43.4866 33.8536 44.0375 33.3027 44.717 33.3027H51C51.6796 33.3027 52.2305 33.8536 52.2305 34.5332V56.3758C52.2305 57.0555 51.6796 57.6063 51 57.6063ZM45.9473 55.1453H49.7695V35.7637H45.9475V55.1453H45.9473Z" fill="#463218"/>
<path d="M36.6275 57.6061H30.3444C29.6648 57.6061 29.1139 57.0552 29.1139 56.3756V45.4543C29.1139 44.7748 29.6648 44.2239 30.3444 44.2239H36.6275C37.3071 44.2239 37.858 44.7748 37.858 45.4543V56.3756C37.858 57.0554 37.3071 57.6061 36.6275 57.6061ZM31.5748 55.1452H35.397V46.6848H31.5748V55.1452Z" fill="#463218"/>
<path d="M22.2526 49.803H15.9695V56.3758H22.2526V49.803Z" fill="#7DAC51"/>
<path d="M22.2526 57.6063H15.9695C15.2899 57.6063 14.739 57.0554 14.739 56.3758V49.803C14.739 49.1234 15.2899 48.5725 15.9695 48.5725H22.2526C22.9322 48.5725 23.4831 49.1234 23.4831 49.803V56.3758C23.4831 57.0555 22.9322 57.6063 22.2526 57.6063ZM17.2 55.1453H21.0221V51.0334H17.2V55.1453Z" fill="#463218"/>
<path d="M7.8806 52.6028H1.59747V56.3756H7.8806V52.6028Z" fill="#FEFE71"/>
<path d="M7.8806 52.6028H1.59747V56.3756H7.8806V52.6028Z" fill="#7DAC51"/>
<path d="M7.88097 57.6063H1.59802C0.918452 57.6063 0.367554 57.0554 0.367554 56.3758V52.603C0.367554 51.9235 0.918452 51.3726 1.59802 51.3726H7.88097C8.56054 51.3726 9.11144 51.9235 9.11144 52.603V56.3758C9.11144 57.0556 8.56054 57.6063 7.88097 57.6063ZM2.82831 55.1454H6.65033V53.8335H2.82831V55.1454Z" fill="#463218"/>
<path d="M21.4686 11.0952C20.7746 10.0548 19.8292 9.18714 18.7348 8.58597L19.9196 6.42896C21.3592 7.21997 22.6029 8.36114 23.5157 9.72942L21.4686 11.0952Z" fill="white"/>
</svg>
