<svg width="54" height="64" viewBox="0 0 54 64" fill="none" xmlns="http://www.w3.org/2000/svg">
<path d="M36.9025 62.1362H40.0122H43.4234V55.3903C43.4234 54.5899 44.0722 53.9411 44.8726 53.9411L46.1742 53.8023C47.5926 53.6511 48.6703 52.4574 48.6761 51.0309C48.6761 51.0309 48.7547 48.3091 47.3901 47.2806C50.5225 45.8158 52.6936 42.638 52.6936 38.9517C52.6936 34.8332 49.9846 31.3476 46.2514 30.1788C46.0413 26.3287 42.8534 23.2712 38.9507 23.2712C36.9519 23.2712 35.1412 24.074 33.8212 25.3737C32.7648 22.635 30.1092 20.6914 26.9983 20.6914C24.4551 20.6914 22.2161 21.9903 20.906 23.9602C19.9649 23.519 18.915 23.2712 17.8067 23.2712C14.0462 23.2712 10.9503 26.11 10.5416 29.7614C10.5258 29.7614 10.5102 29.7601 10.4943 29.7601C5.41795 29.7601 1.30273 33.8753 1.30273 38.9517C1.30273 44.0279 5.41795 48.1433 10.4943 48.1433C11.0336 48.1433 11.5612 48.0943 12.0751 48.005C13.4146 49.6944 15.4834 50.7794 17.8067 50.7794C19.2818 50.7794 20.654 50.3411 21.8027 49.5897C23.1279 50.9279 24.9659 51.7576 26.9983 51.7576L29.2778 52.3359C33.7623 53.4736 36.9025 57.5098 36.9025 62.1362Z" fill="#FE8E46"/>
<path d="M23.2667 50.448C23.192 50.4969 23.1141 50.5412 23.0371 50.5869C23.3795 50.8085 23.7408 51.0036 24.1194 51.1664C23.8144 50.952 23.5284 50.7124 23.2667 50.448Z" fill="#E56823"/>
<path d="M14.9604 49.095C14.5217 49.1711 14.0711 49.2131 13.6108 49.2131C13.5007 49.2131 13.3916 49.2092 13.2826 49.2048C14.3056 50.014 15.5489 50.5559 16.9091 50.7234C16.1535 50.3175 15.4897 49.7624 14.9604 49.095Z" fill="#E56823"/>
<path d="M46.2526 30.1786C46.0425 26.3285 42.8545 23.2709 38.9518 23.2709C36.953 23.2709 35.1423 24.0737 33.8224 25.3734C32.7659 22.6348 30.1104 20.6912 26.9994 20.6912C24.4562 20.6912 22.2173 21.99 20.9072 23.96C19.9661 23.5188 18.9161 23.2709 17.8078 23.2709C14.0473 23.2709 10.9515 26.1098 10.5428 29.7611C10.527 29.7611 10.5113 29.7599 10.4955 29.7599C5.41911 29.7599 1.30389 33.8751 1.30389 38.9515C1.30389 43.7167 4.93044 47.6347 9.57405 48.097C7.28907 46.7251 6.38942 44.2237 6.38942 41.3644C6.38942 37.03 9.27329 34.394 13.6077 34.394C13.6212 34.394 13.6346 34.394 13.648 34.394C13.9969 31.2764 16.6405 27.9755 19.8513 27.9755C20.7975 27.9755 21.694 28.1872 22.4977 28.5639C23.6163 26.8818 25.5281 25.7728 27.6996 25.7728C30.356 25.7728 32.6234 27.4324 33.5253 29.7708C34.6524 28.6609 36.1984 27.9755 37.9051 27.9755C41.2374 27.9755 43.9593 30.5862 44.1388 33.8735C47.3264 34.8716 49.6395 37.8476 49.6395 41.3643C49.6395 43.2052 49.0046 44.8969 47.9431 46.235H49.1057C51.2876 44.5549 52.6948 41.9182 52.6948 38.9511C52.6948 34.8329 49.9858 31.3476 46.2526 30.1786Z" fill="#E56823"/>
<path d="M53.9239 38.9519C53.9239 34.6469 51.3318 30.8574 47.3939 29.2806C46.7646 25.1592 43.2047 22.0407 38.9505 22.0407C37.248 22.0407 35.6184 22.5375 34.2299 23.4619C32.6847 21.018 29.9485 19.4609 26.9979 19.4609C24.4708 19.4609 22.1036 20.5705 20.489 22.4714C19.6274 22.1852 18.7286 22.0407 17.8063 22.0407C13.8109 22.0407 10.4097 24.785 9.50148 28.5768C4.21837 29.0781 0.0718689 33.5398 0.0718689 38.9517C0.0718689 44.6984 4.74712 49.3738 10.4939 49.3738C10.8532 49.3738 11.2171 49.3543 11.5815 49.3156C13.1941 51.0362 15.4253 52.0098 17.8063 52.0098C19.1471 52.0098 20.456 51.6978 21.6413 51.1007C23.1136 52.2909 24.9233 52.9517 26.8384 52.9866L28.9747 53.5288C32.9176 54.5291 35.6713 58.0688 35.6713 62.1366C35.6713 62.8162 36.2222 63.3671 36.9017 63.3671H43.4229C44.1024 63.3671 44.6533 62.8162 44.6533 62.1366V55.3904C44.6533 55.2699 44.7514 55.1718 44.872 55.1718C44.9156 55.1718 44.9592 55.1695 45.0024 55.1649L46.3041 55.0262C48.344 54.8088 49.8899 53.1012 49.906 51.0515C49.9134 50.7516 49.9204 49.0722 49.2217 47.6622C52.1186 45.7529 53.9239 42.4756 53.9239 38.9519ZM46.8687 46.1663C46.4776 46.3491 46.2111 46.7236 46.1661 47.1528C46.1211 47.5821 46.3046 48.0038 46.6493 48.2634C47.2264 48.6985 47.4658 50.1529 47.446 50.9956C47.4458 51.0058 47.4456 51.0158 47.4454 51.026C47.4421 51.8267 46.8393 52.4943 46.0436 52.579L44.7973 52.7119C43.3543 52.7518 42.1927 53.9381 42.1927 55.3904V60.9061H38.0663C37.5613 56.24 34.2137 52.319 29.5803 51.1434L27.3007 50.5649C27.2019 50.5398 27.1002 50.5271 26.998 50.5271C25.3629 50.5271 23.8282 49.8867 22.6768 48.7239C22.2653 48.3087 21.6183 48.2402 21.1289 48.5599C20.1398 49.207 18.9909 49.5489 17.8064 49.5489C15.9398 49.5489 14.2022 48.7076 13.0391 47.2405C12.7592 46.8874 12.3085 46.716 11.8642 46.7926C11.4052 46.8723 10.9441 46.9129 10.4941 46.9129C6.10433 46.9129 2.53298 43.3415 2.53298 38.9517C2.53298 34.5658 6.09853 30.9969 10.4832 30.9908L10.5279 30.992H10.5416C11.1674 30.992 11.6943 30.5216 11.7641 29.8983C12.1085 26.8218 14.7062 24.5016 17.8064 24.5016C18.7057 24.5016 19.5727 24.6945 20.3834 25.0743C20.9348 25.3327 21.5928 25.1489 21.9303 24.6417C23.0628 22.9388 24.9574 21.9219 26.998 21.9219C29.4938 21.9219 31.7744 23.487 32.673 25.8167C32.8222 26.2034 33.1562 26.489 33.5615 26.5766C33.9667 26.6637 34.3891 26.5416 34.6844 26.2505C35.8298 25.1227 37.3449 24.5016 38.9506 24.5016C42.1797 24.5016 44.8469 27.0248 45.0227 30.246C45.0506 30.7584 45.3937 31.1998 45.8836 31.3532C49.2208 32.3979 51.4631 35.4516 51.4631 38.9519C51.4629 42.0295 49.6596 44.8612 46.8687 46.1663Z" fill="#463218"/>
<path d="M46.4438 40.668C44.1003 40.668 41.8501 41.7782 40.4247 43.638L40.3476 43.7383C39.3382 45.0549 38.7824 46.6936 38.7824 48.3526V62.137C38.7824 62.8166 39.3333 63.3675 40.0129 63.3675C40.6924 63.3675 41.2433 62.8166 41.2433 62.137V48.3526C41.2433 47.232 41.6188 46.1249 42.3007 45.2356L42.3777 45.1353C43.3408 43.879 44.8606 43.1289 46.4437 43.1289C47.1232 43.1289 47.6741 42.578 47.6741 41.8984C47.6741 41.2189 47.1234 40.668 46.4438 40.668Z" fill="#463218"/>
<path d="M41.6413 43.298L41.1725 43.1726C36.2835 41.8659 32.8689 37.419 32.8689 32.3584C32.8689 31.6788 32.318 31.1279 31.6385 31.1279C30.9589 31.1279 30.408 31.6788 30.408 32.3584C30.408 38.5315 34.5731 43.9563 40.5369 45.5503L41.0055 45.6756C41.112 45.7041 41.2189 45.7176 41.3242 45.7176C41.8677 45.7176 42.365 45.3548 42.5121 44.8048C42.6875 44.1482 42.2978 43.4736 41.6413 43.298Z" fill="#463218"/>
<path d="M43.2288 33.8484C39.8664 33.8484 36.666 35.2977 34.4476 37.8246L33.6596 38.7225C29.2742 38.9262 25.7691 42.5578 25.7691 46.9928C25.7691 47.6723 26.32 48.2232 26.9996 48.2232C27.6792 48.2232 28.2301 47.6723 28.2301 46.9928C28.2301 43.7844 30.8403 41.1742 34.0486 41.1742H34.2247C34.5789 41.1742 34.9159 41.0217 35.1495 40.7555L36.2972 39.4481C38.0482 37.4533 40.5747 36.3093 43.2288 36.3093C43.9084 36.3093 44.4592 35.7584 44.4592 35.0789C44.4592 34.3993 43.9084 33.8484 43.2288 33.8484Z" fill="#463218"/>
<path d="M30.1806 41.1795L29.5954 40.3667C27.6265 37.6326 24.4398 36.0005 21.0706 36.0005H15.1668C14.4872 36.0005 13.9363 36.5514 13.9363 37.231C13.9363 37.9105 14.4872 38.4614 15.1668 38.4614H21.0706C23.6505 38.4614 26.0909 39.7112 27.5984 41.8048L28.1836 42.6174C28.424 42.9514 28.8007 43.1291 29.1832 43.1291C29.4323 43.1291 29.6837 43.0535 29.9011 42.8971C30.4525 42.4998 30.5777 41.7308 30.1806 41.1795Z" fill="#463218"/>
<path d="M23.3839 36.3851C22.8427 35.9743 22.0707 36.0802 21.6599 36.6215L20.36 38.3345C19.2513 39.7954 17.4944 40.6674 15.6605 40.6674H13.0371C12.3575 40.6674 11.8066 41.2183 11.8066 41.8979C11.8066 42.5775 12.3575 43.1284 13.0371 43.1284H15.6605C18.2594 43.1284 20.749 41.8925 22.3203 39.8219L23.6202 38.1089C24.0312 37.5677 23.9254 36.7959 23.3839 36.3851Z" fill="#463218"/>
<path d="M26.9409 28.7437C23.8911 28.7437 21.4098 31.2248 21.4098 34.2748V37.3654C21.4098 38.0449 21.9607 38.5958 22.6402 38.5958C23.3198 38.5958 23.8707 38.0449 23.8707 37.3654V34.2746C23.8707 32.5817 25.2479 31.2044 26.9409 31.2044C27.6205 31.2044 28.1714 30.6535 28.1714 29.9739C28.1714 29.2944 27.6205 28.7437 26.9409 28.7437Z" fill="#463218"/>
<path d="M8.42233 32.3291C4.30359 34.1272 3.70893 37.7688 3.68555 37.9228L6.11889 38.2909C6.12258 38.2665 6.51984 35.8449 9.40705 34.5844L8.42233 32.3291Z" fill="white"/>
<path d="M33.2443 5.82816C33.053 5.37025 32.6053 5.07177 32.1089 5.07177H28.6017L30.9946 2.74601C31.4819 2.27245 31.493 1.49339 31.0194 1.00613C30.5457 0.518861 29.7666 0.507787 29.2795 0.981341L24.7129 5.41999C24.3538 5.76909 24.242 6.30101 24.4304 6.76507C24.6187 7.22913 25.0697 7.53271 25.5705 7.53271H29.1617L24.6953 12.0492C24.2175 12.5325 24.2219 13.3115 24.7052 13.7893C24.9449 14.0264 25.2576 14.1447 25.5704 14.1447C25.8875 14.1447 26.2046 14.0229 26.4454 13.7794L32.9838 7.16743C33.3327 6.81464 33.4355 6.28642 33.2443 5.82816Z" fill="#7DAC51"/>
<path d="M20.0373 13.1979C19.846 12.74 19.3983 12.4415 18.9019 12.4415H17.219L18.338 11.3538C18.8252 10.8803 18.8363 10.1012 18.3628 9.61392C17.8889 9.12648 17.1101 9.11541 16.6229 9.58914L13.3303 12.7896C12.9712 13.1387 12.8594 13.6708 13.0478 14.1347C13.2361 14.5987 13.6872 14.9023 14.188 14.9023H15.9549L13.3129 17.574C12.8351 18.0572 12.8395 18.8363 13.3228 19.3141C13.5625 19.5512 13.8752 19.6695 14.1878 19.6695C14.5051 19.6695 14.8222 19.5477 15.0628 19.3042L19.7771 14.5369C20.1258 14.1842 20.2287 13.6562 20.0373 13.1979Z" fill="#7DAC51"/>
<path d="M40.947 13.1979C40.7558 12.74 40.308 12.4415 39.8116 12.4415H38.1287L39.2477 11.3538C39.735 10.8803 39.7461 10.1012 39.2725 9.61392C38.7986 9.12648 38.0197 9.11541 37.5326 9.58914L34.2401 12.7896C33.881 13.1387 33.7692 13.6708 33.9576 14.1347C34.1459 14.5987 34.5969 14.9023 35.0977 14.9023H36.8647L34.2227 17.574C33.7449 18.0572 33.7493 18.8363 34.2325 19.3141C34.4723 19.5512 34.785 19.6695 35.0975 19.6695C35.4148 19.6695 35.7319 19.5477 35.9726 19.3042L40.6869 14.5369C41.0356 14.1842 41.1384 13.6562 40.947 13.1979Z" fill="#7DAC51"/>
</svg>
