<svg width="54" height="58" viewBox="0 0 54 58" fill="none" xmlns="http://www.w3.org/2000/svg">
<path d="M19.5656 16.9216C19.5656 19.9194 21.9958 22.3494 24.9934 22.3494H29.0025C32.0002 22.3494 34.4302 19.9194 34.4302 16.9216H19.5656Z" fill="#E56823"/>
<path d="M50.0837 23.2327C46.0425 19.1915 40.5615 16.9211 34.8463 16.9211H34.4341C34.4341 19.9189 32.0039 22.3489 29.0063 22.3489H24.9973C21.9995 22.3489 19.5695 19.9187 19.5695 16.9211H19.1573C13.4421 16.9211 7.96111 19.1915 3.91989 23.2327L2.00652 25.1463L11.0065 34.1463L14.5988 30.8068V56.548H39.405V30.8068L42.9973 34.1463L51.9973 25.1463L50.0837 23.2327Z" fill="#FE8E46"/>
<path d="M11.0526 29.2624L11.0055 29.3062L4.43514 22.7358C4.26094 22.8988 4.08815 23.0637 3.91887 23.2331L2.00549 25.1465L11.0055 34.1465L14.5978 30.8072C14.5978 28.965 12.4019 28.008 11.0526 29.2624Z" fill="#E56823"/>
<path d="M39.4014 51.7078H14.5952V56.5482H39.4014V51.7078Z" fill="#E56823"/>
<path d="M50.083 23.2331C49.9137 23.0637 49.7411 22.8988 49.5667 22.7358L42.9963 29.3062L42.9492 29.2624C41.5999 28.008 39.4041 28.965 39.4041 30.8072L42.9963 34.1465L51.9964 25.1465L50.083 23.2331Z" fill="#E56823"/>
<path d="M52.8655 24.2764L50.952 22.3627C46.6494 18.0603 40.9289 15.6909 34.8444 15.6909H34.4322C33.7526 15.6909 33.2018 16.2418 33.2018 16.9214C33.2018 19.2357 31.3188 21.1187 29.0044 21.1187H24.9952C22.6807 21.1187 20.7979 19.2357 20.7979 16.9214C20.7979 16.2418 20.247 15.6909 19.5675 15.6909H19.1552C13.0708 15.6909 7.3503 18.0603 3.04771 22.3627L1.13415 24.2763C0.653566 24.7568 0.653566 25.5359 1.13415 26.0165L10.1342 35.0165C10.6024 35.4846 11.3571 35.4983 11.842 35.0476L13.3661 33.6308V56.5483C13.3661 57.2279 13.917 57.7788 14.5965 57.7788H39.4028C40.0824 57.7788 40.6333 57.2279 40.6333 56.5483V33.631L42.1575 35.0478C42.6426 35.4987 43.3974 35.4844 43.8653 35.0165L52.8652 26.0165C53.3461 25.5359 53.3461 24.757 52.8655 24.2764ZM42.9643 32.4376L40.2409 29.906C39.8825 29.5727 39.361 29.4832 38.9117 29.6792C38.4627 29.8747 38.1727 30.3177 38.1727 30.8072V55.3178H15.8274V30.8072C15.8274 30.3177 15.5371 29.8747 15.0884 29.6792C14.6398 29.4836 14.1177 29.5731 13.7591 29.906L11.0357 32.4376L3.74468 25.1464L4.78812 24.1029C8.46001 20.431 13.2892 18.3377 18.4534 18.1636C19.0369 21.2435 21.7485 23.5796 24.9954 23.5796H29.0046C32.2516 23.5796 34.9631 21.2435 35.5467 18.1636C40.7108 18.3377 45.5402 20.431 49.2119 24.1028L50.2553 25.1464L42.9643 32.4376Z" fill="#463218"/>
<path d="M34.4285 15.6914H19.5637C18.8842 15.6914 18.3333 16.2423 18.3333 16.9219C18.3333 20.5932 21.3201 23.5801 24.9915 23.5801H29.0005C32.6721 23.5801 35.659 20.5932 35.659 16.9219C35.659 16.2421 35.1081 15.6914 34.4285 15.6914ZM29.0005 21.1192H24.9915C23.1052 21.1192 21.5052 19.8681 20.9781 18.1523H33.014C32.4868 19.868 30.887 21.1192 29.0005 21.1192Z" fill="#463218"/>
<path d="M26.8298 0.220703C24.1651 0.220703 21.9972 2.38861 21.9972 5.05328C21.9972 5.73285 22.5481 6.28375 23.2277 6.28375C23.9072 6.28375 24.4581 5.73285 24.4581 5.05328C24.4581 3.74565 25.522 2.68164 26.8298 2.68164C28.1376 2.68164 29.2014 3.74565 29.2014 5.05328C29.2014 6.36092 28.1374 7.42475 26.8298 7.42475C26.1502 7.42475 25.5993 7.97565 25.5993 8.65522V11.4934C25.5993 12.1729 26.1502 12.7238 26.8298 12.7238C27.5093 12.7238 28.0602 12.1729 28.0602 11.4934V9.72695C30.1309 9.18133 31.6623 7.29274 31.6623 5.05311C31.6625 2.38861 29.4946 0.220703 26.8298 0.220703Z" fill="#7DAC51"/>
<path d="M27.8127 10.7569C27.4061 10.2126 26.6351 10.1008 26.0904 10.5081L18.829 15.9359C18.2846 16.3427 18.1734 17.1138 18.5801 17.6582C18.8218 17.9815 19.1918 18.152 19.5666 18.152C19.8229 18.152 20.0813 18.0723 20.3024 17.9069L27.5639 12.4792C28.108 12.0724 28.2194 11.3012 27.8127 10.7569Z" fill="#7DAC51"/>
<path d="M34.7974 15.936L27.5359 10.5082C26.9914 10.1011 26.2202 10.2129 25.8136 10.757C25.4069 11.3014 25.5181 12.0723 26.0624 12.4793L33.3239 17.907C33.545 18.0723 33.8036 18.1521 34.0597 18.1521C34.4346 18.1521 34.8047 17.9816 35.0462 17.6583C35.4531 17.1139 35.3417 16.3429 34.7974 15.936Z" fill="#7DAC51"/>
<path d="M33.2332 40.6916C32.3158 40.2066 31.2277 39.9503 30.0867 39.9503C29.9028 39.9503 29.7206 39.9577 29.54 39.9709C30.0445 39.6239 30.5263 39.2227 30.9762 38.7729C32.1052 37.6439 32.928 36.3143 33.3555 34.9279C33.383 34.8391 33.3589 34.7426 33.2933 34.677C33.2277 34.6115 33.1311 34.5876 33.0425 34.6148C31.6563 35.0423 30.3267 35.865 29.1974 36.9942C28.8336 37.358 28.5017 37.743 28.2043 38.1438C28.4018 37.2411 28.5033 36.2954 28.5033 35.3285C28.5033 33.2593 28.0392 31.2878 27.1612 29.6268C27.1178 29.5449 27.0327 29.4934 26.9399 29.4934C26.8471 29.4934 26.7618 29.5447 26.7186 29.6268C25.8405 31.2876 25.3765 33.2593 25.3765 35.3285C25.3765 36.22 25.4628 37.0935 25.6312 37.9318C25.3766 37.6069 25.0991 37.2935 24.7999 36.9943C23.6707 35.8651 22.3413 35.0425 20.9549 34.615C20.8663 34.5877 20.7696 34.6115 20.704 34.6772C20.6385 34.7429 20.6144 34.8393 20.6418 34.928C21.0693 36.3143 21.892 37.6439 23.0212 38.7731C23.471 39.2229 23.9528 39.624 24.4573 39.971C24.2768 39.9578 24.0945 39.9505 23.9106 39.9505C22.7696 39.9505 21.6816 40.2068 20.7642 40.6917C20.6821 40.7352 20.6307 40.8202 20.6307 40.913C20.6307 41.0058 20.6821 41.0911 20.7642 41.1345C21.6816 41.6195 22.7696 41.8758 23.9106 41.8758C24.226 41.8758 24.5369 41.8556 24.8416 41.8171C24.2743 42.3457 23.8477 42.9746 23.6067 43.6405C23.5751 43.7278 23.5944 43.8254 23.6568 43.8939C23.705 43.947 23.7725 43.976 23.8423 43.976C23.863 43.976 23.8837 43.9734 23.9045 43.9681C24.6108 43.7871 25.2976 43.407 25.8903 42.869C26.1997 42.5882 26.4681 42.2776 26.6897 41.9475V43.7257C26.6897 43.8641 26.8019 43.9762 26.9402 43.9762C27.0786 43.9762 27.1907 43.8641 27.1907 43.7257V41.764C27.4324 42.1628 27.7418 42.5367 28.1078 42.8691C28.7005 43.4074 29.3871 43.7874 30.0936 43.9683C30.1141 43.9736 30.135 43.9762 30.1558 43.9762C30.2254 43.9762 30.2931 43.947 30.3412 43.8941C30.4036 43.8254 30.423 43.7278 30.3913 43.6406C30.1503 42.9748 29.7237 42.3458 29.1565 41.8173C29.4611 41.8558 29.7722 41.876 30.0874 41.876C31.2284 41.876 32.3165 41.6197 33.2339 41.1347C33.316 41.0913 33.3673 41.0062 33.3673 40.9132C33.3666 40.8202 33.3153 40.735 33.2332 40.6916Z" fill="#FEFE71"/>
</svg>
