<svg width="46" height="52" viewBox="0 0 46 52" fill="none" xmlns="http://www.w3.org/2000/svg">
<path d="M23 1.62524L1.89081 13.8127V38.1876L23 50.3752L44.1094 38.1876V13.8127L23 1.62524Z" fill="#FE8E46"/>
<path d="M1.89081 13.8127V38.1876L23 50.3752V1.62524L1.89081 13.8127Z" fill="#E56823"/>
<path d="M44.7245 12.7471L23.6153 0.559458C23.2345 0.339556 22.7655 0.339556 22.3848 0.559458L1.27539 12.7469C0.894648 12.9666 0.660156 13.3729 0.660156 13.8125V38.1874C0.660156 38.627 0.894648 39.0332 1.27539 39.253L22.3848 51.4407C22.5752 51.5506 22.7875 51.6056 23 51.6056C23.2125 51.6056 23.4249 51.5508 23.6153 51.4407L44.7245 39.2533C45.1052 39.0336 45.3397 38.6273 45.3397 38.1877V13.8127C45.3397 13.373 45.1052 12.9668 44.7245 12.7471ZM42.8788 37.4772L23 48.9541L3.12109 37.477V14.523L23 3.04606L42.8788 14.5232V37.4772Z" fill="#463218"/>
<path d="M23 12.2483C20.1598 13.7902 18.2313 16.7987 18.2313 20.2578C18.2313 23.7168 20.1598 26.7255 23 28.2672C25.8403 26.7255 27.7688 23.7168 27.7688 20.2578C27.7688 16.7987 25.8405 13.7902 23 12.2483Z" fill="#7DAC51"/>
<path d="M23.5871 11.1667C23.2208 10.9679 22.7793 10.9679 22.4129 11.1667C19.0747 12.979 17.0008 16.4623 17.0008 20.2576C17.0008 24.0527 19.0747 27.5361 22.4129 29.3484C22.5961 29.4478 22.7979 29.4975 23 29.4975C23.2022 29.4975 23.404 29.4478 23.5871 29.3484C26.9254 27.5361 28.9991 24.0529 28.9991 20.2576C28.9991 16.4623 26.9254 12.9788 23.5871 11.1667ZM23 26.8335C20.8017 25.3818 19.4617 22.9201 19.4617 20.2576C19.4617 17.595 20.8017 15.1335 23 13.6816C25.1982 15.1334 26.5382 17.5948 26.5382 20.2576C26.5382 22.9203 25.1984 25.3816 23 26.8335Z" fill="#463218"/>
<path d="M23 27.0366C22.3204 27.0366 21.7695 27.5875 21.7695 28.2671V39.1908C21.7695 39.8704 22.3204 40.4213 23 40.4213C23.6796 40.4213 24.2305 39.8704 24.2305 39.1908V28.2671C24.2305 27.5875 23.6797 27.0366 23 27.0366Z" fill="#463218"/>
<path d="M25.2173 18.0463C24.6406 17.6868 23.8817 17.8629 23.5221 18.4397L21.9559 20.9525C21.8342 21.1477 21.7695 21.3733 21.7695 21.6034V28.2672C21.7695 28.9468 22.3204 29.4977 23 29.4977C23.6796 29.4977 24.2305 28.9468 24.2305 28.2672V21.9555L25.6105 19.7413C25.97 19.1648 25.7939 18.4057 25.2173 18.0463Z" fill="#463218"/>
<path d="M14.8569 25.5837C12.2318 24.5886 9.39382 25.1866 7.40662 26.8987C7.75976 29.4978 9.48822 31.8268 12.1133 32.8219C14.7385 33.817 17.5764 33.2189 19.5636 31.507C19.2105 28.9077 17.482 26.5788 14.8569 25.5837Z" fill="#7DAC51"/>
<path d="M20.7829 31.3412C20.3563 28.2021 18.2527 25.5551 15.2931 24.4332C12.3329 23.3114 9.00343 23.8985 6.60331 25.9666C6.28778 26.2385 6.13117 26.6516 6.18724 27.0645C6.61386 30.2036 8.71744 32.8507 11.6771 33.9725C12.6708 34.3492 13.7059 34.5331 14.7339 34.5331C16.7675 34.5331 18.7725 33.8127 20.3666 32.4392C20.6823 32.1672 20.839 31.754 20.7829 31.3412ZM12.5495 31.6712C10.6505 30.9515 9.24478 29.3532 8.75646 27.4103C10.4097 26.2794 12.5215 26.0142 14.4207 26.7342C16.3196 27.454 17.7253 29.0522 18.2137 30.9951C16.5601 32.1261 14.4477 32.3908 12.5495 31.6712Z" fill="#463218"/>
<path d="M23.4363 31.6588L19.9998 30.3563C19.3642 30.1156 18.6538 30.435 18.413 31.0707C18.1722 31.7061 18.4921 32.4164 19.1274 32.6573L22.5639 33.9598C22.7075 34.0143 22.8548 34.0401 22.9998 34.0401C23.4963 34.0401 23.9642 33.7373 24.1507 33.2454C24.3917 32.6101 24.0716 31.8996 23.4363 31.6588Z" fill="#463218"/>
<path d="M19.9998 30.3563L15.2716 28.564L14.0285 26.9324C13.6166 26.3919 12.8444 26.2878 12.3041 26.6995C11.7636 27.1114 11.6591 27.8834 12.0712 28.4241L13.5277 30.3357C13.6671 30.5187 13.855 30.659 14.0702 30.7405L19.1276 32.6576C19.2712 32.7121 19.4185 32.7379 19.5635 32.7379C20.0599 32.7379 20.5277 32.4351 20.7143 31.9432C20.9552 31.3074 20.6351 30.5971 19.9998 30.3563Z" fill="#463218"/>
<path d="M31.1432 25.5837C28.5181 26.5788 26.7897 28.9077 26.4365 31.5068C28.4237 33.2188 31.2617 33.817 33.8868 32.8217C36.512 31.8266 38.2404 29.4977 38.5936 26.8986C36.6063 25.1866 33.7684 24.5886 31.1432 25.5837Z" fill="#7DAC51"/>
<path d="M39.3967 25.9665C36.9964 23.8986 33.667 23.3113 30.707 24.4332C27.747 25.5552 25.6434 28.2023 25.2173 31.3414C25.1614 31.7541 25.3179 32.1672 25.6334 32.4391C27.2277 33.8127 29.2324 34.533 31.2661 34.533C32.2939 34.533 33.3295 34.349 34.3232 33.9725C37.2831 32.8505 39.3867 30.2035 39.8128 27.0644C39.8687 26.6515 39.7123 26.2383 39.3967 25.9665ZM33.4508 31.6711C31.5525 32.3908 29.4403 32.1261 27.7866 30.9951C28.2747 29.0524 29.6804 27.454 31.5794 26.7342C33.4782 26.0143 35.5904 26.2794 37.2436 27.4104C36.7553 29.3531 35.3495 30.9513 33.4508 31.6711Z" fill="#463218"/>
<path d="M27.5872 31.0707C27.3462 30.4353 26.6368 30.1155 26.0004 30.3563L22.5639 31.6589C21.9286 31.8997 21.6085 32.6102 21.8495 33.2455C22.0362 33.7373 22.5038 34.0402 23.0004 34.0402C23.1452 34.0402 23.2927 34.0143 23.4363 33.9598L26.8728 32.6573C27.5081 32.4165 27.828 31.7062 27.5872 31.0707Z" fill="#463218"/>
<path d="M33.6959 26.6996C33.1561 26.2877 32.3835 26.392 31.9715 26.9325L30.7284 28.5641L26.0004 30.3564C25.365 30.5972 25.045 31.3077 25.286 31.9431C25.4727 32.435 25.9403 32.7378 26.4369 32.7378C26.5817 32.7378 26.7294 32.712 26.8728 32.6575L31.93 30.7404C32.1452 30.6589 32.3331 30.5186 32.4725 30.3356L33.929 28.424C34.3409 27.8835 34.2365 27.1114 33.6959 26.6996Z" fill="#463218"/>
<path d="M40.9297 17.0303H38.4688V23.1195H40.9297V17.0303Z" fill="white"/>
</svg>
