<svg width="62" height="38" viewBox="0 0 62 38" fill="none" xmlns="http://www.w3.org/2000/svg">
<path d="M31.0012 1.22168C18.2333 1.22168 7.15084 8.431 1.59738 18.9998C7.15101 29.5685 18.2333 36.778 31.0012 36.778C43.7691 36.778 54.8515 29.5685 60.405 18.9998C54.8515 8.431 43.7691 1.22168 31.0012 1.22168Z" fill="#7DAC51"/>
<path d="M59.771 17.8511C54.0357 26.5858 43.3018 32.4671 31.0014 32.4671C18.7009 32.4671 7.96699 26.5858 2.2316 17.8511C2.01328 18.2294 1.80111 18.612 1.59738 18.9998C7.15101 29.5685 18.2333 36.778 31.0012 36.778C43.7691 36.778 54.8517 29.5685 60.4052 18.9998C60.2014 18.612 59.9895 18.2294 59.771 17.8511Z" fill="#5B7C31"/>
<path d="M61.4952 18.4273C55.5197 7.05544 43.8353 -0.0090332 31.0021 -0.0090332C18.1688 -0.0090332 6.48446 7.05544 0.508948 18.4273C0.320687 18.7855 0.320687 19.2137 0.508948 19.5719C6.48463 30.9438 18.169 38.0082 31.0021 38.0082C43.8352 38.0082 55.5195 30.9439 61.4952 19.5719C61.6835 19.2137 61.6835 18.7855 61.4952 18.4273ZM31.0021 35.5473C19.3028 35.5473 8.63163 29.2237 2.99555 18.9996C8.63145 8.77528 19.3028 2.4519 31.0021 2.4519C42.7014 2.4519 53.3727 8.77528 59.0086 18.9996C53.3725 29.2237 42.7014 35.5473 31.0021 35.5473Z" fill="#463218"/>
<path d="M31.001 29.952C37.8169 29.952 43.3422 24.4267 43.3422 17.6108C43.3422 10.7949 37.8169 5.26953 31.001 5.26953C24.1851 5.26953 18.6597 10.7949 18.6597 17.6108C18.6597 24.4267 24.1851 29.952 31.001 29.952Z" fill="#FE8E46"/>
<path d="M33.7623 24.9061C28.1198 24.9061 23.5458 20.3321 23.5458 14.6895C23.5458 10.5194 26.0452 6.9356 29.6266 5.34741C23.4579 6.03138 18.6597 11.2596 18.6597 17.6108C18.6597 24.4265 24.1851 29.952 31.001 29.952C37.587 29.952 42.9669 24.7927 43.3224 18.2955C41.8646 22.1581 38.1353 24.9061 33.7623 24.9061Z" fill="#E56823"/>
<path d="M31.0017 4.03931C23.5182 4.03931 17.43 10.1277 17.43 17.611C17.43 25.0944 23.5182 31.1827 31.0017 31.1827C38.4853 31.1827 44.5735 25.0944 44.5735 17.611C44.5735 10.1277 38.4853 4.03931 31.0017 4.03931ZM31.0017 28.7218C24.8752 28.7218 19.891 23.7375 19.891 17.611C19.891 11.4845 24.8752 6.50024 31.0017 6.50024C37.1282 6.50024 42.1125 11.4845 42.1125 17.611C42.1125 23.7375 37.1282 28.7218 31.0017 28.7218Z" fill="#463218"/>
<path d="M36.6677 10.8237L35.0895 12.712C36.546 13.9293 37.3815 15.7147 37.3815 17.6105H39.8425C39.8425 14.9836 38.6853 12.5098 36.6677 10.8237Z" fill="white"/>
<path d="M27.0544 5.91748C23.4138 7.14566 20.5354 10.0241 19.3072 13.6645C20.2652 15.5032 22.1874 16.7595 24.4041 16.7595C27.5772 16.7595 30.1492 14.1871 30.1492 11.0143C30.1494 8.79766 28.8931 6.87549 27.0544 5.91748Z" fill="#7DAC51"/>
<path d="M27.8086 6.39085C27.5709 6.2156 27.3209 6.05634 27.0573 5.9187C27.0427 5.92362 27.0281 5.92837 27.0135 5.93312C26.5737 6.08323 26.1446 6.25655 25.7289 6.45343C25.7273 6.45413 25.7257 6.45501 25.7241 6.45571C25.5232 6.55099 25.326 6.65224 25.1312 6.75788C25.1043 6.7723 25.0776 6.78724 25.0509 6.802C24.8681 6.90273 24.6881 7.00767 24.5111 7.11735C24.4968 7.12632 24.4822 7.13476 24.4682 7.14355C24.0753 7.38911 23.697 7.6563 23.3355 7.94335C23.3281 7.94915 23.321 7.95513 23.3138 7.9611C23.1431 8.09716 22.9763 8.23814 22.813 8.38298C22.7988 8.39564 22.7844 8.40829 22.7701 8.42095C22.2533 8.88431 21.7754 9.39003 21.343 9.93337C21.3402 9.93689 21.3373 9.9404 21.3347 9.94409C20.4591 11.0464 19.7681 12.3022 19.3085 13.6649C20.1703 15.319 21.8135 16.4984 23.7487 16.7192C23.6165 16.0632 23.5464 15.3845 23.5464 14.6895C23.5462 11.2695 25.2281 8.24446 27.8086 6.39085Z" fill="#5B7C31"/>
<path d="M27.6252 4.82661C27.3279 4.67175 26.9806 4.6452 26.6633 4.7519C22.6744 6.09768 19.4893 9.28249 18.1435 13.2715C18.0365 13.5891 18.0634 13.9363 18.2182 14.2335C19.4257 16.551 21.7968 17.9905 24.4064 17.9905C28.2529 17.9905 31.3821 14.8613 31.3821 11.0148C31.3819 8.40534 29.9425 6.03405 27.6252 4.82661ZM24.4062 15.5296C22.891 15.5296 21.4995 14.7788 20.6647 13.5406C21.7903 10.6891 24.0807 8.39883 26.932 7.27331C28.1704 8.10809 28.921 9.49958 28.921 11.015C28.921 13.5042 26.8957 15.5296 24.4062 15.5296Z" fill="#463218"/>
<path d="M18.7391 17.7694H15.0507L11.6148 13.8589C11.1664 13.3486 10.3889 13.2982 9.87829 13.7466C9.36783 14.1952 9.31755 14.9727 9.76597 15.4832L13.5693 19.8119C13.803 20.0779 14.1398 20.2303 14.4938 20.2303H18.7391C19.4186 20.2303 19.9695 19.6794 19.9695 18.9998C19.9695 18.3203 19.4188 17.7694 18.7391 17.7694Z" fill="#463218"/>
<path d="M13.3941 15.8897C12.9137 15.4095 12.1345 15.4095 11.6541 15.8897L7.7737 19.7701C7.29311 20.2507 7.29311 21.0297 7.7737 21.5103C8.01399 21.7504 8.32882 21.8707 8.64382 21.8707C8.95882 21.8707 9.27364 21.7504 9.51394 21.5103L13.3943 17.63C13.8747 17.1494 13.8747 16.3703 13.3941 15.8897Z" fill="#463218"/>
<path d="M53.1598 20.7154L49.8692 17.4248C49.6384 17.1942 49.3255 17.0645 48.999 17.0645H43.3204C42.6408 17.0645 42.09 17.6154 42.09 18.2949C42.09 18.9745 42.6408 19.5254 43.3204 19.5254H48.4893L51.4195 22.4557C51.6598 22.6958 51.9747 22.816 52.2897 22.816C52.6047 22.816 52.9195 22.6958 53.1598 22.4555C53.6404 21.9751 53.6404 21.196 53.1598 20.7154Z" fill="#463218"/>
<path d="M54.1244 16.4628C53.644 15.9825 52.8647 15.9823 52.3843 16.4629L49.7771 19.0701C49.2966 19.5505 49.2966 20.3296 49.7771 20.8102C50.0174 21.0503 50.3323 21.1705 50.6473 21.1705C50.9623 21.1705 51.2771 21.0503 51.5174 20.81L54.1246 18.2028C54.6048 17.7224 54.6048 16.9435 54.1244 16.4628Z" fill="#463218"/>
<path d="M44.1901 27.5866L41.3016 24.698C40.8212 24.2176 40.042 24.2176 39.5616 24.6978C39.081 25.1784 39.081 25.9574 39.5616 26.4379L42.45 29.3265C42.6903 29.5668 43.0051 29.687 43.3201 29.687C43.635 29.687 43.95 29.5668 44.1903 29.3266C44.6707 28.8461 44.6707 28.067 44.1901 27.5866Z" fill="#463218"/>
<path d="M21.09 22.7225C20.6094 22.2423 19.8303 22.2421 19.3499 22.7227L17.622 24.4506C17.1414 24.931 17.1414 25.7101 17.622 26.1907C17.8623 26.4308 18.1771 26.551 18.4921 26.551C18.8071 26.551 19.1219 26.4308 19.3622 26.1905L21.0902 24.4626C21.5706 23.9822 21.5706 23.2031 21.09 22.7225Z" fill="#463218"/>
</svg>
