<svg width="335" height="99" viewBox="0 0 335 99" fill="none" xmlns="http://www.w3.org/2000/svg">
<mask id="path-1-inside-1_20_217" fill="white">
<path fill-rule="evenodd" clip-rule="evenodd" d="M274.022 72.5174C275.903 73.8542 280.296 77.4025 281.52 81.6895C283.095 87.1787 282.498 91.1974 282.498 91.1974C282.498 91.1974 285.527 81.4127 294.672 78.5651C294.672 78.5651 296.536 87.6972 287.158 95.1951C287.158 95.1951 292.308 92.0535 298.899 95.1054C298.899 95.1054 297.39 97.3713 294.321 99H297.257C303.294 99 308.653 95.144 310.562 89.4272L334.27 18.4272C337.297 9.36175 330.537 0 320.965 0H59.3303C55.3706 1.04974 52.1003 1.692 52.1003 1.692C52.1003 1.692 64.6457 3.2556 70.1865 6.71033C74.7304 9.51949 80.3411 15.7219 82.0086 17.7085C79.2378 17.6565 70.9369 17.277 65.8197 15.5989C59.6262 13.535 50.4598 4.82553 50.4598 4.82553C50.4598 4.82553 56.7419 16.4586 57.7992 22.8593C58.8565 29.2599 59.3762 34.8146 59.3762 34.8146C59.3762 34.8146 50.159 24.7833 47.7482 19.2752C45.3895 13.783 45.0878 7.32939 45.0878 7.32939C45.0878 7.32939 41.548 19.6515 35.4661 26.7094C35.4661 26.7094 33.9145 19.1353 35.9663 13.9123C38.0181 8.68944 40.6451 5.11916 40.6451 5.11916C40.6451 5.11916 33.9343 9.76962 26.9754 8.72122C26.9754 8.72122 30.5242 2.15543 39.6425 0H14.0345C4.5158 0 -2.23752 9.26434 0.690089 18.3059L23.6794 89.3059C25.5505 95.0846 30.9403 99 37.0239 99H270.378C272.027 98.6067 273.168 98.6831 273.168 98.6831C261.367 96.4658 258.726 87.5275 258.726 87.5275C268.137 85.7486 275.405 92.9656 275.405 92.9656C275.405 92.9656 272.894 89.7221 271.708 84.136C270.824 79.7642 273.037 74.5688 274.022 72.5174Z"/>
</mask>
<path fill-rule="evenodd" clip-rule="evenodd" d="M274.022 72.5174C275.903 73.8542 280.296 77.4025 281.52 81.6895C283.095 87.1787 282.498 91.1974 282.498 91.1974C282.498 91.1974 285.527 81.4127 294.672 78.5651C294.672 78.5651 296.536 87.6972 287.158 95.1951C287.158 95.1951 292.308 92.0535 298.899 95.1054C298.899 95.1054 297.39 97.3713 294.321 99H297.257C303.294 99 308.653 95.144 310.562 89.4272L334.27 18.4272C337.297 9.36175 330.537 0 320.965 0H59.3303C55.3706 1.04974 52.1003 1.692 52.1003 1.692C52.1003 1.692 64.6457 3.2556 70.1865 6.71033C74.7304 9.51949 80.3411 15.7219 82.0086 17.7085C79.2378 17.6565 70.9369 17.277 65.8197 15.5989C59.6262 13.535 50.4598 4.82553 50.4598 4.82553C50.4598 4.82553 56.7419 16.4586 57.7992 22.8593C58.8565 29.2599 59.3762 34.8146 59.3762 34.8146C59.3762 34.8146 50.159 24.7833 47.7482 19.2752C45.3895 13.783 45.0878 7.32939 45.0878 7.32939C45.0878 7.32939 41.548 19.6515 35.4661 26.7094C35.4661 26.7094 33.9145 19.1353 35.9663 13.9123C38.0181 8.68944 40.6451 5.11916 40.6451 5.11916C40.6451 5.11916 33.9343 9.76962 26.9754 8.72122C26.9754 8.72122 30.5242 2.15543 39.6425 0H14.0345C4.5158 0 -2.23752 9.26434 0.690089 18.3059L23.6794 89.3059C25.5505 95.0846 30.9403 99 37.0239 99H270.378C272.027 98.6067 273.168 98.6831 273.168 98.6831C261.367 96.4658 258.726 87.5275 258.726 87.5275C268.137 85.7486 275.405 92.9656 275.405 92.9656C275.405 92.9656 272.894 89.7221 271.708 84.136C270.824 79.7642 273.037 74.5688 274.022 72.5174Z" fill="#28B810"/>
<path d="M281.52 81.6895L280.559 81.9653L280.558 81.9639L281.52 81.6895ZM274.022 72.5174L273.121 72.0846L273.634 71.0149L274.601 71.7023L274.022 72.5174ZM282.498 91.1974L283.453 91.4931L281.508 91.0503L282.498 91.1974ZM294.672 78.5651L294.375 77.6103L295.431 77.2815L295.652 78.3651L294.672 78.5651ZM287.158 95.1951L287.678 96.0488L286.533 94.414L287.158 95.1951ZM298.899 95.1054L299.319 94.1979L300.378 94.6883L299.731 95.6598L298.899 95.1054ZM294.321 99V100L293.852 98.1167L294.321 99ZM310.562 89.4272L309.613 89.1105V89.1105L310.562 89.4272ZM334.27 18.4272L333.321 18.1105L334.27 18.4272ZM59.3303 0L59.0741 -0.966614L59.2 -1H59.3303V0ZM52.1003 1.692L51.9766 2.68433L51.9076 0.710747L52.1003 1.692ZM70.1865 6.71033L69.6607 7.56092L69.6574 7.5589L70.1865 6.71033ZM82.0086 17.7085L82.7745 17.0655L84.188 18.7495L81.9899 18.7083L82.0086 17.7085ZM65.8197 15.5989L65.5081 16.5491L65.5036 16.5476L65.8197 15.5989ZM50.4598 4.82553L49.5799 5.30069L51.1486 4.10059L50.4598 4.82553ZM59.3762 34.8146L60.3719 34.7214L60.6484 37.6771L58.6399 35.4912L59.3762 34.8146ZM47.7482 19.2752L46.8321 19.6762L46.8294 19.6698L47.7482 19.2752ZM45.0878 7.32939L44.1266 7.05329L46.0867 7.28268L45.0878 7.32939ZM35.4661 26.7094L36.2236 27.3622L34.8949 28.9041L34.4864 26.91L35.4661 26.7094ZM35.9663 13.9123L36.897 14.278L35.9663 13.9123ZM40.6451 5.11916L40.0755 4.29723L41.4506 5.71182L40.6451 5.11916ZM26.9754 8.72122L26.8264 9.71006L25.4188 9.498L26.0957 8.24573L26.9754 8.72122ZM39.6425 0V-1L39.8725 0.973183L39.6425 0ZM0.690089 18.3059L1.64146 17.9979L1.64146 17.9979L0.690089 18.3059ZM23.6794 89.3059L22.728 89.614V89.6139L23.6794 89.3059ZM270.378 99L270.61 99.9727L270.496 100H270.378V99ZM273.168 98.6831L273.352 97.7003L273.101 99.6809L273.168 98.6831ZM258.726 87.5275L257.767 87.8109L257.453 86.7503L258.54 86.5449L258.726 87.5275ZM275.405 92.9656L276.196 92.3534L274.701 93.6752L275.405 92.9656ZM271.708 84.136L270.729 84.3437L270.727 84.3341L271.708 84.136ZM280.558 81.9639C280.009 80.0376 278.723 78.216 277.287 76.68C275.861 75.1542 274.349 73.9763 273.443 73.3326L274.601 71.7023C275.577 72.3953 277.202 73.66 278.748 75.3142C280.285 76.9584 281.808 79.0544 282.482 81.415L280.558 81.9639ZM282.498 91.1974C281.508 91.0503 281.508 91.0506 281.508 91.0508C281.508 91.0509 281.508 91.0511 281.508 91.0512C281.508 91.0515 281.508 91.0517 281.508 91.0518C281.508 91.0521 281.508 91.0521 281.508 91.0519C281.508 91.0514 281.508 91.0501 281.509 91.0477C281.509 91.043 281.511 91.0345 281.512 91.0223C281.515 90.9978 281.52 90.9584 281.526 90.9047C281.538 90.7972 281.554 90.6327 281.569 90.4159C281.598 89.9823 281.623 89.3405 281.6 88.53C281.554 86.908 281.319 84.616 280.559 81.9653L282.481 81.4137C283.296 84.2521 283.55 86.7141 283.599 88.4738C283.624 89.354 283.597 90.06 283.564 90.5514C283.547 90.7972 283.529 90.9895 283.514 91.1233C283.507 91.1902 283.5 91.2425 283.496 91.2795C283.493 91.2981 283.491 91.3128 283.49 91.3236C283.489 91.329 283.488 91.3335 283.488 91.337C283.487 91.3387 283.487 91.3402 283.487 91.3414C283.487 91.3421 283.487 91.3426 283.487 91.3431C283.487 91.3434 283.487 91.3437 283.487 91.3438C283.487 91.3441 283.487 91.3444 282.498 91.1974ZM294.969 79.5199C290.687 80.8534 287.808 83.8197 285.983 86.5104C285.073 87.8521 284.436 89.1097 284.028 90.0297C283.824 90.489 283.678 90.8623 283.584 91.1173C283.537 91.2448 283.503 91.3425 283.481 91.4066C283.47 91.4386 283.463 91.4621 283.458 91.4767C283.456 91.484 283.454 91.4891 283.453 91.4918C283.453 91.4932 283.453 91.494 283.452 91.4942C283.452 91.4943 283.452 91.4943 283.452 91.4941C283.453 91.494 283.453 91.4938 283.453 91.4937C283.453 91.4935 283.453 91.4931 282.498 91.1974C281.542 90.9016 281.542 90.9012 281.543 90.9008C281.543 90.9006 281.543 90.9001 281.543 90.8997C281.543 90.8989 281.543 90.898 281.544 90.8969C281.544 90.8948 281.545 90.892 281.546 90.8887C281.548 90.882 281.551 90.873 281.555 90.8617C281.562 90.8391 281.573 90.8073 281.586 90.767C281.614 90.6863 281.654 90.5711 281.707 90.4254C281.815 90.1342 281.977 89.7208 282.2 89.2183C282.645 88.2147 283.337 86.8482 284.328 85.3878C286.304 82.4742 289.512 79.1245 294.375 77.6103L294.969 79.5199ZM286.533 94.414C291.026 90.8224 292.793 86.8741 293.455 83.8541C293.788 82.3367 293.843 81.044 293.817 80.1381C293.804 79.6855 293.77 79.3309 293.741 79.0947C293.727 78.9767 293.713 78.8885 293.704 78.8326C293.699 78.8047 293.696 78.7849 293.694 78.7736C293.693 78.7679 293.692 78.7643 293.692 78.7629C293.692 78.7622 293.691 78.762 293.692 78.7624C293.692 78.7625 293.692 78.7629 293.692 78.7633C293.692 78.7636 293.692 78.764 293.692 78.7641C293.692 78.7646 293.692 78.7651 294.672 78.5651C295.652 78.3651 295.652 78.3657 295.652 78.3663C295.652 78.3666 295.652 78.3672 295.652 78.3677C295.652 78.3687 295.653 78.3699 295.653 78.3712C295.653 78.3738 295.654 78.3769 295.655 78.3806C295.656 78.388 295.658 78.3977 295.66 78.4095C295.665 78.4332 295.67 78.4655 295.677 78.5063C295.691 78.5879 295.708 78.7032 295.726 78.8495C295.762 79.1421 295.801 79.5595 295.816 80.0802C295.846 81.1208 295.782 82.5798 295.408 84.2826C294.658 87.7031 292.668 92.0699 287.782 95.9761L286.533 94.414ZM298.479 96.0128C295.406 94.5901 292.689 94.6159 290.744 94.988C289.769 95.1746 288.986 95.449 288.454 95.6734C288.188 95.7855 287.985 95.8846 287.853 95.9532C287.787 95.9875 287.739 96.0141 287.71 96.0308C287.695 96.0391 287.685 96.045 287.68 96.0481C287.677 96.0496 287.676 96.0505 287.675 96.0506C287.675 96.0507 287.675 96.0505 287.676 96.0502C287.676 96.0501 287.676 96.0499 287.677 96.0496C287.677 96.0495 287.677 96.0493 287.678 96.0492C287.678 96.049 287.678 96.0488 287.158 95.1951C286.637 94.3414 286.637 94.3411 286.638 94.3408C286.638 94.3407 286.638 94.3404 286.639 94.3402C286.639 94.3398 286.64 94.3393 286.641 94.3387C286.643 94.3377 286.645 94.3364 286.647 94.335C286.652 94.3321 286.658 94.3285 286.665 94.3242C286.68 94.3156 286.7 94.3042 286.724 94.2903C286.774 94.2624 286.843 94.2245 286.93 94.1789C287.106 94.0876 287.357 93.9651 287.677 93.8303C288.316 93.5611 289.233 93.2408 290.369 93.0236C292.647 92.5878 295.801 92.5688 299.319 94.1979L298.479 96.0128ZM293.852 98.1167C295.278 97.3599 296.343 96.454 297.049 95.739C297.402 95.3822 297.663 95.0752 297.833 94.8619C297.918 94.7553 297.98 94.6723 298.019 94.6186C298.038 94.5917 298.052 94.5722 298.06 94.5607C298.064 94.5549 298.067 94.5512 298.068 94.5495C298.068 94.5487 298.069 94.5484 298.068 94.5486C298.068 94.5488 298.068 94.549 298.068 94.5494C298.068 94.5496 298.068 94.5498 298.067 94.5501C298.067 94.5502 298.067 94.5504 298.067 94.5505C298.067 94.5507 298.067 94.551 298.899 95.1054C299.731 95.6598 299.731 95.66 299.731 95.6603C299.731 95.6604 299.731 95.6606 299.731 95.6608C299.73 95.6612 299.73 95.6617 299.73 95.6621C299.729 95.6631 299.728 95.6642 299.728 95.6654C299.726 95.6678 299.724 95.6708 299.721 95.6743C299.717 95.6813 299.71 95.6905 299.703 95.7017C299.687 95.7242 299.665 95.7549 299.638 95.7932C299.582 95.8698 299.502 95.9766 299.397 96.1079C299.188 96.3703 298.88 96.7316 298.472 97.1448C297.656 97.97 296.432 99.0115 294.789 99.8833L293.852 98.1167ZM297.257 100H294.321V98H297.257V100ZM311.51 89.7439C309.465 95.8697 303.723 100 297.257 100V98C302.864 98 307.841 94.4183 309.613 89.1105L311.51 89.7439ZM335.218 18.7439L311.51 89.7439L309.613 89.1105L333.321 18.1105L335.218 18.7439ZM320.965 -1C331.218 -1 338.462 9.0285 335.218 18.7439L333.321 18.1105C336.131 9.695 329.857 1 320.965 1V-1ZM59.3303 -1H320.965V1H59.3303V-1ZM59.5866 0.966614C57.5904 1.4958 55.7693 1.92197 54.4474 2.21583C53.7862 2.36282 53.2491 2.47687 52.8767 2.55431C52.6905 2.59303 52.5454 2.6226 52.4464 2.64259C52.3969 2.65257 52.359 2.66016 52.3332 2.66529C52.3203 2.66785 52.3105 2.66981 52.3037 2.67113C52.3004 2.67181 52.2978 2.67231 52.296 2.67267C52.2951 2.67284 52.2944 2.67298 52.2939 2.67308C52.2937 2.67313 52.2935 2.67316 52.2933 2.67319C52.2932 2.67321 52.2932 2.67323 52.2931 2.67323C52.2931 2.67325 52.293 2.67326 52.1003 1.692C51.9076 0.710747 51.9076 0.710754 51.9075 0.710754C51.9076 0.710754 51.9076 0.710754 51.9076 0.710747C51.9076 0.710739 51.9077 0.710716 51.9079 0.710686C51.9082 0.710632 51.9087 0.710533 51.9093 0.710396C51.9107 0.710129 51.9129 0.709702 51.9158 0.709114C51.9217 0.707954 51.9307 0.706169 51.9428 0.703773C51.9668 0.698982 52.003 0.69175 52.0507 0.682129C52.146 0.66288 52.2873 0.634079 52.4696 0.596184C52.8341 0.520401 53.3621 0.408272 54.0134 0.263481C55.3166 -0.0262222 57.1105 -0.44606 59.0741 -0.966614L59.5866 0.966614ZM52.1003 1.692C52.224 0.699677 52.2241 0.699699 52.2243 0.699722C52.2245 0.699738 52.2247 0.699768 52.225 0.699806C52.2255 0.699867 52.2262 0.699959 52.2271 0.700073C52.2289 0.700294 52.2315 0.700623 52.2348 0.701042C52.2414 0.701874 52.251 0.703094 52.2636 0.704704C52.2887 0.707916 52.3254 0.712677 52.3733 0.718987C52.469 0.731606 52.6091 0.750443 52.7887 0.775581C53.148 0.825836 53.6658 0.901314 54.304 1.00268C55.5794 1.20527 57.3392 1.51186 59.2757 1.92796C63.1032 2.7504 67.7817 4.03245 70.7156 5.86177L69.6574 7.5589C67.0505 5.93349 62.6859 4.70638 58.8555 3.88332C56.9631 3.47668 55.2401 3.17645 53.9902 2.97791C53.3656 2.8787 52.8601 2.80504 52.5116 2.75629C52.3374 2.73193 52.2026 2.71379 52.1118 2.70182C52.0664 2.69584 52.0321 2.69139 52.0093 2.68848C51.998 2.68702 51.9895 2.68595 51.984 2.68526C51.9813 2.68491 51.9793 2.68466 51.9781 2.6845C51.9774 2.68443 51.977 2.68437 51.9768 2.68434C51.9766 2.68433 51.9766 2.68433 51.9765 2.68432C51.9766 2.68432 51.9766 2.68433 52.1003 1.692ZM70.7124 5.85976C73.0826 7.32513 75.6858 9.64249 77.8786 11.806C80.0817 13.9799 81.9224 16.0504 82.7745 17.0655L81.2427 18.3514C80.4273 17.38 78.6289 15.356 76.4739 13.2297C74.3084 11.0931 71.8343 8.9047 69.6607 7.56091L70.7124 5.85976ZM81.9899 18.7083C79.229 18.6565 70.7862 18.28 65.5081 16.5491L66.1313 14.6487C71.0876 16.274 79.2466 16.6565 82.0273 16.7086L81.9899 18.7083ZM65.5036 16.5476C62.222 15.4541 58.2598 12.6557 55.1952 10.2213C53.6445 8.98943 52.2909 7.82391 51.325 6.96648C50.8417 6.53751 50.4548 6.18501 50.188 5.93909C50.0546 5.81611 49.9512 5.71973 49.8807 5.65372C49.8455 5.62072 49.8185 5.5953 49.8001 5.57793C49.7909 5.56925 49.7838 5.56258 49.7789 5.55799C49.7765 5.55569 49.7746 5.55391 49.7733 5.55266C49.7727 5.55203 49.7721 5.55154 49.7718 5.55117C49.7716 5.55099 49.7714 5.55081 49.7713 5.55072C49.7711 5.55058 49.771 5.55048 50.4598 4.82553C51.1486 4.10059 51.1486 4.10055 51.1486 4.10054C51.1486 4.10058 51.1487 4.1006 51.1487 4.10069C51.1489 4.10085 51.1492 4.10115 51.1497 4.10158C51.1506 4.10244 51.152 4.10382 51.154 4.10571C51.1581 4.1095 51.1642 4.11536 51.1726 4.12322C51.1892 4.13894 51.2145 4.16268 51.2479 4.19397C51.3147 4.25655 51.4142 4.3493 51.5435 4.46851C51.8022 4.70694 52.1798 5.05099 52.6527 5.47079C53.5991 6.31087 54.9241 7.45171 56.4392 8.65524C59.5062 11.0915 63.224 13.6798 66.1359 14.6502L65.5036 16.5476ZM50.4598 4.82553C51.3397 4.35037 51.3398 4.35048 51.3399 4.35064C51.3399 4.35075 51.34 4.35095 51.3402 4.35117C51.3404 4.35162 51.3407 4.35225 51.3412 4.35304C51.342 4.35464 51.3433 4.35694 51.3449 4.35994C51.3481 4.36593 51.3528 4.3747 51.359 4.38618C51.3713 4.40916 51.3894 4.443 51.413 4.4872C51.4601 4.57558 51.529 4.70538 51.6169 4.87247C51.7926 5.20663 52.0443 5.69012 52.3493 6.28992C52.9591 7.48903 53.7835 9.15556 54.6418 11.0249C56.3423 14.7284 58.2327 19.348 58.7858 22.6963L56.8126 23.0222C56.3084 19.9699 54.5292 15.5727 52.8242 11.8594C51.9799 10.0204 51.1677 8.37862 50.5666 7.1965C50.2661 6.60569 50.0187 6.13034 49.8467 5.80331C49.7608 5.63981 49.6937 5.51344 49.6483 5.42828C49.6256 5.38571 49.6083 5.35345 49.5968 5.33201C49.591 5.32129 49.5867 5.31328 49.5839 5.30804C49.5825 5.30542 49.5814 5.30349 49.5808 5.30226C49.5804 5.30165 49.5802 5.30121 49.5801 5.30095C49.58 5.30082 49.58 5.30075 49.5799 5.30069C49.5799 5.30067 49.5799 5.30069 50.4598 4.82553ZM58.7858 22.6963C59.3176 25.9154 59.7138 28.9196 59.9771 31.1183C60.1088 32.218 60.2073 33.1172 60.273 33.7421C60.3059 34.0546 60.3305 34.2986 60.347 34.4649C60.3552 34.548 60.3614 34.6117 60.3655 34.6549C60.3676 34.6764 60.3692 34.6929 60.3702 34.704C60.3708 34.7096 60.3712 34.7138 60.3714 34.7167C60.3716 34.7182 60.3717 34.7193 60.3717 34.7201C60.3718 34.7205 60.3718 34.7208 60.3718 34.721C60.3718 34.7211 60.3718 34.7212 60.3719 34.7213C60.3719 34.7214 60.3719 34.7214 59.3762 34.8146C58.3806 34.9077 58.3806 34.9078 58.3806 34.9078C58.3806 34.9077 58.3806 34.9077 58.3806 34.9077C58.3805 34.9075 58.3805 34.9073 58.3805 34.9071C58.3804 34.9065 58.3804 34.9056 58.3802 34.9043C58.38 34.9019 58.3797 34.898 58.3792 34.8929C58.3782 34.8826 58.3767 34.8671 58.3747 34.8464C58.3707 34.8051 58.3647 34.7432 58.3567 34.6619C58.3406 34.4994 58.3164 34.2595 58.284 33.9512C58.2192 33.3346 58.1217 32.4451 57.9913 31.3561C57.7304 29.1772 57.3381 26.2038 56.8126 23.0222L58.7858 22.6963ZM59.3762 34.8146C58.6399 35.4912 58.6398 35.4911 58.6397 35.491C58.6396 35.4909 58.6394 35.4907 58.6393 35.4905C58.6389 35.4901 58.6384 35.4896 58.6378 35.4889C58.6366 35.4876 58.6348 35.4856 58.6324 35.4831C58.6277 35.4779 58.6208 35.4704 58.6118 35.4605C58.5938 35.4408 58.5672 35.4117 58.5326 35.3737C58.4634 35.2977 58.362 35.1859 58.2324 35.042C57.9732 34.7543 57.601 34.3378 57.1471 33.8211C56.2396 32.7882 55.0038 31.3524 53.6912 29.7423C51.0948 26.5573 48.1001 22.5732 46.8321 19.6761L48.6643 18.8742C49.8071 21.4852 52.6264 25.2709 55.2413 28.4786C56.5344 30.0647 57.7535 31.4811 58.6496 32.5011C59.0975 33.0109 59.4642 33.4212 59.7185 33.7036C59.8456 33.8447 59.9447 33.9539 60.0116 34.0275C60.0451 34.0643 60.0706 34.0922 60.0876 34.1107C60.0961 34.12 60.1025 34.127 60.1066 34.1315C60.1087 34.1338 60.1103 34.1355 60.1113 34.1366C60.1118 34.1371 60.1121 34.1375 60.1123 34.1377C60.1124 34.1379 60.1125 34.1379 60.1126 34.138C60.1126 34.138 60.1126 34.138 59.3762 34.8146ZM46.8294 19.6698C45.6049 16.8186 44.9231 13.743 44.5462 11.4017C44.357 10.2265 44.243 9.22611 44.1762 8.51747C44.1428 8.16296 44.1211 7.88093 44.1077 7.68595C44.101 7.58845 44.0964 7.51267 44.0934 7.46043C44.0919 7.43431 44.0908 7.41407 44.0901 7.39994C44.0897 7.39288 44.0894 7.38734 44.0892 7.38335C44.0891 7.38136 44.089 7.37976 44.089 7.37856C44.0889 7.37794 44.0889 7.37744 44.0889 7.37703C44.0889 7.37682 44.0889 7.37659 44.0889 7.37649C44.0889 7.37628 44.0889 7.3761 45.0878 7.32939C46.0867 7.28268 46.0867 7.28255 46.0867 7.28244C46.0867 7.28243 46.0867 7.28235 46.0867 7.28234C46.0867 7.28233 46.0867 7.28241 46.0867 7.28259C46.0867 7.28294 46.0867 7.28369 46.0868 7.28482C46.0869 7.28709 46.0871 7.29089 46.0874 7.2962C46.0879 7.30683 46.0888 7.3235 46.0901 7.34599C46.0927 7.39097 46.0968 7.45921 46.103 7.5489C46.1153 7.7283 46.1356 7.99338 46.1674 8.3297C46.2308 9.00275 46.3397 9.95902 46.5208 11.0838C46.8844 13.3424 47.5329 16.2396 48.6671 18.8806L46.8294 19.6698ZM45.0878 7.32939C46.0489 7.60549 46.0488 7.60568 46.0488 7.60592C46.0487 7.60606 46.0487 7.60635 46.0486 7.60663C46.0484 7.60719 46.0482 7.60795 46.0479 7.60889C46.0474 7.61077 46.0466 7.6134 46.0456 7.61676C46.0437 7.62348 46.0409 7.63316 46.0372 7.64571C46.0299 7.67083 46.0191 7.70747 46.0049 7.75511C45.9765 7.85039 45.9344 7.98965 45.879 8.16861C45.7681 8.52647 45.6035 9.04331 45.3872 9.68463C44.9547 10.9667 44.3143 12.7494 43.4812 14.7561C41.8235 18.749 39.3695 23.7115 36.2236 27.3622L34.7086 26.0566C37.6446 22.6494 40.0014 17.9219 41.6341 13.9893C42.4462 12.0332 43.0708 10.2943 43.4921 9.04536C43.7027 8.42121 43.8621 7.92024 43.9686 7.57668C44.0218 7.40491 44.0618 7.27255 44.0882 7.18388C44.1014 7.13955 44.1112 7.10614 44.1177 7.08419C44.1209 7.07322 44.1232 7.06512 44.1247 7.05994C44.1255 7.05736 44.126 7.0555 44.1263 7.05439C44.1265 7.05383 44.1266 7.05347 44.1266 7.05328C44.1267 7.05318 44.1267 7.05319 44.1267 7.05315C44.1267 7.05319 44.1266 7.05329 45.0878 7.32939ZM35.4661 26.7094C34.4864 26.91 34.4864 26.9098 34.4864 26.9096C34.4863 26.9095 34.4863 26.9092 34.4862 26.9089C34.4861 26.9085 34.486 26.9079 34.4859 26.9072C34.4856 26.9057 34.4852 26.9038 34.4847 26.9015C34.4838 26.8968 34.4825 26.8903 34.4808 26.882C34.4775 26.8654 34.4729 26.8416 34.467 26.811C34.4553 26.7499 34.4388 26.6613 34.4187 26.5478C34.3786 26.3209 34.3242 25.9938 34.2658 25.5861C34.1492 24.7716 34.0157 23.6308 33.9481 22.321C33.8144 19.73 33.9308 16.3588 35.0355 13.5467L36.897 14.278C35.95 16.6888 35.8163 19.7162 35.9455 22.2179C36.0093 23.4545 36.1355 24.5336 36.2456 25.3025C36.3006 25.6865 36.3515 25.992 36.3882 26.1996C36.4065 26.3034 36.4213 26.3827 36.4313 26.435C36.4364 26.4612 36.4402 26.4806 36.4426 26.493C36.4438 26.4992 36.4447 26.5036 36.4453 26.5062C36.4455 26.5075 36.4457 26.5084 36.4458 26.5088C36.4458 26.509 36.4458 26.5091 36.4458 26.5091C36.4458 26.5091 36.4458 26.509 36.4458 26.509C36.4458 26.5088 36.4458 26.5087 35.4661 26.7094ZM35.0355 13.5467C36.0854 10.8743 37.281 8.62766 38.2142 7.04842C38.6813 6.25805 39.0838 5.63282 39.3713 5.20282C39.515 4.98778 39.6302 4.8214 39.7103 4.70747C39.7504 4.65049 39.7817 4.60661 39.8035 4.5763C39.8144 4.56114 39.823 4.54938 39.829 4.54105C39.8321 4.5369 39.8345 4.5336 39.8362 4.53117C39.8371 4.52996 39.8379 4.52896 39.8384 4.52818C39.8387 4.52779 39.839 4.52746 39.8392 4.52718C39.8393 4.52704 39.8394 4.52687 39.8395 4.52679C39.8396 4.52664 39.8397 4.5265 40.6451 5.11916C41.4506 5.71182 41.4507 5.71171 41.4507 5.71161C41.4507 5.71159 41.4508 5.71151 41.4508 5.71148C41.4509 5.71141 41.4509 5.7114 41.4508 5.71145C41.4508 5.71154 41.4506 5.71185 41.4502 5.71237C41.4494 5.71342 41.448 5.71532 41.446 5.71807C41.442 5.72358 41.4355 5.7325 41.4267 5.74477C41.409 5.7693 41.3819 5.80723 41.3462 5.85809C41.2746 5.9598 41.1685 6.11316 41.0339 6.31443C40.7647 6.71708 40.3822 7.31085 39.936 8.0659C39.0428 9.57754 37.899 11.7275 36.897 14.278L35.0355 13.5467ZM40.6451 5.11916C41.2147 5.94109 41.2144 5.94128 41.2142 5.94147C41.214 5.94157 41.2137 5.94179 41.2134 5.94196C41.2129 5.94233 41.2123 5.94276 41.2116 5.94326C41.2101 5.94427 41.2082 5.94555 41.206 5.94711C41.2014 5.95023 41.1952 5.95446 41.1875 5.95974C41.1719 5.97031 41.1499 5.98514 41.1217 6.00391C41.0652 6.04142 40.9839 6.0947 40.8791 6.1612C40.6697 6.29414 40.3665 6.48015 39.9822 6.69869C39.2145 7.13525 38.118 7.70458 36.7952 8.24024C34.1668 9.30453 30.556 10.2719 26.8264 9.71006L27.1244 7.73238C30.3537 8.2189 33.5778 7.38528 36.0445 6.38644C37.2692 5.89054 38.2855 5.36278 38.9935 4.96014C39.3471 4.75909 39.6225 4.58997 39.8072 4.47268C39.8996 4.41406 39.9692 4.36845 40.0144 4.33836C40.0371 4.32333 40.0536 4.31216 40.0639 4.3052C40.069 4.30172 40.0725 4.29929 40.0745 4.29795C40.0755 4.29728 40.076 4.29688 40.0762 4.29676C40.0763 4.2967 40.0763 4.29671 40.0762 4.29678C40.0761 4.29682 40.076 4.29694 40.0759 4.29696C40.0757 4.29708 40.0755 4.29723 40.6451 5.11916ZM26.9754 8.72122C26.0957 8.24573 26.0959 8.2453 26.0961 8.24485C26.0962 8.24467 26.0965 8.24419 26.0967 8.24382C26.0971 8.24308 26.0976 8.24224 26.0981 8.2413C26.0991 8.23943 26.1003 8.23714 26.1018 8.23447C26.1047 8.22913 26.1086 8.22221 26.1133 8.21376C26.1228 8.19685 26.1358 8.17381 26.1526 8.14495C26.1861 8.08726 26.2343 8.00632 26.2977 7.90486C26.4245 7.702 26.6124 7.41676 26.8654 7.07102C27.3712 6.37993 28.1395 5.44444 29.2036 4.44126C31.3341 2.43281 34.6526 0.15197 39.4124 -0.973183L39.8725 0.973183C35.514 2.00346 32.499 4.08324 30.5755 5.89654C29.6127 6.80424 28.9238 7.64491 28.4793 8.25226C28.2572 8.55574 28.0966 8.80029 27.9937 8.96491C27.9422 9.0472 27.9053 9.10943 27.8823 9.14896C27.8709 9.16873 27.8629 9.18281 27.8584 9.19088C27.8561 9.19492 27.8547 9.19745 27.8542 9.19843C27.8539 9.19893 27.8538 9.19904 27.854 9.19875C27.8541 9.19861 27.8542 9.19836 27.8544 9.19803C27.8545 9.19786 27.8547 9.19753 27.8547 9.19744C27.8549 9.19709 27.8551 9.19672 26.9754 8.72122ZM14.0345 -1H39.6425V1H14.0345V-1ZM-0.261282 18.614C-3.39879 8.92416 3.8393 -1 14.0345 -1V1C5.1923 1 -1.07626 9.60453 1.64146 17.9979L-0.261282 18.614ZM22.728 89.6139L-0.261283 18.614L1.64146 17.9979L24.6307 88.9979L22.728 89.6139ZM37.0239 100C30.5077 100 24.733 95.806 22.728 89.614L24.6307 88.9979C26.368 94.3631 31.373 98 37.0239 98V100ZM270.378 100H37.0239V98H270.378V100ZM273.168 98.6831C273.101 99.6809 273.101 99.6809 273.101 99.6809C273.101 99.6809 273.101 99.681 273.102 99.681C273.102 99.681 273.102 99.681 273.102 99.681C273.103 99.681 273.103 99.6811 273.103 99.6811C273.104 99.6811 273.104 99.6811 273.104 99.6811C273.104 99.6811 273.104 99.6811 273.102 99.681C273.098 99.6808 273.089 99.6804 273.077 99.6799C273.052 99.6789 273.012 99.6777 272.956 99.6773C272.844 99.6765 272.673 99.6787 272.452 99.6922C272.01 99.7193 271.37 99.7914 270.61 99.9727L270.146 98.0273C271.035 97.8153 271.79 97.729 272.33 97.6959C272.6 97.6794 272.817 97.6762 272.971 97.6774C273.048 97.678 273.11 97.6797 273.154 97.6814C273.176 97.6822 273.194 97.6831 273.207 97.6838C273.214 97.6841 273.22 97.6845 273.224 97.6847C273.227 97.6849 273.229 97.685 273.23 97.6851C273.231 97.6852 273.232 97.6852 273.233 97.6853C273.233 97.6853 273.233 97.6853 273.234 97.6853C273.234 97.6853 273.234 97.6854 273.234 97.6854C273.234 97.6854 273.235 97.6854 273.168 98.6831ZM258.726 87.5275C259.685 87.2441 259.684 87.2436 259.684 87.2432C259.684 87.2431 259.684 87.2426 259.684 87.2424C259.684 87.242 259.684 87.2416 259.684 87.2415C259.684 87.2411 259.684 87.2413 259.684 87.242C259.684 87.2433 259.685 87.2468 259.687 87.2523C259.691 87.2634 259.697 87.2825 259.706 87.3093C259.724 87.363 259.753 87.4472 259.796 87.5583C259.881 87.7804 260.018 88.1093 260.219 88.5151C260.621 89.3273 261.277 90.4426 262.283 91.6261C264.286 93.9816 267.7 96.6382 273.352 97.7003L272.983 99.6659C266.835 98.5108 263.028 95.5895 260.759 92.9216C259.63 91.5934 258.888 90.3355 258.426 89.4025C258.195 88.9356 258.034 88.5489 257.928 88.2736C257.876 88.1359 257.837 88.026 257.81 87.9476C257.797 87.9084 257.787 87.8771 257.78 87.8542C257.776 87.8427 257.773 87.8333 257.771 87.8261C257.77 87.8225 257.769 87.8194 257.768 87.8169C257.768 87.8156 257.768 87.8145 257.767 87.8135C257.767 87.813 257.767 87.8124 257.767 87.8121C257.767 87.8115 257.767 87.8109 258.726 87.5275ZM275.405 92.9656C274.701 93.6752 274.701 93.6755 274.701 93.6757C274.701 93.6757 274.701 93.6759 274.702 93.676C274.702 93.6761 274.702 93.6761 274.702 93.6761C274.701 93.6759 274.701 93.6753 274.7 93.6743C274.698 93.6723 274.694 93.6686 274.688 93.6632C274.677 93.6525 274.66 93.6354 274.635 93.6122C274.586 93.5658 274.51 93.4954 274.409 93.4049C274.206 93.2239 273.902 92.9629 273.506 92.6531C272.714 92.0325 271.561 91.2211 270.128 90.4636C267.253 88.9446 263.318 87.6771 258.911 88.5101L258.54 86.5449C263.544 85.599 267.949 87.0505 271.062 88.6953C272.622 89.5198 273.875 90.4014 274.739 91.0784C275.172 91.4174 275.509 91.7064 275.741 91.913C275.857 92.0164 275.946 92.0994 276.008 92.1578C276.039 92.1871 276.063 92.2102 276.08 92.2267C276.089 92.235 276.095 92.2416 276.1 92.2465C276.103 92.249 276.105 92.251 276.107 92.2526C276.107 92.2534 276.108 92.254 276.109 92.2546C276.109 92.2549 276.109 92.2552 276.109 92.2554C276.11 92.2557 276.11 92.256 275.405 92.9656ZM272.686 83.9282C273.258 86.62 274.148 88.7436 274.891 90.1882C275.262 90.9102 275.596 91.4612 275.833 91.8272C275.952 92.0101 276.047 92.1466 276.109 92.2349C276.141 92.2791 276.165 92.3112 276.179 92.331C276.187 92.341 276.192 92.3478 276.195 92.3515C276.196 92.3534 276.197 92.3545 276.197 92.3548C276.197 92.355 276.197 92.3549 276.197 92.3547C276.197 92.3546 276.197 92.3544 276.197 92.3542C276.197 92.3541 276.196 92.3539 276.196 92.3538C276.196 92.3536 276.196 92.3534 275.405 92.9656C274.615 93.5778 274.615 93.5776 274.614 93.5773C274.614 93.5772 274.614 93.577 274.614 93.5767C274.614 93.5763 274.613 93.5759 274.613 93.5754C274.612 93.5743 274.611 93.5731 274.61 93.5717C274.608 93.5688 274.605 93.5652 274.602 93.5608C274.595 93.5519 274.586 93.5398 274.574 93.5246C274.552 93.4942 274.52 93.4512 274.481 93.3957C274.402 93.2849 274.291 93.1243 274.156 92.9159C273.885 92.4991 273.517 91.8901 273.112 91.1029C272.303 89.5293 271.344 87.2381 270.729 84.3437L272.686 83.9282ZM274.923 72.9502C274.445 73.9467 273.674 75.697 273.13 77.7166C272.582 79.7499 272.29 81.9689 272.688 83.9378L270.727 84.3341C270.242 81.9313 270.614 79.3667 271.199 77.1966C271.787 75.0126 272.614 73.1395 273.121 72.0846L274.923 72.9502Z" fill="#011F00" mask="url(#path-1-inside-1_20_217)"/>
</svg>
