<svg width="109" height="39" viewBox="0 0 109 39" fill="none" xmlns="http://www.w3.org/2000/svg">
    <mask id="path-1-inside-1_0_98" fill="white">
        <path
            d="M9.43465 3.29614H10.1467C10.7875 3.29614 11.3453 3.46229 11.82 3.79458C12.3185 4.10313 12.6626 4.54223 12.8525 5.11187C13.0424 5.68151 13.1373 6.25115 13.1373 6.82079V6.9276C14.7276 7.28362 15.9736 7.88886 16.8756 8.74332C17.8012 9.59778 18.2641 10.6777 18.2641 11.9831C18.2641 12.6715 18.0742 13.3598 17.6944 14.0481C17.3147 14.7364 16.8044 15.2467 16.1635 15.579C14.597 14.8195 13.4459 14.3685 12.7101 14.2261C11.9743 14.06 11.3453 13.9769 10.8231 13.9769C10.301 13.9769 9.88562 14.06 9.57706 14.2261C9.29224 14.3685 9.14983 14.5821 9.14983 14.8669C9.14983 15.1755 10.123 15.6502 12.0692 16.291C14.4902 17.098 16.2347 18.0949 17.3028 19.2817C18.3709 20.4447 18.9049 21.8569 18.9049 23.5183C18.9049 24.6102 18.6676 25.6545 18.1929 26.6514C17.7419 27.6245 17.0536 28.4433 16.1279 29.1079C15.226 29.7725 14.2291 30.2709 13.1373 30.6032V31.6713C13.1373 32.2409 13.0424 32.8106 12.8525 33.3802C12.6626 33.9499 12.3185 34.389 11.82 34.6975C11.3453 35.0298 10.7875 35.1959 10.1467 35.1959H9.43465C8.79381 35.1959 8.22417 35.0298 7.72574 34.6975C7.25104 34.389 6.91875 33.9499 6.72887 33.3802C6.53899 32.8106 6.44405 32.2409 6.44405 31.6713V30.9949C4.54525 30.7338 2.99061 30.2116 1.78012 29.4284C0.593374 28.6214 0 27.6482 0 26.5089C0 25.7732 0.152427 22.3079 1.5 21.0001C2.57787 19.9541 3.71831 20.0492 5 20.5001C6.30542 20.9274 7.5506 22.0001 8.5 22.0001C9.56807 22.0001 9.86188 24.0761 9.86188 23.5539C9.86188 23.5065 9.82628 23.4353 9.75508 23.3403C9.70761 23.2217 9.28038 23.0318 8.47339 22.7707C7.69013 22.5096 6.97808 22.2248 6.33724 21.9162C5.10302 21.3466 4.08242 20.7532 3.27543 20.1361C2.49217 19.519 1.87506 18.7713 1.4241 17.8932C0.973134 16.9912 0.747652 15.9113 0.747652 14.6533C0.747652 12.8495 1.24609 11.2711 2.24296 9.9182C3.26356 8.56531 4.66392 7.61591 6.44405 7.07V6.82079C6.44405 6.25115 6.53899 5.68151 6.72887 5.11187C6.91875 4.54223 7.25104 4.10313 7.72574 3.79458C8.22417 3.46229 8.79381 3.29614 9.43465 3.29614ZM35.2743 12.2324C35.2743 13.0631 35.0725 13.7514 34.669 14.2973C34.2893 14.8195 33.7552 15.2467 33.0669 15.579C32.4023 15.9113 31.6309 16.1368 30.7527 16.2554C30.4442 15.6383 29.9458 15.1636 29.2574 14.8313C28.5929 14.4753 27.8333 14.2973 26.9789 14.2973C25.6735 14.2973 24.7003 14.7483 24.0595 15.6502C23.4186 16.5284 23.0982 17.6439 23.0982 18.9968C23.0982 20.3497 23.4305 21.4415 24.0951 22.2723C24.7834 23.0792 25.7447 23.4827 26.9789 23.4827C28.4742 23.4827 29.7203 22.8775 30.7171 21.667C31.8802 21.8094 32.9245 22.2485 33.8502 22.9843C34.7758 23.7201 35.2387 24.6458 35.2387 25.7613C35.2387 26.7582 34.9182 27.6482 34.2774 28.4315C33.6603 29.2147 32.7227 29.8674 31.4648 30.3896C30.2306 30.9118 28.7234 31.1729 26.9433 31.1729C25.353 31.1729 23.8221 30.9355 22.3506 30.4608C20.9027 29.9861 19.6092 29.2503 18.4699 28.2535C17.3306 27.2566 16.4287 25.9868 15.7641 24.444C15.0995 22.8775 14.7672 21.0736 14.7672 19.0324C14.7672 16.9912 15.0758 15.1755 15.6929 13.5853C16.3337 11.995 17.2001 10.6896 18.2919 9.66898C19.3837 8.64838 20.6535 7.88886 22.1013 7.39043C23.5492 6.86826 25.0801 6.60717 26.6941 6.60717C29.2574 6.60717 31.3224 7.15308 32.8889 8.24489C34.4791 9.31296 35.2743 10.6421 35.2743 12.2324ZM56.6132 18.89C56.6132 20.6227 56.364 22.2485 55.8656 23.7676C55.3671 25.2866 54.5839 26.592 53.5158 27.6838C52.4715 28.7756 51.1898 29.6301 49.6707 30.2472C48.1754 30.8643 46.5258 31.1729 44.722 31.1729C43.3216 31.1729 41.9213 30.9593 40.5209 30.532C39.1205 30.1048 37.8388 29.4165 36.6758 28.4671C35.5128 27.4939 34.5753 26.2004 33.8632 24.5864C33.1512 22.9724 32.7952 21.0736 32.7952 18.89C32.7952 17.1574 33.0444 15.5315 33.5428 14.0125C34.0412 12.4934 34.8126 11.188 35.857 10.0962C36.9013 9.00441 38.183 8.14995 39.702 7.53284C41.2211 6.91573 42.8825 6.60717 44.6864 6.60717C46.514 6.60717 48.1873 6.91573 49.7063 7.53284C51.2254 8.14995 52.507 9.00441 53.5514 10.0962C54.5957 11.188 55.3671 12.4934 55.8656 14.0125C56.364 15.5315 56.6132 17.1574 56.6132 18.89ZM48.2822 18.89C48.2822 18.0356 48.1517 17.2404 47.8906 16.5047C47.6533 15.7689 47.226 15.2111 46.6089 14.8313C46.0155 14.4516 45.3747 14.2617 44.6864 14.2617C43.9981 14.2617 43.381 14.4397 42.835 14.7957C42.3129 15.128 41.8975 15.6383 41.589 16.3266C41.2804 16.9912 41.1261 17.8457 41.1261 18.89C41.1261 19.7445 41.2448 20.5396 41.4822 21.2754C41.7432 22.0112 42.1705 22.5808 42.7638 22.9843C43.3572 23.3641 43.9981 23.5539 44.6864 23.5539C45.1136 23.5539 45.6002 23.4471 46.1461 23.2335C46.7157 23.0199 47.2142 22.5571 47.6414 21.845C48.0686 21.133 48.2822 20.148 48.2822 18.89ZM57.8148 6.9632H59.2745C59.9628 6.9632 61.4494 6.75226 63 7.78205C65.4098 9.38242 67 14.8313 67 14.8313C67 14.8313 65.8064 9.54243 67.827 7.81766C69.1702 6.67114 71.0708 6.9632 72.3762 6.9632H72.8034C74.1089 6.9632 75.0345 7.23615 75.5804 7.78205C76.1263 8.32796 76.3993 9.22989 76.3993 10.4878V27.3634C76.3993 28.5739 76.1026 29.4521 75.5092 29.998C74.9396 30.5439 74.002 30.8168 72.6966 30.8168H71.9134C69.9908 30.8168 68.5549 30.1167 67.6055 28.7163L63 22.0001C63 22.0001 63.8899 25.3395 62.5 28.0001C61.4579 29.995 59.1914 30.8168 57.886 30.8168H57.708C56.3788 30.8168 55.4413 30.5558 54.8954 30.0336C54.3732 29.4877 54.1121 28.5976 54.1121 27.3634V10.4878C54.1121 9.25362 54.3969 8.36356 54.9666 7.81766C55.56 7.24802 56.5094 6.9632 57.8148 6.9632ZM78.4851 6.9632H89.2014C90.222 6.9632 91.029 7.27175 91.6224 7.88886C92.2395 8.48224 92.548 9.38417 92.548 10.5946C92.548 11.7814 92.2395 12.6833 91.6224 13.3004C91.029 13.9175 90.222 14.2261 89.2014 14.2261H82.8998V16.0062H86.2464C87.3382 16.0062 88.1096 16.1724 88.5606 16.5047C89.0115 16.8132 89.2963 17.1811 89.415 17.6083C89.5337 18.0118 89.593 18.4272 89.593 18.8544C89.593 19.4478 89.4862 19.97 89.2726 20.4209C89.059 20.8719 88.6911 21.2042 88.1689 21.4178C87.6705 21.6077 87.0297 21.7026 86.2464 21.7026H82.8998V23.5539H89.5574C90.578 23.5539 91.385 23.8625 91.9784 24.4796C92.5955 25.073 92.9041 25.9749 92.9041 27.1854C92.9041 28.3721 92.5955 29.2741 91.9784 29.8912C91.385 30.5083 90.578 30.8168 89.5574 30.8168H78.4851C77.1322 30.8168 76.1709 30.5558 75.6013 30.0336C75.0554 29.4877 74.7824 28.5976 74.7824 27.3634V10.4878C74.7824 9.25362 75.0672 8.36356 75.6369 7.81766C76.2303 7.24802 77.1797 6.9632 78.4851 6.9632ZM108.146 11.6271C108.146 12.3154 107.956 13.0037 107.576 13.6921C107.196 14.3804 106.141 15.6739 105.5 16.0062C103.435 14.9381 101 15.0001 101 15.0001C101 15.0001 103.1 15.4305 104.5 16.0001C105.9 16.5698 107.042 18.4272 107.825 19.3529C108.608 20.2548 109 21.5602 109 23.2691C109 24.3372 108.751 25.3578 108.252 26.3309C107.778 27.3041 107.077 28.1585 106.152 28.8943C105.25 29.6064 104.146 30.1641 102.841 30.5676C101.559 30.9711 100.159 31.1729 98.6397 31.1729C96.7409 31.1729 95.0676 30.9593 93.6197 30.532C92.1956 30.0811 91.092 29.5114 90.3087 28.8231C89.5492 28.1348 89.1694 27.3634 89.1694 26.5089C89.1694 25.7732 89.3237 25.0492 89.6323 24.3372C89.9646 23.6014 90.5461 22.9962 91.3768 22.5215C91.7565 22.7826 92.433 23.1148 93.4061 23.5183C94.403 23.8981 95.388 24.1948 96.3611 24.4084C97.3343 24.5983 98.165 24.6932 98.8533 24.6932C99.3043 24.6932 99.684 24.6102 99.9926 24.444C100.301 24.2779 100.455 24.0405 100.455 23.732C100.455 23.4234 100.254 23.1979 99.8502 23.0555C99.4704 22.8894 98.9008 22.7351 98.1413 22.5927C96.7409 22.3316 95.5185 21.9993 94.4742 21.5958C93.4299 21.1686 92.5517 20.6464 91.8396 20.0293C91.1276 19.3885 90.5817 18.6289 90.2019 17.7507C89.8459 16.8726 89.6679 15.8638 89.6679 14.7245C89.6679 13.5141 89.8933 12.4104 90.3443 11.4135C90.819 10.3929 91.4836 9.52658 92.3381 8.81453C93.1925 8.10248 94.2012 7.55657 95.3643 7.17681C96.551 6.79705 97.8327 6.60717 99.2093 6.60717C101.179 6.60717 102.817 6.82079 104.122 7.24802C105.428 7.65151 106.425 8.22115 107.113 8.95694C107.801 9.66898 108.146 10.559 108.146 11.6271Z" />
    </mask>
    <path
        d="M9.43465 3.29614H10.1467C10.7875 3.29614 11.3453 3.46229 11.82 3.79458C12.3185 4.10313 12.6626 4.54223 12.8525 5.11187C13.0424 5.68151 13.1373 6.25115 13.1373 6.82079V6.9276C14.7276 7.28362 15.9736 7.88886 16.8756 8.74332C17.8012 9.59778 18.2641 10.6777 18.2641 11.9831C18.2641 12.6715 18.0742 13.3598 17.6944 14.0481C17.3147 14.7364 16.8044 15.2467 16.1635 15.579C14.597 14.8195 13.4459 14.3685 12.7101 14.2261C11.9743 14.06 11.3453 13.9769 10.8231 13.9769C10.301 13.9769 9.88562 14.06 9.57706 14.2261C9.29224 14.3685 9.14983 14.5821 9.14983 14.8669C9.14983 15.1755 10.123 15.6502 12.0692 16.291C14.4902 17.098 16.2347 18.0949 17.3028 19.2817C18.3709 20.4447 18.9049 21.8569 18.9049 23.5183C18.9049 24.6102 18.6676 25.6545 18.1929 26.6514C17.7419 27.6245 17.0536 28.4433 16.1279 29.1079C15.226 29.7725 14.2291 30.2709 13.1373 30.6032V31.6713C13.1373 32.2409 13.0424 32.8106 12.8525 33.3802C12.6626 33.9499 12.3185 34.389 11.82 34.6975C11.3453 35.0298 10.7875 35.1959 10.1467 35.1959H9.43465C8.79381 35.1959 8.22417 35.0298 7.72574 34.6975C7.25104 34.389 6.91875 33.9499 6.72887 33.3802C6.53899 32.8106 6.44405 32.2409 6.44405 31.6713V30.9949C4.54525 30.7338 2.99061 30.2116 1.78012 29.4284C0.593374 28.6214 0 27.6482 0 26.5089C0 25.7732 0.152427 22.3079 1.5 21.0001C2.57787 19.9541 3.71831 20.0492 5 20.5001C6.30542 20.9274 7.5506 22.0001 8.5 22.0001C9.56807 22.0001 9.86188 24.0761 9.86188 23.5539C9.86188 23.5065 9.82628 23.4353 9.75508 23.3403C9.70761 23.2217 9.28038 23.0318 8.47339 22.7707C7.69013 22.5096 6.97808 22.2248 6.33724 21.9162C5.10302 21.3466 4.08242 20.7532 3.27543 20.1361C2.49217 19.519 1.87506 18.7713 1.4241 17.8932C0.973134 16.9912 0.747652 15.9113 0.747652 14.6533C0.747652 12.8495 1.24609 11.2711 2.24296 9.9182C3.26356 8.56531 4.66392 7.61591 6.44405 7.07V6.82079C6.44405 6.25115 6.53899 5.68151 6.72887 5.11187C6.91875 4.54223 7.25104 4.10313 7.72574 3.79458C8.22417 3.46229 8.79381 3.29614 9.43465 3.29614ZM35.2743 12.2324C35.2743 13.0631 35.0725 13.7514 34.669 14.2973C34.2893 14.8195 33.7552 15.2467 33.0669 15.579C32.4023 15.9113 31.6309 16.1368 30.7527 16.2554C30.4442 15.6383 29.9458 15.1636 29.2574 14.8313C28.5929 14.4753 27.8333 14.2973 26.9789 14.2973C25.6735 14.2973 24.7003 14.7483 24.0595 15.6502C23.4186 16.5284 23.0982 17.6439 23.0982 18.9968C23.0982 20.3497 23.4305 21.4415 24.0951 22.2723C24.7834 23.0792 25.7447 23.4827 26.9789 23.4827C28.4742 23.4827 29.7203 22.8775 30.7171 21.667C31.8802 21.8094 32.9245 22.2485 33.8502 22.9843C34.7758 23.7201 35.2387 24.6458 35.2387 25.7613C35.2387 26.7582 34.9182 27.6482 34.2774 28.4315C33.6603 29.2147 32.7227 29.8674 31.4648 30.3896C30.2306 30.9118 28.7234 31.1729 26.9433 31.1729C25.353 31.1729 23.8221 30.9355 22.3506 30.4608C20.9027 29.9861 19.6092 29.2503 18.4699 28.2535C17.3306 27.2566 16.4287 25.9868 15.7641 24.444C15.0995 22.8775 14.7672 21.0736 14.7672 19.0324C14.7672 16.9912 15.0758 15.1755 15.6929 13.5853C16.3337 11.995 17.2001 10.6896 18.2919 9.66898C19.3837 8.64838 20.6535 7.88886 22.1013 7.39043C23.5492 6.86826 25.0801 6.60717 26.6941 6.60717C29.2574 6.60717 31.3224 7.15308 32.8889 8.24489C34.4791 9.31296 35.2743 10.6421 35.2743 12.2324ZM56.6132 18.89C56.6132 20.6227 56.364 22.2485 55.8656 23.7676C55.3671 25.2866 54.5839 26.592 53.5158 27.6838C52.4715 28.7756 51.1898 29.6301 49.6707 30.2472C48.1754 30.8643 46.5258 31.1729 44.722 31.1729C43.3216 31.1729 41.9213 30.9593 40.5209 30.532C39.1205 30.1048 37.8388 29.4165 36.6758 28.4671C35.5128 27.4939 34.5753 26.2004 33.8632 24.5864C33.1512 22.9724 32.7952 21.0736 32.7952 18.89C32.7952 17.1574 33.0444 15.5315 33.5428 14.0125C34.0412 12.4934 34.8126 11.188 35.857 10.0962C36.9013 9.00441 38.183 8.14995 39.702 7.53284C41.2211 6.91573 42.8825 6.60717 44.6864 6.60717C46.514 6.60717 48.1873 6.91573 49.7063 7.53284C51.2254 8.14995 52.507 9.00441 53.5514 10.0962C54.5957 11.188 55.3671 12.4934 55.8656 14.0125C56.364 15.5315 56.6132 17.1574 56.6132 18.89ZM48.2822 18.89C48.2822 18.0356 48.1517 17.2404 47.8906 16.5047C47.6533 15.7689 47.226 15.2111 46.6089 14.8313C46.0155 14.4516 45.3747 14.2617 44.6864 14.2617C43.9981 14.2617 43.381 14.4397 42.835 14.7957C42.3129 15.128 41.8975 15.6383 41.589 16.3266C41.2804 16.9912 41.1261 17.8457 41.1261 18.89C41.1261 19.7445 41.2448 20.5396 41.4822 21.2754C41.7432 22.0112 42.1705 22.5808 42.7638 22.9843C43.3572 23.3641 43.9981 23.5539 44.6864 23.5539C45.1136 23.5539 45.6002 23.4471 46.1461 23.2335C46.7157 23.0199 47.2142 22.5571 47.6414 21.845C48.0686 21.133 48.2822 20.148 48.2822 18.89ZM57.8148 6.9632H59.2745C59.9628 6.9632 61.4494 6.75226 63 7.78205C65.4098 9.38242 67 14.8313 67 14.8313C67 14.8313 65.8064 9.54243 67.827 7.81766C69.1702 6.67114 71.0708 6.9632 72.3762 6.9632H72.8034C74.1089 6.9632 75.0345 7.23615 75.5804 7.78205C76.1263 8.32796 76.3993 9.22989 76.3993 10.4878V27.3634C76.3993 28.5739 76.1026 29.4521 75.5092 29.998C74.9396 30.5439 74.002 30.8168 72.6966 30.8168H71.9134C69.9908 30.8168 68.5549 30.1167 67.6055 28.7163L63 22.0001C63 22.0001 63.8899 25.3395 62.5 28.0001C61.4579 29.995 59.1914 30.8168 57.886 30.8168H57.708C56.3788 30.8168 55.4413 30.5558 54.8954 30.0336C54.3732 29.4877 54.1121 28.5976 54.1121 27.3634V10.4878C54.1121 9.25362 54.3969 8.36356 54.9666 7.81766C55.56 7.24802 56.5094 6.9632 57.8148 6.9632ZM78.4851 6.9632H89.2014C90.222 6.9632 91.029 7.27175 91.6224 7.88886C92.2395 8.48224 92.548 9.38417 92.548 10.5946C92.548 11.7814 92.2395 12.6833 91.6224 13.3004C91.029 13.9175 90.222 14.2261 89.2014 14.2261H82.8998V16.0062H86.2464C87.3382 16.0062 88.1096 16.1724 88.5606 16.5047C89.0115 16.8132 89.2963 17.1811 89.415 17.6083C89.5337 18.0118 89.593 18.4272 89.593 18.8544C89.593 19.4478 89.4862 19.97 89.2726 20.4209C89.059 20.8719 88.6911 21.2042 88.1689 21.4178C87.6705 21.6077 87.0297 21.7026 86.2464 21.7026H82.8998V23.5539H89.5574C90.578 23.5539 91.385 23.8625 91.9784 24.4796C92.5955 25.073 92.9041 25.9749 92.9041 27.1854C92.9041 28.3721 92.5955 29.2741 91.9784 29.8912C91.385 30.5083 90.578 30.8168 89.5574 30.8168H78.4851C77.1322 30.8168 76.1709 30.5558 75.6013 30.0336C75.0554 29.4877 74.7824 28.5976 74.7824 27.3634V10.4878C74.7824 9.25362 75.0672 8.36356 75.6369 7.81766C76.2303 7.24802 77.1797 6.9632 78.4851 6.9632ZM108.146 11.6271C108.146 12.3154 107.956 13.0037 107.576 13.6921C107.196 14.3804 106.141 15.6739 105.5 16.0062C103.435 14.9381 101 15.0001 101 15.0001C101 15.0001 103.1 15.4305 104.5 16.0001C105.9 16.5698 107.042 18.4272 107.825 19.3529C108.608 20.2548 109 21.5602 109 23.2691C109 24.3372 108.751 25.3578 108.252 26.3309C107.778 27.3041 107.077 28.1585 106.152 28.8943C105.25 29.6064 104.146 30.1641 102.841 30.5676C101.559 30.9711 100.159 31.1729 98.6397 31.1729C96.7409 31.1729 95.0676 30.9593 93.6197 30.532C92.1956 30.0811 91.092 29.5114 90.3087 28.8231C89.5492 28.1348 89.1694 27.3634 89.1694 26.5089C89.1694 25.7732 89.3237 25.0492 89.6323 24.3372C89.9646 23.6014 90.5461 22.9962 91.3768 22.5215C91.7565 22.7826 92.433 23.1148 93.4061 23.5183C94.403 23.8981 95.388 24.1948 96.3611 24.4084C97.3343 24.5983 98.165 24.6932 98.8533 24.6932C99.3043 24.6932 99.684 24.6102 99.9926 24.444C100.301 24.2779 100.455 24.0405 100.455 23.732C100.455 23.4234 100.254 23.1979 99.8502 23.0555C99.4704 22.8894 98.9008 22.7351 98.1413 22.5927C96.7409 22.3316 95.5185 21.9993 94.4742 21.5958C93.4299 21.1686 92.5517 20.6464 91.8396 20.0293C91.1276 19.3885 90.5817 18.6289 90.2019 17.7507C89.8459 16.8726 89.6679 15.8638 89.6679 14.7245C89.6679 13.5141 89.8933 12.4104 90.3443 11.4135C90.819 10.3929 91.4836 9.52658 92.3381 8.81453C93.1925 8.10248 94.2012 7.55657 95.3643 7.17681C96.551 6.79705 97.8327 6.60717 99.2093 6.60717C101.179 6.60717 102.817 6.82079 104.122 7.24802C105.428 7.65151 106.425 8.22115 107.113 8.95694C107.801 9.66898 108.146 10.559 108.146 11.6271Z"
        stroke="black" stroke-width="20.3117" mask="url(#path-1-inside-1_0_98)" />
    <path
        d="M16.5658 10.6924L6.76045 9.89868C7.50752 12.4823 9.18844 17.6496 9.93551 17.6496C10.6826 17.6496 12.0833 21.167 12.6903 22.9258L30.1999 23.4861L38.7445 22.9258L48.4097 24.2331L57.7482 21.9452L59.5691 19.2371C60.7209 18.7079 63.0897 17.7523 63.3512 18.1632C63.678 18.6768 73.9503 25.9607 73.9503 26.1942C73.9503 26.4277 100.798 26.8479 101.125 26.6144C101.387 26.4277 104.72 23.0814 106.355 21.4316C102.557 18.9258 94.8496 13.7741 94.4014 13.2138C93.9532 12.6535 88.6116 12.0154 85.9968 11.7664L73.9503 15.922L66.573 17.6496L59.5691 13.2138L50.6977 11.7664L38.7445 13.2138L28.2388 10.6924H16.5658Z"
        fill="black" />
    <path
        d="M9.39191 5.478H9.97463C10.4991 5.478 10.9555 5.61397 11.344 5.8859C11.7519 6.13842 12.0336 6.49776 12.1889 6.96393C12.3443 7.4301 12.422 7.89628 12.422 8.36245V8.44986C13.7234 8.74122 14.7432 9.23653 15.4813 9.93579C16.2388 10.635 16.6176 11.5188 16.6176 12.5871C16.6176 13.1504 16.4622 13.7137 16.1514 14.277C15.8406 14.8403 15.423 15.2579 14.8986 15.5299C13.6166 14.9083 12.6745 14.5392 12.0724 14.4227C11.4703 14.2867 10.9555 14.2188 10.5282 14.2188C10.1009 14.2188 9.76096 14.2867 9.50845 14.4227C9.27537 14.5392 9.15882 14.7141 9.15882 14.9471C9.15882 15.1997 9.9552 15.5881 11.548 16.1126C13.5292 16.773 14.9569 17.5888 15.8309 18.56C16.705 19.5118 17.142 20.6675 17.142 22.0272C17.142 22.9207 16.9478 23.7753 16.5593 24.5911C16.1903 25.3875 15.627 26.0576 14.8694 26.6015C14.1313 27.1453 13.3155 27.5533 12.422 27.8252V28.6993C12.422 29.1654 12.3443 29.6316 12.1889 30.0978C12.0336 30.564 11.7519 30.9233 11.344 31.1758C10.9555 31.4477 10.4991 31.5837 9.97463 31.5837H9.39191C8.86747 31.5837 8.40129 31.4477 7.99339 31.1758C7.60491 30.9233 7.33298 30.564 7.17759 30.0978C7.0222 29.6316 6.9445 29.1654 6.9445 28.6993V28.1457C5.39059 27.932 4.11833 27.5047 3.12771 26.8637C2.15651 26.2033 1.67092 25.4069 1.67092 24.4746C1.67092 23.8724 1.79717 23.28 2.04968 22.6973C2.32162 22.0951 2.7975 21.5998 3.47734 21.2114C3.88524 21.4833 4.61363 21.8038 5.66252 22.1728C6.73084 22.5225 7.65347 22.6973 8.43043 22.6973C9.3045 22.6973 9.74154 22.4836 9.74154 22.0563C9.74154 22.0174 9.7124 21.9592 9.65413 21.8815C9.61529 21.7844 9.26566 21.629 8.60524 21.4153C7.96425 21.2016 7.38154 20.9686 6.85709 20.716C5.84705 20.2499 5.01182 19.7643 4.35141 19.2593C3.71042 18.7542 3.2054 18.1424 2.83635 17.4237C2.4673 16.6856 2.28277 15.8018 2.28277 14.7723C2.28277 13.2961 2.69067 12.0044 3.50647 10.8973C4.3417 9.79011 5.48771 9.01315 6.9445 8.5664V8.36245C6.9445 7.89628 7.0222 7.4301 7.17759 6.96393C7.33298 6.49776 7.60491 6.13842 7.99339 5.8859C8.40129 5.61397 8.86747 5.478 9.39191 5.478ZM33.8888 12.7911C33.8888 13.4709 33.7237 14.0342 33.3935 14.481C33.0827 14.9083 32.6456 15.2579 32.0823 15.5299C31.5385 15.8018 30.9072 15.9863 30.1885 16.0834C29.936 15.5784 29.5281 15.1899 28.9648 14.918C28.4209 14.6267 27.7994 14.481 27.1001 14.481C26.0318 14.481 25.2354 14.85 24.711 15.5881C24.1865 16.3068 23.9243 17.2197 23.9243 18.3269C23.9243 19.4341 24.1962 20.3276 24.7401 21.0074C25.3034 21.6678 26.0901 21.998 27.1001 21.998C28.3238 21.998 29.3436 21.5027 30.1594 20.5121C31.1112 20.6286 31.9658 20.988 32.7233 21.5901C33.4809 22.1923 33.8596 22.9498 33.8596 23.8627C33.8596 24.6785 33.5974 25.4069 33.073 26.0479C32.5679 26.6889 31.8007 27.223 30.7712 27.6504C29.7612 28.0777 28.5278 28.2914 27.071 28.2914C25.7696 28.2914 24.5167 28.0971 23.3125 27.7086C22.1276 27.3202 21.069 26.718 20.1367 25.9022C19.2043 25.0864 18.4662 24.0472 17.9223 22.7847C17.3785 21.5027 17.1065 20.0265 17.1065 18.356C17.1065 16.6856 17.359 15.1997 17.8641 13.8983C18.3885 12.5969 19.0975 11.5285 19.991 10.6933C20.8845 9.85809 21.9237 9.23653 23.1085 8.82862C24.2934 8.4013 25.5462 8.18764 26.867 8.18764C28.9648 8.18764 30.6547 8.63439 31.9367 9.52788C33.2381 10.402 33.8888 11.4897 33.8888 12.7911ZM54.7025 18.2395C54.7025 19.6574 54.4985 20.988 54.0906 22.2311C53.6827 23.4742 53.0417 24.5425 52.1676 25.436C51.313 26.3295 50.2641 27.0288 49.021 27.5338C47.7973 28.0388 46.4473 28.2914 44.9711 28.2914C43.8251 28.2914 42.6791 28.1165 41.5331 27.7669C40.387 27.4173 39.3382 26.854 38.3864 26.077C37.4346 25.2807 36.6674 24.2221 36.0847 22.9012C35.5019 21.5804 35.2106 20.0265 35.2106 18.2395C35.2106 16.8216 35.4145 15.491 35.8224 14.2479C36.2303 13.0048 36.8616 11.9364 37.7163 11.0429C38.5709 10.1494 39.6198 9.45019 40.8629 8.94517C42.1061 8.44015 43.4657 8.18764 44.9419 8.18764C46.4376 8.18764 47.807 8.44015 49.0501 8.94517C50.2932 9.45019 51.3421 10.1494 52.1968 11.0429C53.0514 11.9364 53.6827 13.0048 54.0906 14.2479C54.4985 15.491 54.7025 16.8216 54.7025 18.2395ZM47.8847 18.2395C47.8847 17.5402 47.7778 16.8895 47.5642 16.2874C47.3699 15.6853 47.0203 15.2288 46.5153 14.918C46.0297 14.6072 45.5052 14.4518 44.9419 14.4518C44.3787 14.4518 43.8736 14.5975 43.4269 14.8889C42.9996 15.1608 42.6596 15.5784 42.4071 16.1417C42.1546 16.6856 42.0284 17.3848 42.0284 18.2395C42.0284 18.9388 42.1255 19.5895 42.3197 20.1916C42.5334 20.7937 42.883 21.2599 43.3686 21.5901C43.8542 21.9009 44.3787 22.0563 44.9419 22.0563C45.2916 22.0563 45.6898 21.9689 46.1365 21.7941C46.6027 21.6193 47.0106 21.2405 47.3602 20.6578C47.7099 20.0751 47.8847 19.269 47.8847 18.2395ZM59.0364 8.47899H60.231C60.7943 8.47899 61.3284 8.60525 61.8334 8.85776C62.3579 9.11027 62.8629 9.61529 63.3485 10.3728L68.0102 18.2686V11.3634C68.0102 10.334 68.2336 9.59587 68.6804 9.14912C69.1271 8.70237 69.8846 8.47899 70.953 8.47899H71.3026C72.3709 8.47899 73.1284 8.70237 73.5752 9.14912C74.0219 9.59587 74.2453 10.334 74.2453 11.3634V25.1738C74.2453 26.1644 74.0025 26.8831 73.5169 27.3299C73.0507 27.7766 72.2835 28 71.2152 28H70.5742C69.0009 28 67.8257 27.427 67.0488 26.281L62.0374 18.9388V25.1738C62.0374 26.1839 61.814 26.9123 61.3673 27.359C60.9205 27.7863 60.163 28 59.0947 28H58.949C57.8613 28 57.094 27.7863 56.6473 27.359C56.2199 26.9123 56.0063 26.1839 56.0063 25.1738V11.3634C56.0063 10.3534 56.2394 9.625 56.7055 9.17825C57.1911 8.71208 57.9681 8.47899 59.0364 8.47899ZM79.3029 8.47899H88.0728C88.908 8.47899 89.5684 8.7315 90.054 9.23653C90.559 9.72212 90.8115 10.4602 90.8115 11.4508C90.8115 12.422 90.559 13.1602 90.054 13.6652C89.5684 14.1702 88.908 14.4227 88.0728 14.4227H82.9157V15.8795H85.6545C86.548 15.8795 87.1793 16.0155 87.5483 16.2874C87.9174 16.5399 88.1505 16.841 88.2476 17.1906C88.3447 17.5208 88.3933 17.8607 88.3933 18.2104C88.3933 18.696 88.3058 19.1233 88.131 19.4923C87.9562 19.8614 87.6551 20.1333 87.2278 20.3081C86.8199 20.4635 86.2955 20.5412 85.6545 20.5412H82.9157V22.0563H88.3641C89.1993 22.0563 89.8598 22.3088 90.3454 22.8138C90.8504 23.2994 91.1029 24.0375 91.1029 25.0281C91.1029 25.9993 90.8504 26.7374 90.3454 27.2425C89.8598 27.7475 89.1993 28 88.3641 28H79.3029C78.1957 28 77.409 27.7863 76.9429 27.359C76.4961 26.9123 76.2727 26.1839 76.2727 25.1738V11.3634C76.2727 10.3534 76.5058 9.625 76.972 9.17825C77.4576 8.71208 78.2346 8.47899 79.3029 8.47899ZM106.927 12.2958C106.927 12.8591 106.771 13.4224 106.46 13.9857C106.15 14.549 105.732 14.9666 105.208 15.2385C103.518 14.3644 101.808 13.9274 100.08 13.9274C99.1279 13.9274 98.652 14.1896 98.652 14.7141C98.652 14.8306 98.7006 14.9666 98.7977 15.122C98.8948 15.2579 99.2639 15.3939 99.9049 15.5299C101.478 15.8989 102.838 16.3165 103.984 16.7827C105.13 17.2489 106.023 17.8607 106.664 18.6183C107.305 19.3564 107.626 20.4247 107.626 21.8232C107.626 22.6973 107.422 23.5325 107.014 24.3289C106.626 25.1253 106.053 25.8245 105.295 26.4267C104.557 27.0094 103.654 27.4658 102.585 27.796C101.536 28.1263 100.39 28.2914 99.1473 28.2914C97.5934 28.2914 96.224 28.1165 95.0392 27.7669C93.8737 27.3979 92.9705 26.9317 92.3295 26.3684C91.708 25.8051 91.3972 25.1738 91.3972 24.4746C91.3972 23.8724 91.5235 23.28 91.776 22.6973C92.0479 22.0951 92.5238 21.5998 93.2036 21.2114C93.5144 21.425 94.068 21.6969 94.8644 22.0272C95.6802 22.3379 96.4863 22.5807 97.2826 22.7556C98.079 22.9109 98.7589 22.9886 99.3221 22.9886C99.6912 22.9886 100.002 22.9207 100.254 22.7847C100.507 22.6487 100.633 22.4545 100.633 22.202C100.633 21.9495 100.468 21.7649 100.138 21.6484C99.8272 21.5124 99.361 21.3862 98.7394 21.2696C97.5934 21.056 96.5931 20.784 95.7384 20.4538C94.8838 20.1042 94.1651 19.6769 93.5824 19.1718C92.9997 18.6474 92.5529 18.0258 92.2421 17.3072C91.9508 16.5885 91.8051 15.763 91.8051 14.8306C91.8051 13.84 91.9896 12.9368 92.3587 12.121C92.7472 11.2857 93.291 10.5768 93.9903 9.99406C94.6895 9.41134 95.5151 8.96459 96.4668 8.65381C97.438 8.34303 98.4869 8.18764 99.6135 8.18764C101.226 8.18764 102.566 8.36245 103.634 8.71208C104.703 9.04229 105.518 9.50846 106.082 10.1106C106.645 10.6933 106.927 11.4217 106.927 12.2958Z"
        fill="#88DD5D" />
    <mask id="mask0_0_98" style="mask-type:alpha" maskUnits="userSpaceOnUse" x="1" y="5" width="107"
        height="27">
        <path
            d="M9.39014 5.478H9.97286C10.4973 5.478 10.9538 5.61397 11.3422 5.8859C11.7501 6.13842 12.0318 6.49776 12.1872 6.96393C12.3426 7.4301 12.4203 7.89628 12.4203 8.36245V8.44986C13.7217 8.74122 14.7414 9.23653 15.4795 9.93579C16.2371 10.635 16.6158 11.5188 16.6158 12.5871C16.6158 13.1504 16.4604 13.7137 16.1497 14.277C15.8389 14.8403 15.4213 15.2579 14.8968 15.5299C13.6148 14.9083 12.6728 14.5392 12.0706 14.4227C11.4685 14.2867 10.9538 14.2188 10.5264 14.2188C10.0991 14.2188 9.75919 14.2867 9.50668 14.4227C9.2736 14.5392 9.15705 14.7141 9.15705 14.9471C9.15705 15.1997 9.95343 15.5881 11.5462 16.1126C13.5274 16.773 14.9551 17.5888 15.8292 18.56C16.7032 19.5118 17.1403 20.6675 17.1403 22.0272C17.1403 22.9207 16.946 23.7753 16.5576 24.5911C16.1885 25.3875 15.6252 26.0576 14.8677 26.6015C14.1296 27.1453 13.3138 27.5533 12.4203 27.8252V28.6993C12.4203 29.1654 12.3426 29.6316 12.1872 30.0978C12.0318 30.564 11.7501 30.9233 11.3422 31.1758C10.9538 31.4477 10.4973 31.5837 9.97286 31.5837H9.39014C8.8657 31.5837 8.39952 31.4477 7.99162 31.1758C7.60314 30.9233 7.33121 30.564 7.17582 30.0978C7.02043 29.6316 6.94273 29.1654 6.94273 28.6993V28.1457C5.38882 27.932 4.11656 27.5047 3.12594 26.8637C2.15474 26.2033 1.66915 25.4069 1.66915 24.4746C1.66915 23.8724 1.7954 23.28 2.04791 22.6973C2.31985 22.0951 2.79573 21.5998 3.47557 21.2114C3.88347 21.4833 4.61186 21.8038 5.66075 22.1728C6.72907 22.5225 7.6517 22.6973 8.42866 22.6973C9.30273 22.6973 9.73977 22.4836 9.73977 22.0563C9.73977 22.0174 9.71063 21.9592 9.65236 21.8815C9.61352 21.7844 9.26389 21.629 8.60347 21.4153C7.96248 21.2016 7.37977 20.9686 6.85532 20.716C5.84528 20.2499 5.01005 19.7643 4.34964 19.2593C3.70865 18.7542 3.20363 18.1424 2.83458 17.4237C2.46552 16.6856 2.281 15.8018 2.281 14.7723C2.281 13.2961 2.6889 12.0044 3.5047 10.8973C4.33993 9.79011 5.48594 9.01315 6.94273 8.5664V8.36245C6.94273 7.89628 7.02043 7.4301 7.17582 6.96393C7.33121 6.49776 7.60314 6.13842 7.99162 5.8859C8.39952 5.61397 8.8657 5.478 9.39014 5.478ZM33.887 12.7911C33.887 13.4709 33.7219 14.0342 33.3917 14.481C33.0809 14.9083 32.6439 15.2579 32.0806 15.5299C31.5367 15.8018 30.9054 15.9863 30.1867 16.0834C29.9342 15.5784 29.5263 15.1899 28.963 14.918C28.4192 14.6267 27.7976 14.481 27.0984 14.481C26.03 14.481 25.2337 14.85 24.7092 15.5881C24.1848 16.3068 23.9225 17.2197 23.9225 18.3269C23.9225 19.4341 24.1945 20.3276 24.7383 21.0074C25.3016 21.6678 26.0883 21.998 27.0984 21.998C28.3221 21.998 29.3418 21.5027 30.1576 20.5121C31.1094 20.6286 31.964 20.988 32.7216 21.5901C33.4791 22.1923 33.8579 22.9498 33.8579 23.8627C33.8579 24.6785 33.5956 25.4069 33.0712 26.0479C32.5662 26.6889 31.7989 27.223 30.7695 27.6504C29.7594 28.0777 28.526 28.2914 27.0692 28.2914C25.7678 28.2914 24.515 28.0971 23.3107 27.7086C22.1258 27.3202 21.0672 26.718 20.1349 25.9022C19.2025 25.0864 18.4644 24.0472 17.9206 22.7847C17.3767 21.5027 17.1048 20.0265 17.1048 18.356C17.1048 16.6856 17.3573 15.1997 17.8623 13.8983C18.3867 12.5969 19.0957 11.5285 19.9892 10.6933C20.8827 9.85809 21.9219 9.23653 23.1067 8.82862C24.2916 8.4013 25.5444 8.18764 26.8653 8.18764C28.963 8.18764 30.6529 8.63439 31.9349 9.52788C33.2363 10.402 33.887 11.4897 33.887 12.7911ZM54.7007 18.2395C54.7007 19.6574 54.4967 20.988 54.0888 22.2311C53.6809 23.4742 53.0399 24.5425 52.1659 25.436C51.3112 26.3295 50.2623 27.0288 49.0192 27.5338C47.7955 28.0388 46.4455 28.2914 44.9693 28.2914C43.8233 28.2914 42.6773 28.1165 41.5313 27.7669C40.3853 27.4173 39.3364 26.854 38.3846 26.077C37.4328 25.2807 36.6656 24.2221 36.0829 22.9012C35.5002 21.5804 35.2088 20.0265 35.2088 18.2395C35.2088 16.8216 35.4128 15.491 35.8207 14.2479C36.2286 13.0048 36.8598 11.9364 37.7145 11.0429C38.5691 10.1494 39.618 9.45019 40.8612 8.94517C42.1043 8.44015 43.464 8.18764 44.9402 8.18764C46.4358 8.18764 47.8052 8.44015 49.0483 8.94517C50.2915 9.45019 51.3403 10.1494 52.195 11.0429C53.0497 11.9364 53.6809 13.0048 54.0888 14.2479C54.4967 15.491 54.7007 16.8216 54.7007 18.2395ZM47.8829 18.2395C47.8829 17.5402 47.7761 16.8895 47.5624 16.2874C47.3682 15.6853 47.0185 15.2288 46.5135 14.918C46.0279 14.6072 45.5035 14.4518 44.9402 14.4518C44.3769 14.4518 43.8719 14.5975 43.4251 14.8889C42.9978 15.1608 42.6579 15.5784 42.4054 16.1417C42.1529 16.6856 42.0266 17.3848 42.0266 18.2395C42.0266 18.9388 42.1237 19.5895 42.318 20.1916C42.5316 20.7937 42.8812 21.2599 43.3668 21.5901C43.8524 21.9009 44.3769 22.0563 44.9402 22.0563C45.2898 22.0563 45.688 21.9689 46.1347 21.7941C46.6009 21.6193 47.0088 21.2405 47.3585 20.6578C47.7081 20.0751 47.8829 19.269 47.8829 18.2395ZM59.0346 8.47899H60.2292C60.7925 8.47899 61.3267 8.60525 61.8317 8.85776C62.3561 9.11027 62.8611 9.61529 63.3467 10.3728L68.0085 18.2686V11.3634C68.0085 10.334 68.2318 9.59587 68.6786 9.14912C69.1253 8.70237 69.8829 8.47899 70.9512 8.47899H71.3008C72.3691 8.47899 73.1267 8.70237 73.5734 9.14912C74.0202 9.59587 74.2435 10.334 74.2435 11.3634V25.1738C74.2435 26.1644 74.0007 26.8831 73.5151 27.3299C73.049 27.7766 72.2817 28 71.2134 28H70.5724C68.9991 28 67.8239 27.427 67.047 26.281L62.0356 18.9388V25.1738C62.0356 26.1839 61.8122 26.9123 61.3655 27.359C60.9187 27.7863 60.1612 28 59.0929 28H58.9472C57.8595 28 57.0922 27.7863 56.6455 27.359C56.2182 26.9123 56.0045 26.1839 56.0045 25.1738V11.3634C56.0045 10.3534 56.2376 9.625 56.7038 9.17825C57.1894 8.71208 57.9663 8.47899 59.0346 8.47899ZM79.3011 8.47899H88.071C88.9062 8.47899 89.5666 8.7315 90.0522 9.23653C90.5572 9.72212 90.8098 10.4602 90.8098 11.4508C90.8098 12.422 90.5572 13.1602 90.0522 13.6652C89.5666 14.1702 88.9062 14.4227 88.071 14.4227H82.9139V15.8795H85.6527C86.5462 15.8795 87.1775 16.0155 87.5465 16.2874C87.9156 16.5399 88.1487 16.841 88.2458 17.1906C88.3429 17.5208 88.3915 17.8607 88.3915 18.2104C88.3915 18.696 88.3041 19.1233 88.1293 19.4923C87.9544 19.8614 87.6534 20.1333 87.226 20.3081C86.8181 20.4635 86.2937 20.5412 85.6527 20.5412H82.9139V22.0563H88.3623C89.1976 22.0563 89.858 22.3088 90.3436 22.8138C90.8486 23.2994 91.1011 24.0375 91.1011 25.0281C91.1011 25.9993 90.8486 26.7374 90.3436 27.2425C89.858 27.7475 89.1976 28 88.3623 28H79.3011C78.1939 28 77.4073 27.7863 76.9411 27.359C76.4944 26.9123 76.271 26.1839 76.271 25.1738V11.3634C76.271 10.3534 76.5041 9.625 76.9702 9.17825C77.4558 8.71208 78.2328 8.47899 79.3011 8.47899ZM106.925 12.2958C106.925 12.8591 106.769 13.4224 106.459 13.9857C106.148 14.549 105.73 14.9666 105.206 15.2385C103.516 14.3644 101.807 13.9274 100.078 13.9274C99.1261 13.9274 98.6503 14.1896 98.6503 14.7141C98.6503 14.8306 98.6988 14.9666 98.7959 15.122C98.8931 15.2579 99.2621 15.3939 99.9031 15.5299C101.476 15.8989 102.836 16.3165 103.982 16.7827C105.128 17.2489 106.022 17.8607 106.663 18.6183C107.304 19.3564 107.624 20.4247 107.624 21.8232C107.624 22.6973 107.42 23.5325 107.012 24.3289C106.624 25.1253 106.051 25.8245 105.293 26.4267C104.555 27.0094 103.652 27.4658 102.584 27.796C101.535 28.1263 100.389 28.2914 99.1456 28.2914C97.5917 28.2914 96.2223 28.1165 95.0374 27.7669C93.872 27.3979 92.9688 26.9317 92.3278 26.3684C91.7062 25.8051 91.3954 25.1738 91.3954 24.4746C91.3954 23.8724 91.5217 23.28 91.7742 22.6973C92.0461 22.0951 92.522 21.5998 93.2019 21.2114C93.5126 21.425 94.0662 21.6969 94.8626 22.0272C95.6784 22.3379 96.4845 22.5807 97.2809 22.7556C98.0772 22.9109 98.7571 22.9886 99.3204 22.9886C99.6894 22.9886 100 22.9207 100.253 22.7847C100.505 22.6487 100.631 22.4545 100.631 22.202C100.631 21.9495 100.466 21.7649 100.136 21.6484C99.8254 21.5124 99.3592 21.3862 98.7377 21.2696C97.5917 21.056 96.5913 20.784 95.7367 20.4538C94.882 20.1042 94.1633 19.6769 93.5806 19.1718C92.9979 18.6474 92.5512 18.0258 92.2404 17.3072C91.949 16.5885 91.8033 15.763 91.8033 14.8306C91.8033 13.84 91.9879 12.9368 92.3569 12.121C92.7454 11.2857 93.2893 10.5768 93.9885 9.99406C94.6878 9.41134 95.5133 8.96459 96.4651 8.65381C97.4363 8.34303 98.4851 8.18764 99.6117 8.18764C101.224 8.18764 102.564 8.36245 103.632 8.71208C104.701 9.04229 105.517 9.50846 106.08 10.1106C106.643 10.6933 106.925 11.4217 106.925 12.2958Z"
            fill="#88DD5D" />
    </mask>
    <g mask="url(#mask0_0_98)">
        <path
            d="M105.945 13.4094C105.919 13.2532 105.886 13.0985 105.87 12.9417C105.707 11.3706 104.867 10.4703 103.327 9.90153C102.685 9.65135 101.986 9.50788 101.256 9.37686C101.096 9.34901 100.84 9.32494 100.893 9.06794C100.931 8.87938 101.147 8.90566 101.303 8.89712C102.244 8.84659 103.139 9.02295 104.011 9.38449C105.605 10.0472 106.348 11.4219 105.945 13.4094Z"
            fill="#FCFCFC" />
        <path
            d="M56.9538 10.3831C57.3599 10.2071 57.5857 10.1212 57.8016 10.0129C59.1684 9.33655 60.4371 9.46726 61.6128 10.4772C61.7616 10.6059 61.9204 10.9211 62.1404 10.7008C62.3216 10.5196 62.0733 10.3027 61.9481 10.1336C60.7208 8.48553 58.3621 8.53337 56.9546 10.3819L56.9538 10.3831Z"
            fill="#FCFCFC" />
        <path
            d="M68.1595 10.3831C68.5657 10.2071 68.7914 10.1212 69.0074 10.0129C70.3741 9.33655 71.6429 9.46726 72.8185 10.4772C72.9673 10.6059 73.1261 10.9211 73.3461 10.7008C73.5273 10.5196 73.279 10.3027 73.1538 10.1336C71.9265 8.48553 69.5679 8.53337 68.1604 10.3819L68.1595 10.3831Z"
            fill="#FCFCFC" />
        <path
            d="M42.8067 8.65896C42.6502 8.75744 42.9697 8.56998 42.8067 8.65896C42.8067 8.65896 47.4883 9.04149 49.1251 10.0517C49.8193 10.4631 50.4567 11.0051 51.1039 11.5834C51.245 11.7108 51.4519 11.9296 51.6519 11.6959C51.7987 11.5246 51.6181 11.3437 51.5136 11.1938C50.882 10.2898 50.1529 9.57071 49.1101 9.20363C47.3389 8.5801 45.7979 8.23346 42.8067 8.65896Z"
            fill="#FCFCFC" />
        <path
            d="M29.218 9.34497C29.6324 9.50053 29.8544 9.59556 30.085 9.66763C31.538 10.1306 32.3599 11.1059 32.504 12.6491C32.5217 12.845 32.4169 13.1821 32.7282 13.1764C32.9844 13.1719 32.9564 12.8434 32.9839 12.6348C33.2459 10.5968 31.516 8.99272 29.2194 9.34467L29.218 9.34497Z"
            fill="#FCFCFC" />
        <path
            d="M79.3814 9.19574C79.2272 9.21557 79.2399 9.35867 79.3857 9.35014C80.6492 9.35014 81.8009 9.35158 83.0645 9.34733C84.7595 9.34164 86.4489 9.43942 88.1298 9.64343C88.9605 9.74401 89.0807 9.92534 88.9436 10.757C88.863 11.2429 88.751 11.7246 88.6748 12.2106C88.6477 12.3848 88.597 12.6228 88.8362 12.6908C89.0243 12.7447 89.1174 12.5548 89.2026 12.4174C89.5788 11.8124 89.8563 11.1664 89.9086 10.4481C89.9794 9.46775 89.5928 9.0328 88.6081 8.90954C86.2793 8.61629 83.7818 8.8897 81.6368 8.99882C80.8473 9.03989 79.9813 9.11639 79.3814 9.19574Z"
            fill="#FCFCFC" />
        <path
            d="M12.5954 9.24512C12.9683 9.48342 13.1658 9.62255 13.3763 9.74099C14.7014 10.4959 15.3025 11.6208 15.1226 13.1602C15.0992 13.3556 14.9266 13.6634 15.2323 13.7226C15.4838 13.7715 15.5247 13.4444 15.5949 13.246C16.275 11.307 14.9164 9.37834 12.5968 9.24512H12.5954Z"
            fill="#FCFCFC" />
        <path
            d="M11.5597 8.21778C11.793 7.27623 11.6407 6.44221 10.9154 5.78175C10.4425 5.35168 9.81721 5.30406 9.13953 5.62354C10.5805 5.97989 11.0947 7.05659 11.5597 8.21778Z"
            fill="#FCFCFC" />
        <path
            d="M51.2568 13.5875C13.5296 13.5875 6.61923 31.0036 -12.5245 10.5525V40.4354H146.228C148.656 40.4354 147.24 20.5135 146.228 10.5525C146.228 10.5525 119.38 22.2255 100.844 22.2255C81.1872 22.2255 88.984 13.5875 51.2568 13.5875Z"
            fill="black" />
        <path
            d="M51.2568 13.5875C13.5296 13.5875 6.61923 31.0036 -12.5245 10.5525V40.4354H146.228C148.656 40.4354 147.24 20.5135 146.228 10.5525C146.228 10.5525 119.38 22.2255 100.844 22.2255C81.1872 22.2255 88.984 13.5875 51.2568 13.5875Z"
            fill="#48AC51" />
        <path
            d="M105.55 22.4849C106.1 23.8586 105.536 25.18 104.134 25.8252C103.251 26.231 102.312 26.3469 101.358 26.4096C101.204 26.3814 101.049 26.3532 100.895 26.3271C100.521 26.3394 100.161 26.2885 99.8342 26.087C100.019 25.6277 100.438 25.847 100.722 25.8348C101.617 25.7967 102.462 25.6336 103.289 25.2739C104.189 24.881 104.818 24.323 104.917 23.2772C104.952 22.9065 104.955 22.439 105.55 22.4849Z"
            fill="#2A851C" />
        <path
            d="M32.0002 25.2894C29.98 27.4026 26.7012 27.5333 24.485 25.8648C24.0985 25.5728 23.6705 25.3354 23.2933 25.0303C23.0831 24.8592 22.6638 24.6891 22.8613 24.3506C23.074 23.986 23.374 24.2906 23.6265 24.4297C24.7757 25.0566 25.9043 25.689 27.265 25.8257C29.0923 26.0087 30.6954 25.1893 31.4901 23.5074C31.5546 23.3716 31.5978 23.2253 31.664 23.091C31.8267 22.7699 32.0453 22.4855 32.4482 22.5998C32.8348 22.7084 32.7623 23.0794 32.7464 23.3631C32.7004 24.2254 32.2986 24.9394 31.9954 25.2912L32.0002 25.2894Z"
            fill="#2A851C" />
        <path
            d="M58.7017 27.1708C58.1457 27.1174 57.7133 26.8276 57.4045 26.3816C56.7843 25.4845 56.6556 24.4412 56.5888 23.3866C56.5815 23.2709 56.5448 23.0994 56.7073 23.0702C56.9064 23.0358 56.9306 23.2163 56.9545 23.3599C57.0806 24.1325 57.2772 24.886 57.6807 25.5595C57.9968 26.0868 58.3474 26.6231 59.1202 26.3448C59.3219 26.2723 59.4455 26.4032 59.5299 26.5506C59.6432 26.7501 59.4833 26.8658 59.3509 26.9624C59.1616 27.0996 58.9511 27.1962 58.7028 27.1708H58.7017Z"
            fill="#2A851C" />
        <path
            d="M71.7342 27.1708C72.2902 27.1174 72.7227 26.8276 73.0315 26.3816C73.6517 25.4845 73.7804 24.4412 73.8471 23.3866C73.8545 23.2709 73.8912 23.0994 73.7287 23.0702C73.5295 23.0358 73.5053 23.2163 73.4815 23.3599C73.3553 24.1325 73.1587 24.886 72.7553 25.5595C72.4391 26.0868 72.0885 26.6231 71.3158 26.3448C71.114 26.2723 70.9904 26.4032 70.9061 26.5506C70.7928 26.7501 70.9527 26.8658 71.0851 26.9624C71.2743 27.0996 71.4848 27.1962 71.7331 27.1708H71.7342Z"
            fill="#2A851C" />
        <path
            d="M88.17 27.1708C88.726 27.1174 89.1584 26.8276 89.4672 26.3816C90.0874 25.4845 90.2162 24.4412 90.2829 23.3866C90.2903 23.2709 90.3269 23.0994 90.1645 23.0702C89.9653 23.0358 89.9411 23.2163 89.9173 23.3599C89.7911 24.1325 89.5945 24.886 89.1911 25.5595C88.8749 26.0868 88.5243 26.6231 87.7515 26.3448C87.5498 26.2723 87.4262 26.4032 87.3419 26.5506C87.2285 26.7501 87.3884 26.8658 87.5208 26.9624C87.7101 27.0996 87.9206 27.1962 88.1689 27.1708H88.17Z"
            fill="#2A851C" />
        <path
            d="M79.2464 27.1708C78.6904 27.1174 78.258 26.8276 77.9492 26.3816C77.329 25.4845 77.2003 24.4412 77.1335 23.3866C77.1262 23.2709 77.0895 23.0994 77.252 23.0702C77.4511 23.0358 77.4753 23.2163 77.4992 23.3599C77.6254 24.1325 77.8219 24.886 78.2254 25.5595C78.5415 26.0868 78.8921 26.6231 79.6649 26.3448C79.8666 26.2723 79.9902 26.4032 80.0746 26.5506C80.1879 26.7501 80.028 26.8658 79.8956 26.9624C79.7064 27.0996 79.4958 27.1962 79.2475 27.1708H79.2464Z"
            fill="#2A851C" />
        <path
            d="M2.62257 23.2527C2.70216 23.4524 2.75716 23.537 2.76887 23.6263C2.92687 24.894 3.78712 25.4121 4.91423 25.6612C5.38708 25.7658 5.85289 25.895 6.34331 25.8821C6.60197 25.875 6.8419 25.9408 6.80209 26.2581C6.76814 26.5236 6.5563 26.5318 6.31286 26.5165C5.36015 26.4531 4.43086 26.3379 3.57762 25.8456C2.69396 25.3369 2.29836 24.4064 2.62374 23.2527H2.62257Z"
            fill="#2A851C" />
        <path
            d="M49.5713 23.5958C49.4155 25.7292 47.8457 27.0889 45.6154 27.0387C44.2105 27.0061 42.917 26.5616 41.6383 26.0389C41.4552 25.9042 41.272 25.7695 41.089 25.6383C40.5955 25.4173 40.1595 25.1229 39.8625 24.654C40.3932 24.1741 40.7992 24.7248 41.1757 24.8888C42.3631 25.4066 43.5638 25.7299 44.8663 25.7866C46.2845 25.8464 47.4562 25.5205 48.2469 24.2241C48.5279 23.765 48.8279 23.1594 49.5713 23.5958Z"
            fill="#2A851C" />
        <path
            d="M7.89875 27.5499C8.26941 27.7398 8.31573 27.9649 8.3111 28.1901C8.28329 29.3388 9.37211 29.8044 10.3575 29.6314C10.4316 29.6176 10.5011 29.5716 10.5752 29.5609C10.8763 29.5149 11.2393 29.4077 11.3582 29.7983C11.4833 30.2103 11.0864 30.3022 10.8146 30.3926C9.96051 30.6775 9.14817 30.5365 8.44083 29.9989C7.61149 29.3679 7.85858 28.4811 7.89875 27.5483V27.5499Z"
            fill="#2A851C" />
        <path
            d="M102.935 21.3848C103.425 21.4254 103.769 21.6751 103.826 22.1261C103.897 22.6835 103.442 22.9583 102.992 22.9718C102.573 22.9854 102.156 22.6931 102.152 22.2131C102.148 21.7525 102.498 21.4951 102.935 21.3848Z"
            fill="#88DD5D" />
        <path
            d="M94.4098 22.5779C94.6193 22.6396 94.7474 22.7719 94.7336 22.9588C94.7168 23.1899 94.4957 23.2586 94.2988 23.2225C94.1156 23.1892 93.9593 23.033 93.9987 22.8393C94.0363 22.6534 94.2106 22.5821 94.4098 22.5779Z"
            fill="#88DD5D" />
        <path
            d="M96.1423 24.6798C96.6244 24.8884 96.8916 25.242 96.804 25.6844C96.6959 26.2313 96.1479 26.3305 95.6882 26.1865C95.2603 26.0533 94.9329 25.6343 95.0836 25.1833C95.2282 24.7504 95.6653 24.6311 96.1423 24.6798Z"
            fill="#88DD5D" />
        <path
            d="M77.6327 15.6885C78.0679 15.7251 78.3734 15.9459 78.4238 16.3417C78.4871 16.8325 78.0832 17.0751 77.6827 17.0888C77.3105 17.1014 76.9396 16.8428 76.9362 16.4195C76.9338 16.0134 77.2427 15.7857 77.6313 15.6885H77.6327Z"
            fill="#88DD5D" />
        <path
            d="M80.288 22.8866C80.5908 23.0604 80.737 23.3247 80.6388 23.6306C80.5177 24.0102 80.1425 24.0508 79.8477 23.9255C79.5738 23.809 79.3931 23.495 79.5347 23.1849C79.6712 22.8877 79.9724 22.8259 80.287 22.8862L80.288 22.8866Z"
            fill="#88DD5D" />
        <path
            d="M71.0012 22.6215C71.1155 23.3219 70.8928 23.8891 70.2981 24.1218C69.561 24.4116 69.0257 23.8687 68.8469 23.2425C68.6811 22.6605 68.9367 21.9757 69.5925 21.8064C70.2221 21.6455 70.697 22.0444 71.0007 22.6194L71.0012 22.6215Z"
            fill="#88DD5D" />
        <path
            d="M57.4448 21.2278C57.7621 20.969 58.1113 20.9183 58.4019 21.1512C58.7628 21.4395 58.6477 21.8654 58.3865 22.1354C58.1436 22.3863 57.7259 22.4542 57.4492 22.1722C57.1842 21.9011 57.2449 21.5471 57.4439 21.2287L57.4448 21.2278Z"
            fill="#88DD5D" />
        <path
            d="M71.5209 14.4746C71.9289 14.5088 72.2153 14.7149 72.2626 15.0843C72.322 15.5424 71.9433 15.7688 71.5678 15.7816C71.2189 15.7933 70.8712 15.552 70.868 15.1569C70.8658 14.7779 71.1554 14.5654 71.5196 14.4746H71.5209Z"
            fill="#88DD5D" />
        <path
            d="M59.4607 13.354C59.9776 13.3955 60.3403 13.6457 60.4002 14.0943C60.4754 14.6506 59.9958 14.9255 59.5202 14.941C59.0782 14.9553 58.6378 14.6623 58.6337 14.1825C58.6309 13.7222 58.9977 13.4642 59.4591 13.354H59.4607Z"
            fill="#88DD5D" />
        <path
            d="M39.3968 19.2371C39.8048 19.2712 40.0912 19.4773 40.1384 19.8467C40.1978 20.3048 39.8192 20.5312 39.4437 20.544C39.0947 20.5558 38.7471 20.3145 38.7439 19.9194C38.7416 19.5403 39.0312 19.3278 39.3955 19.2371H39.3968Z"
            fill="#88DD5D" />
        <path
            d="M18.7323 17.3694C19.3579 17.4206 19.797 17.7298 19.8695 18.2839C19.9605 18.971 19.3799 19.3106 18.8042 19.3298C18.2692 19.3475 17.736 18.9855 17.7311 18.3929C17.7277 17.8243 18.1717 17.5055 18.7303 17.3694H18.7323Z"
            fill="#88DD5D" />
        <path
            d="M24.0005 21.3848C24.2998 21.4067 24.5098 21.5392 24.5444 21.7767C24.588 22.0712 24.3103 22.2167 24.035 22.225C23.779 22.2325 23.5241 22.0774 23.5217 21.8234C23.5201 21.5797 23.7325 21.4431 23.9996 21.3848H24.0005Z"
            fill="#88DD5D" />
        <path
            d="M15.403 23.0374C15.7538 23.6853 15.7383 24.31 15.2535 24.7263C14.6531 25.2436 13.9564 24.8834 13.5699 24.3285C13.2109 23.8127 13.217 23.0625 13.7819 22.6888C14.3247 22.3315 14.9141 22.5703 15.4017 23.0355L15.403 23.0374Z"
            fill="#88DD5D" />
        <path
            d="M4.7138 23.6137C5.13982 23.7165 5.40978 23.972 5.40082 24.352C5.39054 24.8232 4.95403 24.9878 4.55496 24.9378C4.18408 24.8912 3.85491 24.59 3.91455 24.1916C3.97265 23.8094 4.31276 23.6439 4.71245 23.6135L4.7138 23.6137Z"
            fill="#88DD5D" />
        <path
            d="M12.6167 19.2582C12.9382 19.1572 13.2172 19.2187 13.3618 19.4726C13.5416 19.7872 13.3191 20.0685 13.0364 20.1936C12.7735 20.3097 12.4373 20.2416 12.3188 19.9554C12.2058 19.6806 12.3644 19.4368 12.6158 19.2585L12.6167 19.2582Z"
            fill="#88DD5D" />
        <path
            d="M50.5843 21.665C51.1555 21.7138 51.5565 22.0083 51.6226 22.536C51.7057 23.1904 51.1756 23.5138 50.65 23.5321C50.1614 23.5489 49.6747 23.2042 49.6702 22.6398C49.6671 22.0983 50.0725 21.7947 50.5825 21.665H50.5843Z"
            fill="#88DD5D" />
        <path
            d="M86.5109 23.813C86.8917 23.8447 87.159 24.0361 87.2031 24.3791C87.2585 24.8045 86.9051 25.0147 86.5547 25.0266C86.229 25.0375 85.9045 24.8134 85.9015 24.4466C85.8994 24.0946 86.1697 23.8973 86.5097 23.813H86.5109Z"
            fill="#88DD5D" />
    </g>
</svg>