<svg width="74" height="35" viewBox="0 0 74 35" fill="none" xmlns="http://www.w3.org/2000/svg">
<path d="M35.4302 5.4865C19.8805 3.74016 14.6555 22.2526 1.20649 18.4772C21.4191 34.5624 15.1284 16.3008 32.2381 15.4835C41.8319 15.0144 44.1567 24.7245 52.4824 26.4116C58.2935 27.5974 61.8262 21.6795 67.5496 21.4124C70.611 21.2508 72.5267 23.0817 73.9139 25.0846C70.4171 9.7271 62.1192 19.8312 54.121 18.6109C46.8916 17.4779 46.129 6.66914 35.4302 5.4865Z" fill="#4CE91B"/>
<path d="M25.0062 13.081C22.2857 13.8053 20.1029 16.2855 18.5542 17.48C14.9432 20.3562 12.099 22.27 6.52438 20.9045C16.6729 27.4881 20.8772 13.0997 31.1796 13.5321C29.2861 12.8947 28.0623 12.2608 25.0062 13.081Z" fill="#AEFE95"/>
<path d="M34.5289 10.2529C48.0085 15.0741 43.9272 30.5442 63.8667 20.4646C46.8817 27.345 48.6113 11.0821 34.5289 10.2529Z" fill="#AEFE95"/>
</svg>
