<svg width="1401" height="99" viewBox="0 0 1401 99" fill="none" xmlns="http://www.w3.org/2000/svg">
<mask id="path-1-inside-1_0_91" fill="white">
<path fill-rule="evenodd" clip-rule="evenodd" d="M294.975 21.486C292.531 30.049 283.756 37.1366 279.998 39.8069C278.031 35.7093 273.61 25.3316 275.375 16.5992C277.191 8.04776 280.562 2.24469 282.038 0H281.615C277.838 3.2418 265.131 12.7898 249.444 9.82457C249.444 9.82457 250.824 5.15524 255.325 0H37.1883C31.1153 0 25.7347 3.91543 23.8669 9.6941L0.917396 80.6941C-2.00513 89.7357 4.73661 99 14.2388 99H493.406C493.591 98.8821 493.776 98.7657 493.961 98.651C489.489 98.3192 485.279 97.0244 481.765 94.8911C481.305 94.6116 481.034 94.1008 481.062 93.5644C481.083 93.1506 481.28 92.7735 481.591 92.5212C481.684 92.4463 481.786 92.3826 481.898 92.3316C485.722 90.5895 490.185 89.8174 494.807 90.1002C497.661 90.2741 500.413 90.8418 502.953 91.7674L495.778 82.9068C495.272 82.2821 495.364 81.3694 495.983 80.8681C496.602 80.3667 497.514 80.4668 498.02 81.0916L504.524 89.1238C504.309 86.829 504.375 84.4529 504.732 82.0635C505.416 77.4846 507.1 73.279 509.599 69.9011C509.671 69.8027 509.755 69.7152 509.848 69.6403C510.16 69.3876 510.569 69.2746 510.978 69.3392C511.508 69.4228 511.952 69.7936 512.13 70.3027C513.486 74.1838 513.877 78.5708 513.272 83.0144C514.494 81.7357 515.812 80.517 517.223 79.3743C522.33 75.2387 528.138 72.453 534.018 71.3186C534.544 71.2169 535.085 71.4161 535.424 71.8349C535.764 72.2538 535.845 72.8251 535.637 73.3183C533.304 78.8342 529.372 83.9354 524.265 88.071C523.443 88.7371 522.6 89.3648 521.743 89.9597C525.27 89.6982 528.894 89.7636 532.553 90.1651C541.736 91.1722 550.282 94.1961 557.266 98.9084C557.282 98.9192 557.298 98.9303 557.313 98.9416C557.339 98.9604 557.363 98.9798 557.388 99H1386.58C1396.13 99 1402.88 89.6382 1399.86 80.5728L1376.19 9.57281C1374.29 3.85602 1368.94 0 1362.91 0H1177.4C1173.62 1.80033 1169.72 3.40004 1166.3 4.29998C1154.7 7.39998 1131.8 3.39999 1131.8 3.39999C1131.8 3.39999 1153.3 14.9 1161.3 23.6C1169.4 32.3 1175.8 40.3 1175.8 40.3C1175.8 40.3 1151.5 34.3 1142.2 28.2C1132.9 22.2 1125.9 12.5 1125.9 12.5C1125.9 12.5 1133 35 1130.8 52.1C1130.8 52.1 1120.7 42 1118.5 31.9C1116.4 21.8 1116.7 13.7 1116.7 13.7C1116.7 13.7 1111.1 27.6 1099.4 33.1C1099.4 33.1 1097.9 16.4 1114.1 3L1079.2 8.69998L1079.1 7.79998V7.59997L1079 6.69998L1114 2.19998C1112.41 1.51695 1110.93 0.779077 1109.55 0H913.194C913.45 0.409648 913.692 0.82487 913.92 1.24514C913.979 1.35245 914.022 1.46573 914.051 1.58121C914.148 1.97093 914.078 2.38943 913.846 2.73309C913.547 3.1781 913.023 3.42365 912.487 3.36959C908.971 3.01608 905.418 1.85879 902.094 0H900.847C901.334 1.34683 901.758 2.73224 902.112 4.15162C903.702 10.528 903.772 16.9689 902.316 22.7772C902.185 23.2972 901.776 23.7036 901.253 23.8339C900.73 23.9643 900.178 23.7969 899.819 23.3997C895.806 18.9545 892.844 13.2352 891.254 6.85884C890.998 5.83184 890.786 4.80243 890.608 3.77494C889.355 7.08173 887.764 10.3385 885.854 13.4847C881.06 21.3822 874.708 27.8491 867.486 32.1872C867.024 32.4648 866.446 32.4664 865.985 32.192C865.523 31.9176 865.254 31.4114 865.284 30.8779C865.763 22.53 868.551 13.9438 873.345 6.04617C874.616 3.9532 875.997 1.9615 877.473 0.0824649C872.981 2.20142 868.175 3.91237 863.148 5.16593C851.479 8.07527 839.713 8.25438 829.124 5.68347C828.6 5.55646 828.192 5.15294 828.063 4.63403C827.934 4.11511 828.105 3.56723 828.507 3.20942C829.761 2.09442 831.069 1.02391 832.429 0H312.051C324.13 13.5979 321.246 27.7268 321.246 27.7268C302.979 22.0388 296.928 2.49421 296.928 2.49421C296.928 2.49421 298.121 10.5214 294.975 21.486Z"/>
</mask>
<path fill-rule="evenodd" clip-rule="evenodd" d="M294.975 21.486C292.531 30.049 283.756 37.1366 279.998 39.8069C278.031 35.7093 273.61 25.3316 275.375 16.5992C277.191 8.04776 280.562 2.24469 282.038 0H281.615C277.838 3.2418 265.131 12.7898 249.444 9.82457C249.444 9.82457 250.824 5.15524 255.325 0H37.1883C31.1153 0 25.7347 3.91543 23.8669 9.6941L0.917396 80.6941C-2.00513 89.7357 4.73661 99 14.2388 99H493.406C493.591 98.8821 493.776 98.7657 493.961 98.651C489.489 98.3192 485.279 97.0244 481.765 94.8911C481.305 94.6116 481.034 94.1008 481.062 93.5644C481.083 93.1506 481.28 92.7735 481.591 92.5212C481.684 92.4463 481.786 92.3826 481.898 92.3316C485.722 90.5895 490.185 89.8174 494.807 90.1002C497.661 90.2741 500.413 90.8418 502.953 91.7674L495.778 82.9068C495.272 82.2821 495.364 81.3694 495.983 80.8681C496.602 80.3667 497.514 80.4668 498.02 81.0916L504.524 89.1238C504.309 86.829 504.375 84.4529 504.732 82.0635C505.416 77.4846 507.1 73.279 509.599 69.9011C509.671 69.8027 509.755 69.7152 509.848 69.6403C510.16 69.3876 510.569 69.2746 510.978 69.3392C511.508 69.4228 511.952 69.7936 512.13 70.3027C513.486 74.1838 513.877 78.5708 513.272 83.0144C514.494 81.7357 515.812 80.517 517.223 79.3743C522.33 75.2387 528.138 72.453 534.018 71.3186C534.544 71.2169 535.085 71.4161 535.424 71.8349C535.764 72.2538 535.845 72.8251 535.637 73.3183C533.304 78.8342 529.372 83.9354 524.265 88.071C523.443 88.7371 522.6 89.3648 521.743 89.9597C525.27 89.6982 528.894 89.7636 532.553 90.1651C541.736 91.1722 550.282 94.1961 557.266 98.9084C557.282 98.9192 557.298 98.9303 557.313 98.9416C557.339 98.9604 557.363 98.9798 557.388 99H1386.58C1396.13 99 1402.88 89.6382 1399.86 80.5728L1376.19 9.57281C1374.29 3.85602 1368.94 0 1362.91 0H1177.4C1173.62 1.80033 1169.72 3.40004 1166.3 4.29998C1154.7 7.39998 1131.8 3.39999 1131.8 3.39999C1131.8 3.39999 1153.3 14.9 1161.3 23.6C1169.4 32.3 1175.8 40.3 1175.8 40.3C1175.8 40.3 1151.5 34.3 1142.2 28.2C1132.9 22.2 1125.9 12.5 1125.9 12.5C1125.9 12.5 1133 35 1130.8 52.1C1130.8 52.1 1120.7 42 1118.5 31.9C1116.4 21.8 1116.7 13.7 1116.7 13.7C1116.7 13.7 1111.1 27.6 1099.4 33.1C1099.4 33.1 1097.9 16.4 1114.1 3L1079.2 8.69998L1079.1 7.79998V7.59997L1079 6.69998L1114 2.19998C1112.41 1.51695 1110.93 0.779077 1109.55 0H913.194C913.45 0.409648 913.692 0.82487 913.92 1.24514C913.979 1.35245 914.022 1.46573 914.051 1.58121C914.148 1.97093 914.078 2.38943 913.846 2.73309C913.547 3.1781 913.023 3.42365 912.487 3.36959C908.971 3.01608 905.418 1.85879 902.094 0H900.847C901.334 1.34683 901.758 2.73224 902.112 4.15162C903.702 10.528 903.772 16.9689 902.316 22.7772C902.185 23.2972 901.776 23.7036 901.253 23.8339C900.73 23.9643 900.178 23.7969 899.819 23.3997C895.806 18.9545 892.844 13.2352 891.254 6.85884C890.998 5.83184 890.786 4.80243 890.608 3.77494C889.355 7.08173 887.764 10.3385 885.854 13.4847C881.06 21.3822 874.708 27.8491 867.486 32.1872C867.024 32.4648 866.446 32.4664 865.985 32.192C865.523 31.9176 865.254 31.4114 865.284 30.8779C865.763 22.53 868.551 13.9438 873.345 6.04617C874.616 3.9532 875.997 1.9615 877.473 0.0824649C872.981 2.20142 868.175 3.91237 863.148 5.16593C851.479 8.07527 839.713 8.25438 829.124 5.68347C828.6 5.55646 828.192 5.15294 828.063 4.63403C827.934 4.11511 828.105 3.56723 828.507 3.20942C829.761 2.09442 831.069 1.02391 832.429 0H312.051C324.13 13.5979 321.246 27.7268 321.246 27.7268C302.979 22.0388 296.928 2.49421 296.928 2.49421C296.928 2.49421 298.121 10.5214 294.975 21.486Z" fill="#28B810"/>
<path d="M279.998 39.8069L279.096 40.2397L279.61 41.3094L280.577 40.622L279.998 39.8069ZM294.975 21.486L294.014 21.2102L294.013 21.2115L294.975 21.486ZM275.375 16.5992L274.397 16.3914L274.395 16.401L275.375 16.5992ZM282.038 0L282.873 0.549356L283.892 -1H282.038V0ZM281.615 0V-1H281.244L280.963 -0.758779L281.615 0ZM249.444 9.82457L248.485 9.54118L248.171 10.6018L249.258 10.8072L249.444 9.82457ZM255.325 0L256.078 0.657688L257.525 -1L255.325 -1V0ZM23.8669 9.6941L24.8184 10.0017L23.8669 9.6941ZM0.917396 80.6941L-0.0341318 80.3865L-0.0341318 80.3865L0.917396 80.6941ZM493.406 99V100H493.699L493.945 99.8424L493.406 99ZM493.961 98.651L494.487 99.5015L497.106 97.8816L494.035 97.6537L493.961 98.651ZM481.765 94.8911L481.245 95.7457L481.246 95.746L481.765 94.8911ZM481.062 93.5644L480.063 93.5114L480.063 93.5125L481.062 93.5644ZM481.591 92.5212L480.962 91.744L480.962 91.7441L481.591 92.5212ZM481.898 92.3316L481.483 91.4216L481.483 91.4217L481.898 92.3316ZM494.807 90.1002L494.745 91.0983L494.746 91.0983L494.807 90.1002ZM502.953 91.7674L502.611 92.707L506.001 93.9423L503.73 91.1381L502.953 91.7674ZM495.778 82.9068L496.555 82.2775L496.555 82.2775L495.778 82.9068ZM498.02 81.0916L497.242 81.7209L497.242 81.7209L498.02 81.0916ZM504.524 89.1238L503.747 89.7531L505.828 92.3231L505.52 89.0305L504.524 89.1238ZM504.732 82.0635L505.721 82.2115L505.721 82.2113L504.732 82.0635ZM509.599 69.9011L510.403 70.4958L510.403 70.4947L509.599 69.9011ZM509.848 69.6403L510.477 70.4175L510.477 70.4175L509.848 69.6403ZM510.978 69.3392L511.134 68.3514L511.134 68.3514L510.978 69.3392ZM512.13 70.3027L511.186 70.6323L511.186 70.6325L512.13 70.3027ZM513.272 83.0144L512.281 82.8794L511.865 85.933L513.995 83.7054L513.272 83.0144ZM517.223 79.3743L516.594 78.5972L516.594 78.5972L517.223 79.3743ZM534.018 71.3186L534.207 72.3005L534.207 72.3004L534.018 71.3186ZM535.424 71.8349L536.202 71.2056L536.202 71.2056L535.424 71.8349ZM535.637 73.3183L536.558 73.7078L536.558 73.7074L535.637 73.3183ZM524.265 88.071L524.895 88.8481L524.895 88.8481L524.265 88.071ZM521.743 89.9597L521.173 89.1384L518.166 91.2277L521.817 90.9569L521.743 89.9597ZM532.553 90.1651L532.444 91.1591L532.444 91.1591L532.553 90.1651ZM557.266 98.9084L556.706 99.7373L556.707 99.738L557.266 98.9084ZM557.313 98.9416L557.905 98.1353L557.904 98.1352L557.313 98.9416ZM557.388 99L556.745 99.7661L557.024 100H557.388V99ZM1399.86 80.5728L1398.91 80.889L1398.91 80.889L1399.86 80.5728ZM1376.19 9.57281L1377.14 9.25658L1377.14 9.25657L1376.19 9.57281ZM1177.4 0V-1H1177.17L1176.97 -0.902696L1177.4 0ZM1166.3 4.29998L1166.05 3.3329L1166.04 3.33389L1166.3 4.29998ZM1131.8 3.39999L1131.97 2.41491L1131.33 4.28178L1131.8 3.39999ZM1161.3 23.6L1160.56 24.2769L1160.57 24.2814L1161.3 23.6ZM1175.8 40.3L1175.56 41.2708L1178.42 41.9776L1176.58 39.6753L1175.8 40.3ZM1142.2 28.2L1142.75 27.3638L1142.74 27.3597L1142.2 28.2ZM1125.9 12.5L1126.71 11.9148L1124.95 12.8009L1125.9 12.5ZM1130.8 52.1L1130.09 52.8071L1131.53 54.2463L1131.79 52.2276L1130.8 52.1ZM1118.5 31.9L1117.52 32.1036L1117.52 32.1128L1118.5 31.9ZM1116.7 13.7L1117.7 13.737L1115.77 13.3263L1116.7 13.7ZM1099.4 33.1L1098.4 33.1894L1098.53 34.613L1099.83 34.005L1099.4 33.1ZM1114.1 3L1114.74 3.77055L1117.58 1.41817L1113.94 2.01307L1114.1 3ZM1079.2 8.69998L1078.21 8.81038L1078.32 9.85657L1079.36 9.6869L1079.2 8.69998ZM1079.1 7.79998H1078.1V7.85536L1078.11 7.91039L1079.1 7.79998ZM1079.1 7.59997H1080.1V7.5446L1080.09 7.48957L1079.1 7.59997ZM1079 6.69998L1078.87 5.70814L1077.9 5.83349L1078.01 6.81038L1079 6.69998ZM1114 2.19998L1114.13 3.19181L1117.75 2.72562L1114.4 1.28133L1114 2.19998ZM1109.55 0L1110.05 -0.870608L1109.82 -1H1109.55V0ZM913.194 0V-1H911.389L912.346 0.530109L913.194 0ZM913.92 1.24514L913.041 1.72234L913.042 1.72361L913.92 1.24514ZM914.051 1.58121L915.022 1.33929L915.022 1.33915L914.051 1.58121ZM913.846 2.73309L914.676 3.2919L914.676 3.2918L913.846 2.73309ZM912.487 3.36959L912.587 2.37463L912.587 2.37461L912.487 3.36959ZM902.094 0L902.582 -0.872778L902.355 -1H902.094V0ZM900.847 0V-1H899.421L899.906 0.340306L900.847 0ZM902.112 4.15162L901.142 4.39354L901.142 4.39354L902.112 4.15162ZM902.316 22.7772L901.346 22.5339L901.346 22.5341L902.316 22.7772ZM901.253 23.8339L901.495 24.8042L901.495 24.8042L901.253 23.8339ZM899.819 23.3997L899.077 24.0698L899.077 24.0701L899.819 23.3997ZM891.254 6.85884L890.284 7.10075L890.284 7.10076L891.254 6.85884ZM890.608 3.77494L891.594 3.60495L890.971 -0.0037501L889.673 3.42049L890.608 3.77494ZM885.854 13.4847L884.999 12.9658L884.999 12.9658L885.854 13.4847ZM867.486 32.1872L866.971 31.3299L866.97 31.3303L867.486 32.1872ZM865.985 32.192L865.473 33.0515L865.473 33.0515L865.985 32.192ZM865.284 30.8779L864.286 30.8206L864.286 30.8214L865.284 30.8779ZM873.345 6.04617L874.2 6.56512L874.2 6.56512L873.345 6.04617ZM877.473 0.0824649L878.259 0.700269L877.046 -0.821976L877.473 0.0824649ZM863.148 5.16593L862.906 4.19563L862.906 4.19563L863.148 5.16593ZM829.124 5.68347L829.36 4.71169L829.359 4.71164L829.124 5.68347ZM828.063 4.63403L829.033 4.39219L829.033 4.39208L828.063 4.63403ZM828.507 3.20942L827.842 2.4622L827.842 2.46247L828.507 3.20942ZM832.429 0L833.031 0.798893L835.42 -1H832.429V0ZM312.051 0V-1H309.825L311.303 0.664108L312.051 0ZM321.246 27.7268L320.948 28.6816L322.004 29.0104L322.225 27.9268L321.246 27.7268ZM296.928 2.49421L297.883 2.19843L295.938 2.64127L296.928 2.49421ZM280.577 40.622C282.491 39.2623 285.68 36.7794 288.71 33.5391C291.729 30.309 294.653 26.2591 295.937 21.7604L294.013 21.2115C292.853 25.2759 290.167 29.0514 287.249 32.1733C284.34 35.2852 281.263 37.6813 279.419 38.9918L280.577 40.622ZM274.395 16.401C273.469 20.9842 274.173 25.9345 275.321 30.2011C276.474 34.4815 278.099 38.1617 279.096 40.2397L280.899 39.3741C279.93 37.3545 278.361 33.797 277.253 29.6811C276.141 25.5513 275.517 20.9466 276.355 16.7973L274.395 16.401ZM281.202 -0.549356C279.678 1.76829 276.246 7.68655 274.397 16.3914L276.353 16.8069C278.137 8.40897 281.445 2.72109 282.873 0.549356L281.202 -0.549356ZM282.038 -1H281.615V1H282.038V-1ZM249.258 10.8072C265.423 13.8628 278.447 4.03666 282.266 0.758779L280.963 -0.758779C277.229 2.44693 264.839 11.7169 249.629 8.84197L249.258 10.8072ZM254.571 -0.657688C252.256 1.99406 250.741 4.52373 249.802 6.39761C249.333 7.33489 249.007 8.10939 248.797 8.65492C248.691 8.92775 248.615 9.14349 248.564 9.29389C248.539 9.3691 248.52 9.428 248.507 9.46955C248.5 9.49033 248.495 9.50677 248.491 9.51875C248.49 9.52474 248.488 9.52961 248.487 9.53336C248.487 9.53523 248.486 9.53682 248.486 9.53812C248.485 9.53877 248.485 9.53935 248.485 9.53986C248.485 9.54012 248.485 9.54045 248.485 9.54057C248.485 9.54088 248.485 9.54118 249.444 9.82457C250.403 10.108 250.403 10.1082 250.403 10.1085C250.403 10.1085 250.403 10.1087 250.402 10.1088C250.402 10.1091 250.402 10.1092 250.402 10.1093C250.402 10.1095 250.402 10.1094 250.402 10.109C250.403 10.1082 250.403 10.1063 250.404 10.1033C250.406 10.0973 250.409 10.0869 250.414 10.0722C250.423 10.0428 250.438 9.99637 250.459 9.93384C250.501 9.80875 250.568 9.61943 250.663 9.37395C250.852 8.88288 251.152 8.16785 251.59 7.29339C252.467 5.54379 253.892 3.16119 256.078 0.657688L254.571 -0.657688ZM255.325 -1H37.1883V1H255.325V-1ZM37.1883 -1C30.6815 -1 24.9166 3.1951 22.9154 9.38654L24.8184 10.0017C26.5528 4.63576 31.549 1 37.1883 1V-1ZM22.9154 9.38654L-0.0341318 80.3865L1.86892 81.0016L24.8184 10.0017L22.9154 9.38654ZM-0.0341318 80.3865C-3.16541 90.0739 4.05788 100 14.2388 100V98C5.41533 98 -0.844854 89.3974 1.86892 81.0016L-0.0341318 80.3865ZM14.2388 100H493.406V98H14.2388V100ZM493.945 99.8424C494.125 99.7272 494.306 99.6136 494.487 99.5015L493.435 97.8005C493.245 97.9179 493.056 98.0369 492.867 98.1576L493.945 99.8424ZM494.035 97.6537C489.705 97.3325 485.65 96.08 482.283 94.0363L481.246 95.746C484.908 97.9688 489.273 99.3059 493.887 99.6483L494.035 97.6537ZM482.284 94.0366C482.137 93.9472 482.051 93.7838 482.06 93.6163L480.063 93.5125C480.016 94.4179 480.472 95.2759 481.245 95.7457L482.284 94.0366ZM482.06 93.6174C482.067 93.4876 482.128 93.3732 482.22 93.2983L480.962 91.7441C480.431 92.1738 480.1 92.8136 480.063 93.5114L482.06 93.6174ZM482.22 93.2984C482.247 93.2767 482.278 93.2576 482.313 93.2416L481.483 91.4217C481.295 91.5076 481.12 91.6159 480.962 91.744L482.22 93.2984ZM482.313 93.2416C485.973 91.574 490.271 90.8245 494.745 91.0983L494.868 89.102C490.1 88.8103 485.471 89.6049 481.483 91.4216L482.313 93.2416ZM494.746 91.0983C497.508 91.2666 500.165 91.8157 502.611 92.707L503.295 90.8278C500.661 89.8679 497.814 89.2816 494.867 89.102L494.746 91.0983ZM503.73 91.1381L496.555 82.2775L495.001 83.5362L502.176 92.3967L503.73 91.1381ZM496.555 82.2775C496.391 82.0753 496.429 81.7936 496.612 81.6452L495.353 80.0909C494.298 80.9452 494.153 82.4889 495.001 83.5362L496.555 82.2775ZM496.612 81.6452C496.795 81.4969 497.079 81.5186 497.242 81.7209L498.797 80.4622C497.949 79.415 496.408 79.2366 495.353 80.0909L496.612 81.6452ZM497.242 81.7209L503.747 89.7531L505.301 88.4944L498.797 80.4622L497.242 81.7209ZM505.52 89.0305C505.312 86.8181 505.375 84.5229 505.721 82.2115L503.743 81.9156C503.374 84.3828 503.306 86.8399 503.528 89.217L505.52 89.0305ZM505.721 82.2113C506.384 77.7776 508.01 73.7292 510.403 70.4958L508.795 69.3063C506.189 72.8287 504.449 77.1917 503.743 81.9158L505.721 82.2113ZM510.403 70.4947C510.425 70.4656 510.45 70.4396 510.477 70.4175L509.219 68.8632C509.061 68.9908 508.918 69.1398 508.794 69.3075L510.403 70.4947ZM510.477 70.4175C510.57 70.3423 510.694 70.3066 510.823 70.3269L511.134 68.3514C510.444 68.2425 509.75 68.4328 509.219 68.8632L510.477 70.4175ZM510.822 70.3269C510.987 70.353 511.129 70.4699 511.186 70.6323L513.074 69.9731C512.775 69.1173 512.029 68.4927 511.134 68.3514L510.822 70.3269ZM511.186 70.6325C512.485 74.3507 512.867 78.5771 512.281 82.8794L514.263 83.1493C514.887 78.5646 514.487 74.0169 513.074 69.9728L511.186 70.6325ZM513.995 83.7054C515.188 82.4568 516.475 81.2669 517.852 80.1515L516.594 78.5972C515.149 79.767 513.8 81.0147 512.549 82.3233L513.995 83.7054ZM517.852 80.1515C522.845 76.1089 528.504 73.4008 534.207 72.3005L533.828 70.3367C527.772 71.5051 521.816 74.3685 516.594 78.5972L517.852 80.1515ZM534.207 72.3004C534.367 72.2695 534.538 72.3296 534.647 72.4642L536.202 71.2056C535.632 70.5026 534.72 70.1643 533.828 70.3368L534.207 72.3004ZM534.647 72.4642C534.756 72.5983 534.779 72.7785 534.716 72.9293L536.558 73.7074C536.911 72.8716 536.771 71.9092 536.202 71.2056L534.647 72.4642ZM534.716 72.9288C532.453 78.2791 528.628 83.2513 523.636 87.2938L524.895 88.8481C530.117 84.6194 534.155 79.3892 536.558 73.7078L534.716 72.9288ZM523.636 87.2938C522.834 87.943 522.011 88.5561 521.173 89.1384L522.314 90.7809C523.188 90.1735 524.051 89.5312 524.895 88.8481L523.636 87.2938ZM521.817 90.9569C525.282 90.7001 528.844 90.7642 532.444 91.1591L532.662 89.171C528.944 88.7631 525.259 88.6963 521.67 88.9624L521.817 90.9569ZM532.444 91.1591C541.482 92.1503 549.87 95.1243 556.706 99.7373L557.825 98.0794C550.694 93.2679 541.991 90.1941 532.662 89.171L532.444 91.1591ZM556.707 99.738C556.713 99.7416 556.717 99.7449 556.722 99.7481L557.904 98.1352C557.878 98.1156 557.851 98.0968 557.824 98.0788L556.707 99.738ZM556.722 99.748C556.73 99.7542 556.738 99.7603 556.745 99.7661L558.03 98.2339C557.989 98.1993 557.947 98.1665 557.905 98.1353L556.722 99.748ZM557.388 100H1386.58V98H557.388V100ZM1386.58 100C1396.81 100 1404.04 89.9696 1400.81 80.2566L1398.91 80.889C1401.72 89.3069 1395.45 98 1386.58 98V100ZM1400.81 80.2566L1377.14 9.25658L1375.24 9.88903L1398.91 80.889L1400.81 80.2566ZM1377.14 9.25657C1375.1 3.13145 1369.37 -1 1362.91 -1V1C1368.51 1 1373.47 4.58058 1375.24 9.88904L1377.14 9.25657ZM1362.91 -1H1177.4V1H1362.91V-1ZM1176.97 -0.902696C1173.21 0.886155 1169.38 2.45596 1166.05 3.33291L1166.55 5.26706C1170.06 4.34412 1174.03 2.71451 1177.83 0.902696L1176.97 -0.902696ZM1166.04 3.33389C1160.43 4.83408 1151.96 4.62873 1144.79 4.01611C1141.22 3.71178 1138.01 3.31101 1135.7 2.98625C1134.54 2.82392 1133.61 2.68071 1132.96 2.57825C1132.64 2.52703 1132.39 2.486 1132.23 2.45787C1132.14 2.44381 1132.08 2.43297 1132.03 2.42569C1132.01 2.42206 1132 2.41931 1131.99 2.4175C1131.98 2.41659 1131.98 2.41592 1131.98 2.41549C1131.97 2.41527 1131.97 2.41511 1131.97 2.41502C1131.97 2.41497 1131.97 2.41494 1131.97 2.41492C1131.97 2.4149 1131.97 2.41491 1131.8 3.39999C1131.63 4.38508 1131.63 4.38511 1131.63 4.38516C1131.63 4.38519 1131.63 4.38526 1131.63 4.38533C1131.63 4.38548 1131.63 4.38568 1131.63 4.38595C1131.64 4.38648 1131.64 4.38725 1131.65 4.38826C1131.66 4.39027 1131.68 4.39321 1131.7 4.39705C1131.74 4.40472 1131.81 4.41597 1131.9 4.43044C1132.07 4.45939 1132.32 4.50127 1132.65 4.55337C1133.3 4.65755 1134.25 4.80262 1135.42 4.96686C1137.76 5.29522 1141 5.7007 1144.61 6.00886C1151.79 6.62124 1160.57 6.86589 1166.56 5.26608L1166.04 3.33389ZM1131.8 3.39999C1131.33 4.28178 1131.33 4.28178 1131.33 4.28183C1131.33 4.28191 1131.33 4.282 1131.33 4.28215C1131.33 4.28245 1131.33 4.28293 1131.33 4.28358C1131.33 4.28488 1131.34 4.28687 1131.34 4.28955C1131.35 4.29491 1131.37 4.30302 1131.39 4.31382C1131.43 4.33543 1131.49 4.36782 1131.57 4.41056C1131.72 4.49604 1131.96 4.6229 1132.26 4.78764C1132.86 5.11714 1133.73 5.59811 1134.79 6.20264C1136.92 7.41199 1139.85 9.1144 1143.02 11.0868C1149.4 15.0527 1156.67 20.0394 1160.56 24.2768L1162.04 22.9231C1157.93 18.4605 1150.45 13.3472 1144.08 9.38818C1140.88 7.39807 1137.93 5.68173 1135.78 4.46296C1134.7 3.85343 1133.83 3.368 1133.22 3.03461C1132.92 2.86791 1132.68 2.73919 1132.52 2.65197C1132.44 2.60835 1132.38 2.57511 1132.34 2.55267C1132.32 2.54145 1132.3 2.53293 1132.29 2.52717C1132.28 2.52429 1132.28 2.5221 1132.28 2.5206C1132.27 2.51985 1132.27 2.51928 1132.27 2.51888C1132.27 2.51868 1132.27 2.51851 1132.27 2.51841C1132.27 2.51829 1132.27 2.51821 1131.8 3.39999ZM1160.57 24.2814C1164.6 28.6165 1168.22 32.779 1170.82 35.8584C1172.13 37.3978 1173.18 38.6657 1173.9 39.5482C1174.26 39.9894 1174.54 40.3342 1174.73 40.5684C1174.83 40.6855 1174.9 40.7749 1174.95 40.8349C1174.97 40.8649 1174.99 40.8875 1175 40.9025C1175.01 40.9101 1175.01 40.9157 1175.01 40.9194C1175.02 40.9212 1175.02 40.9226 1175.02 40.9235C1175.02 40.9239 1175.02 40.9242 1175.02 40.9244C1175.02 40.9245 1175.02 40.9246 1175.02 40.9247C1175.02 40.9247 1175.02 40.9247 1175.8 40.3C1176.58 39.6753 1176.58 39.6752 1176.58 39.6751C1176.58 39.6751 1176.58 39.6749 1176.58 39.6748C1176.58 39.6745 1176.58 39.6741 1176.58 39.6736C1176.58 39.6725 1176.58 39.671 1176.58 39.6689C1176.57 39.6649 1176.57 39.6589 1176.56 39.651C1176.55 39.6352 1176.53 39.6119 1176.51 39.5811C1176.46 39.5197 1176.38 39.4287 1176.29 39.3101C1176.09 39.0728 1175.81 38.7246 1175.45 38.2799C1174.72 37.3905 1173.66 36.1147 1172.35 34.5665C1169.73 31.4709 1166.1 27.2834 1162.03 22.9186L1160.57 24.2814ZM1175.8 40.3C1176.04 39.3291 1176.04 39.3291 1176.04 39.3291C1176.04 39.3291 1176.04 39.329 1176.04 39.3289C1176.04 39.3288 1176.04 39.3285 1176.04 39.3282C1176.03 39.3275 1176.03 39.3265 1176.02 39.325C1176.01 39.3222 1175.99 39.318 1175.97 39.3123C1175.93 39.301 1175.86 39.284 1175.77 39.2614C1175.59 39.2164 1175.33 39.1494 1174.99 39.0619C1174.31 38.8869 1173.33 38.6298 1172.12 38.3021C1169.7 37.6466 1166.39 36.7095 1162.79 35.583C1155.53 33.3162 1147.27 30.3263 1142.75 27.3638L1141.65 29.0362C1146.43 32.1736 1154.97 35.2337 1162.19 37.4919C1165.82 38.6279 1169.16 39.5721 1171.6 40.2323C1172.81 40.5624 1173.8 40.8217 1174.49 40.9986C1174.83 41.0871 1175.1 41.1549 1175.28 41.2008C1175.37 41.2237 1175.44 41.2411 1175.49 41.2529C1175.51 41.2587 1175.53 41.2632 1175.54 41.2662C1175.55 41.2677 1175.55 41.2688 1175.56 41.2696C1175.56 41.27 1175.56 41.2703 1175.56 41.2705C1175.56 41.2706 1175.56 41.2707 1175.56 41.2707C1175.56 41.2708 1175.56 41.2708 1175.8 40.3ZM1142.74 27.3597C1138.19 24.4241 1134.18 20.5669 1131.3 17.424C1129.86 15.856 1128.71 14.4737 1127.92 13.4851C1127.53 12.991 1127.22 12.5956 1127.02 12.3251C1126.91 12.1899 1126.84 12.0859 1126.79 12.0164C1126.76 11.9817 1126.74 11.9555 1126.73 11.9385C1126.72 11.9299 1126.72 11.9237 1126.71 11.9197C1126.71 11.9177 1126.71 11.9163 1126.71 11.9155C1126.71 11.9151 1126.71 11.9148 1126.71 11.9147C1126.71 11.9147 1126.71 11.9147 1126.71 11.9147C1126.71 11.9147 1126.71 11.9148 1125.9 12.5C1125.09 13.0852 1125.09 13.0854 1125.09 13.0856C1125.09 13.0857 1125.09 13.0859 1125.09 13.0862C1125.09 13.0866 1125.09 13.0873 1125.09 13.088C1125.09 13.0896 1125.09 13.0917 1125.1 13.0944C1125.1 13.0998 1125.11 13.1075 1125.11 13.1175C1125.13 13.1375 1125.15 13.1666 1125.18 13.2044C1125.23 13.2799 1125.31 13.3902 1125.42 13.5319C1125.64 13.8153 1125.95 14.2247 1126.36 14.7336C1127.17 15.7512 1128.35 17.1689 1129.83 18.776C1132.77 21.9831 1136.91 25.9759 1141.66 29.0403L1142.74 27.3597ZM1125.9 12.5C1124.95 12.8009 1124.95 12.8009 1124.95 12.8009C1124.95 12.801 1124.95 12.8011 1124.95 12.8014C1124.95 12.8019 1124.95 12.8027 1124.95 12.8039C1124.95 12.8062 1124.95 12.8099 1124.95 12.815C1124.95 12.8251 1124.96 12.8406 1124.97 12.8613C1124.98 12.9028 1125 12.9654 1125.02 13.0482C1125.07 13.2139 1125.15 13.4604 1125.24 13.7811C1125.43 14.4225 1125.7 15.3601 1126.01 16.5395C1126.64 18.899 1127.45 22.2231 1128.19 26.0772C1129.69 33.807 1130.89 43.582 1129.81 51.9724L1131.79 52.2276C1132.91 43.5179 1131.66 33.4929 1130.16 25.6978C1129.4 21.7894 1128.58 18.4197 1127.94 16.0261C1127.62 14.829 1127.35 13.8752 1127.16 13.2193C1127.06 12.8913 1126.99 12.6378 1126.94 12.4655C1126.91 12.3793 1126.89 12.3135 1126.88 12.2688C1126.87 12.2465 1126.86 12.2294 1126.86 12.2178C1126.86 12.2119 1126.86 12.2074 1126.86 12.2043C1126.85 12.2028 1126.85 12.2015 1126.85 12.2007C1126.85 12.2002 1126.85 12.1998 1126.85 12.1996C1126.85 12.1993 1126.85 12.1991 1125.9 12.5ZM1130.8 52.1C1131.51 51.3929 1131.51 51.393 1131.51 51.393C1131.51 51.393 1131.51 51.393 1131.51 51.3929C1131.51 51.3928 1131.51 51.3925 1131.51 51.3921C1131.51 51.3912 1131.5 51.3898 1131.5 51.3877C1131.5 51.3835 1131.49 51.377 1131.48 51.368C1131.46 51.3501 1131.44 51.3227 1131.4 51.2861C1131.33 51.2128 1131.22 51.1027 1131.09 50.9583C1130.81 50.6695 1130.42 50.2434 1129.94 49.6999C1128.97 48.6123 1127.66 47.0576 1126.28 45.193C1123.51 41.4408 1120.53 36.5282 1119.48 31.6872L1117.52 32.1128C1118.67 37.3718 1121.84 42.5592 1124.67 46.3819C1126.09 48.3049 1127.44 49.9064 1128.44 51.0281C1128.94 51.5893 1129.35 52.0313 1129.64 52.3342C1129.78 52.4857 1129.89 52.6025 1129.97 52.6821C1130.01 52.7219 1130.04 52.7524 1130.06 52.7734C1130.07 52.7838 1130.08 52.7919 1130.08 52.7975C1130.09 52.8004 1130.09 52.8026 1130.09 52.8042C1130.09 52.8049 1130.09 52.8056 1130.09 52.8061C1130.09 52.8063 1130.09 52.8066 1130.09 52.8067C1130.09 52.8069 1130.09 52.8071 1130.8 52.1ZM1119.48 31.6964C1118.44 26.7058 1118 22.2065 1117.81 18.9555C1117.72 17.3309 1117.69 16.0201 1117.69 15.1183C1117.68 14.6674 1117.69 14.319 1117.69 14.0847C1117.69 13.9676 1117.7 13.8791 1117.7 13.8207C1117.7 13.7914 1117.7 13.7697 1117.7 13.7557C1117.7 13.7487 1117.7 13.7436 1117.7 13.7405C1117.7 13.7389 1117.7 13.7379 1117.7 13.7373C1117.7 13.737 1117.7 13.7368 1117.7 13.7368C1117.7 13.7367 1117.7 13.7368 1117.7 13.7368C1117.7 13.7369 1117.7 13.737 1116.7 13.7C1115.7 13.663 1115.7 13.6632 1115.7 13.6634C1115.7 13.6635 1115.7 13.6637 1115.7 13.6639C1115.7 13.6644 1115.7 13.665 1115.7 13.6657C1115.7 13.667 1115.7 13.6689 1115.7 13.6713C1115.7 13.676 1115.7 13.6827 1115.7 13.6913C1115.7 13.7086 1115.7 13.7336 1115.7 13.7662C1115.7 13.8313 1115.69 13.9267 1115.69 14.0508C1115.69 14.299 1115.68 14.6622 1115.69 15.1285C1115.69 16.0611 1115.72 17.4066 1115.81 19.0694C1116 22.3935 1116.46 26.9941 1117.52 32.1036L1119.48 31.6964ZM1116.7 13.7C1115.77 13.3263 1115.77 13.3261 1115.77 13.3259C1115.77 13.3259 1115.77 13.3258 1115.77 13.3259C1115.77 13.3259 1115.77 13.3262 1115.77 13.3267C1115.77 13.3277 1115.77 13.3295 1115.77 13.3321C1115.77 13.3373 1115.76 13.3459 1115.76 13.3577C1115.75 13.3812 1115.73 13.4175 1115.71 13.466C1115.67 13.5631 1115.61 13.7087 1115.52 13.8974C1115.35 14.275 1115.1 14.8249 1114.75 15.5038C1114.06 16.8625 1113.02 18.7328 1111.61 20.7708C1108.8 24.8622 1104.6 29.5515 1098.97 32.195L1099.83 34.005C1105.9 31.1484 1110.35 26.1377 1113.26 21.9041C1114.72 19.7796 1115.81 17.8312 1116.53 16.4118C1116.9 15.7016 1117.17 15.1226 1117.35 14.7186C1117.44 14.5165 1117.51 14.3581 1117.55 14.2488C1117.58 14.1942 1117.6 14.1518 1117.61 14.1224C1117.61 14.1077 1117.62 14.0962 1117.62 14.0881C1117.62 14.084 1117.62 14.0807 1117.63 14.0783C1117.63 14.0771 1117.63 14.0761 1117.63 14.0754C1117.63 14.075 1117.63 14.0746 1117.63 14.0744C1117.63 14.074 1117.63 14.0737 1116.7 13.7ZM1099.4 33.1C1100.4 33.0105 1100.4 33.011 1100.4 33.0113C1100.4 33.0114 1100.4 33.0117 1100.4 33.0118C1100.4 33.0119 1100.4 33.0118 1100.4 33.0115C1100.4 33.0108 1100.4 33.0092 1100.4 33.0065C1100.4 33.0011 1100.39 32.9918 1100.39 32.9786C1100.39 32.9522 1100.39 32.9102 1100.39 32.8533C1100.38 32.7393 1100.37 32.5656 1100.37 32.3368C1100.36 31.8792 1100.36 31.2022 1100.42 30.3445C1100.53 28.6283 1100.83 26.1931 1101.64 23.3464C1103.24 17.6605 1106.82 10.3217 1114.74 3.77055L1113.46 2.22944C1105.18 9.07834 1101.41 16.7895 1099.71 22.8035C1098.87 25.8068 1098.54 28.3841 1098.42 30.218C1098.36 31.1352 1098.36 31.8676 1098.37 32.3756C1098.37 32.6297 1098.38 32.8278 1098.39 32.9651C1098.39 33.0337 1098.4 33.0871 1098.4 33.1247C1098.4 33.1435 1098.4 33.1583 1098.4 33.1691C1098.4 33.1746 1098.4 33.179 1098.4 33.1823C1098.4 33.184 1098.4 33.1855 1098.4 33.1867C1098.4 33.1872 1098.4 33.1879 1098.4 33.1882C1098.4 33.1889 1098.4 33.1894 1099.4 33.1ZM1113.94 2.01307L1079.04 7.71306L1079.36 9.6869L1114.26 3.98692L1113.94 2.01307ZM1080.19 8.58957L1080.09 7.68958L1078.11 7.91039L1078.21 8.81038L1080.19 8.58957ZM1080.1 7.79998V7.59997H1078.1V7.79998H1080.1ZM1080.09 7.48957L1079.99 6.58957L1078.01 6.81038L1078.11 7.71038L1080.09 7.48957ZM1079.13 7.69181L1114.13 3.19181L1113.87 1.20814L1078.87 5.70814L1079.13 7.69181ZM1114.4 1.28133C1112.84 0.612533 1111.39 -0.109312 1110.05 -0.870608L1109.06 0.870608C1110.47 1.66747 1111.98 2.42138 1113.6 3.11863L1114.4 1.28133ZM1109.55 -1H913.194V1H1109.55V-1ZM912.346 0.530109C912.591 0.922738 912.823 1.32032 913.041 1.72233L914.799 0.767942C914.561 0.329417 914.308 -0.103443 914.041 -0.530109L912.346 0.530109ZM913.042 1.72361C913.059 1.75524 913.072 1.78896 913.081 1.82327L915.022 1.33915C914.972 1.14251 914.898 0.94965 914.798 0.766663L913.042 1.72361ZM913.081 1.82313C913.11 1.93903 913.09 2.06643 913.017 2.17438L914.676 3.2918C915.066 2.71244 915.187 2.00284 915.022 1.33929L913.081 1.82313ZM913.017 2.17428C912.924 2.31283 912.758 2.39187 912.587 2.37463L912.386 4.36455C913.288 4.45543 914.169 4.04338 914.676 3.2919L913.017 2.17428ZM912.587 2.37461C909.219 2.03598 905.797 0.925088 902.582 -0.872778L901.606 0.872778C905.039 2.79248 908.723 3.99617 912.386 4.36457L912.587 2.37461ZM902.094 -1H900.847V1H902.094V-1ZM899.906 0.340306C900.382 1.6554 900.797 3.00799 901.142 4.39354L903.083 3.9097C902.72 2.4565 902.286 1.03826 901.787 -0.340306L899.906 0.340306ZM901.142 4.39354C902.696 10.6264 902.759 16.9 901.346 22.5339L903.286 23.0204C904.786 17.0378 904.708 10.4295 903.083 3.9097L901.142 4.39354ZM901.346 22.5341C901.306 22.6923 901.179 22.8217 901.011 22.8636L901.495 24.8042C902.373 24.5854 903.065 23.902 903.286 23.0202L901.346 22.5341ZM901.011 22.8636C900.844 22.9054 900.671 22.8506 900.561 22.7292L899.077 24.0701C899.685 24.7432 900.617 25.0233 901.495 24.8042L901.011 22.8636ZM900.561 22.7295C896.668 18.4177 893.779 12.8498 892.225 6.61692L890.284 7.10076C891.91 13.6206 894.943 19.4912 899.077 24.0698L900.561 22.7295ZM892.225 6.61694C891.975 5.61602 891.767 4.61075 891.594 3.60495L889.623 3.94494C889.804 4.99411 890.021 6.04766 890.284 7.10075L892.225 6.61694ZM889.673 3.42049C888.442 6.66872 886.878 9.87051 884.999 12.9658L886.709 14.0037C888.65 10.8065 890.268 7.49475 891.543 4.12939L889.673 3.42049ZM884.999 12.9658C880.281 20.7382 874.041 27.0832 866.971 31.3299L868.001 33.0444C875.375 28.6149 881.839 22.0262 886.709 14.0036L884.999 12.9658ZM866.97 31.3303C866.824 31.4185 866.64 31.4182 866.496 31.3325L865.473 33.0515C866.252 33.5146 867.225 33.5111 868.001 33.0441L866.97 31.3303ZM866.496 31.3325C866.354 31.2482 866.273 31.0946 866.282 30.9345L864.286 30.8214C864.234 31.7281 864.692 32.587 865.473 33.0515L866.496 31.3325ZM866.282 30.9353C866.751 22.7672 869.481 14.3379 874.2 6.56512L872.49 5.52722C867.62 13.5498 864.775 22.2927 864.286 30.8206L866.282 30.9353ZM874.2 6.56512C875.45 4.5063 876.808 2.54762 878.259 0.700269L876.687 -0.53534C875.186 1.37538 873.782 3.4001 872.49 5.52722L874.2 6.56512ZM877.046 -0.821976C872.615 1.2683 867.871 2.95751 862.906 4.19563L863.389 6.13622C868.479 4.86724 873.346 3.13453 877.9 0.986906L877.046 -0.821976ZM862.906 4.19563C851.377 7.07 839.777 7.24065 829.36 4.71169L828.888 6.65524C839.65 9.26811 851.58 9.08054 863.389 6.13622L862.906 4.19563ZM829.359 4.71164C829.194 4.67153 829.072 4.54676 829.033 4.39219L827.093 4.87587C827.313 5.75912 828.006 6.44139 828.888 6.65529L829.359 4.71164ZM829.033 4.39208C828.995 4.23817 829.044 4.06987 829.172 3.95638L827.842 2.46247C827.166 3.06459 826.872 3.99206 827.093 4.87598L829.033 4.39208ZM829.171 3.95665C830.404 2.86011 831.692 1.8068 833.031 0.798893L831.828 -0.798893C830.447 0.241019 829.117 1.32874 827.842 2.4622L829.171 3.95665ZM832.429 -1H312.051V1H832.429V-1ZM321.246 27.7268C322.225 27.9268 322.226 27.9263 322.226 27.9257C322.226 27.9254 322.226 27.9248 322.226 27.9242C322.226 27.9231 322.226 27.9218 322.227 27.9203C322.227 27.9173 322.228 27.9134 322.229 27.9087C322.231 27.8992 322.233 27.8863 322.236 27.8701C322.243 27.8375 322.251 27.7916 322.261 27.7326C322.281 27.6146 322.308 27.4444 322.337 27.2258C322.396 26.7886 322.464 26.157 322.506 25.3597C322.591 23.7658 322.573 21.5062 322.167 18.8135C321.354 13.4222 318.987 6.30198 312.799 -0.664108L311.303 0.664108C317.194 7.29589 319.424 14.0391 320.189 19.1117C320.572 21.651 320.588 23.7734 320.509 25.2536C320.47 25.9935 320.407 26.5718 320.355 26.9605C320.329 27.1547 320.306 27.3014 320.289 27.397C320.281 27.4448 320.275 27.4798 320.271 27.5016C320.269 27.5125 320.267 27.5201 320.266 27.5243C320.266 27.5264 320.266 27.5277 320.266 27.5281C320.266 27.5283 320.266 27.5283 320.266 27.5281C320.266 27.528 320.266 27.5276 320.266 27.5276C320.266 27.5272 320.266 27.5268 321.246 27.7268ZM296.928 2.49421C295.972 2.78998 295.972 2.79041 295.973 2.79092C295.973 2.79119 295.973 2.79178 295.973 2.79231C295.973 2.79339 295.974 2.79476 295.974 2.79643C295.975 2.79977 295.977 2.80429 295.979 2.80998C295.982 2.82135 295.987 2.83739 295.994 2.85797C296.007 2.89912 296.027 2.95843 296.053 3.03487C296.104 3.18775 296.181 3.40921 296.285 3.69107C296.493 4.25468 296.809 5.06044 297.245 6.04261C298.116 8.00563 299.471 10.6809 301.409 13.5388C305.281 19.2474 311.525 25.7472 320.948 28.6816L321.543 26.772C312.7 24.0183 306.785 17.9019 303.064 12.4162C301.206 9.67695 299.907 7.11056 299.073 5.23122C298.656 4.29222 298.356 3.52662 298.162 2.99917C298.064 2.7355 297.993 2.53151 297.948 2.39531C297.925 2.32721 297.908 2.27608 297.897 2.24293C297.892 2.22635 297.888 2.21427 297.886 2.20681C297.884 2.20308 297.884 2.20051 297.883 2.19911C297.883 2.19841 297.883 2.198 297.883 2.19789C297.883 2.19783 297.883 2.19797 297.883 2.19794C297.883 2.19815 297.883 2.19843 296.928 2.49421ZM295.936 21.7618C297.536 16.1856 298.034 11.3527 298.131 7.90645C298.179 6.18294 298.127 4.80479 298.063 3.85203C298.03 3.37559 297.995 3.00533 297.967 2.75124C297.953 2.62419 297.941 2.52616 297.932 2.4584C297.928 2.42452 297.924 2.3982 297.921 2.37961C297.92 2.37031 297.919 2.36295 297.918 2.35753C297.918 2.35482 297.918 2.3526 297.917 2.35087C297.917 2.35 297.917 2.34926 297.917 2.34864C297.917 2.34833 297.917 2.34795 297.917 2.3478C297.917 2.34745 297.917 2.34714 296.928 2.49421C295.938 2.64127 295.938 2.64102 295.938 2.6408C295.938 2.64077 295.938 2.64058 295.938 2.64051C295.938 2.64038 295.938 2.64037 295.938 2.64048C295.938 2.6407 295.938 2.64141 295.939 2.6426C295.939 2.64499 295.94 2.6493 295.94 2.65553C295.942 2.66798 295.945 2.68808 295.949 2.71567C295.956 2.77085 295.966 2.85598 295.979 2.96984C296.004 3.19756 296.037 3.54009 296.067 3.98752C296.128 4.8825 296.178 6.19643 296.131 7.85028C296.039 11.1588 295.56 15.8217 294.014 21.2102L295.936 21.7618Z" fill="#011F00" mask="url(#path-1-inside-1_0_91)"/>
</svg>
