<svg width="1401" height="99" viewBox="0 0 1401 99" fill="none" xmlns="http://www.w3.org/2000/svg">
<mask id="path-1-inside-1_0_1491" fill="white">
<path fill-rule="evenodd" clip-rule="evenodd" d="M294.747 21.486C292.302 30.049 283.527 37.1366 279.769 39.8069C277.802 35.7093 273.382 25.3316 275.147 16.5992C276.963 8.04776 280.333 2.24469 281.809 0H281.386C277.61 3.24179 264.903 12.7898 249.215 9.82457C249.215 9.82457 250.595 5.15524 255.096 0H14.0103C4.50809 0 -2.23365 9.26434 0.68888 18.3059L23.6384 89.3059C25.5062 95.0846 30.8867 99 36.9598 99H493.178C493.362 98.8821 493.547 98.7657 493.733 98.651C489.26 98.3192 485.05 97.0244 481.536 94.8911C481.076 94.6116 480.805 94.1008 480.833 93.5644C480.855 93.1506 481.051 92.7735 481.363 92.5212C481.455 92.4463 481.558 92.3826 481.669 92.3316C485.493 90.5895 489.957 89.8174 494.578 90.1002C497.432 90.2741 500.184 90.8418 502.725 91.7674L495.549 82.9068C495.043 82.2821 495.135 81.3694 495.754 80.8681C496.373 80.3668 497.285 80.4668 497.791 81.0916L504.295 89.1238C504.08 86.829 504.146 84.4529 504.504 82.0636C505.188 77.4846 506.871 73.279 509.37 69.9011C509.443 69.8027 509.527 69.7152 509.619 69.6403C509.931 69.3876 510.341 69.2746 510.75 69.3392C511.28 69.4228 511.724 69.7936 511.901 70.3027C513.257 74.1838 513.649 78.5708 513.043 83.0144C514.266 81.7357 515.583 80.517 516.995 79.3743C522.102 75.2387 527.909 72.453 533.789 71.3186C534.315 71.2169 534.857 71.4161 535.196 71.8349C535.535 72.2538 535.617 72.8251 535.408 73.3183C533.076 78.8342 529.144 83.9354 524.037 88.071C523.214 88.7371 522.371 89.3648 521.515 89.9597C525.042 89.6982 528.666 89.7636 532.324 90.1651C541.508 91.1722 550.053 94.1961 557.037 98.9084C557.053 98.9192 557.069 98.9303 557.085 98.9417C557.11 98.9604 557.135 98.9798 557.159 99H1362.68C1368.71 99 1374.06 95.144 1375.96 89.4272L1399.63 18.4272C1402.65 9.36175 1395.9 0 1386.35 0H1177.17C1173.39 1.80033 1169.49 3.40004 1166.07 4.29999C1154.47 7.39999 1131.57 3.39999 1131.57 3.39999C1131.57 3.39999 1153.07 14.9 1161.07 23.6C1169.17 32.3 1175.57 40.3 1175.57 40.3C1175.57 40.3 1151.27 34.3 1141.97 28.2C1132.67 22.2 1125.67 12.5 1125.67 12.5C1125.67 12.5 1132.77 35 1130.57 52.1C1130.57 52.1 1120.47 42 1118.27 31.9C1116.17 21.8 1116.47 13.7 1116.47 13.7C1116.47 13.7 1110.87 27.6 1099.17 33.1C1099.17 33.1 1097.67 16.4 1113.87 3L1078.97 8.69998L1078.87 7.79999V7.59998L1078.77 6.69998L1113.77 2.19998C1112.18 1.51696 1110.7 0.779078 1109.32 0H912.965C913.221 0.409649 913.464 0.824872 913.692 1.24514C913.75 1.35245 913.794 1.46574 913.823 1.58121C913.92 1.97094 913.849 2.38944 913.618 2.73309C913.318 3.17811 912.794 3.42365 912.258 3.36959C908.742 3.01608 905.189 1.85879 901.866 0H900.618C901.106 1.34683 901.53 2.73225 901.884 4.15162C903.474 10.528 903.544 16.9689 902.087 22.7772C901.957 23.2972 901.548 23.7036 901.025 23.8339C900.502 23.9643 899.949 23.7969 899.59 23.3997C895.577 18.9545 892.616 13.2352 891.026 6.85885C890.77 5.83184 890.557 4.80243 890.38 3.77495C889.126 7.08174 887.536 10.3385 885.625 13.4847C880.832 21.3822 874.48 27.8491 867.257 32.1872C866.796 32.4648 866.217 32.4664 865.756 32.192C865.295 31.9176 865.025 31.4114 865.056 30.8779C865.535 22.53 868.322 13.9438 873.117 6.04617C874.387 3.9532 875.768 1.9615 877.245 0.0824678C872.752 2.20142 867.947 3.91238 862.919 5.16593C851.25 8.07527 839.485 8.25438 828.895 5.68347C828.372 5.55647 827.964 5.15295 827.834 4.63403C827.705 4.11512 827.876 3.56724 828.278 3.20943C829.532 2.09443 830.841 1.02391 832.201 0H311.823C323.901 13.5979 321.017 27.7268 321.017 27.7268C302.751 22.0388 296.699 2.49421 296.699 2.49421C296.699 2.49421 297.893 10.5214 294.747 21.486Z"/>
</mask>
<path fill-rule="evenodd" clip-rule="evenodd" d="M294.747 21.486C292.302 30.049 283.527 37.1366 279.769 39.8069C277.802 35.7093 273.382 25.3316 275.147 16.5992C276.963 8.04776 280.333 2.24469 281.809 0H281.386C277.61 3.24179 264.903 12.7898 249.215 9.82457C249.215 9.82457 250.595 5.15524 255.096 0H14.0103C4.50809 0 -2.23365 9.26434 0.68888 18.3059L23.6384 89.3059C25.5062 95.0846 30.8867 99 36.9598 99H493.178C493.362 98.8821 493.547 98.7657 493.733 98.651C489.26 98.3192 485.05 97.0244 481.536 94.8911C481.076 94.6116 480.805 94.1008 480.833 93.5644C480.855 93.1506 481.051 92.7735 481.363 92.5212C481.455 92.4463 481.558 92.3826 481.669 92.3316C485.493 90.5895 489.957 89.8174 494.578 90.1002C497.432 90.2741 500.184 90.8418 502.725 91.7674L495.549 82.9068C495.043 82.2821 495.135 81.3694 495.754 80.8681C496.373 80.3668 497.285 80.4668 497.791 81.0916L504.295 89.1238C504.08 86.829 504.146 84.4529 504.504 82.0636C505.188 77.4846 506.871 73.279 509.37 69.9011C509.443 69.8027 509.527 69.7152 509.619 69.6403C509.931 69.3876 510.341 69.2746 510.75 69.3392C511.28 69.4228 511.724 69.7936 511.901 70.3027C513.257 74.1838 513.649 78.5708 513.043 83.0144C514.266 81.7357 515.583 80.517 516.995 79.3743C522.102 75.2387 527.909 72.453 533.789 71.3186C534.315 71.2169 534.857 71.4161 535.196 71.8349C535.535 72.2538 535.617 72.8251 535.408 73.3183C533.076 78.8342 529.144 83.9354 524.037 88.071C523.214 88.7371 522.371 89.3648 521.515 89.9597C525.042 89.6982 528.666 89.7636 532.324 90.1651C541.508 91.1722 550.053 94.1961 557.037 98.9084C557.053 98.9192 557.069 98.9303 557.085 98.9417C557.11 98.9604 557.135 98.9798 557.159 99H1362.68C1368.71 99 1374.06 95.144 1375.96 89.4272L1399.63 18.4272C1402.65 9.36175 1395.9 0 1386.35 0H1177.17C1173.39 1.80033 1169.49 3.40004 1166.07 4.29999C1154.47 7.39999 1131.57 3.39999 1131.57 3.39999C1131.57 3.39999 1153.07 14.9 1161.07 23.6C1169.17 32.3 1175.57 40.3 1175.57 40.3C1175.57 40.3 1151.27 34.3 1141.97 28.2C1132.67 22.2 1125.67 12.5 1125.67 12.5C1125.67 12.5 1132.77 35 1130.57 52.1C1130.57 52.1 1120.47 42 1118.27 31.9C1116.17 21.8 1116.47 13.7 1116.47 13.7C1116.47 13.7 1110.87 27.6 1099.17 33.1C1099.17 33.1 1097.67 16.4 1113.87 3L1078.97 8.69998L1078.87 7.79999V7.59998L1078.77 6.69998L1113.77 2.19998C1112.18 1.51696 1110.7 0.779078 1109.32 0H912.965C913.221 0.409649 913.464 0.824872 913.692 1.24514C913.75 1.35245 913.794 1.46574 913.823 1.58121C913.92 1.97094 913.849 2.38944 913.618 2.73309C913.318 3.17811 912.794 3.42365 912.258 3.36959C908.742 3.01608 905.189 1.85879 901.866 0H900.618C901.106 1.34683 901.53 2.73225 901.884 4.15162C903.474 10.528 903.544 16.9689 902.087 22.7772C901.957 23.2972 901.548 23.7036 901.025 23.8339C900.502 23.9643 899.949 23.7969 899.59 23.3997C895.577 18.9545 892.616 13.2352 891.026 6.85885C890.77 5.83184 890.557 4.80243 890.38 3.77495C889.126 7.08174 887.536 10.3385 885.625 13.4847C880.832 21.3822 874.48 27.8491 867.257 32.1872C866.796 32.4648 866.217 32.4664 865.756 32.192C865.295 31.9176 865.025 31.4114 865.056 30.8779C865.535 22.53 868.322 13.9438 873.117 6.04617C874.387 3.9532 875.768 1.9615 877.245 0.0824678C872.752 2.20142 867.947 3.91238 862.919 5.16593C851.25 8.07527 839.485 8.25438 828.895 5.68347C828.372 5.55647 827.964 5.15295 827.834 4.63403C827.705 4.11512 827.876 3.56724 828.278 3.20943C829.532 2.09443 830.841 1.02391 832.201 0H311.823C323.901 13.5979 321.017 27.7268 321.017 27.7268C302.751 22.0388 296.699 2.49421 296.699 2.49421C296.699 2.49421 297.893 10.5214 294.747 21.486Z" fill="#28B810"/>
<path d="M279.769 39.8069L278.868 40.2397L279.381 41.3094L280.349 40.622L279.769 39.8069ZM294.747 21.486L293.785 21.2102L293.785 21.2115L294.747 21.486ZM275.147 16.5992L274.168 16.3914L274.166 16.401L275.147 16.5992ZM281.809 0L282.645 0.549349L283.663 -1H281.809V0ZM281.386 0V-1H281.016L280.735 -0.75878L281.386 0ZM249.215 9.82457L248.256 9.54118L247.943 10.6018L249.029 10.8072L249.215 9.82457ZM255.096 0L255.849 0.657688L257.297 -1H255.096V0ZM0.68888 18.3059L1.64041 17.9983L0.68888 18.3059ZM23.6384 89.3059L24.5899 88.9983L23.6384 89.3059ZM493.178 99V100H493.47L493.717 99.8424L493.178 99ZM493.733 98.651L494.259 99.5015L496.878 97.8816L493.807 97.6537L493.733 98.651ZM481.536 94.8911L481.017 95.7457L481.017 95.746L481.536 94.8911ZM480.833 93.5644L479.834 93.5115L479.834 93.5125L480.833 93.5644ZM481.363 92.5212L480.733 91.744L480.733 91.7441L481.363 92.5212ZM481.669 92.3316L481.255 91.4216L481.255 91.4217L481.669 92.3316ZM494.578 90.1002L494.517 91.0983L494.517 91.0983L494.578 90.1002ZM502.725 91.7674L502.382 92.707L505.772 93.9423L503.502 91.1381L502.725 91.7674ZM495.549 82.9068L496.327 82.2775L496.327 82.2775L495.549 82.9068ZM497.791 81.0916L497.014 81.7209L497.014 81.7209L497.791 81.0916ZM504.295 89.1238L503.518 89.7531L505.599 92.3231L505.291 89.0305L504.295 89.1238ZM504.504 82.0636L505.493 82.2115L505.493 82.2113L504.504 82.0636ZM509.37 69.9011L510.174 70.4958L510.175 70.4947L509.37 69.9011ZM509.619 69.6403L510.249 70.4175L510.249 70.4175L509.619 69.6403ZM510.75 69.3392L510.906 68.3514L510.906 68.3514L510.75 69.3392ZM511.901 70.3027L510.957 70.6323L510.957 70.6325L511.901 70.3027ZM513.043 83.0144L512.052 82.8794L511.637 85.933L513.766 83.7054L513.043 83.0144ZM516.995 79.3743L516.365 78.5972L516.365 78.5972L516.995 79.3743ZM533.789 71.3186L533.978 72.3005L533.979 72.3004L533.789 71.3186ZM535.196 71.8349L535.973 71.2056L535.973 71.2056L535.196 71.8349ZM535.408 73.3183L536.329 73.7078L536.33 73.7074L535.408 73.3183ZM524.037 88.071L524.666 88.8481L524.666 88.8481L524.037 88.071ZM521.515 89.9597L520.944 89.1384L517.937 91.2277L521.589 90.9569L521.515 89.9597ZM532.324 90.1651L532.215 91.1591L532.215 91.1591L532.324 90.1651ZM557.037 98.9084L556.478 99.7373L556.479 99.738L557.037 98.9084ZM557.085 98.9417L557.676 98.1353L557.676 98.1352L557.085 98.9417ZM557.159 99L556.516 99.7661L556.795 100H557.159V99ZM1375.96 89.4272L1376.91 89.7434L1376.91 89.7434L1375.96 89.4272ZM1399.63 18.4272L1398.68 18.111L1398.68 18.111L1399.63 18.4272ZM1177.17 0V-1H1176.94L1176.74 -0.902696L1177.17 0ZM1166.07 4.29999L1165.82 3.33291L1165.81 3.33389L1166.07 4.29999ZM1131.57 3.39999L1131.74 2.41491L1131.1 4.28178L1131.57 3.39999ZM1161.07 23.6L1160.34 24.2769L1160.34 24.2814L1161.07 23.6ZM1175.57 40.3L1175.33 41.2708L1178.19 41.9776L1176.35 39.6753L1175.57 40.3ZM1141.97 28.2L1142.52 27.3638L1142.51 27.3597L1141.97 28.2ZM1125.67 12.5L1126.48 11.9148L1124.72 12.8009L1125.67 12.5ZM1130.57 52.1L1129.86 52.8071L1131.3 54.2463L1131.56 52.2276L1130.57 52.1ZM1118.27 31.9L1117.29 32.1036L1117.29 32.1128L1118.27 31.9ZM1116.47 13.7L1117.47 13.737L1115.54 13.3263L1116.47 13.7ZM1099.17 33.1L1098.18 33.1894L1098.3 34.613L1099.6 34.005L1099.17 33.1ZM1113.87 3L1114.51 3.77055L1117.35 1.41818L1113.71 2.01308L1113.87 3ZM1078.97 8.69998L1077.98 8.81039L1078.09 9.85658L1079.13 9.68691L1078.97 8.69998ZM1078.87 7.79999H1077.87V7.85536L1077.88 7.91039L1078.87 7.79999ZM1078.87 7.59998H1079.87V7.5446L1079.87 7.48957L1078.87 7.59998ZM1078.77 6.69998L1078.64 5.70815L1077.67 5.83349L1077.78 6.81039L1078.77 6.69998ZM1113.77 2.19998L1113.9 3.19182L1117.52 2.72562L1114.17 1.28133L1113.77 2.19998ZM1109.32 0L1109.82 -0.870608L1109.59 -1H1109.32V0ZM912.965 0V-1H911.161L912.117 0.530108L912.965 0ZM913.692 1.24514L912.813 1.72234L912.814 1.72362L913.692 1.24514ZM913.823 1.58121L914.793 1.33929L914.793 1.33915L913.823 1.58121ZM913.618 2.73309L914.447 3.2919L914.447 3.2918L913.618 2.73309ZM912.258 3.36959L912.358 2.37463L912.358 2.37461L912.258 3.36959ZM901.866 0L902.354 -0.872778L902.126 -1H901.866V0ZM900.618 0V-1H899.193L899.678 0.340306L900.618 0ZM901.884 4.15162L900.914 4.39354L900.914 4.39354L901.884 4.15162ZM902.087 22.7772L901.117 22.5339L901.117 22.5341L902.087 22.7772ZM901.025 23.8339L901.267 24.8042L901.267 24.8042L901.025 23.8339ZM899.59 23.3997L898.848 24.0698L898.848 24.0701L899.59 23.3997ZM891.026 6.85885L890.055 7.10075L890.055 7.10076L891.026 6.85885ZM890.38 3.77495L891.365 3.60495L890.743 -0.00374724L889.445 3.42049L890.38 3.77495ZM885.625 13.4847L884.771 12.9658L884.771 12.9658L885.625 13.4847ZM867.257 32.1872L866.742 31.3299L866.742 31.3303L867.257 32.1872ZM865.756 32.192L865.245 33.0515L865.245 33.0515L865.756 32.192ZM865.056 30.8779L864.057 30.8206L864.057 30.8214L865.056 30.8779ZM873.117 6.04617L873.971 6.56512L873.971 6.56512L873.117 6.04617ZM877.245 0.0824678L878.031 0.700272L876.818 -0.821973L877.245 0.0824678ZM862.919 5.16593L862.677 4.19563L862.677 4.19563L862.919 5.16593ZM828.895 5.68347L829.131 4.7117L829.131 4.71164L828.895 5.68347ZM827.834 4.63403L828.805 4.39219L828.805 4.39208L827.834 4.63403ZM828.278 3.20943L827.614 2.46221L827.613 2.46248L828.278 3.20943ZM832.201 0L832.802 0.798892L835.192 -1L832.201 -1V0ZM311.823 0V-1H309.597L311.075 0.664108L311.823 0ZM321.017 27.7268L320.72 28.6816L321.776 29.0104L321.997 27.9268L321.017 27.7268ZM296.699 2.49421L297.654 2.19844L295.71 2.64127L296.699 2.49421ZM280.349 40.622C282.262 39.2623 285.452 36.7794 288.481 33.5391C291.501 30.309 294.424 26.2591 295.708 21.7605L293.785 21.2115C292.625 25.2759 289.939 29.0514 287.02 32.1733C284.111 35.2852 281.034 37.6813 279.19 38.9918L280.349 40.622ZM274.166 16.401C273.24 20.9842 273.944 25.9345 275.093 30.2011C276.245 34.4815 277.87 38.1617 278.868 40.2397L280.671 39.3741C279.701 37.3545 278.132 33.7971 277.024 29.6811C275.912 25.5513 275.288 20.9466 276.127 16.7973L274.166 16.401ZM280.974 -0.549349C279.45 1.76829 276.017 7.68654 274.168 16.3914L276.125 16.8069C277.908 8.40897 281.217 2.72109 282.645 0.549349L280.974 -0.549349ZM281.809 -1H281.386V1H281.809V-1ZM249.029 10.8072C265.195 13.8628 278.219 4.03666 282.037 0.75878L280.735 -0.75878C277 2.44693 264.61 11.7169 249.401 8.84197L249.029 10.8072ZM254.343 -0.657688C252.028 1.99406 250.512 4.52373 249.574 6.39761C249.104 7.33489 248.778 8.10939 248.568 8.65493C248.463 8.92775 248.387 9.14349 248.336 9.2939C248.31 9.36911 248.291 9.428 248.278 9.46955C248.272 9.49033 248.267 9.50677 248.263 9.51875C248.261 9.52474 248.26 9.52962 248.259 9.53336C248.258 9.53523 248.258 9.53682 248.257 9.53812C248.257 9.53878 248.257 9.53936 248.257 9.53987C248.257 9.54012 248.256 9.54045 248.256 9.54058C248.256 9.54089 248.256 9.54118 249.215 9.82457C250.174 10.108 250.174 10.1082 250.174 10.1085C250.174 10.1085 250.174 10.1087 250.174 10.1089C250.174 10.1091 250.174 10.1092 250.174 10.1093C250.174 10.1095 250.174 10.1094 250.174 10.109C250.174 10.1082 250.175 10.1063 250.176 10.1033C250.177 10.0973 250.181 10.0869 250.185 10.0722C250.195 10.0428 250.21 9.99638 250.231 9.93384C250.273 9.80876 250.34 9.61943 250.434 9.37395C250.623 8.88289 250.924 8.16785 251.362 7.29339C252.238 5.5438 253.664 3.16119 255.849 0.657688L254.343 -0.657688ZM255.096 -1H14.0103V1H255.096V-1ZM14.0103 -1C3.82936 -1 -3.39393 8.92608 -0.262647 18.6135L1.64041 17.9983C-1.07337 9.6026 5.18682 1 14.0103 1V-1ZM-0.262647 18.6135L22.6868 89.6135L24.5899 88.9983L1.64041 17.9983L-0.262647 18.6135ZM22.6868 89.6135C24.6881 95.8049 30.453 100 36.9598 100V98C31.3205 98 26.3243 94.3642 24.5899 88.9983L22.6868 89.6135ZM36.9598 100H493.178V98H36.9598V100ZM493.717 99.8424C493.897 99.7272 494.077 99.6136 494.259 99.5015L493.207 97.8005C493.017 97.9179 492.827 98.0369 492.639 98.1576L493.717 99.8424ZM493.807 97.6537C489.476 97.3325 485.422 96.08 482.055 94.0363L481.017 95.746C484.679 97.9688 489.044 99.3059 493.659 99.6483L493.807 97.6537ZM482.055 94.0366C481.908 93.9472 481.823 93.7838 481.832 93.6163L479.834 93.5125C479.787 94.4179 480.244 95.276 481.017 95.7457L482.055 94.0366ZM481.832 93.6174C481.838 93.4876 481.9 93.3732 481.992 93.2983L480.733 91.7441C480.203 92.1738 479.871 92.8136 479.834 93.5115L481.832 93.6174ZM481.992 93.2984C482.019 93.2767 482.049 93.2576 482.084 93.2416L481.255 91.4217C481.066 91.5076 480.892 91.6159 480.733 91.744L481.992 93.2984ZM482.084 93.2416C485.744 91.574 490.042 90.8245 494.517 91.0983L494.639 89.102C489.871 88.8103 485.242 89.6049 481.255 91.4216L482.084 93.2416ZM494.517 91.0983C497.279 91.2666 499.936 91.8157 502.382 92.707L503.067 90.8278C500.432 89.8679 497.585 89.2816 494.639 89.102L494.517 91.0983ZM503.502 91.1381L496.327 82.2775L494.772 83.5362L501.947 92.3967L503.502 91.1381ZM496.327 82.2775C496.163 82.0753 496.2 81.7936 496.384 81.6452L495.125 80.0909C494.07 80.9452 493.924 82.4889 494.772 83.5362L496.327 82.2775ZM496.384 81.6452C496.567 81.4969 496.85 81.5186 497.014 81.7209L498.568 80.4622C497.72 79.415 496.18 79.2366 495.125 80.0909L496.384 81.6452ZM497.014 81.7209L503.518 89.7531L505.073 88.4945L498.568 80.4622L497.014 81.7209ZM505.291 89.0305C505.084 86.8181 505.147 84.5229 505.493 82.2115L503.515 81.9156C503.145 84.3828 503.077 86.8399 503.3 89.217L505.291 89.0305ZM505.493 82.2113C506.155 77.7776 507.782 73.7292 510.174 70.4958L508.566 69.3063C505.96 72.8287 504.22 77.1917 503.515 81.9158L505.493 82.2113ZM510.175 70.4947C510.196 70.4656 510.221 70.4396 510.249 70.4175L508.99 68.8632C508.832 68.9908 508.689 69.1398 508.565 69.3075L510.175 70.4947ZM510.249 70.4175C510.341 70.3423 510.465 70.3067 510.594 70.3269L510.906 68.3514C510.216 68.2425 509.521 68.4328 508.99 68.8632L510.249 70.4175ZM510.594 70.3269C510.759 70.353 510.901 70.4699 510.957 70.6323L512.846 69.9731C512.547 69.1173 511.801 68.4927 510.906 68.3514L510.594 70.3269ZM510.957 70.6325C512.256 74.3507 512.639 78.5771 512.052 82.8794L514.034 83.1494C514.659 78.5646 514.258 74.0169 512.845 69.9729L510.957 70.6325ZM513.766 83.7054C514.96 82.4568 516.246 81.2669 517.624 80.1515L516.365 78.5972C514.921 79.767 513.572 81.0147 512.321 82.3234L513.766 83.7054ZM517.624 80.1515C522.616 76.1089 528.275 73.4008 533.978 72.3005L533.6 70.3367C527.543 71.5052 521.587 74.3685 516.365 78.5972L517.624 80.1515ZM533.979 72.3004C534.139 72.2695 534.31 72.3296 534.419 72.4642L535.973 71.2056C535.404 70.5026 534.492 70.1643 533.599 70.3368L533.979 72.3004ZM534.419 72.4642C534.527 72.5983 534.551 72.7785 534.487 72.9293L536.33 73.7074C536.683 72.8716 536.543 71.9092 535.973 71.2056L534.419 72.4642ZM534.487 72.9288C532.225 78.2792 528.4 83.2513 523.408 87.2938L524.666 88.8481C529.888 84.6194 533.927 79.3892 536.329 73.7078L534.487 72.9288ZM523.408 87.2938C522.606 87.943 521.783 88.5561 520.944 89.1384L522.086 90.7809C522.96 90.1735 523.823 89.5312 524.666 88.8481L523.408 87.2938ZM521.589 90.9569C525.053 90.7001 528.616 90.7642 532.215 91.1591L532.433 89.171C528.715 88.7631 525.03 88.6963 521.441 88.9624L521.589 90.9569ZM532.215 91.1591C541.253 92.1503 549.641 95.1243 556.478 99.7373L557.597 98.0794C550.465 93.2679 541.762 90.1941 532.433 89.171L532.215 91.1591ZM556.479 99.738C556.484 99.7416 556.489 99.7449 556.493 99.7481L557.676 98.1352C557.649 98.1156 557.622 98.0968 557.596 98.0788L556.479 99.738ZM556.493 99.748C556.502 99.7542 556.509 99.7603 556.516 99.7661L557.802 98.2339C557.76 98.1993 557.719 98.1665 557.676 98.1353L556.493 99.748ZM557.159 100H1362.68V98H557.159V100ZM1362.68 100C1369.14 100 1374.87 95.8685 1376.91 89.7434L1375.01 89.111C1373.24 94.4194 1368.28 98 1362.68 98V100ZM1376.91 89.7434L1400.58 18.7434L1398.68 18.111L1375.01 89.111L1376.91 89.7434ZM1400.58 18.7434C1403.82 9.03045 1396.59 -1 1386.35 -1V1C1395.22 1 1401.49 9.69305 1398.68 18.111L1400.58 18.7434ZM1386.35 -1H1177.17V1H1386.35V-1ZM1176.74 -0.902696C1172.98 0.886156 1169.15 2.45596 1165.82 3.33291L1166.33 5.26706C1169.83 4.34412 1173.8 2.71451 1177.6 0.902696L1176.74 -0.902696ZM1165.81 3.33389C1160.2 4.83408 1151.73 4.62873 1144.56 4.01611C1140.99 3.71178 1137.79 3.31101 1135.47 2.98625C1134.31 2.82392 1133.38 2.68072 1132.74 2.57826C1132.41 2.52703 1132.16 2.486 1132 2.45787C1131.91 2.44381 1131.85 2.43297 1131.81 2.4257C1131.78 2.42206 1131.77 2.41931 1131.76 2.4175C1131.75 2.4166 1131.75 2.41592 1131.75 2.41549C1131.75 2.41527 1131.74 2.41512 1131.74 2.41502C1131.74 2.41497 1131.74 2.41494 1131.74 2.41492C1131.74 2.41491 1131.74 2.41491 1131.57 3.39999C1131.4 4.38508 1131.4 4.38511 1131.4 4.38516C1131.4 4.3852 1131.4 4.38526 1131.4 4.38533C1131.4 4.38548 1131.4 4.38569 1131.4 4.38595C1131.41 4.38648 1131.41 4.38726 1131.42 4.38826C1131.43 4.39027 1131.45 4.39321 1131.47 4.39705C1131.51 4.40473 1131.58 4.41597 1131.67 4.43045C1131.84 4.4594 1132.09 4.50128 1132.42 4.55337C1133.08 4.65755 1134.02 4.80263 1135.19 4.96686C1137.53 5.29522 1140.78 5.7007 1144.39 6.00887C1151.56 6.62124 1160.34 6.8659 1166.33 5.26608L1165.81 3.33389ZM1131.57 3.39999C1131.1 4.28178 1131.1 4.28179 1131.1 4.28184C1131.1 4.28191 1131.1 4.28201 1131.1 4.28216C1131.1 4.28246 1131.1 4.28293 1131.1 4.28358C1131.11 4.28488 1131.11 4.28687 1131.11 4.28955C1131.12 4.29491 1131.14 4.30302 1131.16 4.31382C1131.2 4.33543 1131.26 4.36783 1131.34 4.41057C1131.5 4.49604 1131.73 4.6229 1132.03 4.78764C1132.63 5.11714 1133.5 5.59811 1134.56 6.20264C1136.69 7.412 1139.62 9.1144 1142.79 11.0868C1149.17 15.0527 1156.44 20.0394 1160.34 24.2768L1161.81 22.9231C1157.7 18.4605 1150.22 13.3472 1143.85 9.38818C1140.65 7.39808 1137.7 5.68173 1135.55 4.46296C1134.47 3.85343 1133.6 3.368 1132.99 3.03461C1132.69 2.86791 1132.45 2.7392 1132.29 2.65197C1132.21 2.60836 1132.15 2.57511 1132.11 2.55267C1132.09 2.54145 1132.07 2.53294 1132.06 2.52717C1132.05 2.52429 1132.05 2.5221 1132.05 2.5206C1132.05 2.51986 1132.05 2.51928 1132.04 2.51888C1132.04 2.51868 1132.04 2.51851 1132.04 2.51841C1132.04 2.51829 1132.04 2.51821 1131.57 3.39999ZM1160.34 24.2814C1164.38 28.6165 1167.99 32.779 1170.6 35.8584C1171.9 37.3978 1172.95 38.6657 1173.67 39.5482C1174.03 39.9894 1174.31 40.3342 1174.5 40.5684C1174.6 40.6855 1174.67 40.7749 1174.72 40.8349C1174.74 40.8649 1174.76 40.8875 1174.77 40.9025C1174.78 40.9101 1174.78 40.9157 1174.79 40.9194C1174.79 40.9212 1174.79 40.9226 1174.79 40.9235C1174.79 40.9239 1174.79 40.9243 1174.79 40.9245C1174.79 40.9246 1174.79 40.9246 1174.79 40.9247C1174.79 40.9247 1174.79 40.9247 1175.57 40.3C1176.35 39.6753 1176.35 39.6752 1176.35 39.6751C1176.35 39.6751 1176.35 39.6749 1176.35 39.6748C1176.35 39.6745 1176.35 39.6741 1176.35 39.6736C1176.35 39.6725 1176.35 39.671 1176.35 39.6689C1176.34 39.6649 1176.34 39.6589 1176.33 39.651C1176.32 39.6352 1176.3 39.6119 1176.28 39.5811C1176.23 39.5197 1176.15 39.4287 1176.06 39.3101C1175.87 39.0728 1175.58 38.7246 1175.22 38.2799C1174.49 37.3905 1173.43 36.1147 1172.12 34.5665C1169.5 31.4709 1165.87 27.2834 1161.8 22.9186L1160.34 24.2814ZM1175.57 40.3C1175.81 39.3291 1175.81 39.3291 1175.81 39.3291C1175.81 39.3291 1175.81 39.329 1175.81 39.3289C1175.81 39.3288 1175.81 39.3285 1175.81 39.3282C1175.8 39.3275 1175.8 39.3265 1175.79 39.3251C1175.78 39.3222 1175.77 39.318 1175.74 39.3123C1175.7 39.301 1175.63 39.284 1175.54 39.2614C1175.36 39.2164 1175.1 39.1494 1174.76 39.0619C1174.08 38.8869 1173.1 38.6298 1171.89 38.3021C1169.48 37.6466 1166.16 36.7095 1162.56 35.583C1155.31 33.3162 1147.04 30.3263 1142.52 27.3638L1141.42 29.0362C1146.21 32.1736 1154.74 35.2337 1161.96 37.4919C1165.59 38.6279 1168.94 39.5721 1171.37 40.2323C1172.58 40.5624 1173.57 40.8217 1174.26 40.9986C1174.6 41.0871 1174.87 41.1549 1175.05 41.2008C1175.14 41.2237 1175.21 41.2411 1175.26 41.2529C1175.28 41.2587 1175.3 41.2632 1175.31 41.2662C1175.32 41.2677 1175.32 41.2688 1175.33 41.2696C1175.33 41.27 1175.33 41.2703 1175.33 41.2705C1175.33 41.2706 1175.33 41.2707 1175.33 41.2707C1175.33 41.2708 1175.33 41.2708 1175.57 40.3ZM1142.51 27.3597C1137.96 24.4241 1133.95 20.5669 1131.07 17.424C1129.63 15.8561 1128.48 14.4738 1127.69 13.4851C1127.3 12.991 1126.99 12.5956 1126.79 12.3251C1126.69 12.1899 1126.61 12.0859 1126.56 12.0164C1126.53 11.9817 1126.51 11.9556 1126.5 11.9385C1126.49 11.93 1126.49 11.9237 1126.49 11.9197C1126.48 11.9177 1126.48 11.9163 1126.48 11.9155C1126.48 11.9151 1126.48 11.9148 1126.48 11.9147C1126.48 11.9147 1126.48 11.9147 1126.48 11.9147C1126.48 11.9147 1126.48 11.9148 1125.67 12.5C1124.86 13.0852 1124.86 13.0854 1124.86 13.0856C1124.86 13.0857 1124.86 13.0859 1124.86 13.0862C1124.86 13.0866 1124.86 13.0873 1124.86 13.088C1124.86 13.0896 1124.87 13.0917 1124.87 13.0944C1124.87 13.0998 1124.88 13.1075 1124.88 13.1175C1124.9 13.1375 1124.92 13.1666 1124.95 13.2044C1125 13.2799 1125.09 13.3902 1125.19 13.5319C1125.41 13.8153 1125.72 14.2247 1126.13 14.7336C1126.94 15.7512 1128.12 17.1689 1129.6 18.776C1132.54 21.9831 1136.68 25.9759 1141.43 29.0403L1142.51 27.3597ZM1125.67 12.5C1124.72 12.8009 1124.72 12.8009 1124.72 12.8009C1124.72 12.801 1124.72 12.8011 1124.72 12.8014C1124.72 12.8019 1124.72 12.8027 1124.72 12.8039C1124.72 12.8062 1124.72 12.8099 1124.72 12.815C1124.73 12.8251 1124.73 12.8406 1124.74 12.8613C1124.75 12.9028 1124.77 12.9654 1124.79 13.0482C1124.84 13.2139 1124.92 13.4604 1125.01 13.7811C1125.2 14.4225 1125.47 15.3601 1125.78 16.5395C1126.41 18.899 1127.22 22.2231 1127.96 26.0772C1129.46 33.807 1130.66 43.582 1129.58 51.9724L1131.56 52.2276C1132.68 43.5179 1131.43 33.4929 1129.93 25.6978C1129.17 21.7894 1128.35 18.4197 1127.71 16.0261C1127.4 14.829 1127.12 13.8752 1126.93 13.2193C1126.84 12.8913 1126.76 12.6378 1126.71 12.4655C1126.68 12.3793 1126.66 12.3135 1126.65 12.2688C1126.64 12.2465 1126.63 12.2294 1126.63 12.2178C1126.63 12.2119 1126.63 12.2074 1126.63 12.2043C1126.63 12.2028 1126.63 12.2016 1126.63 12.2007C1126.63 12.2002 1126.63 12.1998 1126.63 12.1996C1126.63 12.1993 1126.63 12.1991 1125.67 12.5ZM1130.57 52.1C1131.28 51.3929 1131.28 51.393 1131.28 51.393C1131.28 51.393 1131.28 51.393 1131.28 51.3929C1131.28 51.3928 1131.28 51.3925 1131.28 51.3921C1131.28 51.3912 1131.28 51.3898 1131.27 51.3877C1131.27 51.3835 1131.26 51.377 1131.25 51.368C1131.24 51.3501 1131.21 51.3227 1131.17 51.2861C1131.1 51.2128 1131 51.1027 1130.86 50.9583C1130.59 50.6695 1130.19 50.2434 1129.71 49.6999C1128.74 48.6123 1127.43 47.0576 1126.05 45.193C1123.28 41.4408 1120.3 36.5282 1119.25 31.6872L1117.29 32.1128C1118.44 37.3718 1121.62 42.5592 1124.44 46.382C1125.86 48.3049 1127.22 49.9064 1128.21 51.0281C1128.71 51.5893 1129.12 52.0313 1129.41 52.3342C1129.55 52.4857 1129.66 52.6025 1129.74 52.6821C1129.78 52.7219 1129.81 52.7524 1129.83 52.7734C1129.84 52.7838 1129.85 52.7919 1129.85 52.7975C1129.86 52.8004 1129.86 52.8026 1129.86 52.8042C1129.86 52.805 1129.86 52.8056 1129.86 52.8061C1129.86 52.8063 1129.86 52.8066 1129.86 52.8067C1129.86 52.8069 1129.86 52.8071 1130.57 52.1ZM1119.25 31.6964C1118.21 26.7058 1117.77 22.2065 1117.58 18.9555C1117.49 17.3309 1117.46 16.0201 1117.46 15.1183C1117.46 14.6674 1117.46 14.319 1117.46 14.0847C1117.46 13.9676 1117.47 13.8791 1117.47 13.8207C1117.47 13.7914 1117.47 13.7697 1117.47 13.7557C1117.47 13.7487 1117.47 13.7436 1117.47 13.7405C1117.47 13.7389 1117.47 13.7379 1117.47 13.7373C1117.47 13.737 1117.47 13.7368 1117.47 13.7368C1117.47 13.7367 1117.47 13.7368 1117.47 13.7368C1117.47 13.7369 1117.47 13.737 1116.47 13.7C1115.47 13.663 1115.47 13.6632 1115.47 13.6634C1115.47 13.6635 1115.47 13.6637 1115.47 13.6639C1115.47 13.6644 1115.47 13.665 1115.47 13.6657C1115.47 13.667 1115.47 13.6689 1115.47 13.6713C1115.47 13.676 1115.47 13.6827 1115.47 13.6913C1115.47 13.7086 1115.47 13.7336 1115.47 13.7662C1115.47 13.8313 1115.46 13.9267 1115.46 14.0508C1115.46 14.299 1115.46 14.6622 1115.46 15.1285C1115.46 16.0611 1115.49 17.4066 1115.59 19.0694C1115.78 22.3935 1116.23 26.9941 1117.29 32.1036L1119.25 31.6964ZM1116.47 13.7C1115.54 13.3263 1115.54 13.3261 1115.54 13.3259C1115.54 13.3259 1115.54 13.3258 1115.54 13.3259C1115.54 13.3259 1115.54 13.3262 1115.54 13.3267C1115.54 13.3277 1115.54 13.3295 1115.54 13.3321C1115.54 13.3373 1115.54 13.3459 1115.53 13.3577C1115.52 13.3812 1115.51 13.4175 1115.49 13.466C1115.44 13.5631 1115.38 13.7087 1115.3 13.8974C1115.13 14.275 1114.87 14.8249 1114.52 15.5038C1113.83 16.8625 1112.79 18.7328 1111.38 20.7708C1108.57 24.8622 1104.37 29.5515 1098.75 32.195L1099.6 34.005C1105.67 31.1484 1110.12 26.1377 1113.03 21.9041C1114.49 19.7796 1115.58 17.8312 1116.3 16.4118C1116.67 15.7016 1116.94 15.1226 1117.12 14.7186C1117.21 14.5165 1117.28 14.3581 1117.33 14.2488C1117.35 14.1942 1117.37 14.1518 1117.38 14.1224C1117.39 14.1077 1117.39 14.0962 1117.39 14.0881C1117.39 14.084 1117.4 14.0807 1117.4 14.0783C1117.4 14.0771 1117.4 14.0762 1117.4 14.0754C1117.4 14.075 1117.4 14.0746 1117.4 14.0744C1117.4 14.074 1117.4 14.0737 1116.47 13.7ZM1099.17 33.1C1100.17 33.0105 1100.17 33.011 1100.17 33.0113C1100.17 33.0114 1100.17 33.0117 1100.17 33.0118C1100.17 33.0119 1100.17 33.0118 1100.17 33.0115C1100.17 33.0108 1100.17 33.0092 1100.17 33.0065C1100.17 33.0011 1100.17 32.9918 1100.17 32.9786C1100.16 32.9522 1100.16 32.9102 1100.16 32.8533C1100.15 32.7393 1100.14 32.5656 1100.14 32.3368C1100.13 31.8792 1100.13 31.2022 1100.19 30.3445C1100.3 28.6283 1100.61 26.1932 1101.41 23.3464C1103.01 17.6605 1106.59 10.3217 1114.51 3.77055L1113.23 2.22945C1104.95 9.07834 1101.18 16.7895 1099.48 22.8035C1098.64 25.8068 1098.31 28.3841 1098.19 30.218C1098.13 31.1352 1098.13 31.8676 1098.14 32.3756C1098.14 32.6297 1098.15 32.8278 1098.16 32.9651C1098.16 33.0337 1098.17 33.0871 1098.17 33.1247C1098.17 33.1435 1098.17 33.1583 1098.17 33.1692C1098.17 33.1746 1098.17 33.179 1098.17 33.1823C1098.18 33.184 1098.18 33.1855 1098.18 33.1867C1098.18 33.1872 1098.18 33.1879 1098.18 33.1882C1098.18 33.1889 1098.18 33.1894 1099.17 33.1ZM1113.71 2.01308L1078.81 7.71306L1079.13 9.68691L1114.03 3.98692L1113.71 2.01308ZM1079.97 8.58958L1079.87 7.68958L1077.88 7.91039L1077.98 8.81039L1079.97 8.58958ZM1079.87 7.79999V7.59998H1077.87V7.79999H1079.87ZM1079.87 7.48957L1079.77 6.58958L1077.78 6.81039L1077.88 7.71038L1079.87 7.48957ZM1078.9 7.69182L1113.9 3.19182L1113.64 1.20815L1078.64 5.70815L1078.9 7.69182ZM1114.17 1.28133C1112.61 0.612535 1111.16 -0.10931 1109.82 -0.870608L1108.83 0.870608C1110.24 1.66747 1111.76 2.42138 1113.38 3.11864L1114.17 1.28133ZM1109.32 -1H912.965V1H1109.32V-1ZM912.117 0.530108C912.363 0.922738 912.595 1.32032 912.813 1.72234L914.571 0.767946C914.332 0.32942 914.08 -0.103441 913.813 -0.530108L912.117 0.530108ZM912.814 1.72362C912.831 1.75524 912.844 1.78896 912.852 1.82327L914.793 1.33915C914.744 1.14251 914.67 0.949653 914.57 0.766666L912.814 1.72362ZM912.852 1.82313C912.881 1.93903 912.861 2.06643 912.789 2.17438L914.447 3.2918C914.838 2.71244 914.958 2.00285 914.793 1.33929L912.852 1.82313ZM912.789 2.17428C912.695 2.31283 912.529 2.39187 912.358 2.37463L912.158 4.36455C913.06 4.45544 913.941 4.04338 914.447 3.2919L912.789 2.17428ZM912.358 2.37461C908.99 2.03598 905.568 0.92509 902.354 -0.872778L901.377 0.872778C904.81 2.79248 908.494 3.99618 912.158 4.36457L912.358 2.37461ZM901.866 -1H900.618V1H901.866V-1ZM899.678 0.340306C900.154 1.6554 900.568 3.00799 900.914 4.39354L902.854 3.90971C902.492 2.4565 902.058 1.03826 901.559 -0.340306L899.678 0.340306ZM900.914 4.39354C902.468 10.6264 902.53 16.9 901.117 22.5339L903.057 23.0204C904.558 17.0378 904.48 10.4295 902.854 3.9097L900.914 4.39354ZM901.117 22.5341C901.077 22.6923 900.951 22.8217 900.783 22.8637L901.267 24.8042C902.144 24.5854 902.836 23.902 903.057 23.0202L901.117 22.5341ZM900.783 22.8637C900.615 22.9054 900.442 22.8506 900.332 22.7292L898.848 24.0701C899.457 24.7432 900.388 25.0233 901.267 24.8042L900.783 22.8637ZM900.333 22.7295C896.44 18.4177 893.55 12.8498 891.996 6.61693L890.055 7.10076C891.681 13.6206 894.714 19.4912 898.848 24.0698L900.333 22.7295ZM891.996 6.61694C891.747 5.61602 891.539 4.61075 891.365 3.60495L889.394 3.94494C889.575 4.99411 889.793 6.04767 890.055 7.10075L891.996 6.61694ZM889.445 3.42049C888.214 6.66872 886.65 9.87052 884.771 12.9658L886.48 14.0037C888.421 10.8065 890.039 7.49475 891.315 4.1294L889.445 3.42049ZM884.771 12.9658C880.053 20.7382 873.813 27.0832 866.742 31.3299L867.772 33.0444C875.147 28.6149 881.611 22.0262 886.48 14.0036L884.771 12.9658ZM866.742 31.3303C866.595 31.4185 866.411 31.4182 866.267 31.3325L865.245 33.0515C866.024 33.5146 866.996 33.5111 867.773 33.0441L866.742 31.3303ZM866.267 31.3325C866.125 31.2482 866.045 31.0946 866.054 30.9345L864.057 30.8214C864.006 31.7281 864.464 32.587 865.245 33.0515L866.267 31.3325ZM866.054 30.9353C866.523 22.7672 869.253 14.3379 873.971 6.56512L872.262 5.52723C867.391 13.5498 864.547 22.2927 864.057 30.8206L866.054 30.9353ZM873.971 6.56512C875.221 4.5063 876.579 2.54763 878.031 0.700272L876.458 -0.535337C874.957 1.37538 873.553 3.4001 872.262 5.52723L873.971 6.56512ZM876.818 -0.821973C872.386 1.2683 867.643 2.95751 862.677 4.19563L863.161 6.13623C868.251 4.86724 873.118 3.13453 877.671 0.986909L876.818 -0.821973ZM862.677 4.19563C851.149 7.07 839.548 7.24065 829.131 4.7117L828.659 6.65524C839.422 9.26811 851.352 9.08054 863.161 6.13623L862.677 4.19563ZM829.131 4.71164C828.966 4.67154 828.843 4.54677 828.805 4.39219L826.864 4.87587C827.084 5.75913 827.778 6.4414 828.66 6.6553L829.131 4.71164ZM828.805 4.39208C828.766 4.23817 828.816 4.06988 828.943 3.95638L827.613 2.46248C826.937 3.0646 826.644 3.99206 826.864 4.87598L828.805 4.39208ZM828.943 3.95665C830.176 2.86011 831.464 1.8068 832.802 0.798892L831.599 -0.798892C830.218 0.24102 828.888 1.32874 827.614 2.46221L828.943 3.95665ZM832.201 -1H311.823V1H832.201V-1ZM321.017 27.7268C321.997 27.9268 321.997 27.9263 321.997 27.9257C321.997 27.9254 321.997 27.9248 321.997 27.9242C321.998 27.9231 321.998 27.9218 321.998 27.9203C321.999 27.9173 322 27.9134 322.001 27.9087C322.002 27.8992 322.005 27.8863 322.008 27.8701C322.014 27.8376 322.022 27.7916 322.032 27.7326C322.052 27.6146 322.079 27.4444 322.109 27.2258C322.167 26.7886 322.235 26.157 322.278 25.3597C322.362 23.7658 322.344 21.5062 321.938 18.8135C321.125 13.4222 318.758 6.30198 312.57 -0.664108L311.075 0.664108C316.966 7.29589 319.196 14.0391 319.961 19.1117C320.343 21.651 320.359 23.7734 320.28 25.2536C320.241 25.9935 320.178 26.5719 320.126 26.9605C320.1 27.1547 320.077 27.3014 320.061 27.397C320.053 27.4448 320.046 27.4798 320.042 27.5016C320.04 27.5125 320.039 27.5201 320.038 27.5243C320.037 27.5264 320.037 27.5277 320.037 27.5281C320.037 27.5283 320.037 27.5283 320.037 27.5281C320.037 27.528 320.037 27.5276 320.037 27.5276C320.037 27.5272 320.037 27.5268 321.017 27.7268ZM296.699 2.49421C295.744 2.78998 295.744 2.79042 295.744 2.79092C295.744 2.79119 295.744 2.79178 295.745 2.79232C295.745 2.79339 295.745 2.79477 295.746 2.79644C295.747 2.79977 295.748 2.80429 295.75 2.80998C295.754 2.82136 295.759 2.83739 295.765 2.85797C295.779 2.89912 295.798 2.95843 295.824 3.03488C295.876 3.18775 295.953 3.40922 296.057 3.69107C296.264 4.25468 296.58 5.06044 297.016 6.04262C297.887 8.00564 299.242 10.6809 301.181 13.5388C305.052 19.2474 311.296 25.7472 320.72 28.6816L321.314 26.772C312.471 24.0183 306.556 17.9019 302.836 12.4162C300.978 9.67696 299.678 7.11056 298.844 5.23123C298.427 4.29222 298.128 3.52663 297.933 2.99917C297.836 2.7355 297.765 2.53151 297.719 2.39531C297.696 2.32722 297.679 2.27608 297.669 2.24293C297.663 2.22635 297.659 2.21427 297.657 2.20681C297.656 2.20308 297.655 2.20051 297.655 2.19911C297.654 2.19841 297.654 2.198 297.654 2.19789C297.654 2.19783 297.654 2.19797 297.654 2.19794C297.654 2.19815 297.654 2.19844 296.699 2.49421ZM295.708 21.7618C297.308 16.1856 297.805 11.3527 297.902 7.90645C297.951 6.18294 297.899 4.80479 297.834 3.85203C297.802 3.37559 297.766 3.00533 297.738 2.75124C297.724 2.62419 297.712 2.52616 297.703 2.4584C297.699 2.42452 297.695 2.39821 297.693 2.37961C297.692 2.37032 297.691 2.36295 297.69 2.35753C297.689 2.35482 297.689 2.3526 297.689 2.35087C297.689 2.35 297.689 2.34926 297.688 2.34864C297.688 2.34833 297.688 2.34796 297.688 2.3478C297.688 2.34746 297.688 2.34715 296.699 2.49421C295.71 2.64127 295.71 2.64102 295.71 2.6408C295.71 2.64077 295.71 2.64058 295.71 2.64051C295.71 2.64038 295.71 2.64037 295.71 2.64048C295.71 2.64071 295.71 2.64142 295.71 2.64261C295.71 2.64499 295.711 2.6493 295.712 2.65553C295.714 2.66798 295.716 2.68808 295.72 2.71567C295.727 2.77085 295.738 2.85598 295.75 2.96984C295.775 3.19757 295.808 3.54009 295.839 3.98752C295.899 4.8825 295.949 6.19643 295.903 7.85028C295.81 11.1588 295.331 15.8217 293.785 21.2102L295.708 21.7618Z" fill="#011F00" mask="url(#path-1-inside-1_0_1491)"/>
</svg>
