<svg width="334" height="99" viewBox="0 0 334 99" fill="none" xmlns="http://www.w3.org/2000/svg">
<mask id="path-1-inside-1_20_39" fill="white">
<path fill-rule="evenodd" clip-rule="evenodd" d="M205.022 29.9539C206.903 28.6171 211.296 25.0688 212.52 20.7819C214.095 15.2926 213.497 11.274 213.497 11.274C213.497 11.274 216.527 21.0586 225.672 23.9062C225.672 23.9062 227.536 14.7742 218.157 7.27627C218.157 7.27627 223.308 10.4178 229.899 7.36598C229.899 7.36598 226.107 1.67372 218.324 1.84863C218.324 1.84863 219.276 1.34282 220.165 0H296.37C302.388 0 307.731 3.85602 309.635 9.57281L333.272 80.5728C336.29 89.6383 329.551 99 320.007 99H134.588C138.724 98.2754 145.46 96.8172 149.127 94.5306C153.671 91.7214 159.282 85.519 160.949 83.5325C158.179 83.5844 149.878 83.9639 144.761 85.642C138.567 87.7059 129.401 96.4154 129.401 96.4154C129.401 96.4154 135.683 84.7823 136.74 78.3817C137.797 71.981 138.317 66.4263 138.317 66.4263C138.317 66.4263 129.1 76.4577 126.689 81.9657C124.33 87.4579 124.029 93.9115 124.029 93.9115C124.029 93.9115 120.489 81.5894 114.407 74.5316C114.407 74.5316 112.855 82.1057 114.907 87.3286C116.959 92.5515 119.586 96.1218 119.586 96.1218C119.586 96.1218 112.875 91.4713 105.916 92.5197C105.916 92.5197 107.927 96.2408 112.812 99H13.9926C4.50232 99 -2.23085 89.7357 0.688029 80.6941L23.6087 9.6941C25.4742 3.91543 30.8479 0 36.9134 0H195.187C199.337 4.11196 204.167 3.78819 204.167 3.78819C192.367 6.00552 189.725 14.9438 189.725 14.9438C199.137 16.7227 206.405 9.50572 206.405 9.50572C206.405 9.50572 203.894 12.7492 202.707 18.3354C201.824 22.7071 204.037 27.9025 205.022 29.9539Z"/>
</mask>
<path fill-rule="evenodd" clip-rule="evenodd" d="M205.022 29.9539C206.903 28.6171 211.296 25.0688 212.52 20.7819C214.095 15.2926 213.497 11.274 213.497 11.274C213.497 11.274 216.527 21.0586 225.672 23.9062C225.672 23.9062 227.536 14.7742 218.157 7.27627C218.157 7.27627 223.308 10.4178 229.899 7.36598C229.899 7.36598 226.107 1.67372 218.324 1.84863C218.324 1.84863 219.276 1.34282 220.165 0H296.37C302.388 0 307.731 3.85602 309.635 9.57281L333.272 80.5728C336.29 89.6383 329.551 99 320.007 99H134.588C138.724 98.2754 145.46 96.8172 149.127 94.5306C153.671 91.7214 159.282 85.519 160.949 83.5325C158.179 83.5844 149.878 83.9639 144.761 85.642C138.567 87.7059 129.401 96.4154 129.401 96.4154C129.401 96.4154 135.683 84.7823 136.74 78.3817C137.797 71.981 138.317 66.4263 138.317 66.4263C138.317 66.4263 129.1 76.4577 126.689 81.9657C124.33 87.4579 124.029 93.9115 124.029 93.9115C124.029 93.9115 120.489 81.5894 114.407 74.5316C114.407 74.5316 112.855 82.1057 114.907 87.3286C116.959 92.5515 119.586 96.1218 119.586 96.1218C119.586 96.1218 112.875 91.4713 105.916 92.5197C105.916 92.5197 107.927 96.2408 112.812 99H13.9926C4.50232 99 -2.23085 89.7357 0.688029 80.6941L23.6087 9.6941C25.4742 3.91543 30.8479 0 36.9134 0H195.187C199.337 4.11196 204.167 3.78819 204.167 3.78819C192.367 6.00552 189.725 14.9438 189.725 14.9438C199.137 16.7227 206.405 9.50572 206.405 9.50572C206.405 9.50572 203.894 12.7492 202.707 18.3354C201.824 22.7071 204.037 27.9025 205.022 29.9539Z" fill="#28B810"/>
<path d="M212.52 20.7819L211.559 20.5061L211.558 20.5074L212.52 20.7819ZM205.022 29.9539L204.12 30.3867L204.634 31.4564L205.601 30.7691L205.022 29.9539ZM213.497 11.274L214.453 10.9782L212.508 11.421L213.497 11.274ZM225.672 23.9062L225.374 24.861L226.43 25.1898L226.651 24.1062L225.672 23.9062ZM218.157 7.27627L218.678 6.42256L217.533 8.05734L218.157 7.27627ZM229.899 7.36598L230.319 8.27343L231.378 7.783L230.731 6.81158L229.899 7.36598ZM218.324 1.84863L217.855 0.965579L218.346 2.84838L218.324 1.84863ZM220.165 0V-1H219.628L219.331 -0.552213L220.165 0ZM309.635 9.57281L310.583 9.25693V9.25693L309.635 9.57281ZM333.272 80.5728L332.323 80.8887L333.272 80.5728ZM134.588 99L134.415 98.015L134.588 100V99ZM149.127 94.5306L148.601 93.68L148.598 93.682L149.127 94.5306ZM160.949 83.5325L161.715 84.1754L163.129 82.4914L160.931 82.5326L160.949 83.5325ZM144.761 85.642L144.449 84.6918L144.444 84.6933L144.761 85.642ZM129.401 96.4154L128.521 95.9402L130.089 97.1403L129.401 96.4154ZM136.74 78.3817L137.727 78.5446L136.74 78.3817ZM138.317 66.4263L139.313 66.5195L139.589 63.5638L137.581 65.7497L138.317 66.4263ZM126.689 81.9657L125.773 81.5648L125.77 81.5711L126.689 81.9657ZM124.029 93.9115L123.067 94.1876L125.027 93.9582L124.029 93.9115ZM114.407 74.5316L115.164 73.8788L113.836 72.3368L113.427 74.3309L114.407 74.5316ZM119.586 96.1218L119.016 96.9437L120.391 95.5291L119.586 96.1218ZM105.916 92.5197L105.767 91.5309L104.36 91.7429L105.036 92.9952L105.916 92.5197ZM112.812 99V100H116.616L113.304 98.1293L112.812 99ZM0.688029 80.6941L1.63967 81.0013H1.63967L0.688029 80.6941ZM23.6087 9.6941L22.657 9.38688L22.657 9.38688L23.6087 9.6941ZM195.187 0L195.891 -0.710388L195.599 -1H195.187V0ZM204.167 3.78819L204.352 4.77099L204.101 2.79043L204.167 3.78819ZM189.725 14.9438L188.766 14.6604L188.453 15.721L189.54 15.9264L189.725 14.9438ZM206.405 9.50572L207.196 10.1179L205.701 8.7961L206.405 9.50572ZM202.707 18.3354L201.729 18.1276L201.727 18.1373L202.707 18.3354ZM211.558 20.5074C211.008 22.4337 209.723 24.2554 208.287 25.7913C206.86 27.3171 205.348 28.495 204.442 29.1388L205.601 30.7691C206.576 30.076 208.201 28.8114 209.748 27.1571C211.285 25.513 212.808 23.417 213.481 21.0563L211.558 20.5074ZM213.497 11.274C212.508 11.421 212.508 11.4208 212.508 11.4205C212.508 11.4205 212.508 11.4202 212.508 11.4201C212.508 11.4198 212.508 11.4197 212.508 11.4195C212.508 11.4193 212.508 11.4192 212.508 11.4195C212.508 11.4199 212.508 11.4213 212.509 11.4236C212.509 11.4283 212.51 11.4368 212.512 11.4491C212.515 11.4736 212.52 11.513 212.526 11.5667C212.538 11.6741 212.554 11.8387 212.568 12.0554C212.598 12.489 212.622 13.1308 212.6 13.9414C212.554 15.5633 212.319 17.8553 211.559 20.5061L213.481 21.0577C214.295 18.2192 214.549 15.7573 214.599 13.9975C214.623 13.1173 214.597 12.4113 214.564 11.9199C214.547 11.6742 214.529 11.4819 214.514 11.3481C214.507 11.2812 214.5 11.2289 214.495 11.1918C214.493 11.1733 214.491 11.1586 214.489 11.1477C214.489 11.1423 214.488 11.1378 214.488 11.1344C214.487 11.1326 214.487 11.1312 214.487 11.1299C214.487 11.1293 214.487 11.1287 214.487 11.1282C214.487 11.128 214.487 11.1277 214.486 11.1275C214.486 11.1272 214.486 11.1269 213.497 11.274ZM225.969 22.9515C221.687 21.618 218.808 18.6516 216.983 15.9609C216.073 14.6192 215.436 13.3616 215.028 12.4416C214.824 11.9823 214.678 11.6091 214.584 11.354C214.537 11.2266 214.503 11.1288 214.481 11.0648C214.47 11.0328 214.463 11.0092 214.458 10.9946C214.455 10.9873 214.454 10.9823 214.453 10.9795C214.453 10.9781 214.452 10.9773 214.452 10.9771C214.452 10.977 214.452 10.977 214.452 10.9772C214.452 10.9773 214.452 10.9776 214.452 10.9776C214.452 10.9779 214.453 10.9782 213.497 11.274C212.542 11.5698 212.542 11.5701 212.542 11.5706C212.542 11.5708 212.542 11.5712 212.543 11.5716C212.543 11.5724 212.543 11.5733 212.543 11.5744C212.544 11.5766 212.545 11.5793 212.546 11.5827C212.548 11.5893 212.551 11.5984 212.555 11.6097C212.562 11.6323 212.572 11.664 212.586 11.7043C212.613 11.785 212.653 11.9003 212.707 12.0459C212.814 12.3371 212.977 12.7505 213.2 13.253C213.645 14.2567 214.337 15.6232 215.328 17.0836C217.304 19.9971 220.512 23.3469 225.374 24.861L225.969 22.9515ZM217.533 8.05734C222.025 11.649 223.792 15.5972 224.455 18.6172C224.787 20.1346 224.843 21.4273 224.817 22.3332C224.804 22.7858 224.77 23.1405 224.741 23.3766C224.726 23.4946 224.713 23.5828 224.704 23.6387C224.699 23.6666 224.696 23.6864 224.693 23.6978C224.692 23.7035 224.692 23.707 224.691 23.7085C224.691 23.7092 224.691 23.7093 224.691 23.709C224.691 23.7088 224.691 23.7085 224.691 23.708C224.692 23.7078 224.692 23.7073 224.692 23.7072C224.692 23.7067 224.692 23.7062 225.672 23.9062C226.651 24.1062 226.652 24.1057 226.652 24.105C226.652 24.1048 226.652 24.1041 226.652 24.1036C226.652 24.1026 226.652 24.1014 226.653 24.1002C226.653 24.0976 226.654 24.0944 226.655 24.0907C226.656 24.0833 226.658 24.0737 226.66 24.0618C226.664 24.0382 226.67 24.0058 226.677 23.965C226.69 23.8834 226.708 23.7681 226.726 23.6218C226.762 23.3292 226.801 22.9119 226.816 22.3912C226.846 21.3505 226.782 19.8916 226.408 18.1887C225.658 14.7682 223.668 10.4015 218.782 6.49521L217.533 8.05734ZM229.479 6.45853C226.406 7.88127 223.689 7.8554 221.744 7.48338C220.768 7.2967 219.986 7.02236 219.453 6.79792C219.187 6.68585 218.985 6.58673 218.853 6.51813C218.787 6.48384 218.739 6.45725 218.709 6.44057C218.695 6.43223 218.685 6.42637 218.679 6.42328C218.677 6.42173 218.675 6.42087 218.675 6.42074C218.675 6.42068 218.675 6.42079 218.676 6.42109C218.676 6.42125 218.676 6.42144 218.677 6.42169C218.677 6.42181 218.677 6.42203 218.677 6.42209C218.678 6.42232 218.678 6.42256 218.157 7.27627C217.637 8.12998 217.637 8.13025 217.637 8.13053C217.638 8.13064 217.638 8.13093 217.638 8.13115C217.639 8.13158 217.64 8.13207 217.641 8.1326C217.643 8.13366 217.645 8.1349 217.647 8.13634C217.652 8.1392 217.658 8.14281 217.665 8.14711C217.68 8.15572 217.7 8.16713 217.724 8.18105C217.773 8.20889 217.842 8.24682 217.93 8.29248C218.106 8.38376 218.357 8.50623 218.677 8.64099C219.316 8.91022 220.233 9.23053 221.368 9.44776C223.647 9.88355 226.801 9.90253 230.319 8.27343L229.479 6.45853ZM218.346 2.84838C221.973 2.76687 224.657 4.04838 226.441 5.34961C227.335 6.00201 228.001 6.65857 228.441 7.1477C228.66 7.39189 228.822 7.59316 228.927 7.72958C228.979 7.79775 229.017 7.84959 229.04 7.88235C229.052 7.89873 229.06 7.91032 229.064 7.91677C229.066 7.92 229.068 7.92195 229.068 7.92256C229.068 7.92287 229.068 7.92285 229.068 7.92249C229.068 7.92231 229.068 7.92204 229.067 7.92169C229.067 7.92152 229.067 7.92119 229.067 7.9211C229.067 7.92076 229.067 7.92039 229.899 7.36598C230.731 6.81158 230.731 6.81116 230.73 6.81073C230.73 6.81055 230.73 6.8101 230.73 6.80975C230.729 6.80905 230.729 6.80827 230.728 6.8074C230.727 6.80566 230.726 6.80358 230.724 6.80115C230.721 6.7963 230.717 6.79008 230.711 6.78254C230.701 6.76747 230.687 6.74712 230.669 6.72184C230.633 6.6713 230.581 6.60102 230.515 6.51389C230.381 6.3397 230.186 6.09762 229.928 5.81089C229.414 5.23819 228.646 4.48262 227.619 3.73382C225.561 2.23264 222.457 0.755484 218.301 0.848886L218.346 2.84838ZM219.331 -0.552213C218.946 0.0299422 218.552 0.422321 218.266 0.663288C218.123 0.783825 218.008 0.866262 217.934 0.915259C217.897 0.939737 217.871 0.955788 217.857 0.964001C217.85 0.968104 217.846 0.970239 217.846 0.970481C217.845 0.970601 217.846 0.970247 217.847 0.969427C217.848 0.969017 217.849 0.968491 217.85 0.967849C217.851 0.967528 217.852 0.967179 217.852 0.9668C217.853 0.966611 217.853 0.966415 217.853 0.966211C217.854 0.96611 217.854 0.965951 217.854 0.965901C217.854 0.965741 217.855 0.965579 218.324 1.84863C218.793 2.73169 218.793 2.73152 218.794 2.73136C218.794 2.7313 218.794 2.73113 218.794 2.73101C218.795 2.73078 218.795 2.73053 218.796 2.73028C218.797 2.72978 218.798 2.72924 218.799 2.72868C218.801 2.72754 218.803 2.72626 218.806 2.72486C218.811 2.72204 218.817 2.71868 218.824 2.71477C218.838 2.70695 218.856 2.6969 218.876 2.68455C218.918 2.65986 218.973 2.6259 219.039 2.58198C219.172 2.49417 219.349 2.36623 219.555 2.19246C219.968 1.84482 220.495 1.31288 220.999 0.552213L219.331 -0.552213ZM296.37 -1H220.165V1H296.37V-1ZM310.583 9.25693C308.544 3.13225 302.819 -1 296.37 -1V1C301.957 1 306.918 4.57978 308.686 9.88868L310.583 9.25693ZM334.221 80.2569L310.583 9.25693L308.686 9.88868L332.323 80.8887L334.221 80.2569ZM320.007 100C330.235 100 337.454 89.9682 334.221 80.2569L332.323 80.8887C335.126 89.3083 328.867 98 320.007 98V100ZM134.588 100H320.007V98H134.588V100ZM134.761 99.985C136.846 99.6195 139.599 99.0673 142.302 98.3144C144.986 97.5666 147.698 96.6 149.656 95.3792L148.598 93.682C146.889 94.7478 144.4 95.6536 141.765 96.3877C139.149 97.1167 136.465 97.6558 134.415 98.015L134.761 99.985ZM149.653 95.3812C152.023 93.9158 154.627 91.5984 156.819 89.4349C159.023 87.2611 160.863 85.1906 161.715 84.1754L160.183 82.8896C159.368 83.8609 157.57 85.8849 155.415 88.0112C153.249 90.1478 150.775 92.3362 148.601 93.68L149.653 95.3812ZM160.931 82.5326C158.17 82.5844 149.727 82.961 144.449 84.6918L145.072 86.5922C150.028 84.9669 158.187 84.5844 160.968 84.5323L160.931 82.5326ZM144.444 84.6933C141.163 85.7869 137.201 88.5852 134.136 91.0197C132.585 92.2515 131.232 93.417 130.266 94.2744C129.783 94.7034 129.396 95.0559 129.129 95.3018C128.995 95.4248 128.892 95.5212 128.822 95.5872C128.786 95.6202 128.759 95.6456 128.741 95.663C128.732 95.6717 128.725 95.6783 128.72 95.6829C128.717 95.6852 128.715 95.687 128.714 95.6883C128.713 95.6889 128.713 95.6894 128.713 95.6898C128.712 95.6899 128.712 95.6901 128.712 95.6902C128.712 95.6903 128.712 95.6904 129.401 96.4154C130.089 97.1403 130.089 97.1404 130.089 97.1404C130.089 97.1403 130.089 97.1403 130.09 97.1402C130.09 97.1401 130.09 97.1398 130.09 97.1393C130.091 97.1385 130.093 97.1371 130.095 97.1352C130.099 97.1314 130.105 97.1256 130.113 97.1177C130.13 97.102 130.155 97.0782 130.189 97.047C130.255 96.9844 130.355 96.8916 130.484 96.7724C130.743 96.534 131.121 96.1899 131.594 95.7701C132.54 94.9301 133.865 93.7892 135.38 92.5857C138.447 90.1494 142.165 87.5611 145.077 86.5907L144.444 84.6933ZM129.401 96.4154C130.281 96.8905 130.281 96.8904 130.281 96.8903C130.281 96.8902 130.281 96.89 130.281 96.8897C130.281 96.8893 130.282 96.8887 130.282 96.8879C130.283 96.8863 130.284 96.884 130.286 96.881C130.289 96.875 130.294 96.8662 130.3 96.8547C130.312 96.8318 130.33 96.7979 130.354 96.7537C130.401 96.6653 130.47 96.5355 130.558 96.3684C130.733 96.0343 130.985 95.5508 131.29 94.951C131.9 93.7519 132.724 92.0854 133.583 90.216C135.283 86.5126 137.174 81.8929 137.727 78.5446L135.753 78.2187C135.249 81.271 133.47 85.6683 131.765 89.3815C130.921 91.2205 130.109 92.8623 129.507 94.0444C129.207 94.6352 128.96 95.1106 128.788 95.4376C128.702 95.6011 128.634 95.7275 128.589 95.8126C128.566 95.8552 128.549 95.8875 128.538 95.9089C128.532 95.9196 128.528 95.9276 128.525 95.9329C128.523 95.9355 128.522 95.9374 128.522 95.9387C128.521 95.9393 128.521 95.9397 128.521 95.94C128.521 95.9401 128.521 95.9402 128.521 95.9402C128.521 95.9403 128.521 95.9402 129.401 96.4154ZM137.727 78.5446C138.258 75.3256 138.655 72.3213 138.918 70.1227C139.05 69.0229 139.148 68.1237 139.214 67.4988C139.247 67.1863 139.271 66.9423 139.288 66.776C139.296 66.6929 139.302 66.6292 139.306 66.586C139.308 66.5645 139.31 66.548 139.311 66.5369C139.312 66.5313 139.312 66.5271 139.312 66.5242C139.312 66.5227 139.312 66.5216 139.313 66.5208C139.313 66.5204 139.313 66.5201 139.313 66.5199C139.313 66.5198 139.313 66.5197 139.313 66.5196C139.313 66.5196 139.313 66.5195 138.317 66.4263C137.321 66.3332 137.321 66.3332 137.321 66.3332C137.321 66.3332 137.321 66.3332 137.321 66.3333C137.321 66.3334 137.321 66.3336 137.321 66.3339C137.321 66.3344 137.321 66.3353 137.321 66.3366C137.321 66.3391 137.32 66.3429 137.32 66.348C137.319 66.3583 137.318 66.3738 137.316 66.3945C137.312 66.4359 137.306 66.4977 137.298 66.579C137.281 66.7415 137.257 66.9815 137.225 67.2897C137.16 67.9063 137.062 68.7958 136.932 69.8849C136.671 72.0637 136.279 75.0371 135.753 78.2187L137.727 78.5446ZM138.317 66.4263C137.581 65.7497 137.581 65.7498 137.58 65.75C137.58 65.75 137.58 65.7502 137.58 65.7504C137.58 65.7508 137.579 65.7513 137.579 65.752C137.577 65.7533 137.576 65.7553 137.573 65.7579C137.569 65.763 137.562 65.7705 137.553 65.7804C137.535 65.8001 137.508 65.8292 137.473 65.8672C137.404 65.9432 137.303 66.055 137.173 66.1989C136.914 66.4866 136.542 66.9031 136.088 67.4198C135.18 68.4528 133.945 69.8885 132.632 71.4986C130.036 74.6836 127.041 78.6677 125.773 81.5648L127.605 82.3667C128.748 79.7557 131.567 75.9701 134.182 72.7624C135.475 71.1762 136.694 69.7598 137.59 68.7398C138.038 68.23 138.405 67.8197 138.659 67.5374C138.786 67.3962 138.885 67.287 138.952 67.2135C138.986 67.1767 139.011 67.1488 139.028 67.1302C139.037 67.1209 139.043 67.1139 139.047 67.1094C139.05 67.1071 139.051 67.1054 139.052 67.1043C139.053 67.1038 139.053 67.1034 139.053 67.1032C139.053 67.1031 139.053 67.103 139.053 67.1029C139.053 67.1029 139.053 67.1029 138.317 66.4263ZM125.77 81.5711C124.546 84.4223 123.864 87.498 123.487 89.8392C123.298 91.0144 123.184 92.0148 123.117 92.7234C123.084 93.078 123.062 93.36 123.049 93.555C123.042 93.6525 123.037 93.7282 123.034 93.7805C123.033 93.8066 123.032 93.8269 123.031 93.841C123.03 93.848 123.03 93.8536 123.03 93.8576C123.03 93.8596 123.03 93.8612 123.03 93.8624C123.03 93.863 123.03 93.8635 123.03 93.8639C123.03 93.8641 123.03 93.8643 123.03 93.8644C123.03 93.8646 123.03 93.8648 124.029 93.9115C125.027 93.9582 125.027 93.9584 125.027 93.9585C125.027 93.9585 125.027 93.9586 125.027 93.9586C125.027 93.9586 125.027 93.9585 125.027 93.9583C125.028 93.958 125.028 93.9572 125.028 93.9561C125.028 93.9538 125.028 93.95 125.028 93.9447C125.029 93.9341 125.03 93.9174 125.031 93.8949C125.033 93.85 125.038 93.7817 125.044 93.692C125.056 93.5126 125.076 93.2475 125.108 92.9112C125.172 92.2382 125.281 91.2819 125.462 90.1571C125.825 87.8986 126.474 85.0013 127.608 82.3603L125.77 81.5711ZM124.029 93.9115C124.99 93.6354 124.99 93.6352 124.99 93.635C124.99 93.6349 124.989 93.6346 124.989 93.6343C124.989 93.6337 124.989 93.633 124.989 93.632C124.988 93.6301 124.987 93.6275 124.986 93.6242C124.985 93.6174 124.982 93.6078 124.978 93.5952C124.971 93.5701 124.96 93.5334 124.946 93.4858C124.917 93.3905 124.875 93.2513 124.82 93.0723C124.709 92.7144 124.544 92.1976 124.328 91.5563C123.896 90.2742 123.255 88.4915 122.422 86.4848C120.764 82.4919 118.31 77.5294 115.164 73.8788L113.649 75.1843C116.585 78.5915 118.942 83.319 120.575 87.2517C121.387 89.2077 122.012 90.9466 122.433 92.1956C122.643 92.8197 122.803 93.3207 122.909 93.6642C122.963 93.836 123.003 93.9684 123.029 94.057C123.042 94.1014 123.052 94.1348 123.058 94.1567C123.062 94.1677 123.064 94.1758 123.066 94.181C123.066 94.1836 123.067 94.1854 123.067 94.1865C123.067 94.1871 123.067 94.1875 123.067 94.1876C123.067 94.1877 123.067 94.1877 123.067 94.1878C123.067 94.1877 123.067 94.1876 124.029 93.9115ZM114.407 74.5316C113.427 74.3309 113.427 74.3311 113.427 74.3313C113.427 74.3315 113.427 74.3317 113.427 74.332C113.427 74.3325 113.427 74.3331 113.427 74.3338C113.426 74.3352 113.426 74.3371 113.426 74.3394C113.425 74.3441 113.423 74.3506 113.422 74.3589C113.418 74.3755 113.414 74.3993 113.408 74.4299C113.396 74.491 113.38 74.5796 113.36 74.6931C113.319 74.9201 113.265 75.2471 113.207 75.6548C113.09 76.4693 112.957 77.6101 112.889 78.9199C112.755 81.511 112.872 84.8821 113.976 87.6942L115.838 86.9629C114.891 84.5521 114.757 81.5248 114.886 79.023C114.95 77.7865 115.076 76.7073 115.186 75.9384C115.241 75.5544 115.292 75.249 115.329 75.0413C115.347 74.9375 115.362 74.8582 115.372 74.8059C115.377 74.7797 115.381 74.7603 115.383 74.7479C115.385 74.7417 115.386 74.7373 115.386 74.7347C115.386 74.7334 115.387 74.7325 115.387 74.7321C115.387 74.7319 115.387 74.7318 115.387 74.7318C115.387 74.7318 115.387 74.7319 115.387 74.7319C115.387 74.7321 115.387 74.7322 114.407 74.5316ZM113.976 87.6942C115.026 90.3666 116.222 92.6133 117.155 94.1925C117.622 94.9829 118.025 95.6081 118.312 96.0381C118.456 96.2531 118.571 96.4195 118.651 96.5335C118.691 96.5904 118.723 96.6343 118.744 96.6646C118.755 96.6798 118.764 96.6915 118.77 96.6999C118.773 96.704 118.775 96.7073 118.777 96.7097C118.778 96.711 118.779 96.712 118.779 96.7127C118.78 96.7131 118.78 96.7135 118.78 96.7137C118.78 96.7139 118.78 96.7141 118.78 96.7141C118.78 96.7143 118.78 96.7144 119.586 96.1218C120.391 95.5291 120.391 95.5292 120.392 95.5293C120.392 95.5293 120.392 95.5294 120.392 95.5294C120.392 95.5295 120.392 95.5295 120.392 95.5295C120.392 95.5294 120.391 95.5291 120.391 95.5285C120.39 95.5275 120.389 95.5256 120.387 95.5229C120.383 95.5173 120.376 95.5084 120.368 95.4962C120.35 95.4716 120.323 95.4337 120.287 95.3828C120.215 95.2811 120.109 95.1278 119.975 94.9265C119.706 94.5238 119.323 93.9301 118.877 93.175C117.984 91.6634 116.84 89.5135 115.838 86.9629L113.976 87.6942ZM119.586 96.1218C120.156 95.2998 120.155 95.2996 120.155 95.2994C120.155 95.2994 120.155 95.2991 120.154 95.299C120.154 95.2986 120.153 95.2982 120.152 95.2977C120.151 95.2967 120.149 95.2954 120.147 95.2938C120.142 95.2907 120.136 95.2865 120.128 95.2812C120.113 95.2706 120.091 95.2558 120.062 95.237C120.006 95.1995 119.925 95.1462 119.82 95.0797C119.611 94.9468 119.307 94.7608 118.923 94.5422C118.155 94.1057 117.059 93.5363 115.736 93.0007C113.108 91.9364 109.497 90.969 105.767 91.5309L106.065 93.5085C109.295 93.022 112.519 93.8556 114.985 94.8545C116.21 95.3504 117.226 95.8781 117.934 96.2808C118.288 96.4818 118.563 96.651 118.748 96.7682C118.84 96.8269 118.91 96.8725 118.955 96.9026C118.978 96.9176 118.994 96.9288 119.005 96.9357C119.01 96.9392 119.013 96.9416 119.015 96.943C119.016 96.9436 119.017 96.944 119.017 96.9442C119.017 96.9442 119.017 96.9442 119.017 96.9441C119.017 96.9441 119.017 96.944 119.017 96.944C119.017 96.9438 119.016 96.9437 119.586 96.1218ZM105.916 92.5197C105.036 92.9952 105.037 92.9955 105.037 92.9958C105.037 92.996 105.037 92.9963 105.037 92.9966C105.037 92.9971 105.038 92.9977 105.038 92.9983C105.039 92.9996 105.04 93.0011 105.041 93.0028C105.042 93.0062 105.045 93.0105 105.048 93.0158C105.054 93.0262 105.061 93.0401 105.071 93.0575C105.091 93.0921 105.119 93.1404 105.156 93.201C105.229 93.3221 105.336 93.493 105.478 93.7041C105.764 94.1263 106.192 94.7109 106.779 95.3829C107.952 96.7262 109.761 98.4252 112.32 99.8707L113.304 98.1293C110.978 96.8156 109.34 95.2745 108.286 94.0675C107.759 93.4642 107.38 92.9461 107.135 92.5843C107.013 92.4035 106.925 92.2621 106.869 92.169C106.841 92.1225 106.821 92.088 106.809 92.0668C106.803 92.0563 106.799 92.049 106.796 92.0452C106.795 92.0433 106.795 92.0422 106.795 92.042C106.795 92.042 106.795 92.0421 106.795 92.0425C106.795 92.0426 106.795 92.0429 106.795 92.0432C106.795 92.0433 106.796 92.0436 106.796 92.0436C106.796 92.0439 106.796 92.0442 105.916 92.5197ZM13.9926 100H112.812V98H13.9926V100ZM-0.263611 80.3869C-3.39041 90.0725 3.82197 100 13.9926 100V98C5.18267 98 -1.07128 89.3988 1.63967 81.0013L-0.263611 80.3869ZM22.657 9.38688L-0.263612 80.3869L1.63967 81.0013L24.5603 10.0013L22.657 9.38688ZM36.9134 -1C30.4133 -1 24.6557 3.19592 22.657 9.38688L24.5603 10.0013C26.2927 4.63494 31.2826 1 36.9134 1V-1ZM195.187 -1H36.9134V1H195.187V-1ZM204.167 3.78819C204.101 2.79043 204.101 2.7904 204.101 2.79037C204.101 2.79037 204.102 2.79034 204.102 2.79033C204.102 2.7903 204.103 2.79027 204.103 2.79025C204.104 2.79022 204.104 2.7902 204.104 2.7902C204.104 2.79019 204.103 2.79026 204.101 2.79037C204.097 2.7906 204.088 2.79103 204.075 2.79153C204.048 2.79251 204.005 2.79374 203.946 2.79409C203.828 2.79478 203.647 2.79194 203.413 2.77667C202.946 2.74607 202.273 2.66585 201.477 2.46613C199.887 2.06721 197.813 1.19437 195.891 -0.710388L194.483 0.710388C196.711 2.91759 199.128 3.93885 200.99 4.40603C201.92 4.63936 202.714 4.73519 203.283 4.77239C203.567 4.79101 203.796 4.795 203.958 4.79405C204.039 4.79358 204.103 4.79187 204.15 4.79012C204.173 4.78924 204.192 4.78836 204.206 4.78761C204.213 4.78724 204.219 4.7869 204.224 4.78662C204.226 4.78648 204.228 4.78635 204.23 4.78624C204.231 4.78618 204.232 4.78613 204.232 4.78608C204.233 4.78606 204.233 4.78603 204.233 4.78601C204.234 4.78598 204.234 4.78595 204.167 3.78819ZM189.725 14.9438C190.684 15.2272 190.684 15.2277 190.684 15.2282C190.684 15.2283 190.684 15.2287 190.684 15.2289C190.684 15.2294 190.684 15.2297 190.684 15.2299C190.683 15.2302 190.683 15.2301 190.684 15.2294C190.684 15.228 190.685 15.2245 190.687 15.219C190.69 15.208 190.697 15.1888 190.706 15.162C190.724 15.1084 190.753 15.0241 190.796 14.9131C190.881 14.6909 191.018 14.362 191.219 13.9562C191.621 13.144 192.277 12.0288 193.283 10.8452C195.286 8.4897 198.699 5.83313 204.352 4.77099L203.983 2.80539C197.835 3.96058 194.027 6.88182 191.759 9.54977C190.63 10.8779 189.888 12.1358 189.426 13.0689C189.195 13.5357 189.033 13.9224 188.928 14.1977C188.875 14.3354 188.837 14.4454 188.81 14.5237C188.797 14.5629 188.787 14.5942 188.78 14.6172C188.776 14.6286 188.773 14.638 188.771 14.6452C188.77 14.6489 188.769 14.6519 188.768 14.6545C188.768 14.6557 188.767 14.6569 188.767 14.6578C188.767 14.6583 188.767 14.659 188.767 14.6592C188.766 14.6598 188.766 14.6604 189.725 14.9438ZM206.405 9.50572C205.701 8.7961 205.701 8.79586 205.701 8.79565C205.701 8.79562 205.701 8.79543 205.701 8.79536C205.701 8.79523 205.701 8.7952 205.701 8.79528C205.701 8.79544 205.701 8.79603 205.7 8.79704C205.698 8.79907 205.694 8.80278 205.688 8.80812C205.677 8.81879 205.659 8.83597 205.635 8.85916C205.586 8.90554 205.51 8.97593 205.408 9.06641C205.206 9.24744 204.901 9.50843 204.506 9.81827C203.713 10.4388 202.561 11.2503 201.127 12.0077C198.253 13.5267 194.318 14.7942 189.911 13.9612L189.54 15.9264C194.544 16.8723 198.949 15.4208 202.062 13.776C203.622 12.9516 204.874 12.0699 205.739 11.3929C206.172 11.0539 206.509 10.765 206.74 10.5583C206.856 10.4549 206.946 10.372 207.008 10.3135C207.039 10.2843 207.063 10.2611 207.08 10.2446C207.088 10.2363 207.095 10.2297 207.1 10.2248C207.103 10.2224 207.105 10.2204 207.106 10.2188C207.107 10.218 207.108 10.2173 207.108 10.2167C207.109 10.2164 207.109 10.2161 207.109 10.2159C207.109 10.2156 207.11 10.2153 206.405 9.50572ZM203.686 18.5431C204.257 15.8513 205.148 13.7277 205.89 12.2831C206.262 11.5611 206.596 11.0101 206.833 10.6442C206.952 10.4612 207.046 10.3247 207.109 10.2364C207.141 10.1922 207.164 10.1601 207.179 10.1403C207.186 10.1304 207.192 10.1235 207.194 10.1198C207.196 10.1179 207.197 10.1168 207.197 10.1165C207.197 10.1164 207.197 10.1164 207.197 10.1166C207.197 10.1168 207.197 10.1169 207.196 10.1171C207.196 10.1172 207.196 10.1174 207.196 10.1175C207.196 10.1177 207.196 10.1179 206.405 9.50572C205.614 8.89351 205.614 8.89375 205.614 8.89401C205.614 8.89411 205.614 8.89439 205.614 8.89459C205.613 8.895 205.613 8.89546 205.613 8.89598C205.612 8.897 205.611 8.89822 205.61 8.89965C205.608 8.90249 205.605 8.90613 205.601 8.91057C205.595 8.91945 205.586 8.93151 205.574 8.94672C205.552 8.97713 205.52 9.02017 205.481 9.07561C205.402 9.18647 205.291 9.34699 205.155 9.55543C204.885 9.9722 204.517 10.5812 204.112 11.3684C203.303 12.9421 202.344 15.2333 201.729 18.1276L203.686 18.5431ZM205.923 29.5211C205.445 28.5246 204.673 26.7743 204.13 24.7548C203.582 22.7214 203.29 20.5024 203.688 18.5335L201.727 18.1373C201.242 20.54 201.614 23.1046 202.198 25.2748C202.786 27.4587 203.614 29.3318 204.12 30.3867L205.923 29.5211Z" fill="#011F00" mask="url(#path-1-inside-1_20_39)"/>
</svg>
