<svg width="1919" height="1646" viewBox="0 0 1919 1646" fill="none" xmlns="http://www.w3.org/2000/svg">
<path fill-rule="evenodd" clip-rule="evenodd" d="M1124.02 175.518C1127.59 175.518 1130.88 176.889 1133.35 179.357C1135.82 181.825 1137.19 185.116 1137.19 188.682C1137.19 192.247 1135.82 195.538 1133.35 198.006C1130.88 200.474 1127.59 201.845 1124.02 201.845C1120.46 201.845 1117.17 200.474 1114.7 198.006C1112.23 195.538 1110.86 192.247 1110.86 188.682C1110.86 185.116 1112.23 181.825 1114.7 179.357C1117.17 176.889 1120.46 175.518 1124.02 175.518ZM1131.43 181.277C1129.51 179.357 1126.77 178.26 1124.02 178.26C1121.01 178.26 1118.54 179.357 1116.62 181.277C1114.7 183.197 1113.6 185.939 1113.6 188.682C1113.6 191.698 1114.7 194.167 1116.62 196.086C1118.54 198.006 1121.28 199.103 1124.02 199.103C1127.04 199.103 1129.51 198.006 1131.43 196.086C1133.35 194.167 1134.45 191.698 1134.45 188.682C1134.72 185.665 1133.35 183.197 1131.43 181.277ZM533.76 218.3C537.326 218.3 540.617 219.671 543.086 222.14C545.554 224.608 546.926 227.899 546.926 231.464C546.926 235.029 545.554 238.32 543.086 240.788C540.617 243.257 537.326 244.628 533.76 244.628C530.194 244.628 526.903 243.257 524.434 240.788C521.966 238.32 520.594 235.029 520.594 231.464C520.594 227.899 521.966 224.608 524.434 222.14C526.903 219.671 530.194 218.3 533.76 218.3ZM541.166 224.059C539.246 222.14 536.503 221.043 533.76 221.043C530.743 221.043 528.274 222.14 526.354 224.059C524.434 225.979 523.337 228.722 523.337 231.464C523.337 234.481 524.434 236.949 526.354 238.869C528.274 240.788 531.017 241.885 533.76 241.885C536.777 241.885 539.246 240.788 541.166 238.869C543.086 236.949 544.183 234.481 544.183 231.464C544.183 228.447 543.086 225.979 541.166 224.059ZM1866.24 10.4214C1869.81 10.4214 1873.1 11.7926 1875.57 14.2608C1878.03 16.7291 1879.41 20.02 1879.41 23.5852C1879.41 27.1504 1878.03 30.4414 1875.57 32.9096C1873.1 35.3778 1869.81 36.7491 1866.24 36.7491C1862.67 36.7491 1859.38 35.3778 1856.91 32.9096C1854.45 30.4414 1853.07 27.1504 1853.07 23.5852C1853.07 20.02 1854.45 16.7291 1856.91 14.2608C1859.38 12.0669 1862.67 10.4214 1866.24 10.4214ZM1873.65 16.1805C1871.73 14.2608 1868.98 13.1638 1866.24 13.1638C1863.22 13.1638 1860.75 14.2608 1858.83 16.1805C1856.91 18.1003 1855.82 20.8427 1855.82 23.5852C1855.82 26.6019 1856.91 29.0701 1858.83 30.9898C1860.75 32.9096 1863.5 34.0066 1866.24 34.0066C1869.26 34.0066 1871.73 32.9096 1873.65 30.9898C1875.57 29.0701 1876.66 26.6019 1876.66 23.5852C1876.94 20.8427 1875.57 18.1003 1873.65 16.1805ZM735.086 1558.54C738.651 1558.54 741.943 1559.91 744.411 1562.38C746.88 1564.85 748.251 1568.14 748.251 1571.71C748.251 1575.27 746.88 1578.56 744.411 1581.03C741.943 1583.5 738.651 1584.87 735.086 1584.87C731.52 1584.87 728.229 1583.5 725.76 1581.03C723.291 1578.56 721.92 1575.27 721.92 1571.71C721.92 1568.14 723.291 1564.85 725.76 1562.38C728.229 1559.91 731.52 1558.54 735.086 1558.54ZM742.491 1564.3C740.571 1562.38 737.829 1561.29 735.086 1561.29C732.069 1561.29 729.6 1562.38 727.68 1564.3C725.76 1566.22 724.663 1568.96 724.663 1571.71C724.663 1574.72 725.76 1577.19 727.68 1579.11C729.6 1581.03 732.343 1582.13 735.086 1582.13C738.103 1582.13 740.571 1581.03 742.491 1579.11C744.411 1577.19 745.509 1574.72 745.509 1571.71C745.509 1568.69 744.411 1566.22 742.491 1564.3ZM1115.79 1330.92C1119.36 1330.92 1122.65 1332.29 1125.12 1334.76C1127.59 1337.23 1128.96 1340.52 1128.96 1344.08C1128.96 1347.65 1127.59 1350.94 1125.12 1353.41C1122.65 1355.87 1119.36 1357.25 1115.79 1357.25C1112.23 1357.25 1108.94 1355.87 1106.47 1353.41C1104 1350.94 1102.63 1347.65 1102.63 1344.08C1102.63 1340.52 1104 1337.23 1106.47 1334.76C1108.94 1332.29 1112.23 1330.92 1115.79 1330.92ZM1123.2 1336.68C1121.28 1334.76 1118.54 1333.66 1115.79 1333.66C1112.78 1333.66 1110.31 1334.76 1108.39 1336.68C1106.47 1338.6 1105.37 1341.34 1105.37 1344.08C1105.37 1347.1 1106.47 1349.57 1108.39 1351.49C1110.31 1353.41 1112.78 1354.5 1115.79 1354.5C1118.81 1354.5 1121.28 1353.41 1123.2 1351.49C1125.12 1349.57 1126.22 1347.1 1126.22 1344.08C1126.49 1341.07 1125.12 1338.6 1123.2 1336.68ZM1828.11 1394C1831.68 1394 1834.97 1395.37 1837.44 1397.83C1839.91 1400.3 1841.28 1403.59 1841.28 1407.16C1841.28 1410.72 1839.91 1414.02 1837.44 1416.48C1834.97 1418.95 1831.68 1420.32 1828.11 1420.32C1824.55 1420.32 1821.26 1418.95 1818.79 1416.48C1816.32 1414.02 1814.95 1410.72 1814.95 1407.16C1814.95 1403.59 1816.32 1400.3 1818.79 1397.83C1820.98 1395.37 1824.27 1394 1828.11 1394ZM1835.52 1399.75C1833.6 1397.83 1830.86 1396.74 1828.11 1396.74C1825.1 1396.74 1822.63 1397.83 1820.71 1399.75C1818.79 1401.67 1817.69 1404.42 1817.69 1407.16C1817.69 1410.18 1818.79 1412.64 1820.71 1414.56C1822.63 1416.48 1825.37 1417.58 1828.11 1417.58C1831.13 1417.58 1833.6 1416.48 1835.52 1414.56C1837.44 1412.64 1838.54 1410.18 1838.54 1407.16C1838.54 1404.14 1837.44 1401.67 1835.52 1399.75ZM393.874 24.408C397.44 24.408 400.731 25.7792 403.2 28.2474C405.669 30.7156 407.04 34.0066 407.04 37.5718C407.04 41.137 405.669 44.4279 403.2 46.8961C400.731 49.3644 397.44 50.7356 393.874 50.7356C390.309 50.7356 387.017 49.3644 384.549 46.8961C382.08 44.4279 380.709 41.137 380.709 37.5718C380.709 34.0066 382.08 30.7156 384.549 28.2474C387.017 26.0534 390.309 24.408 393.874 24.408ZM401.28 30.1671C399.36 28.2474 396.617 27.1504 393.874 27.1504C390.857 27.1504 388.389 28.2474 386.469 30.1671C384.549 32.0869 383.451 34.8293 383.451 37.5718C383.451 40.5885 384.549 43.0567 386.469 44.9764C388.389 46.8962 390.857 47.9932 393.874 47.9932C396.891 47.9932 399.36 46.8962 401.28 44.9764C403.2 43.0567 404.297 40.5885 404.297 37.5718C404.571 34.8293 403.2 32.0869 401.28 30.1671ZM1345.1 76.2405C1348.66 76.2405 1351.95 77.6118 1354.42 80.08C1356.89 82.5482 1358.26 85.8392 1358.26 89.4044C1358.26 92.9696 1356.89 96.2606 1354.42 98.7288C1351.95 101.197 1348.66 102.568 1345.1 102.568C1341.53 102.568 1338.24 101.197 1335.77 98.7288C1333.3 96.2606 1331.93 92.9696 1331.93 89.4044C1331.93 85.8392 1333.3 82.5482 1335.77 80.08C1337.97 77.886 1341.26 76.2405 1345.1 76.2405ZM1352.5 81.9997C1350.58 80.08 1347.84 78.983 1345.1 78.983C1342.08 78.983 1339.61 80.08 1337.69 81.9997C1335.77 83.9194 1334.67 86.6619 1334.67 89.4044C1334.67 92.4211 1335.77 94.8893 1337.69 96.809C1339.61 98.7287 1342.35 99.8257 1345.1 99.8257C1348.11 99.8257 1350.58 98.7287 1352.5 96.809C1354.42 94.8893 1355.52 92.4211 1355.52 89.4044C1355.52 86.6619 1354.42 83.9194 1352.5 81.9997ZM73.7829 349.664C77.3486 349.664 80.64 351.036 83.1086 353.504C85.5771 355.972 86.9486 359.263 86.9486 362.828C86.9486 366.393 85.5771 369.684 83.1086 372.153C80.64 374.621 77.3486 375.992 73.7829 375.992C70.2171 375.992 66.9257 374.621 64.4571 372.153C61.9886 369.684 60.6171 366.393 60.6171 362.828C60.6171 359.263 61.9886 355.972 64.4571 353.504C66.9257 351.036 70.2171 349.664 73.7829 349.664ZM81.1886 355.149C79.2686 353.23 76.5257 352.133 73.7829 352.133C70.7657 352.133 68.2971 353.23 66.3771 355.149C64.4571 357.069 63.36 359.811 63.36 362.554C63.36 365.571 64.4571 368.039 66.3771 369.959C68.2971 371.878 71.04 372.975 73.7829 372.975C76.8 372.975 79.2686 371.878 81.1886 369.959C83.1086 368.039 84.2057 365.571 84.2057 362.554C84.2057 359.811 83.1086 357.069 81.1886 355.149ZM1827.57 331.29C1831.95 331.29 1835.52 334.855 1835.52 339.243C1835.52 343.631 1831.95 347.196 1827.57 347.196C1823.18 347.196 1819.61 343.631 1819.61 339.243C1819.61 334.581 1823.18 331.29 1827.57 331.29ZM980.297 15.6321C984.686 15.6321 988.251 19.1973 988.251 23.5852C988.251 27.9732 984.686 31.5384 980.297 31.5384C975.909 31.5384 972.343 27.9732 972.343 23.5852C972.343 19.1973 975.909 15.6321 980.297 15.6321ZM277.303 340.066C281.691 340.066 285.257 343.631 285.257 348.019C285.257 352.407 281.691 355.972 277.303 355.972C272.914 355.972 269.349 352.407 269.349 348.019C269.349 343.631 272.914 340.066 277.303 340.066ZM633.326 1394.54C637.714 1394.54 641.28 1398.11 641.28 1402.5C641.28 1406.88 637.714 1410.45 633.326 1410.45C628.937 1410.45 625.371 1406.88 625.371 1402.5C625.371 1398.11 628.937 1394.54 633.326 1394.54ZM236.709 759.389C241.097 759.389 244.663 762.954 244.663 767.342C244.663 771.73 241.097 775.295 236.709 775.295C232.32 775.295 228.754 771.73 228.754 767.342C228.754 762.68 232.32 759.389 236.709 759.389ZM1755.43 42.7825C1759.82 42.7825 1763.38 46.3477 1763.38 50.7356C1763.38 55.1236 1759.82 58.6888 1755.43 58.6888C1751.04 58.6888 1747.47 55.1236 1747.47 50.7356C1747.47 46.3477 1751.04 42.7825 1755.43 42.7825ZM1854.72 957.669C1859.11 957.669 1862.67 961.234 1862.67 965.622C1862.67 970.01 1859.11 973.575 1854.72 973.575C1850.33 973.575 1846.77 970.01 1846.77 965.622C1846.77 960.96 1850.33 957.669 1854.72 957.669ZM1656.14 551.236C1660.53 551.236 1664.09 554.801 1664.09 559.189C1664.09 563.577 1660.53 567.142 1656.14 567.142C1651.75 567.142 1648.18 563.577 1648.18 559.189C1648.18 554.801 1651.75 551.236 1656.14 551.236ZM1124.57 281.651C1128.96 281.651 1132.53 285.216 1132.53 289.604C1132.53 293.992 1128.96 297.558 1124.57 297.558C1120.18 297.558 1116.62 293.992 1116.62 289.604C1116.62 285.216 1120.18 281.651 1124.57 281.651ZM556.526 2.194C560.914 2.194 564.48 5.75918 564.48 10.1471C564.48 14.5351 560.914 18.1003 556.526 18.1003C552.137 18.1003 548.571 14.5351 548.571 10.1471C548.571 5.75918 552.137 2.194 556.526 2.194ZM190.354 434.681C194.743 434.681 198.309 438.246 198.309 442.634C198.309 447.022 194.743 450.587 190.354 450.587C185.966 450.587 182.4 447.022 182.4 442.634C182.4 438.246 185.966 434.681 190.354 434.681ZM404.571 391.898C408.96 391.898 412.526 395.464 412.526 399.851C412.526 404.239 408.96 407.805 404.571 407.805C400.183 407.805 396.617 404.239 396.617 399.851C396.617 395.464 400.183 391.898 404.571 391.898ZM1222.49 1394.54C1226.88 1394.54 1230.45 1398.11 1230.45 1402.5C1230.45 1406.88 1226.88 1410.45 1222.49 1410.45C1218.1 1410.45 1214.54 1406.88 1214.54 1402.5C1214.54 1398.11 1218.1 1394.54 1222.49 1394.54ZM952.046 1329.27C956.434 1329.27 960 1332.84 960 1337.23C960 1341.61 956.434 1345.18 952.046 1345.18C947.657 1345.18 944.091 1341.61 944.091 1337.23C944.091 1332.84 947.657 1329.27 952.046 1329.27ZM136.32 1406.06C140.709 1406.06 144.274 1409.63 144.274 1414.02C144.274 1418.4 140.709 1421.97 136.32 1421.97C131.931 1421.97 128.366 1418.4 128.366 1414.02C128.366 1409.35 131.931 1406.06 136.32 1406.06ZM1664.09 1408.26C1672.87 1408.26 1680 1415.39 1680 1424.16C1680 1432.94 1672.87 1440.07 1664.09 1440.07C1655.31 1440.07 1648.18 1432.94 1648.18 1424.16C1648.46 1415.11 1655.59 1408.26 1664.09 1408.26ZM1830.86 177.986C1839.63 177.986 1846.77 185.116 1846.77 193.892C1846.77 202.668 1839.63 209.799 1830.86 209.799C1822.08 209.799 1814.95 202.668 1814.95 193.892C1815.22 185.116 1822.35 177.986 1830.86 177.986ZM1195.61 29.3444C1204.39 29.3444 1211.52 36.4748 1211.52 45.2507C1211.52 54.0266 1204.39 61.157 1195.61 61.157C1186.83 61.157 1179.7 54.0266 1179.7 45.2507C1179.7 36.2006 1186.83 29.3444 1195.61 29.3444ZM749.349 1444.18C758.126 1444.18 765.257 1451.31 765.257 1460.09C765.257 1468.86 758.126 1475.99 749.349 1475.99C740.571 1475.99 733.44 1468.86 733.44 1460.09C733.44 1451.31 740.571 1444.18 749.349 1444.18ZM258.103 1408.26C266.88 1408.26 274.011 1415.39 274.011 1424.16C274.011 1432.94 266.88 1440.07 258.103 1440.07C249.326 1440.07 242.194 1432.94 242.194 1424.16C242.194 1415.11 249.326 1408.26 258.103 1408.26ZM122.88 854.004C131.657 854.004 138.789 861.134 138.789 869.91C138.789 878.686 131.657 885.816 122.88 885.816C114.103 885.816 106.971 878.686 106.971 869.91C106.971 860.86 114.103 854.004 122.88 854.004ZM420.206 182.374C428.983 182.374 436.114 189.504 436.114 198.28C436.114 207.056 428.983 214.187 420.206 214.187C411.429 214.187 404.297 207.056 404.297 198.28C404.571 189.504 411.429 182.374 420.206 182.374ZM1414.49 1572.8C1412.02 1580.48 1409.51 1588.3 1408.46 1598.58C1406.59 1616.91 1414.49 1645.36 1414.49 1645.36C1414.49 1645.36 1446.13 1617.31 1459.75 1594.47C1478.66 1562.75 1485.26 1503.42 1485.26 1503.42L1528.5 1634.86C1528.5 1634.86 1545.33 1562.66 1541.76 1550.86C1533.53 1521.79 1514.06 1495.47 1514.06 1495.47C1514.06 1495.47 1567.27 1532.22 1613.62 1540.44C1613.62 1540.44 1595.25 1505.61 1570.56 1491.9C1545.87 1478.19 1524.21 1472.43 1524.21 1472.43C1524.21 1472.43 1565.07 1469.14 1588.94 1442.81C1588.94 1442.81 1546.42 1425.53 1498.15 1456.8L1541.21 1370.14L1539.02 1369.04L1538.47 1368.76L1536.27 1367.67L1496.5 1455.97C1490.47 1398.93 1450.15 1376.72 1450.15 1376.72C1444.66 1411.82 1467.98 1445.83 1467.98 1445.83C1467.98 1445.83 1449.87 1432.39 1423.82 1421.97C1397.49 1411.55 1359.09 1419.23 1359.09 1419.23C1394.74 1450.22 1456.73 1468.32 1456.73 1468.32C1456.73 1468.32 1424.09 1469.69 1396.11 1481.48C1368.14 1493.55 1317.39 1539.89 1317.39 1539.89C1317.39 1539.89 1345.37 1537.43 1377.74 1532.22C1409.83 1527 1468.8 1495.47 1468.8 1495.47C1468.8 1495.47 1424.91 1541.54 1414.49 1572.8ZM475.337 1483.13C460.8 1460.36 429.257 1432.39 418.56 1423.34C419.109 1437.33 421.303 1479.29 430.08 1505.07C440.777 1536.06 484.937 1582.13 484.937 1582.13C484.937 1582.13 425.966 1550.86 393.6 1545.93C361.234 1540.99 333.257 1538.52 333.257 1538.52C333.257 1538.52 384.274 1584.6 412.251 1596.39C414.171 1597.21 416.091 1598.03 418.286 1598.86C418.286 1598.86 471.342 1622.97 501.394 1621.5C538.179 1619.69 576.274 1591.18 586.971 1585.15C611.657 1571.16 629.76 1536.33 629.76 1536.33C583.406 1544.56 530.194 1581.85 530.194 1581.85C530.194 1581.85 549.669 1555.53 557.897 1526.46C566.126 1497.39 561.737 1428.55 561.737 1428.55C561.737 1428.55 546.103 1451.86 529.92 1480.38C513.737 1508.63 501.394 1574.45 501.394 1574.45C501.394 1574.45 493.166 1510.82 475.337 1483.13ZM0 824.111L31.8171 892.947L35.3829 891.301L36.2057 891.027L39.7714 889.382L0 810.124V824.111ZM0 767.89C63.6343 795.041 114.377 773.924 114.377 773.924C76.5257 732.238 11.52 727.302 11.52 727.302C11.52 727.302 46.08 718.252 85.0286 696.312C123.977 674.372 152.777 619.249 152.777 619.249C89.6914 630.493 18.9257 675.469 0.274286 687.81V767.89H0ZM0 684.245V521.068C23.5886 480.48 44.9829 448.667 44.9829 448.667C44.9829 448.667 51.84 557.269 38.9486 603.617C29.0743 638.446 9.05143 670.533 0 684.245ZM1378.83 172.227C1336.59 164.822 1270.49 171.953 1248.55 174.695C1265.55 188.956 1316.85 231.19 1356.07 248.193C1403.79 268.762 1504.73 266.019 1504.73 266.019C1504.73 266.019 1405.44 301.671 1365.12 334.032C1324.8 366.393 1292.16 396.835 1292.16 396.835C1292.16 396.835 1400.5 386.413 1444.11 366.393C1487.73 346.373 1523.93 309.35 1523.93 309.35C1523.93 309.35 1479.22 401.497 1477.85 476.092C1477.85 476.092 1527.77 439.069 1543.41 397.109C1559.04 355.149 1562.61 319.771 1562.61 319.771C1562.61 319.771 1577.69 383.122 1624.87 413.838C1624.87 413.838 1641.6 343.082 1580.98 275.344L1727.18 321.691L1728.27 317.852L1728.55 317.029L1729.65 313.19L1582.08 271.778C1670.13 248.467 1694.81 180.18 1694.81 180.18C1638.58 180.18 1591.13 224.882 1591.13 224.882C1591.13 224.882 1607.59 193.344 1617.46 149.739C1627.34 106.133 1605.94 47.7189 1605.94 47.7189C1566.17 110.796 1553.01 212.541 1553.01 212.541C1553.01 212.541 1543.13 161.805 1517.62 121.217C1492.11 80.6285 1407.36 12.3411 1407.36 12.3411C1407.36 12.3411 1418.06 55.6721 1433.97 104.762C1449.87 153.852 1513.51 238.32 1513.51 238.32C1513.51 238.32 1430.13 181.277 1378.83 172.227ZM1927.41 547.945C1904.37 511.744 1854.45 467.865 1837.71 453.33C1838.54 475.544 1841.83 541.911 1855.82 582.5C1872.55 631.59 1942.77 704.265 1942.77 704.265C1942.77 704.265 1849.23 654.901 1798.22 646.948C1747.2 638.995 1702.77 635.429 1702.77 635.429C1702.77 635.429 1783.41 708.379 1827.57 727.302C1871.73 745.951 1923.29 747.87 1923.29 747.87C1923.29 747.87 1825.1 776.94 1768.87 826.031C1768.87 826.031 1830.03 837.823 1871.45 821.369C1912.87 804.639 1941.39 783.522 1941.39 783.522C1941.39 783.522 1904.91 837.275 1913.69 892.947C1913.69 892.947 1977.33 857.843 1986.38 767.342L2018.74 837.549V823.562L1989.67 765.696C1999.54 772.004 2009.42 777.215 2018.74 781.054V700.974C2015.73 702.894 2014.08 704.265 2014.08 704.265C2014.08 704.265 2016 701.797 2018.74 697.409V534.232C2016.82 537.249 2015.18 540.54 2013.26 543.557C1987.75 588.533 1968 692.198 1968 692.198C1968 692.198 1955.38 591.824 1927.41 547.945ZM201.326 82.274C206.263 55.6721 202.149 13.7123 200.503 0C191.177 10.6956 164.297 42.7825 153.326 67.4647C139.886 97.3575 141.257 161.257 141.257 161.257C141.257 161.257 119.314 98.1803 99.0171 72.6754C78.72 46.8962 59.7943 26.3277 59.7943 26.3277C59.7943 26.3277 65.8286 94.8893 78.1714 122.588C90.5143 150.287 113.554 173.324 113.554 173.324C113.554 173.324 55.68 144.528 8.50286 143.157C8.50286 143.157 31.5429 174.969 57.8743 185.116C84.2057 195.264 106.423 197.732 106.423 197.732C106.423 197.732 66.3771 206.782 46.6286 236.401C46.6286 236.401 91.0629 247.37 134.4 209.524L104.229 301.397L106.697 302.22L107.246 302.494L109.714 303.317L136.869 210.347C151.131 266.019 193.92 282.2 193.92 282.2C194.194 246.548 166.491 216.381 166.491 216.381C166.491 216.381 186.24 227.076 213.669 233.658C241.097 240.24 278.126 227.076 278.126 227.076C238.354 200.748 174.171 191.698 174.171 191.698C174.171 191.698 206.263 185.665 232.046 170.033C257.829 154.127 301.44 100.923 301.44 100.923C301.44 100.923 274.011 107.23 243.017 117.103C211.749 126.976 157.989 166.468 157.989 166.468C157.989 166.468 195.291 114.635 201.326 82.274ZM32.0914 1523.44C39.7714 1481.48 33.4629 1415.11 30.9943 1393.17C24.6857 1400.3 12.6171 1414.29 0 1431.02V1598.58H0.548571C14.5371 1573.9 27.9771 1545.65 32.0914 1523.44Z" fill="#012500"/>
</svg>
