<svg width="341" height="447" viewBox="0 0 341 447" fill="none" xmlns="http://www.w3.org/2000/svg">
<path style="mix-blend-mode:screen" opacity="0.2" d="M-14.3165 387.167C-14.3165 387.167 -16.4489 389.286 -21.1077 387.198C-25.7664 385.109 -28.1295 379.926 -28.1295 379.926C-28.1295 379.926 -30.6362 388.494 -40.0575 383.98C-49.4788 379.463 -46.4615 367.325 -42.2101 367.395C-42.2101 367.395 -45.8631 365.433 -44.6402 359.639C-43.4174 353.846 -39.5212 354.916 -39.5212 354.916C-39.5212 354.916 -44.2867 346.564 -42.1929 342.126C-40.0991 337.687 -31.9396 337.934 -31.9396 337.934C-31.9396 337.934 -37.1953 331.809 -35.7415 325.793C-35.7415 325.793 -41.151 334.091 -45.8405 333.791C-50.5323 333.49 -50.9448 325.545 -50.9448 325.545C-50.9448 325.545 -51.8959 328.66 -54.4993 330.296C-54.4993 330.296 -51.2929 332.249 -56.0444 335.303C-60.798 338.355 -64.6176 333.26 -64.6176 333.26C-64.6176 333.26 -66.5806 336.694 -70.4561 334.507C-74.3316 332.319 -74.8561 324.483 -71.4489 321.629C-68.0395 318.777 -61.5816 320.226 -61.5816 320.226C-61.5816 320.226 -60.8981 319.566 -58.7603 318.82C-58.7603 318.82 -60.9258 314.981 -59.32 312.773C-57.712 310.563 -52.237 310.765 -52.237 310.765C-52.237 310.765 -53.5657 303.922 -50.0608 301.856C-46.5558 299.789 -35.5564 297.509 -30.658 304.86C-30.658 304.86 -30.0558 302.524 -27.6975 302.001C-27.6975 302.001 -27.8642 298.869 -25.1447 296.899C-22.4251 294.93 -19.9939 296.537 -19.9939 296.537C-19.9939 296.537 -22.7769 289.78 -20.1593 287.252C-17.5417 284.724 -12.081 285.818 -12.081 285.818C-12.081 285.818 -9.39402 273.562 -6.15765 267.8C-2.92127 262.038 -0.123631 268.124 -0.123631 268.124C-0.123631 268.124 3.26132 262.421 7.15613 261.534C12.8082 260.247 18.4816 267.948 18.4816 267.948C18.4816 267.948 21.5128 265.315 23.9823 268.783C26.454 272.253 24.1403 284.442 24.1403 284.442C24.1403 284.442 26.8814 279.988 30.0281 283.857C33.177 287.723 28.1957 307.174 28.1957 307.174C28.1957 307.174 36.9906 305.195 40.3617 310.507C43.7327 315.818 40.3757 321.913 40.3757 321.913C40.3757 321.913 48.0039 326.624 47.3963 335.337C46.7887 344.05 41.3998 351.23 41.3998 351.23C41.3998 351.23 47.1268 356.021 43.7451 363.458C40.3634 370.895 26.212 374.239 26.212 374.239C26.212 374.239 28.4877 378.193 25.2597 383.506C25.2597 383.506 31.9289 379.702 35.4244 384.232C38.9199 388.763 34.3267 395.174 34.3267 395.174C34.3267 395.174 38.7054 400.39 36.2872 404.039C33.8712 407.691 29.6344 406.95 29.6344 406.95C29.6344 406.95 29.5369 412.59 26.9443 412.331C24.3517 412.073 17.7182 406.307 17.7182 406.307C17.7182 406.307 16.4792 411.899 11.7527 409.548C7.02617 407.196 2.10352 395.909 2.10352 395.909C2.10352 395.909 -1.54313 398.259 -3.87652 396.121C-6.20991 393.983 -5.56057 387.062 -5.56057 387.062C-5.56057 387.062 -11.035 393.395 -14.3168 387.184L-14.3165 387.167Z" fill="url(#paint0_linear_0_737)"/>
<path d="M47.8832 206.416C46.0441 210.348 44.2845 214.739 44.2845 214.739C44.2845 214.739 39.2219 216.556 35.1253 220.513C31.0286 224.469 27.7176 234.25 27.7176 234.25C27.7176 234.25 26.2529 228.86 18.8749 234.43C11.497 240 8.83907 251.82 10.0541 252.621C11.269 253.422 12.7309 252.887 12.7309 252.887C8.64657 256.175 3.74601 273.414 5.85796 274.01C7.97214 274.604 12.1119 268.191 12.1119 268.191C11.5602 273.77 6.56934 283.86 6.56934 283.86C4.44813 277.566 -4.27892 284.24 -7.26369 294.583C-10.2485 304.927 -5.58943 305.426 -5.58943 305.426C-9.61451 309.913 -20.2088 329.912 -18.3265 336.873C-16.4442 343.833 -13.4854 340.976 -13.4854 340.976C-13.4854 340.976 -15.5736 347.321 -15.8731 353.3C-15.9908 355.621 -15.8367 357.888 -15.1862 359.709C-12.8642 366.21 -8.77865 364.524 -8.77865 364.524C-15.6634 374.245 -6.65057 379.745 -6.65057 379.745C-6.65057 379.745 -12.2381 382.35 -14.3713 387.201C-15.9376 390.775 -10.3005 398.477 -8.43759 400.406C-6.57465 402.335 -4.62339 399.12 -4.62339 399.12C-4.62339 399.12 -4.32157 401.481 -3.32878 403.594C-2.33376 405.705 -1.39363 402.922 -1.39363 402.922C1.75762 407.759 3.76224 402.129 3.82484 401.956C3.95916 403.499 4.64832 405.853 5.57104 408.306L5.5732 408.308C7.1963 412.624 9.53537 417.243 10.8148 418.245C12.8274 419.814 13.4641 412.615 13.4641 412.615C13.4641 412.615 17.0512 418.15 21.4879 418.419C25.9225 418.685 23.7427 406.862 23.7427 406.862C26.9535 408.592 30.9214 405.416 28.8807 394.876C28.5253 393.038 27.9209 391.453 27.1629 390.089C23.5794 383.64 16.5978 382.156 16.5978 382.156C20.6945 378.2 21.3623 372.289 21.3623 372.289C21.3623 372.289 25.5279 370.681 27.4646 368.133C29.4014 365.584 26.2142 363.651 26.2142 363.651C26.2142 363.651 31.3428 358.257 30.4057 354.557C29.4687 350.852 27.4714 353.222 27.4714 353.222C29.751 347.949 28.8662 344.993 28.8662 344.993C34.3199 344.038 34.2427 334.392 31.9457 331.785C29.7327 329.273 27.6282 334.589 27.4734 334.989C28.6262 329.266 27.1186 324.89 27.1186 324.89C32.4428 322.967 30.7853 313.953 30.7853 313.953C30.7853 313.953 31.2061 314.994 34.7249 318.032C38.2481 321.071 50.1436 290.169 49.0252 286.277C47.9048 282.382 45.9946 285.397 45.9946 285.397C44.4153 277.993 42.2231 281.626 42.2231 281.626C42.5922 273.662 47.9744 264.658 47.9744 264.658C51.1573 269.927 61.1342 254.296 61.1342 254.296C61.1342 254.296 59.1382 261.49 61.9029 261.161C64.6655 260.835 72.3884 250.158 72.9036 246.442C73.4166 242.724 69.3114 243.327 69.3114 243.327C72.7044 240.906 74.5415 238.035 74.6252 237.906C74.5936 238.071 74.0352 240.913 76.0318 242.393C78.0892 243.918 88.7601 230.978 89.0632 226.59C89.3709 222.197 85.071 224.885 85.071 224.885C87.6081 220.681 99.7483 212.759 99.7483 212.759L99.6541 212.859L99.616 212.895C98.664 213.936 92.8401 220.532 98.2474 221.375C104.115 222.293 124.298 206.755 126.25 201.945C128.2 197.133 122.202 195.171 122.202 195.171C128.122 193.26 129.535 189.554 129.535 189.554C131.951 191.756 139.438 193.741 143.483 188.816C147.52 183.888 142.866 181.95 142.866 181.95C146.574 178.659 146.552 175.902 146.552 175.902C153.481 179.89 159.957 172.319 159.957 172.319C159.957 172.319 158.665 177.666 160.646 179.407C162.623 181.154 167.867 179.753 167.867 179.753C167.867 179.753 167.43 183.246 171.707 181.6C174.824 180.404 181.992 175.72 186.694 171.162C188.446 169.462 189.856 167.78 190.581 166.302C193.253 160.871 188.794 160.127 188.794 160.127C188.794 160.127 202.318 154.09 202.062 149.728C201.806 145.366 199.19 147.892 199.19 147.892C200.905 145.795 200.603 143.892 200.603 143.892C215.586 143.468 222.683 134.42 222.683 134.42C222.683 134.42 223.676 141.141 229.508 140.12C235.339 139.098 243.217 136.1 245.721 133.681C248.225 131.263 245.031 128.641 245.031 128.641C254.65 127.49 256.665 123.234 256.757 123.028L256.761 123.024C264.962 125.183 271.581 122.377 275.535 119.82C278.122 118.146 279.566 116.58 279.566 116.58C284.631 122.497 294.81 118.291 295.119 118.162L295.123 118.158C295.123 118.158 299.036 121.408 307.228 121.692C315.42 121.977 323.989 113.848 323.989 113.848C323.989 113.848 342.473 115.136 339.486 109.855C337.827 106.922 331.319 108.229 331.319 108.229C331.319 108.229 329.361 105.291 327.272 105.554C325.18 105.82 326.036 107.918 326.036 107.918C322.91 107.719 319.156 109.296 319.156 109.296C318.553 105.632 310.307 108.48 310.307 108.48C310.078 100.653 295.094 105.101 295.094 105.101C295.094 105.101 292.356 102.038 285.862 102.602C284.664 102.705 283.504 102.948 282.405 103.271C277.543 104.709 273.918 107.768 273.918 107.768C269.397 104.454 258.146 108.514 258.146 108.514C260.129 103.964 253.024 101.39 245.381 103.722C237.739 106.055 230.357 112.303 230.357 112.303C226.927 110.57 218.06 118.471 218.06 118.471C215.939 109.802 199.439 116.055 191.791 121.099C190.827 121.736 190.001 122.352 189.368 122.916C184.076 127.616 187.949 129.367 188.506 129.585L188.539 129.596L188.572 129.608C184.771 129.545 180.112 133.829 180.112 133.829C181.07 131.638 180.055 130.022 177.165 129.97C176.545 129.96 175.833 130.021 175.038 130.166C170.553 130.985 162.287 136.774 161.558 139.892C160.83 143.011 164.154 144.63 164.154 144.63C164.154 144.63 151.533 150.234 148.917 152.76C146.301 155.287 147.485 157.656 147.485 157.656C144.751 160.517 144.574 163.979 144.574 163.979C142.658 164.953 141.034 168.054 141.034 168.054C136.331 168.648 133.773 173.969 133.773 173.969C133.767 173.949 133.763 173.927 133.759 173.905C133.751 173.874 133.743 173.843 133.734 173.812C133.724 173.779 133.714 173.746 133.701 173.711C133.488 173.087 132.689 171.586 130.012 171.899C126.652 172.292 122.215 176.577 122.215 176.577C122.215 176.577 124.846 173.38 122.208 170.877C119.572 168.376 114.477 171.98 114.477 171.98C112.015 166.015 105.013 163.999 96.7093 171.797C93.4877 174.826 90.8393 178.386 88.8108 181.611C85.6152 186.688 83.9487 190.924 83.9487 190.924C83.9487 190.924 81.7596 188.429 77.7413 188.14C73.7229 187.852 67.33 195.123 67.33 195.123C65.3293 188.497 54.0382 200.714 54.0382 200.714C54.0382 200.714 53.0764 198.351 50.9716 200.825C50.1711 201.766 49.0099 204.011 47.8785 206.43L47.8832 206.416Z" fill="url(#paint1_linear_0_737)"/>
<path style="mix-blend-mode:multiply" opacity="0.5" d="M200.564 143.93C215.551 143.506 222.65 134.455 222.65 134.455C222.65 134.455 223.644 141.179 229.476 140.157C235.309 139.135 243.19 136.135 245.695 133.716C248.199 131.297 245.004 128.674 245.004 128.674C254.627 127.524 256.642 123.266 256.733 123.06L256.738 123.056C256.738 123.056 254.841 122.688 252.965 121.427C252.965 121.427 245.735 125.557 242.625 124.386C239.518 123.217 238.16 117.942 238.16 117.942C238.16 117.942 230.78 130.117 227.205 130.061C223.63 130.004 223.849 125.281 223.849 125.281C223.849 125.281 218.452 131.928 217.635 127.401C217.635 127.401 215.017 134.523 208.758 136.238C201.454 138.243 199.9 131.62 199.9 131.62C197.435 137.95 200.566 143.928 200.566 143.928L200.564 143.93Z" fill="url(#paint2_linear_0_737)"/>
<path style="mix-blend-mode:multiply" opacity="0.5" d="M164.117 144.624C164.117 144.624 151.491 150.231 148.873 152.758C146.256 155.286 147.44 157.656 147.44 157.656C147.44 157.656 151.834 157.878 149.164 165.137C149.164 165.137 157.34 161.123 159.608 164.789C161.873 168.454 159.918 172.322 159.918 172.322C159.918 172.322 158.626 177.671 160.608 179.414C162.585 181.161 167.831 179.759 167.831 179.759C167.831 179.759 167.395 183.254 171.673 181.607C174.792 180.411 181.963 175.724 186.667 171.164L186.665 171.162C186.665 171.162 178.497 177.507 174.412 174.645C170.327 171.782 173.297 165.4 173.297 165.4C173.297 165.4 167.869 171.74 165.708 167.681C163.547 163.622 167.925 156.536 172.126 153.137C172.126 153.137 167.983 153.403 170.073 149.19C172.164 144.974 178.61 140.944 178.61 140.944C178.61 140.944 171.798 140.496 172.994 136.267C174.19 132.039 177.136 129.955 177.136 129.955C176.516 129.945 175.804 130.006 175.009 130.151C170.521 130.971 162.251 136.762 161.522 139.882C160.793 143.002 164.12 144.621 164.12 144.621L164.117 144.624Z" fill="url(#paint3_linear_0_737)"/>
<path style="mix-blend-mode:multiply" opacity="0.5" d="M5.69208 293.793C5.69208 293.793 12.8485 292.33 17.9044 276.148C18.8164 273.232 20.1619 279.14 20.1619 279.14C20.1619 279.14 25.9437 282.653 31.4159 269.906C33.6209 264.769 33.1438 256.164 33.1438 256.164C33.1438 256.164 31.4272 264.407 27.9081 261.22C24.3889 258.033 29.1044 244.919 32.2379 238.596C35.3735 232.275 41.5877 228.689 42.6228 233.178C42.6228 233.178 45.778 219.591 49.8214 212.614C49.8214 212.614 47.1205 211.234 47.9042 206.325C46.0647 210.257 44.3047 214.649 44.3047 214.649C44.3047 214.649 39.241 216.467 35.1433 220.424C31.0457 224.381 27.734 234.165 27.734 234.165C27.734 234.165 26.2689 228.774 18.8892 234.345C11.5096 239.916 8.85108 251.739 10.0663 252.54C11.2816 253.341 12.7438 252.807 12.7438 252.807C8.6585 256.095 3.75681 273.338 5.86924 273.934C7.98391 274.528 12.1247 268.114 12.1247 268.114C11.5728 273.694 6.58081 283.786 6.58081 283.786C4.45912 277.491 -4.26996 284.167 -7.25542 294.512C-10.2409 304.858 -5.58077 305.357 -5.58077 305.357C-9.6068 309.846 -20.2036 329.85 -18.3208 336.812C-16.4381 343.774 -13.4785 340.916 -13.4785 340.916C-13.4785 340.916 -15.5673 347.263 -15.8669 353.243C-15.8669 353.243 -10.235 359.156 -6.74451 355.785C-3.25403 352.415 -7.66021 348.766 -7.66021 348.766C-7.66021 348.766 -0.254828 347.167 0.384463 343.05C0.423995 343.293 2.0222 352.677 6.99202 354.52C12.0251 356.391 9.83517 345.923 9.83517 345.923C9.83517 345.923 16.3293 347.555 16.5279 341.802C16.7242 336.051 9.40788 328.775 9.40788 328.775C9.40788 328.775 16.8701 307.278 5.69199 293.797L5.69208 293.793Z" fill="url(#paint4_linear_0_737)"/>
<path style="mix-blend-mode:multiply" opacity="0.5" d="M5.70768 408.296C7.33154 412.615 9.67174 417.236 10.9518 418.239C12.9653 419.808 13.6022 412.606 13.6022 412.606C13.6022 412.606 17.1911 418.143 21.6299 418.412C26.0665 418.679 23.8857 406.85 23.8857 406.85C27.098 408.58 31.0677 405.403 29.0261 394.858C28.6705 393.019 28.0659 391.433 27.3075 390.069C27.3075 390.069 27.7654 398.414 21.796 398.91C15.8222 399.41 15.5488 390.01 15.5488 390.01C15.5488 390.01 14.7602 391.359 12.5276 391.76C12.5276 391.76 14.0928 396.399 11.3787 397.845C8.73574 399.256 6.49014 395.711 6.37889 395.537C6.44672 395.917 8.88234 409.561 5.71217 408.292L5.70768 408.296Z" fill="url(#paint5_linear_0_737)"/>
<path style="mix-blend-mode:multiply" opacity="0.5" d="M15.3406 364.776C15.3406 364.776 15.7188 371.363 21.4657 372.259C21.4657 372.259 25.6342 370.65 27.5723 368.099C23.7291 371.171 17.1884 367.601 15.3406 364.776Z" fill="url(#paint6_linear_0_737)"/>
<path style="mix-blend-mode:multiply" opacity="0.5" d="M88.7679 181.561L88.7701 181.563C88.7701 181.563 87.3315 188.796 95.1011 186.859C94.6194 187.083 85.4274 191.322 82.7108 197.083C79.9165 203.001 100.553 194.012 100.553 194.012C100.553 194.012 99.314 206.635 109.955 195.542C117.322 187.861 118.831 183.297 118.831 183.297C119.367 188.086 129.511 189.506 129.511 189.506C131.929 191.709 139.419 193.694 143.465 188.767C147.505 183.837 142.848 181.899 142.848 181.899C138.757 181.308 137.938 184.03 137.938 184.03C137.938 184.03 138.525 178.566 133.749 173.925C133.743 173.905 133.739 173.883 133.735 173.861C133.727 173.83 133.719 173.799 133.71 173.768C133.7 173.735 133.69 173.702 133.677 173.666C133.464 173.042 132.664 171.541 129.987 171.854C126.625 172.247 122.186 176.534 122.186 176.534C122.186 176.534 124.818 173.336 122.179 170.832C119.542 168.33 114.445 171.935 114.445 171.935C111.982 165.967 104.977 163.95 96.6696 171.752C93.4466 174.782 90.7971 178.344 88.7678 181.57L88.7679 181.561Z" fill="url(#paint7_linear_0_737)"/>
<path style="mix-blend-mode:screen" opacity="0.8" d="M310.181 110.749C310.181 110.749 317.296 109.382 316.072 114.723C316.072 114.723 317.666 113.184 318.764 114.321C319.861 115.457 318.458 116.665 318.458 116.665C318.458 116.665 318.159 114.61 314.168 116.856C314.168 116.856 315.487 113.97 313.722 112.747C311.957 111.525 310.179 110.751 310.179 110.751L310.181 110.749Z" fill="url(#paint8_linear_0_737)"/>
<path style="mix-blend-mode:screen" opacity="0.8" d="M286.792 105.351C287.62 104.992 293.349 104.73 295.032 111.013C295.032 111.013 298.989 107.192 302.393 108.591C305.798 109.99 305.116 114.6 305.116 114.6C305.116 114.6 303.29 109.775 298.926 111.205C294.562 112.634 292.233 113.569 292.233 113.569C292.233 113.569 293.354 110.93 291.217 108.108C289.078 105.287 286.794 105.349 286.794 105.349L286.792 105.351Z" fill="url(#paint9_linear_0_737)"/>
<path style="mix-blend-mode:screen" opacity="0.8" d="M248.389 105.183C248.389 105.183 255.076 103.296 255.21 112.246C255.21 112.246 259.904 108.296 261.706 111.831C263.504 115.366 261.741 119.01 261.741 119.01C261.741 119.01 261.839 114.189 259.68 113.2C257.52 112.212 252.104 114.956 252.104 114.956C252.104 114.956 253.208 111.542 251.358 110.842C249.506 110.14 245.623 110.829 245.623 110.829C245.623 110.829 249.554 107.076 248.389 105.183Z" fill="url(#paint10_linear_0_737)"/>
<path style="mix-blend-mode:screen" opacity="0.8" d="M206.812 117.519C206.086 117.35 213.979 115.137 215.11 119.463C216.241 123.788 214.085 127.483 214.085 127.483C214.085 127.483 214.014 119.203 206.812 117.519Z" fill="url(#paint11_linear_0_737)"/>
<path style="mix-blend-mode:screen" opacity="0.8" d="M196.494 121.477C196.494 121.477 199.915 119.985 201.829 122.236C203.84 124.601 202.716 126.78 202.716 126.78C202.716 126.78 204.596 124.473 206.942 125.839C208.924 126.995 209.47 130.584 209.47 130.584C209.47 130.584 207.616 127.834 205.195 127.526C204.233 127.404 200.872 129.72 200.872 129.72C200.872 129.72 201.588 127.052 200.293 124.554C199.039 122.128 196.494 121.477 196.494 121.477Z" fill="url(#paint12_linear_0_737)"/>
<path style="mix-blend-mode:screen" opacity="0.8" d="M189.14 140.489C189.14 140.489 194.417 140.18 194.768 145.406C194.768 145.406 197.228 145.521 196.873 148.497C196.873 148.497 195.094 145.896 192.027 147.431C192.027 147.431 193.679 142.151 189.138 140.487L189.14 140.489Z" fill="url(#paint13_linear_0_737)"/>
<path style="mix-blend-mode:screen" opacity="0.8" d="M179.043 149.155C179.043 149.155 182.898 146.916 183.903 148.872C184.91 150.826 183.452 153.721 183.452 153.721C183.452 153.721 186.147 151.318 187.152 152.142C188.156 152.967 184.478 158.126 184.478 158.126C184.478 158.126 186.774 158.983 186.365 160.991C186.365 160.991 184.325 158.421 181.618 159.57C181.618 159.57 184.95 156.335 182.55 155.219C182.55 155.219 183.483 150.411 179.041 149.153L179.043 149.155Z" fill="url(#paint14_linear_0_737)"/>
<path style="mix-blend-mode:multiply" opacity="0.5" d="M69.2087 242.989C69.2087 242.989 63.8164 248.382 60.7547 243.929C57.693 239.475 58.9331 236.583 58.9331 236.583C58.9331 236.583 53.7475 239.248 51.9732 238.164C50.1989 237.08 50.081 234.284 50.081 234.284C50.081 234.284 52.7248 237.762 57.7515 234.758C62.7761 231.752 63.6328 231.024 63.6328 231.024C63.6328 231.024 60.8835 242.797 69.2043 242.989L69.2087 242.989Z" fill="url(#paint15_linear_0_737)"/>
<path style="mix-blend-mode:multiply" opacity="0.5" d="M28.1774 303.846C28.1774 303.846 23.7984 305.571 20.3854 301.256C20.3854 301.256 19.6138 307.026 23.5278 308.181C27.4417 309.335 28.7165 308.16 28.7165 308.16C28.7165 308.16 28.6182 314.915 31.8967 314.231C31.8967 314.231 29.8662 312.685 30.7555 308.414C30.7555 308.414 28.4539 307.713 28.1752 303.844L28.1774 303.846Z" fill="url(#paint16_linear_0_737)"/>
<path style="mix-blend-mode:multiply" opacity="0.5" d="M1.21033 384.098C1.21033 384.098 -5.33483 385.844 -6.40433 380.08C-6.40433 380.08 -3.86019 383.248 1.21033 384.098Z" fill="url(#paint17_linear_0_737)"/>
<path style="mix-blend-mode:multiply" opacity="0.5" d="M16.5622 382.202C16.5622 382.202 11.6857 386.436 7.84952 382.27C4.01335 378.104 4.54323 373.978 4.54323 373.978C4.54323 373.978 8.55239 383.083 16.5622 382.202Z" fill="url(#paint18_linear_0_737)"/>
<defs>
<linearGradient id="paint0_linear_0_737" x1="52.0157" y1="389.057" x2="-41.271" y2="292.459" gradientUnits="userSpaceOnUse">
<stop stop-color="#7DE587"/>
<stop offset="1" stop-color="#A2FF81"/>
</linearGradient>
<linearGradient id="paint1_linear_0_737" x1="-34.1158" y1="361.811" x2="311.438" y2="106.759" gradientUnits="userSpaceOnUse">
<stop stop-color="#CAC7D4"/>
<stop offset="1" stop-color="#E3DDE0"/>
</linearGradient>
<linearGradient id="paint2_linear_0_737" x1="223.847" y1="112.522" x2="233.989" y2="158.487" gradientUnits="userSpaceOnUse">
<stop stop-color="white"/>
<stop offset="1" stop-color="#78CE7B"/>
</linearGradient>
<linearGradient id="paint3_linear_0_737" x1="203.412" y1="169.516" x2="144.262" y2="144.141" gradientUnits="userSpaceOnUse">
<stop stop-color="white"/>
<stop offset="1" stop-color="#7FCE78"/>
</linearGradient>
<linearGradient id="paint4_linear_0_737" x1="61.4618" y1="290.954" x2="-23.7661" y2="271.942" gradientUnits="userSpaceOnUse">
<stop stop-color="white"/>
<stop offset="1" stop-color="#7FCE78"/>
</linearGradient>
<linearGradient id="paint5_linear_0_737" x1="10.3301" y1="381.435" x2="23.4447" y2="418.263" gradientUnits="userSpaceOnUse">
<stop stop-color="white"/>
<stop offset="1" stop-color="#78CE7B"/>
</linearGradient>
<linearGradient id="paint6_linear_0_737" x1="10.7735" y1="362.344" x2="21.2551" y2="368.554" gradientUnits="userSpaceOnUse">
<stop stop-color="white"/>
<stop offset="1" stop-color="#7FCE78"/>
</linearGradient>
<linearGradient id="paint7_linear_0_737" x1="125.239" y1="202.306" x2="95.4337" y2="173.131" gradientUnits="userSpaceOnUse">
<stop stop-color="white"/>
<stop offset="1" stop-color="#7ACE78"/>
</linearGradient>
<linearGradient id="paint8_linear_0_737" x1="317.967" y1="117.143" x2="311.015" y2="109.944" gradientUnits="userSpaceOnUse">
<stop stop-color="#FFFCF5"/>
<stop offset="1" stop-color="#E6DBDB"/>
</linearGradient>
<linearGradient id="paint9_linear_0_737" x1="302.962" y1="116.681" x2="289.497" y2="102.738" gradientUnits="userSpaceOnUse">
<stop stop-color="#FFFCF5"/>
<stop offset="1" stop-color="#E6DBDB"/>
</linearGradient>
<linearGradient id="paint10_linear_0_737" x1="261.452" y1="119.289" x2="248.1" y2="105.463" gradientUnits="userSpaceOnUse">
<stop stop-color="#FFFCF5"/>
<stop offset="1" stop-color="#E6DBDB"/>
</linearGradient>
<linearGradient id="paint11_linear_0_737" x1="216.502" y1="125.149" x2="207.968" y2="116.312" gradientUnits="userSpaceOnUse">
<stop stop-color="#FFFCF5"/>
<stop offset="1" stop-color="#E6DBDB"/>
</linearGradient>
<linearGradient id="paint12_linear_0_737" x1="208.033" y1="131.972" x2="197.221" y2="120.775" gradientUnits="userSpaceOnUse">
<stop stop-color="#FFFCF5"/>
<stop offset="1" stop-color="#E6DBDB"/>
</linearGradient>
<linearGradient id="paint13_linear_0_737" x1="196.602" y1="148.763" x2="188.867" y2="140.753" gradientUnits="userSpaceOnUse">
<stop stop-color="#FFFCF5"/>
<stop offset="1" stop-color="#E6DBDB"/>
</linearGradient>
<linearGradient id="paint14_linear_0_737" x1="187.907" y1="159.501" x2="178.46" y2="149.719" gradientUnits="userSpaceOnUse">
<stop stop-color="#FFFCF5"/>
<stop offset="1" stop-color="#E6DBDB"/>
</linearGradient>
<linearGradient id="paint15_linear_0_737" x1="80.4564" y1="214.28" x2="41.5857" y2="259.807" gradientUnits="userSpaceOnUse">
<stop stop-color="white"/>
<stop offset="1" stop-color="#84CE78"/>
</linearGradient>
<linearGradient id="paint16_linear_0_737" x1="-0.341326" y1="321.99" x2="20.677" y2="310.713" gradientUnits="userSpaceOnUse">
<stop stop-color="white"/>
<stop offset="1" stop-color="#7ACE78"/>
</linearGradient>
<linearGradient id="paint17_linear_0_737" x1="-10.0699" y1="391.281" x2="-1.56753" y2="380.814" gradientUnits="userSpaceOnUse">
<stop stop-color="white"/>
<stop offset="1" stop-color="#7ACE78"/>
</linearGradient>
<linearGradient id="paint18_linear_0_737" x1="16.0206" y1="370.275" x2="5.45789" y2="385.394" gradientUnits="userSpaceOnUse">
<stop stop-color="white"/>
<stop offset="1" stop-color="#84CE78"/>
</linearGradient>
</defs>
</svg>
