<svg width="382" height="339" viewBox="0 0 382 339" fill="none" xmlns="http://www.w3.org/2000/svg">
<path d="M109.463 263.857C109.463 263.857 110.583 269.75 105.514 270.978C100.446 272.209 96.4403 266.45 102.083 262.351C102.083 262.351 100.298 262.175 97.802 260.555C97.802 260.555 97.6545 264.017 95.8296 266.554C95.0765 267.602 94.032 268.493 92.5959 268.915C92.5959 268.915 96.0707 269.826 96.4118 272.358C96.7551 274.889 88.8366 286.365 83.5303 276.974C83.5303 276.974 83.4083 280.007 80.3531 280.589C77.2996 281.173 74.7226 278.302 76.4738 275.232C76.4738 275.232 72.9561 278.605 68.5989 277.847C68.5989 277.847 68.8478 280.935 65.7319 281.892C62.6161 282.849 61.2664 282.357 61.2664 282.357C61.2664 282.357 60.8602 286.387 58.5182 289.438C58.0465 290.053 57.4929 290.631 56.85 291.123C56.85 291.123 60.5097 290.919 62.2931 293.383C63.7681 295.42 63.3687 298.933 61.2844 301.47C60.8495 302.002 60.3377 302.491 59.7561 302.914C56.393 305.358 51.6632 304.543 50.1117 302.399C50.1117 302.399 46.379 308.219 42.3924 306.371C42.3924 306.371 45.2016 310.708 41.1699 313.145C37.1404 315.581 30.1301 314.134 29.7393 307.878C29.7393 307.878 25.3968 311.487 22.3058 307.213C19.2092 302.938 23.6898 299.52 23.6898 299.52C23.6898 299.52 15.8119 298.701 17.3749 292.169C18.4456 287.698 22.9153 286.735 26.3775 287.03C26.3917 287.029 26.3979 287.028 26.3979 287.028C27.9808 287.163 29.3529 287.559 30.0876 288.002C30.0876 288.002 31.6294 285.246 33.7575 284.681C35.8856 284.116 37.5689 284.841 37.5689 284.841C37.5689 284.841 37.6543 284.245 38.002 283.393C38.002 283.393 38.002 283.393 38.0087 283.388C38.5802 281.974 39.8614 279.862 42.6292 278.566C42.6292 278.566 37.559 277.509 38.1296 272.35C38.4251 269.669 40.2335 269.073 41.9001 269.121C43.3642 269.164 44.7167 269.697 44.8485 269.75L44.8581 269.753C44.8581 269.753 44.049 265.435 47.7544 263.235C47.7544 263.235 43.0842 259.759 45.9209 255.902C45.9209 255.902 41.6011 254.158 43.3981 248.876C43.3969 248.87 43.3974 248.866 43.3974 248.866C43.5154 248.514 43.6632 248.15 43.8396 247.766C46.6735 241.621 52.9679 240.48 55.5104 242.394C58.0551 244.306 56.9103 248.899 56.9103 248.899C56.9103 248.899 59.6832 246.557 62.7091 248.448C62.7091 248.448 63.9655 247.21 66.0425 248.481C66.0425 248.481 66.7846 245.162 71.4655 243.967C76.1481 242.774 78.8308 247.854 78.8308 247.854C78.8308 247.854 78.8296 247.848 78.8301 247.844C78.8495 247.679 79.192 245.007 81.7977 244.062C84.4873 243.09 86.6206 246.035 86.6206 246.035C86.6206 246.035 87.4654 245.257 88.9539 244.911C88.9539 244.911 88.1448 240.593 90.5381 238.526C92.9314 236.459 95.0851 237.944 95.0851 237.944C95.0851 237.944 95.7745 233.141 100.168 231.587C104.56 230.031 105.215 236.422 105.215 236.422C105.215 236.422 107.244 234.498 109.598 234.702L109.593 234.696C109.558 234.499 108.947 231.395 110.365 229.515C111.831 227.575 114.374 228.344 114.374 228.344C114.374 228.344 114.372 228.338 114.371 228.336C114.336 228.181 113.748 225.54 115.705 224.543C115.879 224.453 116.052 224.396 116.228 224.359C118.084 223.963 119.933 226.266 119.933 226.266C119.933 226.266 120.751 224.037 122.504 223.417C122.504 223.417 120.302 221.745 120.364 217.56C120.423 213.375 124.017 210.871 124.017 210.871C124.017 210.871 119.848 206.487 123.332 202.757C126.814 199.028 130.783 201.921 130.783 201.921C130.783 201.921 131.536 195.486 136.937 193.958C136.937 193.958 133.611 191.036 135.176 186.953C136.745 182.87 143.193 178.511 148.199 185.121C148.199 185.121 149.337 184.405 151.673 185.652C151.673 185.652 152.784 182.009 156.011 181.734C159.235 181.465 160.198 184.471 160.198 184.471C160.198 184.471 162.067 182.024 164.602 181.707C164.602 181.707 164.156 178.652 166.511 175.96C168.867 173.268 172.164 173.707 172.164 173.707C172.164 173.707 170.726 170.499 173.204 167.825C175.682 165.152 178.363 166.587 178.363 166.587C178.363 166.587 178.102 162.851 181.129 161.088C181.665 160.773 182.224 160.645 182.783 160.645C185.362 160.639 187.87 163.386 187.87 163.386C187.87 163.386 189.107 157.475 193.93 157.126C193.827 157.082 191.261 155.969 191.44 153.379C191.624 150.738 194.798 148.868 197.577 150.121C197.577 150.121 196 147.178 198.743 145.023C198.743 145.023 194.536 144.702 193.428 141.034C192.318 137.371 195.744 133.109 200.573 132.002C205.399 130.892 207.349 135.72 207.349 135.72C207.349 135.72 209.805 128.592 215.872 126.911C221.937 125.227 226.687 129.192 226.687 129.192C226.687 129.192 228.596 124.207 233.142 124.39C233.142 124.39 233.224 120.844 235.983 119.167C238.742 117.491 241.091 119.054 241.091 119.054C241.091 119.054 241.602 114.429 244.393 115.235C247.186 116.042 246.018 119.615 246.018 119.615C246.018 119.615 249.305 118.208 252.337 120.259C252.337 120.259 253.533 116.119 257.007 116.65C257.007 116.65 255.695 114.988 255.382 112.27C255.069 109.552 258.086 108.995 259.07 110.353C259.07 110.353 261.219 106.611 264.684 106.821C264.684 106.821 262.883 101.589 265.277 98.6503C267.673 95.71 270.478 98.3611 270.848 99.9426C270.848 99.9426 272.747 96.1634 276.399 96.022C276.399 96.022 274.142 93.5188 275.972 91.3164C277.801 89.1179 281.636 90.9101 281.636 90.9101C281.636 90.9101 281.879 85.6092 287.409 84.0987C287.409 84.0987 287.398 82.2514 289.321 81.4016C289.321 81.4016 285.821 78.5474 288.994 75.1528C290.049 74.0217 291.205 73.4666 292.307 73.3412C294.523 73.0878 296.541 74.551 297.184 76.5597C297.184 76.5597 297.399 72.5894 300.965 72.177C304.457 71.7762 306.236 75.4393 306.312 75.5928C306.291 75.4356 305.906 72.3077 308.667 70.6188C311.497 68.8898 313.182 69.8445 313.182 69.8445C313.182 69.8445 310.009 66.3753 312.333 62.7236C314.656 59.0718 318.719 61.7883 318.318 63.8229C318.318 63.8229 320.219 61.5724 322.162 62.123C322.162 62.123 319.151 59.1849 320.941 56.4697C322.727 53.754 326.697 55.8852 326.731 57.6046C326.731 57.6046 328.383 55.3133 329.967 56.1275C329.967 56.1275 329.84 53.0576 332.352 52.1033C334.863 51.1508 336.35 53.6653 336.35 53.6653C336.35 53.6653 337.836 48.5525 342.529 49.3957C342.529 49.3957 343.439 45.4657 346.072 43.7701C348.707 42.0727 351.612 44.1047 351.612 44.1047C351.612 44.1047 351.393 38.9231 357.521 38.0121C357.521 38.0121 359.636 34.1855 362.467 35.6424C365.242 37.0648 362.352 41.3699 359.228 40.3692C359.228 40.3692 360.664 42.9239 357.723 44.2423C357.723 44.2423 358.199 46.722 355.407 48.8089C352.615 50.8958 349.899 49.4342 349.899 49.4342C349.899 49.4342 348.088 54.0191 343.596 54.6717C343.703 54.7303 346.991 56.4811 345.302 59.3166C343.583 62.2007 340.024 62.5436 338.485 61.1039C338.485 61.1039 337.074 65.7853 333.338 65.8827C333.338 65.8827 335.121 68.3471 332.255 70.1041C329.388 71.8588 327.371 71.362 327.371 71.362C327.371 71.362 327.419 73.9427 324.194 74.9771C324.194 74.9771 327.017 77.5037 323.066 80.0489C319.115 82.5941 315.699 79.0226 315.699 79.0226C315.699 79.0226 313.297 80.2788 310.9 79.4849C310.9 79.4849 310.373 83.1017 306.807 84.1187C306.807 84.1187 308.658 87.3764 305.229 90.9644C301.942 94.402 298.017 93.0151 298.017 93.0151C298.017 93.0151 296.905 94.1939 295.142 94.8755C295.142 94.8755 295.137 94.879 295.133 94.8785C294.115 95.2727 292.875 95.4987 291.508 95.2338C291.508 95.2338 292.251 96.7159 290.205 98.6925C290.205 98.6925 292.156 97.2734 294.097 98.8079C296.037 100.342 290.428 108.832 285.915 104.426C285.915 104.426 284.369 106.858 281.826 106.094C281.826 106.094 281.421 107.371 280.118 108.314C280.118 108.314 284.209 106.649 284.367 111.44C284.526 116.231 272.79 120.833 268.976 116.247C268.976 116.247 267.122 118.885 263.264 119.458C263.728 119.411 266.304 119.272 266.094 122.1C265.863 125.211 260.979 127.614 258.716 124.027C258.716 124.027 257.244 125.423 254.498 124.149C254.498 124.149 253.601 127.255 249.931 128.125C250.07 128.123 253.343 128.143 252.1 131.125C250.829 134.173 244.088 136.293 241.125 134.029C241.125 134.029 239.205 138.696 236.369 139.12L236.419 139.134C236.718 139.221 238.334 139.796 239.117 142.114C239.819 144.204 238.484 145.928 238.484 145.928C238.484 145.928 242.052 145.717 242.936 149.67C243.829 153.656 238.645 158.73 234.753 158.614C233.054 158.566 231.931 157.944 231.187 157.181C231.187 157.181 231.186 157.179 231.184 157.176C229.869 155.815 229.751 153.975 229.751 153.975C229.751 153.975 227.799 154.382 226.686 153.192L226.686 153.206C226.722 153.506 227.24 158.503 224.038 160.512C220.838 162.52 217.93 160.632 217.752 160.515C217.752 160.515 217.747 160.509 217.745 160.506C217.745 160.506 217.175 165.665 213.671 167.227C210.168 168.792 208.431 168.45 208.431 168.45C208.431 168.45 209.44 171.446 207.394 173.422C207.394 173.422 209.829 173.126 210.078 175.069C210.328 177.014 205.228 180.718 202.375 179.519C199.606 178.359 199.98 176.373 200.006 176.254C199.916 176.392 197.697 179.767 195.018 179.876C195.018 179.876 197.086 181.56 196.62 183.539C196.068 185.901 189.141 191.424 184.268 182.865C184.268 182.865 183.245 184.426 181.123 185.15L181.134 185.155C181.36 185.292 185.048 187.575 182.569 190.805C180.011 194.135 176.555 192.559 176.555 192.559C176.555 192.559 176.835 195.462 174.542 197.781C174.542 197.781 176.651 196.577 177.536 198.713C178.421 200.848 174.935 205.181 172.034 202.549C172.034 202.549 170.593 206.047 166.284 205.582C161.974 205.115 159.956 202.332 160.498 200.792C160.498 200.792 156.662 202.123 154.401 201.06C154.401 201.06 155.328 202.192 155.695 203.686C156.126 205.434 155.794 207.681 152.346 209.196C152.346 209.196 153.867 211.983 150.86 214.003C150.222 214.432 149.605 214.768 149.025 215.036C146.857 216.034 145.224 216.052 145.224 216.052C145.224 216.052 147.454 221.876 143.362 224.685C143.091 224.872 142.826 225.04 142.563 225.193C142.563 225.193 142.563 225.192 142.552 225.197C138.87 227.358 136.2 226.454 136.2 226.454C136.2 226.454 136.792 229.787 135.149 231.633C135.149 231.633 137.489 230.749 138.793 233.236C139.451 234.49 138.817 236.803 137.169 238.831C135.542 240.828 132.929 242.548 129.591 242.704C129.68 242.758 129.774 242.813 129.859 242.867C130.742 243.444 133.353 245.46 131.543 248.148C129.389 251.348 124.767 250.455 124.767 250.455C124.767 250.455 124.016 253.554 121.825 256.212C121.245 256.918 120.56 257.596 119.763 258.177C119.763 258.177 122.506 258.308 121.935 261.176C121.364 264.045 115.163 266.916 113.16 263.464C113.16 263.464 111.671 264.382 109.47 263.856L109.463 263.857Z" fill="url(#paint0_linear_0_779)"/>
<path style="mix-blend-mode:multiply" opacity="0.5" d="M171.903 202.645C171.903 202.645 170.461 206.145 166.152 205.679C161.841 205.212 159.823 202.428 160.364 200.888C160.364 200.888 156.528 202.219 154.266 201.156C154.266 201.156 155.193 202.288 155.561 203.783C155.561 203.783 153.984 208.264 149.756 204.985C145.741 201.874 147.061 198.828 147.205 198.527C145.486 201.874 139.668 203.161 139.944 199.207C140.215 195.316 145.461 194.114 145.657 194.07C145.548 194.045 143.337 193.53 142.715 189.996C142.077 186.372 148.089 185.218 148.089 185.218C148.089 185.218 149.227 184.502 151.563 185.749C151.563 185.749 152.675 182.105 155.902 181.83C159.127 181.56 160.09 184.567 160.09 184.567C160.09 184.567 161.96 182.12 164.495 181.803C164.495 181.803 164.048 178.747 166.405 176.055C168.761 173.362 172.058 173.8 172.058 173.8C172.058 173.8 170.62 170.592 173.099 167.917C175.577 165.243 178.259 166.679 178.259 166.679C178.259 166.679 177.997 162.942 181.025 161.179C181.561 160.863 182.12 160.735 182.679 160.736C185.258 160.729 187.767 163.477 187.767 163.477C187.767 163.477 189.005 157.565 193.828 157.215C193.725 157.171 191.159 156.058 191.338 153.467C191.522 150.826 194.696 148.956 197.476 150.208C197.476 150.208 195.899 147.265 198.642 145.109C198.642 145.109 194.435 144.788 193.326 141.12C192.216 137.455 195.643 133.192 200.472 132.084C205.3 130.974 207.249 135.803 207.249 135.803C207.249 135.803 209.706 128.674 215.775 126.992C221.841 125.308 226.591 129.274 226.591 129.274C226.591 129.274 228.501 124.288 233.048 124.471C233.048 124.471 233.13 120.924 235.889 119.247C238.649 117.569 240.998 119.134 240.998 119.134C240.998 119.134 241.509 114.507 244.301 115.313C247.094 116.121 245.926 119.695 245.926 119.695C245.926 119.695 249.214 118.287 252.246 120.339C252.246 120.339 253.442 116.198 256.917 116.729C256.917 116.729 255.604 115.066 255.291 112.347C254.978 109.629 257.996 109.072 258.981 110.43C258.981 110.43 261.129 106.687 264.595 106.897C264.595 106.897 262.794 101.664 265.188 98.7242C267.585 95.7832 270.39 98.4349 270.76 100.017C270.76 100.017 272.66 96.2367 276.312 96.0953C276.312 96.0953 274.055 93.5914 275.885 91.3884C277.715 89.1894 281.55 90.982 281.55 90.982C281.55 90.982 281.794 85.6798 287.325 84.1688C287.325 84.1688 287.313 82.321 289.237 81.471C289.237 81.471 285.736 78.6161 288.91 75.2205C289.965 74.0891 291.121 73.5339 292.223 73.4085C294.44 73.155 296.458 74.6185 297.101 76.6278C297.101 76.6278 297.316 72.6565 300.883 72.244C304.376 71.843 306.155 75.5071 306.231 75.6606C306.209 75.5034 305.825 72.3747 308.586 70.6854C311.416 68.9559 313.102 69.9108 313.102 69.9108C313.102 69.9108 309.929 66.4408 312.253 62.7881C314.576 59.1354 318.64 61.8526 318.239 63.8877C318.239 63.8877 320.14 61.6366 322.084 62.1873C322.084 62.1873 319.072 59.2485 320.862 56.5325C322.649 53.8161 326.619 55.9479 326.654 57.6677C326.654 57.6677 328.306 55.3758 329.89 56.1902C329.89 56.1902 329.763 53.1195 332.276 52.165C334.787 51.2122 336.274 53.7274 336.274 53.7274C336.274 53.7274 337.76 48.6133 342.455 49.4567C342.455 49.4567 343.365 45.5256 345.998 43.8296C348.634 42.1318 351.539 44.1643 351.539 44.1643C351.539 44.1643 351.321 38.9813 357.45 38.07C357.45 38.07 359.565 34.2425 362.396 35.6998C365.172 37.1225 362.281 41.4287 359.157 40.4278C359.157 40.4278 360.593 42.9832 357.651 44.3019C357.651 44.3019 358.127 46.7823 355.335 48.8697C352.542 50.9572 349.826 49.4952 349.826 49.4952C349.826 49.4952 348.015 54.0813 343.522 54.734C343.629 54.7926 346.917 56.544 345.228 59.3802C343.509 62.2651 339.949 62.608 338.41 61.1679C338.41 61.1679 336.999 65.8506 333.262 65.948C333.262 65.948 335.045 68.4131 332.179 70.1705C329.311 71.9257 327.294 71.4288 327.294 71.4288C327.294 71.4288 327.341 74.0101 324.116 75.0448C324.116 75.0448 326.94 77.5721 322.988 80.118C319.036 82.6638 315.62 79.0914 315.62 79.0914C315.62 79.0914 313.217 80.3479 310.82 79.5538C310.82 79.5538 310.293 83.1716 306.726 84.1888C306.726 84.1888 308.578 87.4474 305.148 91.0363C301.861 94.4749 297.934 93.0876 297.934 93.0876C297.934 93.0876 296.822 94.2667 295.058 94.9484C295.058 94.9484 295.054 94.9519 295.05 94.9514C294.032 95.3458 292.792 95.5718 291.424 95.3068C291.424 95.3068 292.167 96.7893 290.121 98.7664C290.121 98.7664 292.073 97.347 294.013 98.8819C295.954 100.417 290.344 108.909 285.83 104.502C285.83 104.502 284.283 106.935 281.74 106.17C281.74 106.17 281.335 107.447 280.032 108.391C280.032 108.391 284.124 106.725 284.282 111.517C284.441 116.31 272.703 120.913 268.888 116.326C268.888 116.326 267.034 118.964 263.175 119.538C263.639 119.491 266.215 119.351 266.005 122.18C265.775 125.292 260.89 127.695 258.626 124.108C258.626 124.108 257.154 125.504 254.408 124.23C254.408 124.23 253.51 127.336 249.84 128.207C249.979 128.205 253.252 128.225 252.008 131.207C250.738 134.257 243.996 136.377 241.032 134.112C241.032 134.112 239.111 138.78 236.275 139.205L236.325 139.219C236.624 139.306 238.241 139.881 239.024 142.2C239.726 144.29 238.39 146.014 238.39 146.014C238.39 146.014 241.959 145.803 242.844 149.757C243.736 153.744 238.551 158.82 234.659 158.704C232.96 158.656 231.836 158.033 231.092 157.27C231.092 157.27 231.091 157.269 231.089 157.266C229.773 155.904 229.656 154.064 229.656 154.064C229.656 154.064 227.703 154.47 226.591 153.28L226.591 153.295C226.626 153.594 227.144 158.593 223.942 160.603C220.741 162.611 217.833 160.722 217.655 160.605C217.655 160.605 217.65 160.599 217.648 160.597C217.648 160.597 217.077 165.756 213.573 167.319C210.07 168.884 208.332 168.542 208.332 168.542C208.332 168.542 209.341 171.539 207.295 173.516C207.295 173.516 209.731 173.219 209.979 175.163C210.23 177.109 205.128 180.813 202.275 179.615C199.506 178.454 199.88 176.468 199.905 176.348C199.815 176.486 197.596 179.862 194.917 179.971C194.917 179.971 196.985 181.656 196.519 183.635C195.967 185.998 189.039 191.522 184.165 182.961C184.165 182.961 183.142 184.522 181.019 185.246L181.03 185.252C181.256 185.389 184.945 187.673 182.465 190.903C179.907 194.234 176.45 192.658 176.45 192.658C176.45 192.658 176.731 195.561 174.437 197.881C174.437 197.881 176.546 196.677 177.431 198.813C178.316 200.949 174.83 205.283 171.928 202.65L171.903 202.645Z" fill="url(#paint1_linear_0_779)"/>
<path style="mix-blend-mode:multiply" opacity="0.5" d="M310.688 79.7125C310.688 79.7125 310.16 83.3344 306.59 84.3528C306.59 84.3528 308.443 87.615 305.011 91.2079C301.721 94.6504 297.791 93.2616 297.791 93.2616C297.791 93.2616 296.678 94.442 294.913 95.1245C294.913 95.1245 294.908 95.128 294.904 95.1276C293.148 95.5717 289.804 94.9748 289.531 92.0044C289.262 89.0344 292.489 88.7648 292.489 88.7648C289.197 85.5913 294.35 82.9359 294.35 82.9359C293.418 81.6491 294.552 80.1674 294.552 80.1674C293.334 80.6176 291.231 80.6172 290.144 79.1133C289.057 77.6094 289.772 74.482 292.082 73.5589C294.303 73.3034 296.323 74.7686 296.965 76.7802C296.965 76.7802 297.181 72.8043 300.751 72.3914C304.246 71.99 306.027 75.6582 306.103 75.8119C306.082 75.6545 305.697 72.5222 308.46 70.831C311.293 69.0996 312.98 70.0555 312.98 70.0555C312.98 70.0555 309.804 66.5816 312.13 62.9248C314.455 59.2679 318.522 61.9882 318.121 64.0256C318.121 64.0256 320.024 61.772 321.969 62.3233C321.969 62.3233 318.955 59.3812 320.747 56.6621C322.534 53.9426 326.508 56.0768 326.543 57.7986C326.543 57.7986 328.197 55.5041 329.781 56.3195C329.781 56.3195 329.655 53.2453 332.17 52.2897C334.682 51.3358 336.171 53.8538 336.171 53.8538C336.171 53.8538 337.658 48.7339 342.357 49.5783C342.357 49.5783 343.268 45.6428 345.903 43.9448C348.541 42.2451 351.449 44.2799 351.449 44.2799C351.449 44.2799 351.23 39.091 357.364 38.1788C357.364 38.1788 359.481 34.3468 362.315 35.8058C365.093 37.2301 362.199 41.5413 359.072 40.5392C359.072 40.5392 360.51 43.0975 357.565 44.4176C357.565 44.4176 358.042 46.9008 355.248 48.9906C352.453 51.0805 349.734 49.6168 349.734 49.6168C349.734 49.6168 347.921 54.2081 343.425 54.8616C343.532 54.9203 346.823 56.6736 345.132 59.513C343.411 62.4011 339.849 62.7445 338.309 61.3028C338.309 61.3028 336.896 65.9907 333.156 66.0882C333.156 66.0882 334.941 68.5561 332.073 70.3155C329.202 72.0727 327.184 71.5752 327.184 71.5752C327.184 71.5752 327.231 74.1595 324.003 75.1954C324.003 75.1954 326.829 77.7255 322.874 80.2742C318.918 82.8229 315.5 79.2465 315.5 79.2465C315.5 79.2465 313.095 80.5045 310.696 79.7095L310.688 79.7125Z" fill="url(#paint2_linear_0_779)"/>
<path style="mix-blend-mode:multiply" opacity="0.5" d="M258.641 124.134C258.641 124.134 257.167 125.534 254.415 124.256C254.415 124.256 253.516 127.37 249.839 128.243C249.979 128.241 253.258 128.261 252.012 131.25C250.739 134.306 243.985 136.431 241.016 134.162C241.016 134.162 239.092 138.84 236.251 139.266C236.251 139.266 233.721 140.123 233.205 136.889C233.205 136.889 230.723 142.629 226.869 139.365C223.031 136.116 226.074 131.928 228.889 132.125C228.614 132.101 227.041 131.853 226.562 129.314C226.562 129.314 228.475 124.316 233.03 124.5C233.03 124.5 233.112 120.945 235.877 119.263C238.641 117.582 240.994 119.15 240.994 119.15C240.994 119.15 241.506 114.513 244.303 115.32C247.1 116.13 245.931 119.712 245.931 119.712C245.931 119.712 249.224 118.302 252.261 120.358C252.261 120.358 253.46 116.207 256.941 116.739C256.941 116.739 255.626 115.073 255.312 112.348C254.999 109.623 258.022 109.065 259.008 110.426C259.008 110.426 261.16 106.674 264.632 106.885C264.632 106.885 262.828 101.639 265.227 98.6932C265.227 98.6932 263.946 102.576 268.064 104.828C268.064 104.828 266.572 105.749 267.257 107.381C267.257 107.381 262.364 109.79 265.148 112.03C267.926 114.267 270.653 110.493 270.397 109.203C270.474 109.375 272.429 113.686 276.378 111.352C280.407 108.97 276.937 105.859 276.937 105.859C276.937 105.859 280.238 106.906 281.797 106.157C281.797 106.157 281.394 107.435 280.089 108.381C280.089 108.381 284.187 106.712 284.346 111.515C284.505 116.319 272.747 120.932 268.925 116.335C268.925 116.335 267.067 118.979 263.202 119.554C263.667 119.507 266.247 119.367 266.037 122.202C265.806 125.321 260.913 127.73 258.645 124.135L258.641 124.134Z" fill="url(#paint3_linear_0_779)"/>
<path style="mix-blend-mode:multiply" opacity="0.5" d="M194.991 179.949C197.674 179.841 199.898 176.456 199.991 176.316C199.968 176.434 199.593 178.425 202.366 179.591C205.227 180.792 210.337 177.076 210.087 175.127C209.836 173.175 207.397 173.475 207.397 173.475C209.448 171.492 208.437 168.487 208.437 168.487C208.437 168.487 210.178 168.83 213.689 167.26C217.199 165.691 217.773 160.518 217.773 160.518C213.969 157.323 213.851 153.801 213.851 153.801C218.669 155.875 221.548 150.828 221.548 150.828C223.415 153.406 226.736 153.181 226.736 153.181C227.847 154.374 229.808 153.966 229.808 153.966C229.808 153.966 229.928 155.81 231.244 157.178C229.435 153.423 233.143 149.727 233.143 149.727C231.156 150.953 227.146 150.915 224.283 148.949C221.633 147.126 222.724 145.353 222.895 145.101C222.716 145.302 221.54 146.553 219.142 146.892C216.531 147.258 214.035 144.263 214.035 144.263C214.035 144.263 213.329 146.196 210.887 147.097C208.442 148.001 206.523 146.88 206.523 146.88C206.523 146.88 204.879 150.264 201.945 148.35C199.015 146.436 201.694 144.486 201.694 144.486C200.046 144.045 198.74 144.992 198.74 144.992C195.989 147.155 197.572 150.105 197.572 150.105C194.786 148.849 191.606 150.727 191.42 153.374C191.24 155.973 193.813 157.089 193.916 157.133C189.083 157.486 187.841 163.413 187.841 163.413C187.841 163.413 185.327 160.657 182.744 160.662C177.79 164.534 183.353 170.286 183.353 170.286C183.353 170.286 180.819 169.996 178.582 171.949C176.346 173.902 179.272 176.801 179.272 176.801C175.933 176.544 173.085 180.867 175.449 183.906C177.812 186.944 181.06 185.237 181.06 185.237C183.19 184.509 184.213 182.945 184.213 182.945C189.098 191.532 196.042 185.991 196.595 183.621C197.062 181.636 194.99 179.947 194.99 179.947L194.991 179.949ZM195.98 172.697C190.579 169.955 197.384 164.677 197.384 164.677C197.384 164.677 193.812 160.2 199.679 158.214C199.679 158.214 197.962 161.195 200.772 163.852C203.582 166.51 206.451 165.738 206.451 165.738C206.451 165.738 201.384 175.439 195.982 172.695L195.98 172.697Z" fill="url(#paint4_linear_0_779)"/>
<path style="mix-blend-mode:multiply" opacity="0.5" d="M143.482 224.7C143.209 224.888 142.943 225.057 142.679 225.21C142.679 225.21 142.679 225.21 142.668 225.215C142.416 225.291 138.007 226.582 137.034 223.827C136.03 220.991 139.214 218.797 139.214 218.797C139.214 218.797 134.045 220.386 134.637 216.834C135.227 213.281 139.58 212.405 139.58 212.405C137.705 209.812 141.389 206.171 146.586 208.966C151.726 211.724 149.228 214.927 149.17 215.001C146.993 216.004 145.353 216.022 145.353 216.022C145.353 216.022 147.592 221.876 143.484 224.698L143.482 224.7Z" fill="url(#paint5_linear_0_779)"/>
<path style="mix-blend-mode:multiply" opacity="0.5" d="M113.437 263.452C115.447 266.921 121.674 264.036 122.248 261.152C122.822 258.267 120.07 258.136 120.07 258.136C120.868 257.554 121.554 256.874 122.139 256.162C122.139 256.162 116.256 259.762 112.997 256.869C110.03 254.231 113.277 252.398 113.876 252.097C113.46 252.28 111.621 252.961 108.384 252.101C104.674 251.113 105.546 248.639 105.546 248.639C102.137 250.134 99.6423 244.383 103.035 242.408C106.43 240.434 109.654 243.515 109.654 243.515C105.743 237.646 109.865 234.531 109.865 234.531C107.498 234.323 105.462 236.26 105.462 236.26C105.462 236.26 104.802 229.831 100.392 231.398C95.9776 232.965 95.2856 237.79 95.2856 237.79C95.2856 237.79 93.126 236.298 90.7178 238.375C88.3135 240.454 89.1264 244.796 89.1264 244.796C87.6294 245.141 86.7824 245.925 86.7824 245.925C86.7824 245.925 84.6377 242.962 81.9358 243.939C79.3204 244.888 78.974 247.577 78.9564 247.744C78.9564 247.744 78.9598 247.749 78.9571 247.755C79.3635 252.972 73.9448 254.824 73.3885 255.002C73.7757 254.914 76.5134 254.377 79.2741 256.779C82.261 259.37 81.1203 262.701 81.1203 262.701C81.1203 262.701 84.8085 259.833 90.1247 260.128C95.442 260.43 96.0285 266.566 96.0285 266.566C97.8617 264.015 98.0098 260.534 98.0098 260.534C100.518 262.162 102.31 262.34 102.31 262.34C96.6442 266.459 100.666 272.252 105.759 271.013C110.852 269.777 109.727 263.852 109.727 263.852C111.939 264.377 113.434 263.458 113.434 263.458L113.437 263.452ZM92.5267 246.58C91.7375 244.565 93.2982 240.923 95.5499 241.253C97.5378 241.546 97.6146 246.564 96.9427 247.93C96.2669 249.296 93.3205 248.59 92.5267 246.58ZM101.214 256.442C99.4268 253.356 104.465 252.729 106.603 254.167C108.325 255.326 110.211 258.663 108.206 260.129C107.117 260.924 103.002 259.527 101.214 256.442Z" fill="url(#paint6_linear_0_779)"/>
<path style="mix-blend-mode:multiply" opacity="0.5" d="M129.802 242.773C125.944 240.426 126.121 236.228 126.121 236.228C129.359 238.602 133.408 239.876 137.415 238.875C135.781 240.884 133.154 242.614 129.801 242.771L129.802 242.773Z" fill="url(#paint7_linear_0_779)"/>
<path style="mix-blend-mode:multiply" opacity="0.5" d="M121.781 241.839C121.781 241.839 116.977 239.042 117.98 233.816C117.98 233.816 115.807 231.887 114.493 228.224C114.493 228.224 114.491 228.218 114.49 228.216C114.455 228.06 113.862 225.396 115.834 224.392C116.01 224.301 116.184 224.244 116.361 224.205C116.361 224.205 114.205 226.441 116.475 229.578C118.745 232.716 120.922 233.114 120.922 233.114C120.922 233.114 116.823 236.206 121.781 241.835L121.781 241.839Z" fill="url(#paint8_linear_0_779)"/>
<path style="mix-blend-mode:multiply" opacity="0.5" d="M50.4495 302.223C50.4495 302.223 46.6985 308.077 42.6924 306.219C42.6924 306.219 45.5154 310.581 41.4639 313.032C37.4147 315.482 30.37 314.027 29.9773 307.734C29.9773 307.734 25.6135 311.364 22.5074 307.066C19.3956 302.765 23.8982 299.327 23.8982 299.327C23.8982 299.327 15.9816 298.504 17.5523 291.934C18.6282 287.436 23.1199 286.468 26.5991 286.764C26.213 286.812 20.1907 287.633 22.3031 293.675C24.4885 299.917 33.0405 296.787 33.0405 296.787C32.7294 298.658 35.6917 301.602 39.3526 299.764C43.0135 297.925 40.9119 291.8 40.9119 291.8C45.9773 296.289 51.483 292.782 52.4165 292.126C51.6809 292.673 48.4008 295.487 51.6773 300.013C55.3426 305.079 61.6725 301.292 61.6725 301.292C61.2377 301.825 60.7234 302.317 60.1389 302.742C56.7593 305.201 52.0064 304.381 50.4472 302.224L50.4495 302.223Z" fill="url(#paint9_linear_0_779)"/>
<path style="mix-blend-mode:multiply" opacity="0.5" d="M80.6427 280.391C77.5732 280.979 74.9826 278.09 76.743 275.001C76.743 275.001 73.2068 278.395 68.8267 277.632C68.8267 277.632 69.0769 280.74 65.9447 281.702C62.8124 282.665 61.4557 282.17 61.4557 282.17C61.4557 282.17 61.0473 286.225 58.693 289.295C58.693 289.295 58.8671 280.435 50.7938 279.395C42.8696 278.375 38.2456 283.035 38.0734 283.209C38.6479 281.786 39.9358 279.662 42.7182 278.358C42.7182 278.358 37.6213 277.293 38.1949 272.103C38.492 269.405 40.3099 268.805 41.9852 268.854L44.9491 269.487L44.9588 269.49C44.9588 269.49 49.1747 275.778 54.2293 274.252C59.2857 272.728 60.4672 269.069 57.1293 266.067C53.7913 263.064 47.8686 262.929 47.8686 262.929C47.8686 262.929 43.1739 259.432 46.0255 255.55C46.0255 255.55 41.683 253.796 43.4894 248.481C43.5052 248.687 43.8395 252.502 48.4553 253.785C53.1972 255.109 57.075 248.503 57.075 248.503C57.075 248.503 59.8624 246.146 62.9042 248.049C62.9042 248.049 58.6806 249.572 59.6653 254.155C60.6499 258.738 67.2433 260.03 67.2433 260.03C67.2433 260.03 62.4174 263.02 64.4827 266.796C66.5481 270.573 74.9324 268.589 74.9324 268.589C74.9324 268.589 72.5129 272.146 74.9323 273.191C77.3517 274.235 79.6221 272.312 79.6221 272.312C79.6221 272.312 76.5749 276.611 80.644 280.398L80.6427 280.391Z" fill="url(#paint10_linear_0_779)"/>
<defs>
<linearGradient id="paint0_linear_0_779" x1="356.162" y1="44.0326" x2="19.7098" y2="302.246" gradientUnits="userSpaceOnUse">
<stop stop-color="#B4C8AA"/>
<stop offset="0.91" stop-color="#DDD8DC"/>
<stop offset="1" stop-color="white"/>
</linearGradient>
<linearGradient id="paint1_linear_0_779" x1="77.1388" y1="240.421" x2="367.883" y2="49.4025" gradientUnits="userSpaceOnUse">
<stop stop-color="white"/>
<stop offset="1" stop-color="#84CE78"/>
</linearGradient>
<linearGradient id="paint2_linear_0_779" x1="337.816" y1="79.9781" x2="323.722" y2="61.2252" gradientUnits="userSpaceOnUse">
<stop stop-color="white"/>
<stop offset="1" stop-color="#78CE81"/>
</linearGradient>
<linearGradient id="paint3_linear_0_779" x1="263.838" y1="135.556" x2="249.727" y2="116.785" gradientUnits="userSpaceOnUse">
<stop stop-color="white"/>
<stop offset="1" stop-color="#78CE7B"/>
</linearGradient>
<linearGradient id="paint4_linear_0_779" x1="210.759" y1="175.411" x2="196.639" y2="156.63" gradientUnits="userSpaceOnUse">
<stop stop-color="white"/>
<stop offset="1" stop-color="#78CE81"/>
</linearGradient>
<linearGradient id="paint5_linear_0_779" x1="134.83" y1="201.203" x2="146.959" y2="224.544" gradientUnits="userSpaceOnUse">
<stop stop-color="white"/>
<stop offset="1" stop-color="#7FCE78"/>
</linearGradient>
<linearGradient id="paint6_linear_0_779" x1="116.538" y1="284.92" x2="92.1035" y2="245.873" gradientUnits="userSpaceOnUse">
<stop stop-color="white"/>
<stop offset="1" stop-color="#7ACE78"/>
</linearGradient>
<linearGradient id="paint7_linear_0_779" x1="128.52" y1="234.452" x2="134.063" y2="241.824" gradientUnits="userSpaceOnUse">
<stop stop-color="white"/>
<stop offset="1" stop-color="#84CE78"/>
</linearGradient>
<linearGradient id="paint8_linear_0_779" x1="124.796" y1="237.695" x2="110.481" y2="225.959" gradientUnits="userSpaceOnUse">
<stop stop-color="white"/>
<stop offset="1" stop-color="#84CE78"/>
</linearGradient>
<linearGradient id="paint9_linear_0_779" x1="53.7847" y1="316.947" x2="26.1726" y2="286.78" gradientUnits="userSpaceOnUse">
<stop stop-color="white"/>
<stop offset="1" stop-color="#7FCE78"/>
</linearGradient>
<linearGradient id="paint10_linear_0_779" x1="77.5461" y1="295.133" x2="49.9267" y2="264.953" gradientUnits="userSpaceOnUse">
<stop stop-color="white"/>
<stop offset="1" stop-color="#78CE7B"/>
</linearGradient>
</defs>
</svg>
