<svg width="390" height="373" viewBox="0 0 390 373" fill="none" xmlns="http://www.w3.org/2000/svg">
<path d="M277.262 290.171C277.262 290.171 275.943 296.125 281.167 297.798C286.389 299.473 290.697 293.89 284.956 289.227C284.956 289.227 286.811 289.191 289.443 287.733C289.443 287.733 289.503 291.296 291.328 294.047C292.081 295.183 293.14 296.182 294.618 296.732C294.618 296.732 290.99 297.384 290.569 299.954C290.145 302.522 298.049 314.939 303.803 305.737C303.803 305.737 303.848 308.859 307.001 309.704C310.152 310.552 312.901 307.816 311.167 304.525C311.167 304.525 314.725 308.271 319.263 307.848C319.263 307.848 318.923 310.995 322.128 312.23C325.334 313.465 326.746 313.07 326.746 313.07C326.746 313.07 327.06 317.238 329.407 320.559C329.879 321.227 330.438 321.866 331.091 322.423C331.091 322.423 327.302 321.915 325.386 324.298C323.802 326.268 324.122 329.905 326.216 332.676C326.653 333.258 327.17 333.801 327.762 334.282C331.184 337.063 336.111 336.612 337.777 334.538C337.777 334.538 341.492 340.813 345.675 339.242C345.675 339.242 342.646 343.462 346.762 346.291C350.875 349.117 358.183 348.203 358.756 341.817C358.756 341.817 363.163 345.872 366.483 341.74C369.808 337.605 365.253 333.735 365.253 333.735C365.253 333.735 373.445 333.536 371.999 326.708C371.008 322.033 366.399 320.682 362.801 320.703C362.786 320.701 362.78 320.699 362.78 320.699C361.135 320.709 359.701 321.004 358.927 321.398C358.927 321.398 357.403 318.446 355.211 317.693C353.019 316.94 351.254 317.547 351.254 317.547C351.254 317.547 351.181 316.928 350.844 316.026C350.844 316.026 350.844 316.026 350.837 316.02C350.282 314.523 349.01 312.253 346.175 310.698C346.175 310.698 351.461 310.026 351.007 304.687C350.773 301.912 348.913 301.154 347.184 301.068C345.664 300.993 344.248 301.429 344.109 301.473L344.099 301.476C344.099 301.476 345.054 297.112 341.271 294.553C341.271 294.553 346.207 291.368 343.368 287.179C343.368 287.179 347.895 285.742 346.173 280.177C346.174 280.171 346.174 280.167 346.174 280.167C346.061 279.797 345.917 279.411 345.744 279.003C342.97 272.468 336.474 270.785 333.786 272.542C331.096 274.296 332.16 279.102 332.16 279.102C332.16 279.102 329.347 276.473 326.159 278.167C326.159 278.167 324.889 276.795 322.701 277.93C322.701 277.93 322.02 274.465 317.198 272.858C312.374 271.253 309.456 276.246 309.456 276.246C309.456 276.246 309.458 276.24 309.457 276.236C309.442 276.065 309.158 273.296 306.481 272.114C303.718 270.898 301.427 273.746 301.427 273.746C301.427 273.746 300.572 272.879 299.038 272.403C299.038 272.403 299.992 268.039 297.566 265.724C295.139 263.409 292.866 264.757 292.866 264.757C292.866 264.757 292.28 259.774 287.765 257.822C283.253 255.869 282.402 262.372 282.402 262.372C282.402 262.372 280.35 260.233 277.903 260.251L277.909 260.245C277.95 260.046 278.667 256.911 277.246 254.867C275.778 252.758 273.121 253.34 273.121 253.34C273.121 253.34 273.123 253.333 273.124 253.331C273.164 253.175 273.845 250.514 271.842 249.332C271.664 249.225 271.487 249.154 271.305 249.1C269.39 248.544 267.412 250.756 267.412 250.756C267.412 250.756 266.623 248.402 264.822 247.623C264.822 247.623 267.15 246.088 267.197 241.79C267.249 237.491 263.589 234.63 263.589 234.63C263.589 234.63 268.029 230.472 264.517 226.362C261.006 222.253 256.812 224.898 256.812 224.898C256.812 224.898 256.204 218.235 250.644 216.229C250.644 216.229 254.172 213.501 252.658 209.185C251.14 204.869 244.57 199.873 239.202 206.247C239.202 206.247 238.041 205.42 235.586 206.509C235.586 206.509 234.53 202.681 231.192 202.136C227.856 201.598 226.777 204.603 226.777 204.603C226.777 204.603 224.903 201.941 222.284 201.41C222.284 201.41 222.828 198.312 220.458 195.359C218.087 192.406 214.656 192.587 214.656 192.587C214.656 192.587 216.233 189.413 213.735 186.469C211.237 183.525 208.418 184.779 208.418 184.779C208.418 184.779 208.789 180.967 205.697 178.913C205.15 178.546 204.574 178.369 203.994 178.324C201.32 178.108 198.645 180.722 198.645 180.722C198.645 180.722 197.521 174.557 192.529 173.807C192.637 173.77 195.328 172.837 195.211 170.165C195.091 167.442 191.85 165.265 188.935 166.323C188.935 166.323 190.648 163.433 187.862 160.999C187.862 160.999 192.233 161.012 193.481 157.34C194.729 153.671 191.291 149.021 186.314 147.492C181.338 145.961 179.187 150.755 179.187 150.755C179.187 150.755 176.831 143.243 170.584 141.025C164.34 138.804 159.308 142.486 159.308 142.486C159.308 142.486 157.462 137.216 152.743 137.034C152.743 137.034 152.753 133.39 149.937 131.445C147.12 129.5 144.643 130.913 144.643 130.913C144.643 130.913 144.237 126.127 141.321 126.726C138.404 127.328 139.518 131.088 139.518 131.088C139.518 131.088 136.147 129.377 132.949 131.234C132.949 131.234 131.819 126.89 128.203 127.152C128.203 127.152 129.608 125.553 130.005 122.79C130.403 120.028 127.288 119.212 126.231 120.524C126.231 120.524 124.104 116.51 120.505 116.444C120.505 116.444 122.512 111.223 120.109 108.014C117.703 104.802 114.723 107.294 114.297 108.886C114.297 108.886 112.429 104.855 108.646 104.413C108.646 104.413 111.053 102.028 109.215 99.62C107.377 97.2159 103.352 98.7424 103.352 98.7424C103.352 98.7424 103.242 93.2846 97.5474 91.2851C97.5474 91.2851 97.609 89.3909 95.6368 88.3627C95.6368 88.3627 99.3429 85.7194 96.1438 81.9788C95.0795 80.7325 93.8959 80.0691 92.7565 79.8508C90.4649 79.4105 88.3332 80.7474 87.6134 82.7559C87.6134 82.7559 87.4964 78.6653 83.8095 77.9521C80.1989 77.2568 78.2562 80.87 78.1727 81.0212C78.1995 80.8617 78.682 77.6842 75.8646 75.727C72.9762 73.7231 71.2026 74.5653 71.2026 74.5653C71.2026 74.5653 74.586 71.2646 72.2745 67.3293C69.9629 63.394 65.6769 65.8503 66.0378 67.9701C66.0378 67.9701 64.1274 65.5068 62.0976 65.9135C62.0976 65.9135 65.2984 63.1444 63.5152 60.2133C61.736 57.282 57.5621 59.1454 57.4805 60.9065C57.4805 60.9065 55.8284 58.4215 54.1647 59.1279C54.1647 59.1279 54.3782 55.9889 51.7984 54.8055C49.2209 53.6241 47.6111 56.0827 47.6111 56.0827C47.6111 56.0827 46.2076 50.7168 41.3174 51.1999C41.3174 51.1999 40.4791 47.0942 37.7945 45.1405C35.1076 43.1849 32.0405 45.0331 32.0405 45.0331C32.0405 45.0331 32.406 39.7352 26.0758 38.3021C26.0758 38.3021 23.9852 34.2045 21.0105 35.4688C18.0946 36.7021 20.9769 41.3538 24.2427 40.5814C24.2427 40.5814 22.6852 43.0853 25.7003 44.6771C25.7003 44.6771 25.1397 47.1822 27.9791 49.5503C30.8184 51.9183 33.6738 50.6398 33.6738 50.6398C33.6738 50.6398 35.4291 55.4907 40.0697 56.5256C39.9572 56.577 36.5012 58.1057 38.1765 61.1519C39.8821 64.2505 43.5635 64.8918 45.1974 63.54C45.1974 63.54 46.5357 68.4574 50.4076 68.8612C50.4076 68.8612 48.4921 71.2443 51.4169 73.2799C54.3435 75.3133 56.448 74.9678 56.448 74.9678C56.448 74.9678 56.3298 77.6113 59.6459 78.9348C59.6459 78.9348 56.6509 81.2972 60.6801 84.2296C64.7093 87.1621 68.3466 83.7761 68.3466 83.7761C68.3466 83.7761 70.8046 85.2603 73.3107 84.6408C73.3107 84.6408 73.7608 88.3941 77.4315 89.7275C77.4315 89.7275 75.4243 92.9189 78.8841 96.8786C82.2005 100.673 86.3086 99.5692 86.3086 99.5692C86.3086 99.5692 87.4301 100.869 89.2403 101.712C89.2403 101.712 89.2449 101.716 89.249 101.715C90.2943 102.203 91.5739 102.535 92.9986 102.375C92.9986 102.375 92.1887 103.835 94.2572 106.029C94.2572 106.029 92.2717 104.414 90.2186 105.831C88.1654 107.247 93.7545 116.413 98.5528 112.26C98.5528 112.26 100.091 114.881 102.748 114.303C102.748 114.303 103.134 115.646 104.459 116.72C104.459 116.72 100.262 114.679 99.9693 119.581C99.6765 124.483 111.723 130.159 115.801 125.765C115.801 125.765 117.653 128.622 121.639 129.524C121.159 129.438 118.492 129.085 118.634 132.004C118.789 135.214 123.79 138.076 126.233 134.581C126.233 134.581 127.721 136.133 130.603 135.049C130.603 135.049 131.451 138.308 135.233 139.5C135.089 139.487 131.694 139.241 132.904 142.4C134.139 145.631 141.073 148.354 144.207 146.273C144.207 146.273 146.073 151.216 149.002 151.883L148.95 151.893C148.638 151.958 146.946 152.416 146.072 154.731C145.288 156.818 146.627 158.694 146.627 158.694C146.627 158.694 142.932 158.187 141.909 162.171C140.877 166.187 146.117 171.814 150.156 172.012C151.919 172.101 153.1 171.554 153.892 170.832C153.892 170.832 153.893 170.83 153.895 170.828C155.296 169.538 155.467 167.66 155.467 167.66C155.467 167.66 157.481 168.236 158.666 167.106L158.666 167.121C158.621 167.425 157.95 172.51 161.217 174.831C164.481 177.151 167.547 175.451 167.735 175.346C167.735 175.346 167.74 175.339 167.742 175.337C167.742 175.337 168.196 180.675 171.787 182.563C175.377 184.454 177.188 184.244 177.188 184.244C177.188 184.244 176.061 187.235 178.13 189.429C178.13 189.429 175.613 188.927 175.303 190.9C174.991 192.875 180.182 197.09 183.172 196.092C186.074 195.127 185.739 193.06 185.716 192.935C185.806 193.084 188.017 196.727 190.791 197.057C190.791 197.057 188.602 198.616 189.032 200.684C189.541 203.153 196.576 209.382 201.859 200.998C201.859 200.998 202.878 202.682 205.06 203.598L205.048 203.602C204.81 203.724 200.924 205.766 203.409 209.282C205.971 212.905 209.598 211.57 209.598 211.57C209.598 211.57 209.229 214.525 211.545 217.091C211.545 217.091 209.391 215.685 208.416 217.803C207.441 219.922 210.939 224.65 214.019 222.186C214.019 222.186 215.419 225.893 219.9 225.766C224.382 225.637 226.549 222.947 226.029 221.322C226.029 221.322 229.971 223 232.344 222.093C232.344 222.093 231.352 223.179 230.932 224.682C230.438 226.44 230.722 228.773 234.256 230.607C234.256 230.607 232.605 233.343 235.669 235.66C236.32 236.151 236.95 236.546 237.544 236.868C239.766 238.069 241.458 238.22 241.458 238.22C241.458 238.22 238.99 244.014 243.158 247.227C243.434 247.442 243.705 247.636 243.973 247.813C243.973 247.813 243.973 247.813 243.984 247.819C247.745 250.335 250.537 249.625 250.537 249.625C250.537 249.625 249.835 252.996 251.489 255.024C251.489 255.024 249.086 253.927 247.667 256.372C246.952 257.604 247.547 260.029 249.202 262.244C250.835 264.425 253.499 266.402 256.956 266.833C256.862 266.882 256.764 266.93 256.674 266.979C255.743 267.498 252.981 269.354 254.786 272.26C256.934 275.717 261.751 275.177 261.751 275.177C261.751 275.177 262.447 278.417 264.648 281.323C265.23 282.094 265.923 282.846 266.734 283.506C266.734 283.506 263.885 283.417 264.4 286.406C264.916 289.396 271.269 292.845 273.439 289.467C273.439 289.467 274.958 290.53 277.255 290.169L277.262 290.171Z" fill="url(#paint0_linear_0_803)"/>
<path style="mix-blend-mode:multiply" opacity="0.5" d="M222.553 229.583C222.553 229.583 223.801 233.158 228.138 232.906C232.477 232.652 234.65 229.966 234.193 228.397C234.193 228.397 237.958 229.92 240.279 228.967C240.279 228.967 239.289 230.054 238.839 231.533C238.839 231.533 240.168 236.096 244.58 233.024C248.768 230.108 247.616 226.994 247.489 226.686C249.024 230.122 254.773 231.698 254.716 227.726C254.659 223.818 249.478 222.355 249.284 222.301C249.394 222.282 251.635 221.876 252.453 218.369C253.291 214.773 247.341 213.32 247.341 213.32C247.341 213.32 246.241 212.546 243.836 213.679C243.836 213.679 242.925 209.976 239.711 209.54C236.5 209.111 235.37 212.073 235.37 212.073C235.37 212.073 233.635 209.53 231.117 209.087C231.117 209.087 231.732 206.051 229.524 203.239C227.315 200.427 223.992 200.702 223.992 200.702C223.992 200.702 225.608 197.561 223.277 194.761C220.945 191.961 218.183 193.266 218.183 193.266C218.183 193.266 218.651 189.538 215.719 187.623C215.201 187.28 214.648 187.125 214.089 187.097C211.509 186.963 208.847 189.589 208.847 189.589C208.847 189.589 207.936 183.61 203.13 183.021C203.235 182.982 205.864 181.995 205.828 179.392C205.791 176.739 202.718 174.71 199.868 175.825C199.868 175.825 201.608 172.957 198.983 170.664C198.983 170.664 203.211 170.551 204.523 166.934C205.835 163.32 202.643 158.884 197.873 157.535C193.105 156.184 190.887 160.922 190.887 160.922C190.887 160.922 188.823 153.663 182.845 151.679C176.87 149.692 171.898 153.427 171.898 153.427C171.898 153.427 170.263 148.341 165.704 148.299C165.704 148.299 165.818 144.744 163.15 142.928C160.482 141.112 158.046 142.561 158.046 142.561C158.046 142.561 157.79 137.905 154.953 138.573C152.114 139.244 153.084 142.879 153.084 142.879C153.084 142.879 149.873 141.307 146.726 143.21C146.726 143.21 145.758 139.005 142.253 139.365C142.253 139.365 143.658 137.765 144.121 135.059C144.585 132.354 141.596 131.647 140.536 132.957C140.536 132.957 138.594 129.104 135.115 129.143C135.115 129.143 137.206 123.993 134.973 120.932C132.738 117.869 129.785 120.385 129.328 121.95C129.328 121.95 127.636 118.071 123.99 117.749C123.99 117.749 126.387 115.354 124.678 113.058C122.969 110.766 119.032 112.371 119.032 112.371C119.032 112.371 119.082 107.051 113.632 105.264C113.632 105.264 113.746 103.415 111.868 102.469C111.868 102.469 115.528 99.7848 112.541 96.2284C111.548 95.0435 110.422 94.4304 109.326 94.2502C107.123 93.8866 105.023 95.2515 104.269 97.231C104.269 97.231 104.273 93.2449 100.727 92.6551C97.2554 92.0806 95.2729 95.6601 95.1877 95.81C95.2183 95.6537 95.776 92.5409 93.1072 90.713C90.3711 88.8414 88.6315 89.7137 88.6315 89.7137C88.6315 89.7137 91.9985 86.3975 89.8757 82.6259C87.7528 78.8543 83.5371 81.3727 83.8254 83.4297C83.8254 83.4297 82.0483 81.0822 80.0735 81.537C80.0735 81.537 83.2487 78.7446 81.608 75.9371C79.9713 73.1293 75.881 75.0664 75.7515 76.7863C75.7515 76.7863 74.2249 74.4101 72.5955 75.1468C72.5955 75.1468 72.892 72.0793 70.4309 70.9992C67.9718 69.921 66.3444 72.3649 66.3444 72.3649C66.3444 72.3649 65.1408 67.172 60.3973 67.7834C60.3973 67.7834 59.7043 63.8033 57.1638 61.9749C54.6211 60.1447 51.6018 62.0352 51.6018 62.0352C51.6018 62.0352 52.1071 56.8578 46.0259 55.6417C46.0259 55.6417 44.1213 51.7054 41.208 53.0238C38.3525 54.3103 41.0069 58.7642 44.1875 57.9172C44.1875 57.9172 42.6094 60.404 45.4799 61.8699C45.4799 61.8699 44.8658 64.3291 47.5441 66.5571C50.2224 68.7852 53.0207 67.4564 53.0207 67.4564C53.0207 67.4564 54.5793 72.1369 59.0379 73.0131C58.9276 73.0665 55.5412 74.6565 57.0742 77.5793C58.6349 80.5524 62.1772 81.0722 63.7961 79.707C63.7961 79.707 64.9495 84.4644 68.6827 84.7472C68.6827 84.7472 66.7618 87.1263 69.5322 89.0276C72.3045 90.9268 74.3498 90.5294 74.3498 90.5294C74.3498 90.5294 74.1597 93.111 77.3289 94.3067C77.3289 94.3067 74.3645 96.6965 78.1774 99.4408C81.9903 102.185 85.6052 98.7786 85.6052 98.7786C85.6052 98.7786 87.94 100.156 90.3816 99.4795C90.3816 99.4795 90.7093 103.127 94.2213 104.322C94.2213 104.322 92.1885 107.492 95.4211 111.255C98.5199 114.86 102.525 113.666 102.525 113.666C102.525 113.666 103.572 114.901 105.299 115.671C105.299 115.671 105.303 115.675 105.307 115.675C106.304 116.12 107.532 116.408 108.915 116.21C108.915 116.21 108.09 117.657 110.027 119.738C110.027 119.738 108.153 118.22 106.127 119.66C104.101 121.101 109.243 129.879 114.003 125.692C114.003 125.692 115.416 128.204 118.002 127.564C118.002 127.564 118.337 128.863 119.588 129.872C119.588 129.872 115.587 128.002 115.163 132.791C114.74 137.581 126.228 142.77 130.298 138.368C130.298 138.368 132.008 141.101 135.837 141.866C135.375 141.796 132.805 141.529 132.859 144.371C132.917 147.497 137.671 150.146 140.134 146.667C140.134 146.667 141.53 148.138 144.348 146.998C144.348 146.998 145.074 150.152 148.698 151.206C148.559 151.197 145.283 151.054 146.362 154.101C147.465 157.217 154.093 159.673 157.183 157.554C157.183 157.554 158.847 162.321 161.661 162.887L161.609 162.899C161.306 162.971 159.657 163.466 158.745 165.749C157.927 167.807 159.168 169.598 159.168 169.598C159.168 169.598 155.609 169.21 154.505 173.124C153.392 177.071 158.299 182.409 162.199 182.486C163.901 182.522 165.06 181.955 165.846 181.228C165.846 181.228 165.848 181.226 165.85 181.223C167.241 179.925 167.46 178.089 167.46 178.089C167.46 178.089 169.392 178.593 170.571 177.457L170.57 177.471C170.518 177.769 169.723 182.747 172.816 184.918C175.907 187.087 178.921 185.341 179.105 185.233C179.105 185.233 179.111 185.226 179.113 185.224C179.113 185.224 179.398 190.417 182.818 192.156C186.236 193.896 187.993 193.64 187.993 193.64C187.993 193.64 186.818 196.589 188.756 198.67C188.756 198.67 186.336 198.252 185.979 200.185C185.621 202.121 190.52 206.082 193.441 205.024C196.275 203.999 196.011 201.992 195.992 201.871C196.075 202.014 198.109 205.503 200.782 205.746C200.782 205.746 198.62 207.329 198.977 209.334C199.398 211.726 206.024 217.6 211.374 209.271C211.374 209.271 212.311 210.885 214.395 211.715L214.383 211.72C214.15 211.846 210.333 213.949 212.635 217.306C215.01 220.766 218.556 219.36 218.556 219.36C218.556 219.36 218.114 222.253 220.281 224.689C220.281 224.689 218.238 223.379 217.234 225.473C216.23 227.567 219.478 232.078 222.527 229.587L222.553 229.583Z" fill="url(#paint1_linear_0_803)"/>
<path style="mix-blend-mode:multiply" opacity="0.5" d="M90.4685 99.5677C90.4685 99.5677 90.7964 103.217 94.3102 104.413C94.3102 104.413 92.2764 107.585 95.5107 111.35C98.611 114.957 102.618 113.763 102.618 113.763C102.618 113.763 103.666 114.999 105.393 115.769C105.393 115.769 105.398 115.773 105.402 115.773C107.134 116.304 110.511 115.873 110.948 112.914C111.382 109.956 108.169 109.527 108.169 109.527C111.637 106.515 106.63 103.603 106.63 103.603C107.634 102.361 106.581 100.823 106.581 100.823C107.774 101.334 109.878 101.437 111.048 99.9867C112.218 98.536 111.676 95.3716 109.417 94.3335C107.21 93.9678 105.109 95.3336 104.355 97.3142C104.355 97.3142 104.359 93.3258 100.811 92.7356C97.3376 92.1607 95.3541 95.7424 95.2689 95.8924C95.2994 95.736 95.8574 92.6213 93.1873 90.7923C90.4498 88.9196 88.7093 89.7923 88.7093 89.7923C88.7093 89.7923 92.078 86.4742 89.9541 82.7003C87.8302 78.9263 83.6123 81.4463 83.9008 83.5046C83.9008 83.5046 82.1228 81.1555 80.1469 81.6107C80.1469 81.6107 83.3237 78.8165 81.6822 76.0073C80.0446 73.1979 75.9522 75.1361 75.8227 76.857C75.8227 76.857 74.2953 74.4794 72.6651 75.2166C72.6651 75.2166 72.9618 72.1472 70.4994 71.0664C68.0391 69.9875 66.4108 72.4329 66.4108 72.4329C66.4108 72.4329 65.2066 67.2368 60.4607 67.8487C60.4607 67.8487 59.7673 63.8661 57.2255 62.0366C54.6815 60.2053 51.6606 62.0969 51.6606 62.0969C51.6606 62.0969 52.1662 56.9164 46.0819 55.6996C46.0819 55.6996 44.1764 51.7608 41.2616 53.08C38.4046 54.3673 41.0603 58.824 44.2426 57.9764C44.2426 57.9764 42.6636 60.4647 45.5356 61.9315C45.5356 61.9315 44.9213 64.3922 47.6009 66.6216C50.2806 68.851 53.0803 67.5214 53.0803 67.5214C53.0803 67.5214 54.6397 72.2048 59.1006 73.0816C58.9902 73.135 55.6021 74.726 57.1359 77.6505C58.6974 80.6254 62.2414 81.1456 63.8612 79.7795C63.8612 79.7795 65.0152 84.5398 68.7503 84.8228C68.7503 84.8228 66.8285 87.2033 69.6003 89.1058C72.3739 91.0062 74.4202 90.6086 74.4202 90.6086C74.4202 90.6086 74.2301 93.1917 77.401 94.3881C77.401 94.3881 74.435 96.7794 78.2499 99.5255C82.0647 102.272 85.6815 98.8628 85.6815 98.8628C85.6815 98.8628 88.0174 100.241 90.4603 99.5642L90.4685 99.5677Z" fill="url(#paint2_linear_0_803)"/>
<path style="mix-blend-mode:multiply" opacity="0.5" d="M140.133 146.679C140.133 146.679 141.53 148.152 144.351 147.011C144.351 147.011 145.078 150.169 148.706 151.224C148.567 151.215 145.287 151.072 146.368 154.123C147.471 157.242 154.106 159.702 157.2 157.58C157.2 157.58 158.865 162.353 161.682 162.92C161.682 162.92 164.165 163.902 164.859 160.694C164.859 160.694 167.024 166.556 171.057 163.483C175.073 160.425 172.262 156.086 169.437 156.144C169.713 156.134 171.3 155.963 171.918 153.448C171.918 153.448 170.282 148.356 165.718 148.314C165.718 148.314 165.832 144.755 163.161 142.937C160.491 141.118 158.051 142.569 158.051 142.569C158.051 142.569 157.795 137.907 154.955 138.576C152.113 139.247 153.084 142.887 153.084 142.887C153.084 142.887 149.87 141.313 146.72 143.219C146.72 143.219 145.75 139.009 142.241 139.369C142.241 139.369 143.648 137.767 144.112 135.058C144.576 132.349 141.584 131.641 140.523 132.953C140.523 132.953 138.579 129.095 135.096 129.134C135.096 129.134 137.189 123.978 134.954 120.913C134.954 120.913 136.02 124.859 131.779 126.907C131.779 126.907 133.219 127.901 132.444 129.499C132.444 129.499 137.203 132.151 134.296 134.253C131.395 136.352 128.877 132.443 129.204 131.166C129.118 131.334 126.925 135.548 123.106 133.019C119.209 130.437 122.851 127.498 122.851 127.498C122.851 127.498 119.493 128.381 117.975 127.555C117.975 127.555 118.308 128.853 119.56 129.864C119.56 129.864 115.555 127.991 115.131 132.786C114.707 137.582 126.207 142.778 130.282 138.37C130.282 138.37 131.993 141.106 135.827 141.873C135.364 141.803 132.792 141.535 132.845 144.381C132.904 147.511 137.663 150.162 140.129 146.679L140.133 146.679Z" fill="url(#paint3_linear_0_803)"/>
<path style="mix-blend-mode:multiply" opacity="0.5" d="M200.745 205.731C198.07 205.49 196.033 201.996 195.948 201.851C195.965 201.97 196.23 203.98 193.393 205.008C190.467 206.066 185.565 202.098 185.922 200.162C186.28 198.223 188.702 198.644 188.702 198.644C186.762 196.56 187.938 193.606 187.938 193.606C187.938 193.606 186.179 193.863 182.756 192.12C179.334 190.376 179.046 185.177 179.046 185.177C183.025 182.171 183.337 178.656 183.337 178.656C178.406 180.49 175.807 175.303 175.807 175.303C173.799 177.788 170.492 177.398 170.492 177.398C169.316 178.535 167.378 178.031 167.378 178.031C167.378 178.031 167.156 179.868 165.765 181.17C167.78 177.506 164.278 173.627 164.278 173.627C166.197 174.951 170.207 175.112 173.177 173.289C175.927 171.598 174.935 169.771 174.777 169.51C174.945 169.72 176.051 171.03 178.43 171.487C181.019 171.983 183.68 169.112 183.68 169.112C183.68 169.112 184.279 171.079 186.671 172.101C189.065 173.126 191.044 172.1 191.044 172.1C191.044 172.1 192.5 175.564 195.539 173.796C198.574 172.029 196.003 169.946 196.003 169.946C197.675 169.587 198.928 170.598 198.928 170.598C201.559 172.898 199.814 175.768 199.814 175.768C202.668 174.651 205.743 176.686 205.782 179.341C205.818 181.948 203.186 182.936 203.08 182.975C207.891 183.567 208.805 189.554 208.805 189.554C208.805 189.554 211.471 186.924 214.052 187.056C218.79 191.173 212.912 196.647 212.912 196.647C212.912 196.647 215.461 196.483 217.589 198.546C219.716 200.61 216.632 203.362 216.632 203.362C219.983 203.272 222.591 207.734 220.061 210.655C217.531 213.575 214.378 211.708 214.378 211.708C212.289 210.874 211.353 209.26 211.353 209.26C205.996 217.602 199.361 211.719 198.939 209.323C198.582 207.315 200.747 205.729 200.747 205.729L200.745 205.731ZM200.158 198.432C205.707 195.958 199.197 190.344 199.197 190.344C199.197 190.344 203.014 186.046 197.26 183.771C197.26 183.771 198.811 186.835 195.856 189.353C192.9 191.87 190.075 190.956 190.075 190.956C190.075 190.956 194.604 200.906 200.155 198.43L200.158 198.432Z" fill="url(#paint4_linear_0_803)"/>
<path style="mix-blend-mode:multiply" opacity="0.5" d="M249.861 253.122C250.123 253.323 250.379 253.505 250.635 253.671C250.635 253.671 250.635 253.671 250.645 253.677C250.893 253.765 255.226 255.273 256.35 252.569C257.509 249.786 254.45 247.436 254.45 247.436C254.45 247.436 259.525 249.279 259.13 245.703C258.737 242.124 254.437 241.034 254.437 241.034C256.452 238.536 252.974 234.717 247.627 237.251C242.341 239.752 244.66 243.075 244.714 243.152C246.833 244.262 248.47 244.361 248.47 244.361C248.47 244.361 245.91 250.097 249.859 253.12L249.861 253.122Z" fill="url(#paint5_linear_0_803)"/>
<path style="mix-blend-mode:multiply" opacity="0.5" d="M277.835 293.427C275.636 296.792 269.576 293.602 269.162 290.693C268.748 287.784 271.504 287.79 271.504 287.79C270.738 287.169 270.091 286.456 269.546 285.716C269.546 285.716 275.223 289.602 278.637 286.875C281.745 284.387 278.604 282.395 278.023 282.066C278.428 282.268 280.227 283.04 283.508 282.341C287.267 281.538 286.533 279.024 286.533 279.024C289.855 280.686 292.663 275.066 289.384 272.925C286.103 270.786 282.713 273.703 282.713 273.703C286.943 268.036 282.998 264.721 282.998 264.721C285.373 264.63 287.3 266.666 287.3 266.666C287.3 266.666 288.313 260.278 292.631 262.061C296.953 263.844 297.378 268.698 297.378 268.698C297.378 268.698 299.617 267.314 301.908 269.508C304.194 271.703 303.143 275.999 303.143 275.999C304.619 276.418 305.422 277.243 305.422 277.243C305.422 277.243 307.727 274.39 310.371 275.5C312.931 276.577 313.129 279.279 313.137 279.448C313.137 279.448 313.133 279.452 313.136 279.458C312.442 284.648 317.752 286.766 318.297 286.971C317.916 286.864 315.211 286.192 312.321 288.455C309.196 290.894 310.151 294.278 310.151 294.278C310.151 294.278 306.626 291.23 301.3 291.262C295.973 291.3 295.049 297.398 295.049 297.398C293.359 294.761 293.403 291.277 293.403 291.277C290.809 292.778 289.008 292.867 289.008 292.867C294.44 297.262 290.103 302.848 285.086 301.358C280.068 299.872 281.518 294.01 281.518 294.01C279.28 294.425 277.838 293.433 277.838 293.433L277.835 293.427ZM299.649 277.612C300.548 275.639 299.19 271.925 296.923 272.142C294.922 272.337 294.568 277.344 295.164 278.742C295.763 280.14 298.745 279.581 299.649 277.612ZM290.428 287.031C292.384 284.038 287.387 283.162 285.172 284.492C283.388 285.564 281.32 288.804 283.242 290.367C284.286 291.215 288.473 290.024 290.428 287.031Z" fill="url(#paint6_linear_0_803)"/>
<path style="mix-blend-mode:multiply" opacity="0.5" d="M262.586 271.876C266.568 269.723 266.624 265.523 266.624 265.523C263.259 267.733 259.145 268.804 255.199 267.607C256.72 269.694 259.248 271.551 262.588 271.874L262.586 271.876Z" fill="url(#paint7_linear_0_803)"/>
<path style="mix-blend-mode:multiply" opacity="0.5" d="M270.638 271.366C270.638 271.366 275.584 268.813 274.871 263.551C274.871 263.551 277.145 261.734 278.657 258.146C278.657 258.146 278.659 258.14 278.661 258.138C278.704 257.984 279.442 255.356 277.53 254.256C277.36 254.157 277.19 254.091 277.015 254.044C277.015 254.044 279.042 256.381 276.606 259.398C274.169 262.416 271.975 262.706 271.975 262.706C271.975 262.706 275.893 265.992 270.638 271.362L270.638 271.366Z" fill="url(#paint8_linear_0_803)"/>
<path style="mix-blend-mode:multiply" opacity="0.5" d="M338.72 335.439C338.72 335.439 342.143 341.47 346.246 339.813C346.246 339.813 343.186 344.029 347.097 346.678C351.005 349.324 358.12 348.22 358.859 341.956C358.859 341.956 363.017 345.796 366.355 341.658C369.7 337.518 365.393 333.862 365.393 333.862C365.393 333.862 373.344 333.432 372.138 326.793C371.312 322.249 366.88 321.059 363.389 321.183C363.772 321.25 369.74 322.368 367.298 328.297C364.771 334.421 356.404 330.873 356.404 330.873C356.612 332.757 353.491 335.55 349.937 333.533C346.383 331.516 348.819 325.503 348.819 325.503C343.513 329.735 338.209 325.96 337.313 325.26C338.017 325.842 341.138 328.814 337.616 333.172C333.677 338.049 327.565 333.953 327.565 333.953C327.969 334.508 328.456 335.024 329.016 335.478C332.255 338.1 337.047 337.517 338.722 335.441L338.72 335.439Z" fill="url(#paint9_linear_0_803)"/>
<path style="mix-blend-mode:multiply" opacity="0.5" d="M309.701 312.092C312.733 312.831 315.479 310.074 313.891 306.904C313.891 306.904 317.235 310.467 321.65 309.923C321.65 309.923 321.229 313.012 324.303 314.129C327.377 315.245 328.759 314.818 328.759 314.818C328.759 314.818 328.943 318.887 331.124 322.069C331.124 322.069 331.439 313.213 339.557 312.575C347.525 311.949 351.885 316.831 352.047 317.013C351.552 315.564 350.383 313.379 347.677 311.939C347.677 311.939 352.825 311.129 352.538 305.918C352.39 303.21 350.608 302.521 348.933 302.487L345.939 302.972L345.929 302.975C345.929 302.975 341.373 309.044 336.411 307.27C331.446 305.498 330.468 301.787 333.967 298.955C337.465 296.122 343.386 296.28 343.386 296.28C343.386 296.28 348.266 293.021 345.633 289.005C345.633 289.005 350.065 287.468 348.555 282.072C348.528 282.277 347.983 286.069 343.304 287.121C338.497 288.209 334.989 281.421 334.989 281.421C334.989 281.421 332.336 278.93 329.194 280.68C329.194 280.68 333.327 282.409 332.092 286.936C330.856 291.463 324.202 292.427 324.202 292.427C324.202 292.427 328.855 295.651 326.585 299.319C324.314 302.987 316.053 300.591 316.053 300.591C316.053 300.591 318.272 304.262 315.799 305.186C313.326 306.109 311.165 304.076 311.165 304.076C311.165 304.076 313.97 308.519 309.699 312.098L309.701 312.092Z" fill="url(#paint10_linear_0_803)"/>
<defs>
<linearGradient id="paint0_linear_0_803" x1="27.324" y1="44.589" x2="369.436" y2="336.705" gradientUnits="userSpaceOnUse">
<stop stop-color="#B4C8AA"/>
<stop offset="0.91" stop-color="#DDD8DC"/>
<stop offset="1" stop-color="white"/>
</linearGradient>
<linearGradient id="paint1_linear_0_803" x1="315.269" y1="272.096" x2="35.2611" y2="66.0601" gradientUnits="userSpaceOnUse">
<stop stop-color="white"/>
<stop offset="1" stop-color="#84CE78"/>
</linearGradient>
<linearGradient id="paint2_linear_0_803" x1="63.3222" y1="98.4884" x2="78.4369" y2="80.4109" gradientUnits="userSpaceOnUse">
<stop stop-color="white"/>
<stop offset="1" stop-color="#78CE81"/>
</linearGradient>
<linearGradient id="paint3_linear_0_803" x1="134.307" y1="157.843" x2="149.431" y2="139.755" gradientUnits="userSpaceOnUse">
<stop stop-color="white"/>
<stop offset="1" stop-color="#78CE7B"/>
</linearGradient>
<linearGradient id="paint4_linear_0_803" x1="185.235" y1="200.413" x2="200.365" y2="182.32" gradientUnits="userSpaceOnUse">
<stop stop-color="white"/>
<stop offset="1" stop-color="#78CE81"/>
</linearGradient>
<linearGradient id="paint5_linear_0_803" x1="259.799" y1="230.079" x2="246.464" y2="252.834" gradientUnits="userSpaceOnUse">
<stop stop-color="white"/>
<stop offset="1" stop-color="#7FCE78"/>
</linearGradient>
<linearGradient id="paint6_linear_0_803" x1="273.553" y1="314.713" x2="300.026" y2="276.869" gradientUnits="userSpaceOnUse">
<stop stop-color="white"/>
<stop offset="1" stop-color="#7ACE78"/>
</linearGradient>
<linearGradient id="paint7_linear_0_803" x1="264.326" y1="263.63" x2="258.393" y2="270.725" gradientUnits="userSpaceOnUse">
<stop stop-color="white"/>
<stop offset="1" stop-color="#84CE78"/>
</linearGradient>
<linearGradient id="paint8_linear_0_803" x1="267.86" y1="267.084" x2="282.8" y2="256.107" gradientUnits="userSpaceOnUse">
<stop stop-color="white"/>
<stop offset="1" stop-color="#84CE78"/>
</linearGradient>
<linearGradient id="paint9_linear_0_803" x1="334.578" y1="349.977" x2="363.808" y2="321.214" gradientUnits="userSpaceOnUse">
<stop stop-color="white"/>
<stop offset="1" stop-color="#7FCE78"/>
</linearGradient>
<linearGradient id="paint10_linear_0_803" x1="311.979" y1="326.963" x2="341.213" y2="298.193" gradientUnits="userSpaceOnUse">
<stop stop-color="white"/>
<stop offset="1" stop-color="#78CE7B"/>
</linearGradient>
</defs>
</svg>
