<svg width="370" height="354" viewBox="0 0 370 354" fill="none" xmlns="http://www.w3.org/2000/svg">
<path d="M108.637 78.1248C108.637 78.1248 110.083 72.281 105.079 70.7997C100.077 69.3164 95.7502 74.8833 101.169 79.2665C101.169 79.2665 99.3737 79.3549 96.7866 80.8519C96.7866 80.8519 96.8305 77.3787 95.145 74.7489C94.4494 73.6628 93.4537 72.7186 92.0403 72.2248C92.0403 72.2248 95.5672 71.4852 96.0485 68.9669C96.5319 66.4506 89.2442 54.5688 83.4158 63.7071C83.4158 63.7071 83.4615 60.6646 80.437 59.9304C77.4142 59.194 74.677 61.9412 76.2594 65.1008C76.2594 65.1008 72.9264 61.5498 68.5251 62.0925C68.5251 62.0925 68.9449 59.0133 65.8804 57.901C62.8159 56.7888 61.4383 57.2142 61.4383 57.2142C61.4383 57.2142 61.2549 53.1589 59.0804 49.9883C58.6424 49.35 58.1206 48.7433 57.5046 48.2189C57.5046 48.2189 61.1548 48.6053 63.0755 46.2265C64.6638 44.2604 64.4586 40.7235 62.5135 38.0807C62.1078 37.5265 61.6228 37.0114 61.0643 36.5594C57.8346 33.9453 53.0574 34.5268 51.3865 36.5966C51.3865 36.5966 47.9738 30.5844 43.883 32.2367C43.883 32.2367 46.9335 28.0342 43.0346 25.3942C39.1377 22.7559 32.0439 23.8569 31.3068 30.1008C31.3068 30.1008 27.1617 26.2727 23.8328 30.3974C20.4981 34.5244 24.792 38.1683 24.792 38.1683C24.792 38.1683 16.8648 38.597 18.0673 45.2138C18.8911 49.7438 23.3099 50.929 26.7902 50.8057C26.8043 50.8068 26.8104 50.8083 26.8104 50.8083C28.4016 50.7515 29.7964 50.4231 30.556 50.0163C30.556 50.0163 31.946 52.852 34.044 53.5231C36.1419 54.1941 37.8662 53.5515 37.8662 53.5515C37.8662 53.5515 37.9187 54.1531 38.2195 55.0229C38.2195 55.0229 38.2194 55.0229 38.2259 55.0285C38.7194 56.4726 39.8845 58.6498 42.582 60.0848C42.582 60.0848 37.4507 60.8921 37.7362 66.0847C37.8836 68.7839 39.66 69.4703 41.3301 69.5044C42.7973 69.5338 44.1799 69.0679 44.3147 69.021L44.3246 69.0183C44.3246 69.0183 43.2762 73.3011 46.8618 75.6874C46.8618 75.6874 41.997 78.9355 44.6218 82.938C44.6218 82.938 40.2033 84.4696 41.7091 89.8463C41.7075 89.8524 41.7078 89.8564 41.7078 89.8564C41.8064 90.2145 41.9341 90.5868 42.0894 90.9793C44.5848 97.2724 50.8193 98.7266 53.4689 96.9369C56.1207 95.1491 55.2295 90.4933 55.2295 90.4933C55.2295 90.4933 57.8741 92.9757 61.0062 91.2323C61.0062 91.2323 62.1948 92.5345 64.3431 91.3649C64.3431 91.3649 64.902 94.7242 69.5192 96.1528C74.1382 97.5793 77.1032 92.6271 77.1032 92.6271C77.1032 92.6271 77.1017 92.6332 77.102 92.6372C77.1122 92.8028 77.3072 95.4949 79.8619 96.5707C82.4991 97.677 84.7964 94.8346 84.7964 94.8346C84.7964 94.8346 85.5986 95.6553 87.0687 96.0753C87.0687 96.0753 86.0203 100.358 88.3005 102.546C90.5807 104.734 92.8177 103.354 92.8177 103.354C92.8177 103.354 93.2417 108.197 97.5516 109.97C101.86 111.746 102.868 105.38 102.868 105.38C102.868 105.38 104.792 107.407 107.158 107.319L107.153 107.325C107.107 107.521 106.325 110.598 107.639 112.551C108.999 114.565 111.585 113.922 111.585 113.922C111.585 113.922 111.583 113.928 111.581 113.93C111.539 114.083 110.804 116.698 112.707 117.793C112.876 117.892 113.046 117.957 113.219 118.003C115.055 118.491 117.032 116.277 117.032 116.277C117.032 116.277 117.727 118.55 119.447 119.258C119.447 119.258 117.152 120.822 116.982 125.014C116.809 129.207 120.267 131.893 120.267 131.893C120.267 131.893 115.854 136.075 119.133 139.982C122.41 143.887 126.541 141.188 126.541 141.188C126.541 141.188 126.938 147.668 132.258 149.465C132.258 149.465 128.768 152.226 130.108 156.391C131.452 160.556 137.663 165.24 143.037 158.87C143.037 158.87 144.136 159.644 146.541 158.511C146.541 158.511 147.452 162.214 150.665 162.649C153.876 163.078 155.006 160.117 155.006 160.117C155.006 160.117 156.741 162.659 159.259 163.102C159.259 163.102 158.644 166.138 160.852 168.95C163.06 171.762 166.382 171.486 166.382 171.486C166.382 171.486 164.767 174.626 167.098 177.426C169.429 180.226 172.191 178.921 172.191 178.921C172.191 178.921 171.723 182.649 174.654 184.564C175.173 184.906 175.725 185.062 176.285 185.089C178.864 185.224 181.526 182.598 181.526 182.598C181.526 182.598 182.437 188.576 187.242 189.165C187.137 189.204 184.508 190.191 184.544 192.793C184.582 195.446 187.654 197.475 190.504 196.359C190.504 196.359 188.764 199.227 191.388 201.521C191.388 201.521 187.162 201.633 185.85 205.25C184.537 208.863 187.729 213.299 192.499 214.647C197.267 215.998 199.484 211.261 199.484 211.261C199.484 211.261 201.548 218.519 207.525 220.503C213.5 222.489 218.471 218.755 218.471 218.755C218.471 218.755 220.105 223.84 224.664 223.882C224.664 223.882 224.55 227.436 227.218 229.252C229.885 231.068 232.322 229.619 232.322 229.619C232.322 229.619 232.577 234.274 235.414 233.606C238.253 232.936 237.283 229.301 237.283 229.301C237.283 229.301 240.493 230.873 243.64 228.97C243.64 228.97 244.608 233.174 248.113 232.815C248.113 232.815 246.708 234.414 246.244 237.12C245.781 239.825 248.769 240.532 249.829 239.221C249.829 239.221 251.771 243.075 255.25 243.035C255.25 243.035 253.159 248.184 255.391 251.245C257.626 254.307 260.579 251.793 261.036 250.228C261.036 250.228 262.728 254.105 266.373 254.428C266.373 254.428 263.977 256.822 265.686 259.118C267.395 261.409 271.331 259.805 271.331 259.805C271.331 259.805 271.281 265.124 276.73 266.911C276.73 266.911 276.616 268.759 278.494 269.706C278.494 269.706 274.834 272.389 277.821 275.945C278.814 277.13 279.94 277.743 281.035 277.923C283.239 278.287 285.339 276.922 286.092 274.943C286.092 274.943 286.088 278.928 289.633 279.518C293.105 280.092 295.087 276.513 295.172 276.364C295.142 276.52 294.584 279.632 297.253 281.46C299.988 283.331 301.728 282.459 301.728 282.459C301.728 282.459 298.361 285.775 300.484 289.546C302.606 293.317 306.822 290.799 306.533 288.742C306.533 288.742 308.31 291.089 310.285 290.635C310.285 290.635 307.11 293.427 308.751 296.234C310.387 299.041 314.477 297.104 314.606 295.385C314.606 295.385 316.133 297.76 317.762 297.024C317.762 297.024 317.465 300.091 319.926 301.171C322.385 302.249 324.012 299.805 324.012 299.805C324.012 299.805 325.216 304.998 329.959 304.386C329.959 304.386 330.652 308.366 333.192 310.194C335.734 312.024 338.753 310.134 338.753 310.134C338.753 310.134 338.248 315.31 344.329 316.526C344.329 316.526 346.233 320.462 349.146 319.144C352.001 317.857 349.347 313.404 346.167 314.251C346.167 314.251 347.745 311.765 344.874 310.299C344.874 310.299 345.488 307.84 342.81 305.612C340.132 303.385 337.335 304.713 337.335 304.713C337.335 304.713 335.776 300.033 331.318 299.157C331.428 299.104 334.814 297.514 333.281 294.592C331.721 291.619 328.179 291.099 326.56 292.464C326.56 292.464 325.407 287.708 321.674 287.425C321.674 287.425 323.595 285.046 320.825 283.145C318.053 281.246 316.008 281.643 316.008 281.643C316.008 281.643 316.198 279.062 313.029 277.867C313.029 277.867 315.993 275.477 312.181 272.733C308.368 269.989 304.754 273.395 304.754 273.395C304.754 273.395 302.419 272.019 299.978 272.695C299.978 272.695 299.65 269.048 296.139 267.853C296.139 267.853 298.171 264.683 294.939 260.921C291.841 257.316 287.836 258.51 287.836 258.51C287.836 258.51 286.789 257.275 285.062 256.505C285.062 256.505 285.058 256.501 285.054 256.502C284.057 256.057 282.829 255.769 281.447 255.966C281.447 255.966 282.272 254.519 280.334 252.439C280.334 252.439 282.208 253.956 284.234 252.516C286.26 251.076 281.118 242.299 276.359 246.486C276.359 246.486 274.947 243.974 272.36 244.614C272.36 244.614 272.026 243.316 270.775 242.306C270.775 242.306 274.775 244.176 275.199 239.388C275.623 234.599 264.136 229.41 260.066 233.812C260.066 233.812 258.357 231.079 254.528 230.314C254.99 230.384 257.559 230.651 257.506 227.809C257.447 224.684 252.694 222.036 250.231 225.514C250.231 225.514 248.835 224.043 246.017 225.183C246.017 225.183 245.291 222.029 241.668 220.976C241.807 220.984 245.082 221.127 244.003 218.081C242.901 214.966 236.274 212.509 233.184 214.629C233.184 214.629 231.521 209.862 228.707 209.296L228.758 209.284C229.062 209.212 230.711 208.717 231.622 206.435C232.44 204.377 231.2 202.585 231.2 202.585C231.2 202.585 234.758 202.974 235.861 199.06C236.975 195.114 232.069 189.777 228.169 189.7C226.466 189.664 225.308 190.231 224.522 190.958C224.522 190.958 224.521 190.959 224.518 190.962C223.127 192.26 222.908 194.096 222.908 194.096C222.908 194.096 220.977 193.592 219.798 194.728L219.799 194.714C219.851 194.416 220.646 189.438 217.553 187.268C214.462 185.1 211.449 186.845 211.264 186.954C211.264 186.954 211.259 186.96 211.257 186.962C211.257 186.962 210.971 181.769 207.552 180.031C204.134 178.291 202.378 178.547 202.378 178.547C202.378 178.547 203.553 175.599 201.615 173.518C201.615 173.518 204.035 173.936 204.391 172.003C204.749 170.068 199.851 166.107 196.931 167.165C194.096 168.19 194.361 170.196 194.38 170.317C194.297 170.174 192.263 166.686 189.59 166.443C189.59 166.443 191.752 164.86 191.395 162.856C190.974 160.463 184.349 154.591 178.999 162.918C178.999 162.918 178.062 161.305 175.979 160.475L175.99 160.47C176.224 160.344 180.041 158.241 177.738 154.885C175.364 151.425 171.818 152.831 171.818 152.831C171.818 152.831 172.26 149.938 170.094 147.503C170.094 147.503 172.136 148.812 173.14 146.719C174.144 144.625 170.896 140.114 167.848 142.606C167.848 142.606 166.599 139.031 162.263 139.283C157.924 139.537 155.752 142.223 156.208 143.792C156.208 143.792 152.444 142.269 150.123 143.222C150.123 143.222 151.113 142.134 151.563 140.656C152.091 138.928 151.883 136.662 148.518 134.974C148.518 134.974 150.193 132.259 147.297 130.088C146.682 129.627 146.083 129.26 145.518 128.963C143.404 127.856 141.771 127.757 141.771 127.757C141.771 127.757 144.325 122.037 140.386 119.023C140.125 118.822 139.869 118.64 139.614 118.475C139.614 118.475 139.614 118.475 139.604 118.469C136.039 116.124 133.318 116.896 133.318 116.896C133.318 116.896 134.094 113.589 132.552 111.659C132.552 111.659 134.845 112.66 136.287 110.235C137.015 109.013 136.509 106.666 134.972 104.553C133.455 102.473 130.935 100.622 127.604 100.3C127.697 100.25 127.793 100.2 127.882 100.15C128.796 99.6166 131.521 97.7278 129.858 94.9462C127.88 91.6364 123.207 92.3013 123.207 92.3013C123.207 92.3013 122.626 89.1618 120.582 86.3914C120.04 85.6557 119.392 84.943 118.627 84.3223C118.627 84.3223 121.379 84.3271 120.966 81.4271C120.554 78.527 114.508 75.3452 112.313 78.7018C112.313 78.7018 110.875 77.7087 108.643 78.1264L108.637 78.1248Z" fill="url(#paint0_linear_0_791)"/>
<path style="mix-blend-mode:multiply" opacity="0.5" d="M167.763 142.553C167.763 142.553 166.515 138.979 162.178 139.231C157.839 139.485 155.666 142.171 156.123 143.74C156.123 143.74 152.358 142.217 150.037 143.169C150.037 143.169 151.027 142.082 151.477 140.604C151.477 140.604 150.148 136.04 145.736 139.113C141.548 142.028 142.7 145.142 142.827 145.45C141.292 142.015 135.543 140.438 135.6 144.41C135.657 148.318 140.838 149.782 141.032 149.835C140.922 149.855 138.681 150.261 137.863 153.767C137.025 157.364 142.975 158.817 142.975 158.817C142.975 158.817 144.075 159.59 146.48 158.457C146.48 158.457 147.392 162.161 150.605 162.596C153.816 163.025 154.946 160.063 154.946 160.063C154.946 160.063 156.681 162.606 159.199 163.049C159.199 163.049 158.584 166.086 160.792 168.898C163.001 171.71 166.324 171.435 166.324 171.435C166.324 171.435 164.708 174.575 167.039 177.375C169.371 180.175 172.133 178.871 172.133 178.871C172.133 178.871 171.665 182.599 174.597 184.513C175.115 184.856 175.668 185.012 176.227 185.039C178.807 185.174 181.469 182.547 181.469 182.547C181.469 182.547 182.38 188.527 187.186 189.116C187.081 189.155 184.452 190.142 184.488 192.744C184.525 195.397 187.598 197.427 190.448 196.311C190.448 196.311 188.708 199.179 191.333 201.473C191.333 201.473 187.105 201.585 185.793 205.203C184.481 208.816 187.673 213.253 192.443 214.601C197.211 215.952 199.429 211.215 199.429 211.215C199.429 211.215 201.493 218.473 207.471 220.458C213.446 222.444 218.418 218.71 218.418 218.71C218.418 218.71 220.053 223.796 224.612 223.838C224.612 223.838 224.498 227.392 227.166 229.208C229.834 231.024 232.27 229.575 232.27 229.575C232.27 229.575 232.526 234.231 235.363 233.563C238.202 232.893 237.232 229.258 237.232 229.258C237.232 229.258 240.443 230.829 243.59 228.927C243.59 228.927 244.558 233.131 248.063 232.772C248.063 232.772 246.658 234.371 246.195 237.077C245.731 239.783 248.72 240.489 249.78 239.179C249.78 239.179 251.722 243.033 255.201 242.994C255.201 242.994 253.11 248.143 255.343 251.204C257.578 254.267 260.531 251.752 260.988 250.187C260.988 250.187 262.68 254.065 266.326 254.388C266.326 254.388 263.929 256.782 265.639 259.078C267.347 261.37 271.284 259.766 271.284 259.766C271.284 259.766 271.234 265.085 276.684 266.872C276.684 266.872 276.57 268.721 278.448 269.668C278.448 269.668 274.788 272.352 277.775 275.908C278.768 277.093 279.894 277.706 280.99 277.886C283.193 278.25 285.294 276.885 286.047 274.906C286.047 274.906 286.043 278.892 289.589 279.481C293.061 280.056 295.043 276.476 295.128 276.326C295.098 276.483 294.54 279.596 297.209 281.423C299.945 283.295 301.685 282.423 301.685 282.423C301.685 282.423 298.318 285.739 300.44 289.511C302.563 293.282 306.779 290.764 306.491 288.707C306.491 288.707 308.268 291.054 310.243 290.599C310.243 290.599 307.067 293.392 308.708 296.199C310.345 299.007 314.435 297.07 314.565 295.35C314.565 295.35 316.091 297.726 317.721 296.99C317.721 296.99 317.424 300.057 319.885 301.137C322.344 302.216 323.972 299.772 323.972 299.772C323.972 299.772 325.175 304.965 329.919 304.353C329.919 304.353 330.612 308.333 333.152 310.162C335.695 311.992 338.714 310.101 338.714 310.101C338.714 310.101 338.209 315.279 344.29 316.495C344.29 316.495 346.195 320.431 349.108 319.113C351.964 317.826 349.309 313.372 346.129 314.219C346.129 314.219 347.707 311.733 344.836 310.267C344.836 310.267 345.45 307.807 342.772 305.579C340.094 303.351 337.295 304.68 337.295 304.68C337.295 304.68 335.737 300 331.278 299.123C331.388 299.07 334.775 297.48 333.242 294.557C331.681 291.584 328.139 291.064 326.52 292.429C326.52 292.429 325.367 287.672 321.633 287.389C321.633 287.389 323.554 285.01 320.784 283.109C318.012 281.21 315.966 281.607 315.966 281.607C315.966 281.607 316.156 279.026 312.987 277.83C312.987 277.83 315.952 275.44 312.139 272.696C308.326 269.951 304.711 273.358 304.711 273.358C304.711 273.358 302.376 271.981 299.934 272.657C299.934 272.657 299.607 269.009 296.095 267.814C296.095 267.814 298.128 264.644 294.895 260.882C291.796 257.277 287.791 258.471 287.791 258.471C287.791 258.471 286.744 257.235 285.017 256.465C285.017 256.465 285.013 256.462 285.009 256.462C284.012 256.017 282.784 255.729 281.401 255.926C281.401 255.926 282.226 254.479 280.289 252.399C280.289 252.399 282.163 253.916 284.189 252.476C286.215 251.036 281.073 242.257 276.313 246.445C276.313 246.445 274.9 243.933 272.314 244.572C272.314 244.572 271.979 243.274 270.728 242.264C270.728 242.264 274.729 244.134 275.153 239.345C275.576 234.556 264.088 229.366 260.018 233.769C260.018 233.769 258.308 231.036 254.479 230.27C254.941 230.34 257.511 230.607 257.457 227.765C257.399 224.639 252.645 221.991 250.182 225.47C250.182 225.47 248.786 223.999 245.968 225.139C245.968 225.139 245.242 221.984 241.618 220.931C241.757 220.94 245.033 221.082 243.954 218.035C242.851 214.92 236.223 212.463 233.133 214.583C233.133 214.583 231.47 209.815 228.655 209.249L228.707 209.238C229.01 209.166 230.659 208.67 231.571 206.388C232.389 204.33 231.148 202.538 231.148 202.538C231.148 202.538 234.707 202.927 235.811 199.012C236.924 195.065 232.018 189.728 228.117 189.65C226.415 189.614 225.256 190.182 224.47 190.909C224.47 190.909 224.469 190.91 224.466 190.913C223.075 192.211 222.856 194.047 222.856 194.047C222.856 194.047 220.924 193.543 219.745 194.679L219.746 194.665C219.798 194.367 220.593 189.389 217.5 187.219C214.409 185.05 211.395 186.796 211.211 186.904C211.211 186.904 211.205 186.91 211.203 186.912C211.203 186.912 210.918 181.719 207.498 179.981C204.08 178.24 202.323 178.497 202.323 178.497C202.323 178.497 203.498 175.547 201.56 173.467C201.56 173.467 203.981 173.884 204.337 171.951C204.695 170.016 199.796 166.055 196.875 167.113C194.041 168.138 194.305 170.144 194.324 170.265C194.241 170.122 192.208 166.633 189.534 166.391C189.534 166.391 191.696 164.807 191.339 162.803C190.918 160.41 184.292 154.537 178.942 162.865C178.942 162.865 178.005 161.252 175.921 160.421L175.933 160.416C176.166 160.291 179.983 158.187 177.681 154.83C175.306 151.37 171.76 152.776 171.76 152.776C171.76 152.776 172.202 149.883 170.035 147.447C170.035 147.447 172.078 148.757 173.082 146.663C174.086 144.569 170.838 140.058 167.789 142.55L167.763 142.553Z" fill="url(#paint1_linear_0_791)"/>
<path style="mix-blend-mode:multiply" opacity="0.5" d="M299.847 272.569C299.847 272.569 299.52 268.919 296.006 267.723C296.006 267.723 298.04 264.551 294.805 260.786C291.705 257.179 287.698 258.374 287.698 258.374C287.698 258.374 286.65 257.138 284.923 256.367C284.923 256.367 284.918 256.364 284.914 256.364C283.182 255.832 279.805 256.264 279.368 259.222C278.934 262.18 282.147 262.61 282.147 262.61C278.679 265.622 283.686 268.534 283.686 268.534C282.682 269.775 283.735 271.314 283.735 271.314C282.542 270.803 280.438 270.699 279.268 272.15C278.098 273.6 278.64 276.765 280.899 277.803C283.106 278.169 285.207 276.803 285.961 274.822C285.961 274.822 285.957 278.811 289.505 279.401C292.978 279.976 294.962 276.394 295.047 276.244C295.017 276.4 294.459 279.515 297.129 281.344C299.866 283.217 301.607 282.344 301.607 282.344C301.607 282.344 298.238 285.662 300.362 289.436C302.486 293.21 306.704 290.69 306.415 288.632C306.415 288.632 308.193 290.981 310.169 290.526C310.169 290.526 306.992 293.32 308.634 296.129C310.271 298.939 314.364 297 314.493 295.279C314.493 295.279 316.021 297.657 317.651 296.92C317.651 296.92 317.354 299.989 319.817 301.07C322.277 302.149 323.905 299.704 323.905 299.704C323.905 299.704 325.109 304.9 329.855 304.288C329.855 304.288 330.549 308.27 333.091 310.1C335.634 311.931 338.655 310.04 338.655 310.04C338.655 310.04 338.15 315.22 344.234 316.437C344.234 316.437 346.14 320.376 349.054 319.056C351.911 317.769 349.256 313.313 346.073 314.16C346.073 314.16 347.652 311.672 344.78 310.205C344.78 310.205 345.395 307.744 342.715 305.515C340.035 303.285 337.236 304.615 337.236 304.615C337.236 304.615 335.676 299.932 331.215 299.055C331.326 299.002 334.714 297.411 333.18 294.486C331.619 291.511 328.075 290.991 326.455 292.357C326.455 292.357 325.301 287.597 321.566 287.314C321.566 287.314 323.488 284.933 320.716 283.031C317.942 281.13 315.896 281.528 315.896 281.528C315.896 281.528 316.086 278.945 312.915 277.748C312.915 277.748 315.881 275.357 312.066 272.611C308.251 269.865 304.635 273.274 304.635 273.274C304.635 273.274 302.299 271.896 299.856 272.572L299.847 272.569Z" fill="url(#paint2_linear_0_791)"/>
<path style="mix-blend-mode:multiply" opacity="0.5" d="M250.183 225.457C250.183 225.457 248.786 223.985 245.965 225.126C245.965 225.126 245.238 221.967 241.61 220.913C241.749 220.921 245.029 221.064 243.949 218.014C242.845 214.894 236.21 212.435 233.116 214.557C233.116 214.557 231.451 209.783 228.634 209.216C228.634 209.216 226.151 208.234 225.457 211.442C225.457 211.442 223.292 205.58 219.259 208.653C215.243 211.711 218.054 216.05 220.879 215.992C220.603 216.002 219.016 216.173 218.398 218.688C218.398 218.688 220.034 223.781 224.598 223.823C224.598 223.823 224.484 227.382 227.155 229.2C229.826 231.018 232.265 229.567 232.265 229.567C232.265 229.567 232.521 234.229 235.361 233.56C238.203 232.889 237.232 229.249 237.232 229.249C237.232 229.249 240.446 230.823 243.596 228.918C243.596 228.918 244.566 233.128 248.075 232.768C248.075 232.768 246.668 234.369 246.204 237.078C245.74 239.788 248.732 240.495 249.793 239.183C249.793 239.183 251.738 243.042 255.22 243.003C255.22 243.003 253.127 248.159 255.362 251.224C255.362 251.224 254.296 247.277 258.537 245.23C258.537 245.23 257.097 244.235 257.872 242.637C257.872 242.637 253.113 239.985 256.02 237.884C258.921 235.784 261.439 239.693 261.112 240.971C261.198 240.802 263.391 236.589 267.21 239.118C271.107 241.7 267.465 244.639 267.465 244.639C267.465 244.639 270.823 243.755 272.341 244.582C272.341 244.582 272.008 243.284 270.756 242.273C270.756 242.273 274.761 244.145 275.185 239.35C275.609 234.555 264.109 229.358 260.034 233.766C260.034 233.766 258.323 231.03 254.49 230.264C254.952 230.334 257.524 230.601 257.471 227.756C257.412 224.625 252.653 221.974 250.187 225.457L250.183 225.457Z" fill="url(#paint3_linear_0_791)"/>
<path style="mix-blend-mode:multiply" opacity="0.5" d="M189.571 166.405C192.246 166.646 194.283 170.141 194.368 170.286C194.351 170.166 194.086 168.157 196.923 167.129C199.849 166.071 204.751 170.038 204.394 171.975C204.036 173.913 201.614 173.493 201.614 173.493C203.555 175.577 202.378 178.53 202.378 178.53C202.378 178.53 204.137 178.274 207.56 180.017C210.983 181.76 211.27 186.96 211.27 186.96C207.291 189.966 206.979 193.481 206.979 193.481C211.91 191.646 214.509 196.834 214.509 196.834C216.517 194.349 219.824 194.739 219.824 194.739C221 193.601 222.939 194.106 222.939 194.106C222.939 194.106 223.16 192.269 224.551 190.967C222.536 194.63 226.038 198.51 226.038 198.51C224.119 197.185 220.109 197.024 217.139 198.848C214.389 200.539 215.381 202.366 215.539 202.626C215.371 202.417 214.265 201.107 211.886 200.649C209.297 200.154 206.636 203.025 206.636 203.025C206.636 203.025 206.037 201.057 203.646 200.035C201.252 199.011 199.272 200.037 199.272 200.037C199.272 200.037 197.816 196.572 194.777 198.34C191.742 200.108 194.313 202.19 194.313 202.19C192.641 202.549 191.388 201.538 191.388 201.538C188.757 199.239 190.502 196.368 190.502 196.368C187.648 197.486 184.573 195.451 184.534 192.796C184.498 190.189 187.13 189.2 187.236 189.161C182.425 188.569 181.511 182.582 181.511 182.582C181.511 182.582 178.845 185.213 176.264 185.08C171.526 180.963 177.404 175.489 177.404 175.489C177.404 175.489 174.855 175.653 172.727 173.59C170.6 171.527 173.684 168.774 173.684 168.774C170.333 168.865 167.725 164.402 170.255 161.482C172.785 158.561 175.938 160.428 175.938 160.428C178.027 161.262 178.963 162.876 178.963 162.876C184.32 154.535 190.955 160.417 191.377 162.814C191.734 164.822 189.569 166.407 189.569 166.407L189.571 166.405ZM190.159 173.705C184.609 176.178 191.119 181.792 191.119 181.792C191.119 181.792 187.302 186.09 193.056 188.366C193.056 188.366 191.505 185.301 194.46 182.784C197.416 180.267 200.241 181.18 200.241 181.18C200.241 181.18 195.712 171.231 190.161 173.706L190.159 173.705Z" fill="url(#paint4_linear_0_791)"/>
<path style="mix-blend-mode:multiply" opacity="0.5" d="M140.455 119.015C140.193 118.813 139.937 118.631 139.681 118.465C139.681 118.465 139.681 118.465 139.671 118.46C139.423 118.372 135.09 116.863 133.966 119.567C132.807 122.35 135.866 124.7 135.866 124.7C135.866 124.7 130.791 122.857 131.186 126.434C131.579 130.012 135.879 131.103 135.879 131.103C133.864 133.601 137.342 137.42 142.689 134.885C147.975 132.384 145.656 129.061 145.602 128.984C143.483 127.875 141.846 127.776 141.846 127.776C141.846 127.776 144.406 122.039 140.457 119.017L140.455 119.015Z" fill="url(#paint5_linear_0_791)"/>
<path style="mix-blend-mode:multiply" opacity="0.5" d="M112.481 78.7092C114.68 75.3444 120.74 78.5341 121.154 81.443C121.568 84.352 118.812 84.3469 118.812 84.3469C119.578 84.9677 120.225 85.6807 120.77 86.4205C120.77 86.4205 115.093 82.5343 111.679 85.2617C108.57 87.7499 111.712 89.7413 112.293 90.0708C111.888 89.8684 110.089 89.0968 106.808 89.7956C103.049 90.5983 103.783 93.1123 103.783 93.1123C100.461 91.4504 97.6526 97.0701 100.932 99.2112C104.213 101.35 107.603 98.4334 107.603 98.4334C103.373 104.101 107.318 107.416 107.318 107.416C104.943 107.506 103.016 105.471 103.016 105.471C103.016 105.471 102.003 111.858 97.6849 110.075C93.3628 108.292 92.9379 103.439 92.9379 103.439C92.9379 103.439 90.6987 104.822 88.4082 102.628C86.1218 100.434 87.173 96.1376 87.173 96.1376C85.697 95.7184 84.8945 94.8931 84.8945 94.8931C84.8945 94.8931 82.589 97.7464 79.9445 96.6366C77.3849 95.5594 77.1872 92.8572 77.1788 92.689C77.1788 92.689 77.1825 92.6847 77.1801 92.6788C77.8738 87.488 72.5643 85.3703 72.0185 85.1651C72.4003 85.2726 75.1048 85.9443 77.9945 83.6816C81.1204 81.2425 80.165 77.8587 80.165 77.8587C80.165 77.8587 83.6902 80.9061 89.0158 80.8743C94.3429 80.8364 95.2671 74.738 95.2671 74.738C96.9572 77.3759 96.9131 80.8597 96.9131 80.8597C99.5074 79.3581 101.308 79.2695 101.308 79.2695C95.8761 74.8747 100.212 69.2888 105.23 70.7786C110.248 72.2644 108.798 78.1261 108.798 78.1261C111.036 77.7112 112.478 78.7033 112.478 78.7033L112.481 78.7092ZM90.6674 94.5243C89.7681 96.497 91.1258 100.212 93.3928 99.994C95.3943 99.7996 95.7478 94.7921 95.1522 93.3944C94.5525 91.9969 91.5711 92.5554 90.6674 94.5243ZM99.8878 85.1051C97.9323 88.0981 102.929 88.9743 105.144 87.6444C106.928 86.572 108.996 83.3325 107.073 81.7691C106.03 80.9215 101.843 82.1121 99.8878 85.1051Z" fill="url(#paint6_linear_0_791)"/>
<path style="mix-blend-mode:multiply" opacity="0.5" d="M127.73 100.261C123.748 102.413 123.692 106.614 123.692 106.614C127.057 104.404 131.171 103.332 135.117 104.529C133.596 102.443 131.068 100.585 127.728 100.263L127.73 100.261Z" fill="url(#paint7_linear_0_791)"/>
<path style="mix-blend-mode:multiply" opacity="0.5" d="M119.678 100.77C119.678 100.77 114.732 103.323 115.445 108.585C115.445 108.585 113.171 110.402 111.659 113.991C111.659 113.991 111.657 113.997 111.655 113.999C111.612 114.153 110.874 116.78 112.786 117.88C112.956 117.98 113.126 118.045 113.301 118.092C113.301 118.092 111.274 115.755 113.71 112.738C116.147 109.72 118.341 109.431 118.341 109.431C118.341 109.431 114.423 106.144 119.678 100.774L119.678 100.77Z" fill="url(#paint8_linear_0_791)"/>
<path style="mix-blend-mode:multiply" opacity="0.5" d="M51.5957 36.6977C51.5957 36.6977 48.173 30.6659 44.0701 32.3236C44.0701 32.3236 47.1296 28.1074 43.2192 25.4587C39.3108 22.8119 32.196 23.9165 31.4568 30.1807C31.4568 30.1807 27.2994 26.3402 23.9607 30.4783C20.6162 34.6188 24.9227 38.2746 24.9227 38.2746C24.9227 38.2746 16.9721 38.7046 18.1782 45.343C19.0044 49.8878 23.4363 51.0769 26.9268 50.9531C26.544 50.8859 20.5756 49.768 23.0182 43.8397C25.5447 37.7149 33.9119 41.2636 33.9119 41.2636C33.7044 39.3797 36.8248 36.5867 40.3791 38.6036C43.9333 40.6205 41.4969 46.6329 41.4969 46.6329C46.8027 42.4012 52.107 46.1761 53.0031 46.8768C52.2987 46.2941 49.1784 43.3219 52.6999 38.9647C56.6393 34.0874 62.7513 38.183 62.7513 38.183C62.3465 37.6287 61.8601 37.112 61.2999 36.6585C58.0607 34.0359 53.2694 34.6193 51.5936 36.6958L51.5957 36.6977Z" fill="url(#paint9_linear_0_791)"/>
<path style="mix-blend-mode:multiply" opacity="0.5" d="M80.6155 60.0442C77.5832 59.3053 74.8374 62.062 76.4248 65.2325C76.4248 65.2325 73.0813 61.6692 68.6661 62.2138C68.6661 62.2138 69.0872 59.1239 66.013 58.0078C62.9388 56.8917 61.5569 57.3186 61.5569 57.3186C61.5569 57.3186 61.3728 53.2493 59.1915 50.0677C59.1915 50.0677 58.8767 58.923 50.7589 59.5611C42.7909 60.1873 38.4312 55.3057 38.2689 55.1234C38.7641 56.5725 39.9328 58.7573 42.6388 60.1973C42.6388 60.1973 37.4913 61.0074 37.7777 66.218C37.9256 68.9266 39.7076 69.6152 41.3829 69.6495L44.377 69.1644L44.3869 69.1618C44.3869 69.1618 48.9428 63.0928 53.9053 64.8665C58.8697 66.638 59.8476 70.3493 56.3493 73.1818C52.8511 76.0143 46.9303 75.856 46.9303 75.856C46.9303 75.856 42.0501 79.1155 44.6832 83.1318C44.6832 83.1318 40.2508 84.6688 41.7613 90.064C41.7884 89.8591 42.3326 86.0675 47.0118 85.0149C51.8192 83.9276 55.3266 90.7151 55.3266 90.7151C55.3266 90.7151 57.9796 93.2061 61.1215 91.4567C61.1215 91.4567 56.9887 89.7269 58.2245 85.2C59.4603 80.673 66.1145 79.7093 66.1145 79.7093C66.1145 79.7093 61.461 76.4857 63.7314 72.8174C66.0017 69.1491 74.2633 71.5455 74.2633 71.5455C74.2633 71.5455 72.0438 67.8739 74.517 66.9507C76.9902 66.0276 79.151 68.0604 79.151 68.0604C79.151 68.0604 76.3456 63.6172 80.6171 60.038L80.6155 60.0442Z" fill="url(#paint10_linear_0_791)"/>
<defs>
<linearGradient id="paint0_linear_0_791" x1="343.302" y1="310.431" x2="21.1207" y2="35.0549" gradientUnits="userSpaceOnUse">
<stop stop-color="#B4C8AA"/>
<stop offset="0.91" stop-color="#DDD8DC"/>
<stop offset="1" stop-color="white"/>
</linearGradient>
<linearGradient id="paint1_linear_0_791" x1="75.047" y1="100.04" x2="355.055" y2="306.076" gradientUnits="userSpaceOnUse">
<stop stop-color="white"/>
<stop offset="1" stop-color="#84CE78"/>
</linearGradient>
<linearGradient id="paint2_linear_0_791" x1="326.994" y1="273.648" x2="311.879" y2="291.726" gradientUnits="userSpaceOnUse">
<stop stop-color="white"/>
<stop offset="1" stop-color="#78CE81"/>
</linearGradient>
<linearGradient id="paint3_linear_0_791" x1="256.01" y1="214.293" x2="240.885" y2="232.381" gradientUnits="userSpaceOnUse">
<stop stop-color="white"/>
<stop offset="1" stop-color="#78CE7B"/>
</linearGradient>
<linearGradient id="paint4_linear_0_791" x1="205.081" y1="171.723" x2="189.952" y2="189.817" gradientUnits="userSpaceOnUse">
<stop stop-color="white"/>
<stop offset="1" stop-color="#78CE81"/>
</linearGradient>
<linearGradient id="paint5_linear_0_791" x1="130.517" y1="142.058" x2="143.852" y2="119.303" gradientUnits="userSpaceOnUse">
<stop stop-color="white"/>
<stop offset="1" stop-color="#7FCE78"/>
</linearGradient>
<linearGradient id="paint6_linear_0_791" x1="116.763" y1="57.4236" x2="90.2896" y2="95.2672" gradientUnits="userSpaceOnUse">
<stop stop-color="white"/>
<stop offset="1" stop-color="#7ACE78"/>
</linearGradient>
<linearGradient id="paint7_linear_0_791" x1="125.99" y1="108.506" x2="131.923" y2="101.412" gradientUnits="userSpaceOnUse">
<stop stop-color="white"/>
<stop offset="1" stop-color="#84CE78"/>
</linearGradient>
<linearGradient id="paint8_linear_0_791" x1="122.456" y1="105.053" x2="107.516" y2="116.029" gradientUnits="userSpaceOnUse">
<stop stop-color="white"/>
<stop offset="1" stop-color="#84CE78"/>
</linearGradient>
<linearGradient id="paint9_linear_0_791" x1="55.7382" y1="22.1598" x2="26.5082" y2="50.9224" gradientUnits="userSpaceOnUse">
<stop stop-color="white"/>
<stop offset="1" stop-color="#7FCE78"/>
</linearGradient>
<linearGradient id="paint10_linear_0_791" x1="78.3367" y1="45.1732" x2="49.1029" y2="73.9435" gradientUnits="userSpaceOnUse">
<stop stop-color="white"/>
<stop offset="1" stop-color="#78CE7B"/>
</linearGradient>
</defs>
</svg>
