<svg width="369" height="409" viewBox="0 0 369 409" fill="none" xmlns="http://www.w3.org/2000/svg">
<path style="mix-blend-mode:screen" opacity="0.2" d="M390.369 61.7574C390.369 61.7574 392.792 59.9385 397.1 62.6207C401.408 65.3029 402.988 70.7478 402.988 70.7478C402.988 70.7478 406.728 62.5919 415.398 68.303C424.066 74.0185 419.297 85.6438 415.096 85.0146C415.096 85.0146 418.427 87.439 416.365 93.016C414.304 98.5929 410.602 97.02 410.602 97.02C410.602 97.02 414.097 105.921 411.372 110.041C408.647 114.161 400.601 112.843 400.601 112.843C400.601 112.843 404.908 119.601 402.586 125.368C402.586 125.368 409.161 117.862 413.762 118.776C418.365 119.693 417.608 127.616 417.608 127.616C417.608 127.616 419.007 124.656 421.826 123.378C421.826 123.378 418.936 121.022 424.091 118.623C429.247 116.226 432.282 121.775 432.282 121.775C432.282 121.775 434.731 118.632 438.248 121.309C441.766 123.987 441.136 131.817 437.342 134.195C433.547 136.571 427.363 134.285 427.363 134.285C427.363 134.285 426.589 134.849 424.362 135.307C424.362 135.307 425.944 139.395 424.03 141.37C422.113 143.347 416.72 142.426 416.72 142.426C416.72 142.426 417.032 149.379 413.257 150.964C409.482 152.549 398.253 153.359 394.48 145.433C394.48 145.433 393.541 147.668 391.128 147.875C391.128 147.875 390.834 150.999 387.851 152.592C384.868 154.184 382.696 152.272 382.696 152.272C382.696 152.272 384.461 159.332 381.498 161.491C378.534 163.65 373.286 161.848 373.286 161.848C373.286 161.848 368.827 173.633 364.776 178.914C360.725 184.195 358.847 177.799 358.847 177.799C358.847 177.799 354.657 183.001 350.669 183.367C344.882 183.897 340.393 175.523 340.393 175.523C340.393 175.523 337.004 177.732 335.067 173.972C333.128 170.209 337.208 158.441 337.208 158.441C337.208 158.441 333.839 162.491 331.29 158.245C328.738 154.001 336.526 135.391 336.526 135.391C336.526 135.391 327.525 136.193 324.965 130.488C322.405 124.783 326.624 119.188 326.624 119.188C326.624 119.188 319.76 113.518 321.64 104.967C323.52 96.4169 329.911 90.0154 329.911 90.0154C329.911 90.0154 324.942 84.5152 329.382 77.5942C333.823 70.6732 348.33 69.2246 348.33 69.2246C348.33 69.2246 346.656 65.0092 350.633 60.1715C350.633 60.1715 343.469 63.061 340.672 58.1135C337.874 53.166 343.364 47.4206 343.364 47.4206C343.364 47.4206 339.792 41.6775 342.723 38.3813C345.652 35.0826 349.739 36.3745 349.739 36.3745C349.739 36.3745 350.663 30.8011 353.193 31.3984C355.723 31.9958 361.448 38.5806 361.448 38.5806C361.448 38.5806 363.495 33.2044 367.832 36.156C372.168 39.1077 375.388 50.9357 375.388 50.9357C375.388 50.9357 379.345 49.088 381.342 51.5133C383.34 53.9385 381.681 60.708 381.681 60.708C381.681 60.708 388.033 55.1562 390.372 61.74L390.369 61.7574Z" fill="url(#paint0_linear_0_758)"/>
<path d="M302.874 231.524C305.263 227.889 307.641 223.791 307.641 223.791C307.641 223.791 312.901 222.663 317.521 219.299C322.141 215.936 326.837 206.727 326.837 206.727C326.837 206.727 327.495 212.233 335.588 207.709C343.681 203.185 348.03 191.88 346.949 190.932C345.867 189.983 344.347 190.318 344.347 190.318C348.857 187.612 356.211 171.26 354.214 170.395C352.215 169.533 347.194 175.313 347.194 175.313C348.553 169.885 354.952 160.592 354.952 160.592C356.125 167.075 365.71 161.639 370.166 151.833C374.623 142.028 370.099 140.925 370.099 140.925C374.726 137.029 388.101 118.701 387.261 111.593C386.421 104.484 383.084 106.913 383.084 106.913C383.084 106.913 386.072 100.931 387.241 95.0761C387.696 92.8032 387.876 90.5489 387.5 88.6681C386.159 81.9543 381.882 83.081 381.882 83.081C390.095 74.4007 382.007 67.7966 382.007 67.7966C382.007 67.7966 387.9 65.9607 390.714 61.4581C392.781 58.1407 388.345 49.8087 386.789 47.6626C385.233 45.5166 382.838 48.4302 382.838 48.4302C382.838 48.4302 382.886 46.063 382.215 43.8499C381.542 41.6387 380.207 44.2589 380.207 44.2589C377.805 39.0777 375.005 44.3648 374.918 44.527C375.011 42.989 374.675 40.5778 374.123 38.0389L374.121 38.0364C373.151 33.5682 371.518 28.7083 370.402 27.5526C368.646 25.7423 366.965 32.7556 366.965 32.7556C366.965 32.7556 364.235 26.8292 359.897 25.9826C355.561 25.1386 355.984 37.0799 355.984 37.0799C353.069 34.9544 348.69 37.5645 349.163 48.2231C349.245 50.0821 349.61 51.7239 350.158 53.1672C352.751 59.9953 359.423 62.3726 359.423 62.3726C354.803 65.7358 353.28 71.4758 353.28 71.4758C353.28 71.4758 348.935 72.5149 346.652 74.7736C344.369 77.0322 347.231 79.356 347.231 79.356C347.231 79.356 341.383 84.0008 341.766 87.7715C342.15 91.5465 344.466 89.4725 344.466 89.4725C341.447 94.3721 341.888 97.402 341.888 97.402C336.368 97.6289 335.034 107.148 336.919 110.02C338.736 112.785 341.589 107.821 341.8 107.447C339.826 112.938 340.674 117.449 340.674 117.449C335.14 118.647 335.458 127.751 335.458 127.751C335.458 127.751 335.195 126.67 332.168 123.213C329.136 119.755 312.884 148.661 313.418 152.645C313.955 156.631 316.28 153.909 316.28 153.909C316.756 161.415 319.45 158.121 319.45 158.121C317.922 165.924 311.296 174.094 311.296 174.094C308.925 168.483 296.798 182.586 296.798 182.586C296.798 182.586 299.819 175.755 297.043 175.717C294.27 175.676 285.09 185.19 284.039 188.785C282.989 192.384 287.128 192.327 287.128 192.327C283.426 194.269 281.194 196.859 281.093 196.975C281.148 196.817 282.114 194.088 280.361 192.367C278.554 190.594 266.135 201.952 265.195 206.239C264.249 210.529 268.884 208.442 268.884 208.442C265.767 212.254 252.631 218.473 252.631 218.473L252.739 218.387L252.782 218.356C253.873 217.455 260.583 211.716 255.372 210.175C249.716 208.502 227.533 221.175 224.904 225.661C222.277 230.149 227.908 232.87 227.908 232.87C221.788 233.978 219.853 237.446 219.853 237.446C217.791 234.958 210.694 232.02 205.984 236.345C201.281 240.674 205.59 243.194 205.59 243.194C201.45 245.953 201.069 248.674 201.069 248.674C194.816 243.834 187.321 250.449 187.321 250.449C187.321 250.449 189.376 245.348 187.676 243.371C185.981 241.39 180.603 242.084 180.603 242.084C180.603 242.084 181.544 238.698 177.084 239.759C173.834 240.53 166.078 244.209 160.773 248.086C158.796 249.532 157.159 251.005 156.228 252.367C152.798 257.371 157.088 258.689 157.088 258.689C157.088 258.689 142.863 262.868 142.478 267.202C142.093 271.536 145.044 269.388 145.044 269.388C143.045 271.23 143.064 273.146 143.064 273.146C128.221 271.601 119.897 279.591 119.897 279.591C119.897 279.591 119.899 272.834 113.997 273.077C108.094 273.32 99.8835 275.243 97.0595 277.299C94.2356 279.355 97.0039 282.358 97.0039 282.358C87.3451 282.232 84.7356 286.164 84.615 286.355L84.61 286.358C76.8343 283.155 69.8944 285.054 65.6195 287.057C62.8224 288.367 61.1693 289.723 61.1693 289.723C57.037 283.225 46.3791 286.037 46.0562 286.124L46.0512 286.128C46.0512 286.128 42.6654 282.411 34.6251 281.057C26.5848 279.703 16.9427 286.593 16.9427 286.593C16.9427 286.593 -1.10564 282.901 1.0695 288.498C2.27819 291.607 8.88935 291.171 8.88935 291.171C8.88935 291.171 10.3924 294.325 12.491 294.34C14.5946 294.351 14.0559 292.171 14.0559 292.171C17.1118 292.777 21.0455 291.714 21.0455 291.714C21.1053 295.405 29.656 293.679 29.656 293.679C28.7388 301.425 44.1723 299.004 44.1723 299.004C44.1723 299.004 46.4253 302.382 52.9143 302.677C54.112 302.732 55.2914 302.645 56.4232 302.471C61.4301 301.691 65.4534 299.149 65.4534 299.149C69.4297 303.01 81.1228 300.481 81.1228 300.481C78.502 304.707 85.135 308.176 93.0171 306.879C100.897 305.58 109.093 300.389 109.093 300.389C112.224 302.547 122.127 295.919 122.127 295.919C122.953 304.744 140.146 300.742 148.428 296.772C149.472 296.27 150.377 295.771 151.084 295.298C156.991 291.358 153.426 289.125 152.909 288.836L152.878 288.821L152.848 288.805C156.588 289.365 161.811 285.753 161.811 285.753C160.545 287.787 161.311 289.513 164.154 289.943C164.765 290.034 165.476 290.068 166.281 290.029C170.826 289.809 179.827 285.186 181.002 282.207C182.176 279.228 179.132 277.196 179.132 277.196C179.132 277.196 192.403 273.326 195.354 271.178C198.304 269.03 197.482 266.539 197.482 266.539C200.598 264.077 201.278 260.687 201.278 260.687C203.311 259.979 205.366 257.134 205.366 257.134C210.093 257.165 213.394 252.254 213.394 252.254C213.397 252.275 213.398 252.297 213.399 252.319C213.402 252.351 213.406 252.382 213.41 252.414C213.415 252.448 213.42 252.482 213.428 252.519C213.546 253.162 214.116 254.745 216.802 254.788C220.175 254.841 225.178 251.198 225.178 251.198C225.178 251.198 222.116 254.005 224.352 256.818C226.587 259.629 232.141 256.745 232.141 256.745C233.698 262.948 240.312 265.853 249.644 259.253C253.265 256.69 256.398 253.527 258.87 250.614C262.765 246.027 265.028 242.07 265.028 242.07C265.028 242.07 266.823 244.817 270.746 245.628C274.668 246.439 282.038 240.108 282.038 240.108C283.044 246.903 295.969 236.338 295.969 236.338C295.969 236.338 296.572 238.794 299.01 236.632C299.938 235.808 301.411 233.748 302.881 231.512L302.874 231.524Z" fill="url(#paint1_linear_0_758)"/>
<path style="mix-blend-mode:multiply" opacity="0.5" d="M143.43 272.711C128.553 271.161 120.21 279.174 120.21 279.174C120.21 279.174 120.212 272.398 114.297 272.641C108.381 272.885 100.152 274.814 97.3216 276.875C94.4912 278.937 97.2658 281.95 97.2658 281.95C87.5854 281.823 84.9699 285.766 84.8491 285.957L84.8441 285.961C84.8441 285.961 86.6651 286.574 88.3348 288.067C88.3348 288.067 96.0869 284.934 98.9895 286.501C101.89 288.065 102.46 293.457 102.46 293.457C102.46 293.457 111.539 282.393 115.064 282.918C118.59 283.444 117.681 288.084 117.681 288.084C117.681 288.084 123.99 282.223 124.134 286.805C124.134 286.805 127.765 280.11 134.204 279.237C141.717 278.215 142.284 284.965 142.284 284.965C145.647 279.032 143.427 272.713 143.427 272.713L143.43 272.711Z" fill="url(#paint2_linear_0_758)"/>
<path style="mix-blend-mode:multiply" opacity="0.5" d="M179.463 277.202C179.463 277.202 192.783 273.314 195.744 271.156C198.706 268.999 197.881 266.497 197.881 266.497C197.881 266.497 193.565 265.699 197.271 258.866C197.271 258.866 188.59 261.763 186.884 257.836C185.179 253.91 187.681 250.339 187.681 250.339C187.681 250.339 189.744 245.215 188.038 243.229C186.337 241.24 180.938 241.936 180.938 241.936C180.938 241.936 181.883 238.535 177.407 239.601C174.144 240.375 166.359 244.071 161.035 247.965L161.037 247.967C161.037 247.967 170.052 242.762 173.675 246.133C177.299 249.503 173.423 255.43 173.423 255.43C173.423 255.43 179.725 249.869 181.269 254.171C182.813 258.473 177.441 264.91 172.785 267.722C172.785 267.722 176.924 268.003 174.238 271.899C171.55 275.796 164.579 278.936 164.579 278.936C164.579 278.936 171.256 280.277 169.452 284.305C167.648 288.332 164.427 290.008 164.427 290.008C165.04 290.099 165.753 290.133 166.562 290.093C171.123 289.873 180.158 285.229 181.337 282.237C182.516 279.245 179.461 277.204 179.461 277.204L179.463 277.202Z" fill="url(#paint3_linear_0_758)"/>
<path style="mix-blend-mode:multiply" opacity="0.5" d="M357.225 151.483C357.225 151.483 349.939 151.988 342.575 167.31C341.247 170.071 340.782 164.058 340.782 164.058C340.782 164.058 335.583 159.828 328.31 171.703C325.379 176.488 324.591 185.051 324.591 185.051C324.591 185.051 327.494 177.133 330.505 180.744C333.516 184.355 326.937 196.691 322.915 202.526C318.892 208.358 312.227 211.084 311.861 206.514C311.861 206.514 306.754 219.522 301.738 225.883C301.738 225.883 304.205 227.601 302.712 232.349C305.105 228.705 307.487 224.598 307.487 224.598C307.487 224.598 312.757 223.467 317.385 220.096C322.013 216.725 326.717 207.495 326.717 207.495C326.717 207.495 327.376 213.013 335.483 208.478C343.591 203.944 347.948 192.613 346.865 191.662C345.781 190.711 344.258 191.047 344.258 191.047C348.776 188.335 356.143 171.944 354.143 171.078C352.14 170.214 347.11 176.007 347.11 176.007C348.472 170.567 354.882 161.252 354.882 161.252C356.057 167.749 365.66 162.301 370.124 152.473C374.588 142.644 370.056 141.539 370.056 141.539C374.691 137.634 388.09 119.264 387.249 112.139C386.407 105.013 383.065 107.448 383.065 107.448C383.065 107.448 386.058 101.452 387.229 95.5836C387.229 95.5836 382.529 89.0026 378.587 91.8742C374.645 94.7458 378.464 98.9286 378.464 98.9286C378.464 98.9286 370.913 99.5354 369.679 103.519C369.675 103.274 369.47 93.7931 364.828 91.3205C360.129 88.8103 360.761 99.4395 360.761 99.4395C360.761 99.4395 354.583 96.9745 353.544 102.632C352.509 108.287 358.673 116.437 358.673 116.437C358.673 116.437 348.153 136.693 357.225 151.479L357.225 151.483Z" fill="url(#paint4_linear_0_758)"/>
<path style="mix-blend-mode:multiply" opacity="0.5" d="M373.158 38.1112C372.184 33.6229 370.545 28.7412 369.425 27.5802C367.662 25.7619 365.976 32.8067 365.976 32.8067C365.976 32.8067 363.235 26.8536 358.881 26.0033C354.529 25.1554 354.953 37.1505 354.953 37.1505C352.028 35.0154 347.633 37.6372 348.107 48.3438C348.19 50.2111 348.556 51.8603 349.106 53.3101C349.106 53.3101 349.876 44.9902 355.858 45.2848C361.844 45.5757 360.736 54.9162 360.736 54.9162C360.736 54.9162 361.715 53.6843 363.983 53.581C363.983 53.581 363.114 48.7833 366.013 47.7098C368.835 46.6607 370.538 50.4653 370.623 50.6517C370.612 50.267 370.201 36.4413 373.153 38.1149L373.158 38.1112Z" fill="url(#paint5_linear_0_758)"/>
<path style="mix-blend-mode:multiply" opacity="0.5" d="M357.516 79.9221C357.516 79.9221 358.108 73.3445 352.544 71.6993C352.544 71.6993 348.176 72.7446 345.881 75.017C350.141 72.4791 356.1 76.8797 357.516 79.9221Z" fill="url(#paint6_linear_0_758)"/>
<path style="mix-blend-mode:multiply" opacity="0.5" d="M259.249 250.995L259.248 250.992C259.248 250.992 261.731 244.025 253.759 244.919C254.269 244.762 263.985 241.776 267.518 236.433C271.15 230.945 249.413 237.125 249.413 237.125C249.413 237.125 252.489 224.797 240.334 234.374C231.918 241.005 229.757 245.322 229.757 245.322C229.928 240.513 220.099 237.774 220.099 237.774C218.029 235.276 210.908 232.326 206.183 236.669C201.464 241.016 205.787 243.546 205.787 243.546C209.749 244.67 210.958 242.084 210.958 242.084C210.958 242.084 209.576 247.413 213.621 252.633C213.625 252.654 213.625 252.676 213.626 252.699C213.63 252.73 213.633 252.762 213.637 252.794C213.642 252.828 213.648 252.862 213.655 252.899C213.774 253.544 214.346 255.135 217.041 255.178C220.425 255.231 225.445 251.573 225.445 251.573C225.445 251.573 222.372 254.391 224.617 257.216C226.859 260.039 232.431 257.142 232.431 257.142C233.994 263.371 240.63 266.288 249.993 259.661C253.626 257.087 256.77 253.911 259.251 250.986L259.249 250.995Z" fill="url(#paint7_linear_0_758)"/>
<path style="mix-blend-mode:screen" opacity="0.8" d="M30.1955 290.457C30.1955 290.457 22.93 290.875 24.9305 285.734C24.9305 285.734 23.1216 287.052 22.199 285.779C21.2764 284.506 22.8469 283.492 22.8469 283.492C22.8469 283.492 22.8415 285.571 27.135 283.868C27.135 283.868 25.4005 286.56 26.9735 288.006C28.5464 289.453 30.1981 290.455 30.1981 290.455L30.1955 290.457Z" fill="url(#paint8_linear_0_758)"/>
<path style="mix-blend-mode:screen" opacity="0.8" d="M52.6015 299.022C51.7272 299.268 46.0029 298.773 45.2564 292.317C45.2564 292.317 40.7682 295.586 37.5953 293.749C34.4224 291.912 35.7766 287.427 35.7766 287.427C35.7766 287.427 36.8799 292.456 41.4206 291.613C45.9614 290.77 48.4101 290.15 48.4101 290.15C48.4101 290.15 46.9098 292.62 48.6151 295.703C50.3229 298.783 52.5989 299.024 52.5989 299.024L52.6015 299.022Z" fill="url(#paint9_linear_0_758)"/>
<path style="mix-blend-mode:screen" opacity="0.8" d="M90.5783 304.56C90.5783 304.56 83.6656 305.551 84.848 296.653C84.848 296.653 79.6088 299.952 78.3402 296.207C77.076 292.463 79.3608 289.08 79.3608 289.08C79.3608 289.08 78.5552 293.85 80.5527 295.116C82.5501 296.382 88.3286 294.374 88.3286 294.374C88.3286 294.374 86.7307 297.616 88.4636 298.554C90.1982 299.495 94.1533 299.323 94.1533 299.323C94.1533 299.323 89.7004 302.529 90.5783 304.56Z" fill="url(#paint10_linear_0_758)"/>
<path style="mix-blend-mode:screen" opacity="0.8" d="M133.498 298.131C134.194 298.394 126.035 299.548 125.548 295.107C125.061 290.665 127.743 287.284 127.743 287.284C127.743 287.284 126.597 295.51 133.498 298.131Z" fill="url(#paint11_linear_0_758)"/>
<path style="mix-blend-mode:screen" opacity="0.8" d="M144.258 295.649C144.258 295.649 140.641 296.678 139.071 294.19C137.422 291.577 138.858 289.562 138.858 289.562C138.858 289.562 136.653 291.605 134.523 289.938C132.724 288.529 132.71 284.894 132.71 284.894C132.71 284.894 134.147 287.869 136.506 288.494C137.444 288.742 141.123 286.886 141.123 286.886C141.123 286.886 140.019 289.44 140.937 292.092C141.826 294.666 144.258 295.649 144.258 295.649Z" fill="url(#paint12_linear_0_758)"/>
<path style="mix-blend-mode:screen" opacity="0.8" d="M154.186 277.863C154.186 277.863 148.897 277.474 149.318 272.237C149.318 272.237 146.891 271.797 147.681 268.889C147.681 268.889 149.066 271.707 152.339 270.588C152.339 270.588 149.921 275.613 154.187 277.866L154.186 277.863Z" fill="url(#paint13_linear_0_758)"/>
<path style="mix-blend-mode:screen" opacity="0.8" d="M165.376 270.677C165.376 270.677 161.225 272.389 160.515 270.317C159.803 268.247 161.674 265.567 161.674 265.567C161.674 265.567 158.648 267.596 157.774 266.646C156.899 265.696 161.304 261.064 161.304 261.064C161.304 261.064 159.153 259.912 159.853 257.975C159.853 257.975 161.499 260.792 164.352 260.01C164.352 260.01 160.573 262.778 162.789 264.201C162.789 264.201 161.158 268.847 165.378 270.679L165.376 270.677Z" fill="url(#paint14_linear_0_758)"/>
<path style="mix-blend-mode:multiply" opacity="0.5" d="M287.266 193.12C287.266 193.12 293.406 188.483 295.788 193.303C298.17 198.123 296.515 200.827 296.515 200.827C296.515 200.827 302.049 198.869 303.649 200.178C305.249 201.486 304.956 204.274 304.956 204.274C304.956 204.274 302.845 200.477 297.419 202.793C291.995 205.111 291.038 205.72 291.038 205.72C291.038 205.72 295.494 194.408 287.271 193.121L287.266 193.12Z" fill="url(#paint15_linear_0_758)"/>
<path style="mix-blend-mode:multiply" opacity="0.5" d="M336.306 138.531C336.306 138.531 340.912 137.396 343.668 142.133C343.668 142.133 345.284 136.504 341.565 134.84C337.845 133.177 336.405 134.175 336.405 134.175C336.405 134.175 337.497 127.479 334.139 127.725C334.139 127.725 335.929 129.529 334.417 133.654C334.417 133.654 336.601 134.654 336.308 138.534L336.306 138.531Z" fill="url(#paint16_linear_0_758)"/>
<path style="mix-blend-mode:multiply" opacity="0.5" d="M358.747 62.5775C358.747 62.5775 364.214 59.0176 367.412 63.6602C370.609 68.3029 369.476 72.3305 369.476 72.3305C369.476 72.3305 366.833 62.76 358.747 62.5775Z" fill="url(#paint17_linear_0_758)"/>
<defs>
<linearGradient id="paint0_linear_0_758" x1="324.946" y1="51.1494" x2="403.455" y2="158.908" gradientUnits="userSpaceOnUse">
<stop stop-color="#7DE587"/>
<stop offset="1" stop-color="#A2FF81"/>
</linearGradient>
<linearGradient id="paint1_linear_0_758" x1="406.483" y1="89.0773" x2="27.117" y2="293.047" gradientUnits="userSpaceOnUse">
<stop stop-color="#CAC7D4"/>
<stop offset="1" stop-color="#E3DDE0"/>
</linearGradient>
<linearGradient id="paint2_linear_0_758" x1="115.815" y1="300.695" x2="111.85" y2="253.988" gradientUnits="userSpaceOnUse">
<stop stop-color="white"/>
<stop offset="1" stop-color="#78CE7B"/>
</linearGradient>
<linearGradient id="paint3_linear_0_758" x1="144.22" y1="247.393" x2="198.754" y2="280.769" gradientUnits="userSpaceOnUse">
<stop stop-color="white"/>
<stop offset="1" stop-color="#7FCE78"/>
</linearGradient>
<linearGradient id="paint4_linear_0_758" x1="301.702" y1="146.962" x2="382.74" y2="177.97" gradientUnits="userSpaceOnUse">
<stop stop-color="white"/>
<stop offset="1" stop-color="#7FCE78"/>
</linearGradient>
<linearGradient id="paint5_linear_0_758" x1="364.645" y1="64.0905" x2="356.574" y2="26.0161" gradientUnits="userSpaceOnUse">
<stop stop-color="white"/>
<stop offset="1" stop-color="#78CE7B"/>
</linearGradient>
<linearGradient id="paint6_linear_0_758" x1="361.686" y1="82.9352" x2="352.249" y2="75.3484" gradientUnits="userSpaceOnUse">
<stop stop-color="white"/>
<stop offset="1" stop-color="#7FCE78"/>
</linearGradient>
<linearGradient id="paint7_linear_0_758" x1="226.202" y1="225.671" x2="251.476" y2="258.415" gradientUnits="userSpaceOnUse">
<stop stop-color="white"/>
<stop offset="1" stop-color="#7ACE78"/>
</linearGradient>
<linearGradient id="paint8_linear_0_758" x1="23.4048" y1="283.082" x2="29.2682" y2="291.132" gradientUnits="userSpaceOnUse">
<stop stop-color="#FFFCF5"/>
<stop offset="1" stop-color="#E6DBDB"/>
</linearGradient>
<linearGradient id="paint9_linear_0_758" x1="38.2203" y1="285.647" x2="49.5707" y2="301.23" gradientUnits="userSpaceOnUse">
<stop stop-color="#FFFCF5"/>
<stop offset="1" stop-color="#E6DBDB"/>
</linearGradient>
<linearGradient id="paint10_linear_0_758" x1="79.6888" y1="288.841" x2="90.9445" y2="304.294" gradientUnits="userSpaceOnUse">
<stop stop-color="#FFFCF5"/>
<stop offset="1" stop-color="#E6DBDB"/>
</linearGradient>
<linearGradient id="paint11_linear_0_758" x1="125.002" y1="289.281" x2="132.197" y2="299.159" gradientUnits="userSpaceOnUse">
<stop stop-color="#FFFCF5"/>
<stop offset="1" stop-color="#E6DBDB"/>
</linearGradient>
<linearGradient id="paint12_linear_0_758" x1="134.342" y1="283.705" x2="143.462" y2="296.228" gradientUnits="userSpaceOnUse">
<stop stop-color="#FFFCF5"/>
<stop offset="1" stop-color="#E6DBDB"/>
</linearGradient>
<linearGradient id="paint13_linear_0_758" x1="147.99" y1="268.66" x2="154.516" y2="277.622" gradientUnits="userSpaceOnUse">
<stop stop-color="#FFFCF5"/>
<stop offset="1" stop-color="#E6DBDB"/>
</linearGradient>
<linearGradient id="paint14_linear_0_758" x1="158.105" y1="259.248" x2="166.065" y2="270.175" gradientUnits="userSpaceOnUse">
<stop stop-color="#FFFCF5"/>
<stop offset="1" stop-color="#E6DBDB"/>
</linearGradient>
<linearGradient id="paint15_linear_0_758" x1="271.896" y1="220.105" x2="317.115" y2="180.071" gradientUnits="userSpaceOnUse">
<stop stop-color="white"/>
<stop offset="1" stop-color="#94CE78"/>
</linearGradient>
<linearGradient id="paint16_linear_0_758" x1="367.317" y1="124.276" x2="344.691" y2="132.483" gradientUnits="userSpaceOnUse">
<stop stop-color="white"/>
<stop offset="1" stop-color="#7ACE78"/>
</linearGradient>
<linearGradient id="paint17_linear_0_758" x1="357.53" y1="74.4914" x2="370.199" y2="60.8295" gradientUnits="userSpaceOnUse">
<stop stop-color="white"/>
<stop offset="1" stop-color="#84CE78"/>
</linearGradient>
</defs>
</svg>
